<svg width="900px" height="900px" version="1.1" onload="init(evt)" xmlns="http://www.w3.org/2000/svg" xmlns:xlink="http://www.w3.org/1999/xlink">
  <g id="ideograms">
    <path d="M 450.000,197.625 A252.375,252.375 0.000 0,1 467.751,198.250 L 473.027,123.436 A327.375,327.375 0.000 0,0 450.000,122.625 Z " style="stroke: none;   fill: rgb(53,100,153); " class="N7"/>
    <text x="465.4" y="113.0" font-size="9.1px" font-family="'CMUBright-Roman'" style="text-anchor:start;fill:rgb(0,0,0)" transform="rotate(272.0,465.4,113.0)" class="N7"></text>
    <path d="M 468.053,198.271 A252.375,252.375 0.000 0,1 485.714,200.165 L 496.327,125.919 A327.375,327.375 0.000 0,0 473.417,123.464 Z " style="stroke: none;   fill: rgb(53,100,153); " class="N286"/>
    <text x="489.4" y="114.9" font-size="9.1px" font-family="'CMUBright-Roman'" style="text-anchor:start;fill:rgb(0,0,0)" transform="rotate(276.1,489.4,114.9)" class="N286"></text>
    <path d="M 486.013,200.208 A252.375,252.375 0.000 0,1 503.493,203.359 L 519.390,130.064 A327.375,327.375 0.000 0,0 496.715,125.975 Z " style="stroke: none;   fill: rgb(53,100,153); " class="N282"/>
    <text x="513.3" y="118.6" font-size="9.1px" font-family="'CMUBright-Roman'" style="text-anchor:start;fill:rgb(0,0,0)" transform="rotate(280.2,513.3,118.6)" class="N282"></text>
    <path d="M 503.788,203.424 A252.375,252.375 0.000 0,1 520.999,207.818 L 542.098,135.847 A327.375,327.375 0.000 0,0 519.773,130.147 Z " style="stroke: none;   fill: rgb(53,100,153); " class="N276"/>
    <text x="536.8" y="124.0" font-size="9.1px" font-family="'CMUBright-Roman'" style="text-anchor:start;fill:rgb(0,0,0)" transform="rotate(284.3,536.8,124.0)" class="N276"></text>
    <path d="M 521.288,207.903 A252.375,252.375 0.000 0,1 538.141,213.517 L 564.334,143.239 A327.375,327.375 0.000 0,0 542.474,135.957 Z " style="stroke: none;   fill: rgb(53,100,153); " class="N278"/>
    <text x="559.9" y="131.0" font-size="9.1px" font-family="'CMUBright-Roman'" style="text-anchor:start;fill:rgb(0,0,0)" transform="rotate(288.4,559.9,131.0)" class="N278"></text>
    <path d="M 538.423,213.622 A252.375,252.375 0.000 0,1 554.831,220.427 L 585.984,152.203 A327.375,327.375 0.000 0,0 564.701,143.376 Z " style="stroke: none;   fill: rgb(53,100,153); " class="N283"/>
    <text x="582.5" y="139.7" font-size="9.1px" font-family="'CMUBright-Roman'" style="text-anchor:start;fill:rgb(0,0,0)" transform="rotate(292.5,582.5,139.7)" class="N283"></text>
    <path d="M 555.105,220.553 A252.375,252.375 0.000 0,1 570.984,228.514 L 606.937,162.693 A327.375,327.375 0.000 0,0 586.340,152.366 Z " style="stroke: none;   fill: rgb(53,100,153); " class="N274"/>
    <text x="604.3" y="150.0" font-size="9.1px" font-family="'CMUBright-Roman'" style="text-anchor:start;fill:rgb(0,0,0)" transform="rotate(296.6,604.3,150.0)" class="N274"></text>
    <path d="M 571.249,228.659 A252.375,252.375 0.000 0,1 586.517,237.735 L 627.087,174.655 A327.375,327.375 0.000 0,0 607.281,162.881 Z " style="stroke: none;   fill: rgb(53,100,153); " class="N271"/>
    <text x="625.4" y="161.8" font-size="9.1px" font-family="'CMUBright-Roman'" style="text-anchor:start;fill:rgb(0,0,0)" transform="rotate(300.7,625.4,161.8)" class="N271"></text>
    <path d="M 586.771,237.899 A252.375,252.375 0.000 0,1 601.351,248.044 L 646.329,188.028 A327.375,327.375 0.000 0,0 627.416,174.867 Z " style="stroke: none;   fill: rgb(53,100,153); " class="N60"/>
    <text x="645.6" y="175.1" font-size="9.1px" font-family="'CMUBright-Roman'" style="text-anchor:start;fill:rgb(0,0,0)" transform="rotate(304.8,645.6,175.1)" class="N60"></text>
    <path d="M 601.592,248.225 A252.375,252.375 0.000 0,1 615.409,259.388 L 664.565,202.742 A327.375,327.375 0.000 0,0 646.642,188.263 Z " style="stroke: none;   fill: rgb(53,100,153); " class="N17"/>
    <text x="664.7" y="189.8" font-size="9.1px" font-family="'CMUBright-Roman'" style="text-anchor:start;fill:rgb(0,0,0)" transform="rotate(308.9,664.7,189.8)" class="N17"></text>
    <path d="M 615.637,259.586 A252.375,252.375 0.000 0,1 628.620,271.708 L 681.702,218.724 A327.375,327.375 0.000 0,0 664.860,202.999 Z " style="stroke: none;   fill: rgb(53,100,153); " class="N280"/>
    <text x="682.8" y="205.8" font-size="9.1px" font-family="'CMUBright-Roman'" style="text-anchor:start;fill:rgb(0,0,0)" transform="rotate(313.0,682.8,205.8)" class="N280"></text>
    <path d="M 628.833,271.922 A252.375,252.375 0.000 0,1 640.916,284.942 L 697.652,235.890 A327.375,327.375 0.000 0,0 681.978,219.001 Z " style="stroke: none;   fill: rgb(53,100,153); " class="N285"/>
    <text x="699.7" y="223.1" font-size="9.1px" font-family="'CMUBright-Roman'" style="text-anchor:start;fill:rgb(0,0,0)" transform="rotate(317.1,699.7,223.1)" class="N285"></text>
    <path d="M 641.113,285.170 A252.375,252.375 0.000 0,1 652.234,299.021 L 712.333,254.153 A327.375,327.375 0.000 0,0 697.908,236.186 Z " style="stroke: none;   fill: rgb(53,100,153); " class="N284"/>
    <text x="715.3" y="241.5" font-size="9.1px" font-family="'CMUBright-Roman'" style="text-anchor:start;fill:rgb(0,0,0)" transform="rotate(321.2,715.3,241.5)" class="N284"></text>
    <path d="M 652.414,299.263 A252.375,252.375 0.000 0,1 662.515,313.874 L 725.670,273.420 A327.375,327.375 0.000 0,0 712.567,254.467 Z " style="stroke: none;   fill: rgb(53,100,153); " class="N273"/>
    <text x="729.5" y="261.0" font-size="9.1px" font-family="'CMUBright-Roman'" style="text-anchor:start;fill:rgb(0,0,0)" transform="rotate(325.3,729.5,261.0)" class="N273"></text>
    <path d="M 662.678,314.128 A252.375,252.375 0.000 0,1 671.708,329.424 L 737.595,293.591 A327.375,327.375 0.000 0,0 725.881,273.750 Z " style="stroke: none;   fill: rgb(53,100,153); " class="N281"/>
    <text x="742.3" y="281.5" font-size="9.1px" font-family="'CMUBright-Roman'" style="text-anchor:start;fill:rgb(0,0,0)" transform="rotate(329.4,742.3,281.5)" class="N281"></text>
    <path d="M 671.852,329.689 A252.375,252.375 0.000 0,1 679.765,345.592 L 748.046,314.564 A327.375,327.375 0.000 0,0 737.782,293.935 Z " style="stroke: none;   fill: rgb(53,100,153); " class="N270"/>
    <text x="753.6" y="302.8" font-size="9.1px" font-family="'CMUBright-Roman'" style="text-anchor:start;fill:rgb(0,0,0)" transform="rotate(333.5,753.6,302.8)" class="N270"></text>
    <path d="M 679.890,345.866 A252.375,252.375 0.000 0,1 686.645,362.294 L 756.970,336.230 A327.375,327.375 0.000 0,0 748.208,314.920 Z " style="stroke: none;   fill: rgb(53,100,153); " class="N268"/>
    <text x="763.3" y="324.9" font-size="9.1px" font-family="'CMUBright-Roman'" style="text-anchor:start;fill:rgb(0,0,0)" transform="rotate(337.6,763.3,324.9)" class="N268"></text>
    <path d="M 686.750,362.577 A252.375,252.375 0.000 0,1 692.312,379.446 L 764.322,358.480 A327.375,327.375 0.000 0,0 757.106,336.598 Z " style="stroke: none;   fill: rgb(53,100,153); " class="N79"/>
    <text x="771.5" y="347.7" font-size="9.1px" font-family="'CMUBright-Roman'" style="text-anchor:start;fill:rgb(0,0,0)" transform="rotate(341.7,771.5,347.7)" class="N79"></text>
    <path d="M 692.397,379.736 A252.375,252.375 0.000 0,1 696.739,396.960 L 770.064,381.198 A327.375,327.375 0.000 0,0 764.431,358.856 Z " style="stroke: none;   fill: rgb(53,100,153); " class="N11"/>
    <text x="778.0" y="370.9" font-size="9.1px" font-family="'CMUBright-Roman'" style="text-anchor:start;fill:rgb(0,0,0)" transform="rotate(345.9,778.0,370.9)" class="N11"></text>
    <path d="M 696.802,397.255 A252.375,252.375 0.000 0,1 699.900,414.745 L 774.165,404.268 A327.375,327.375 0.000 0,0 770.146,381.581 Z " style="stroke: none;   fill: rgb(53,100,153); " class="N100"/>
    <text x="782.8" y="394.6" font-size="9.1px" font-family="'CMUBright-Roman'" style="text-anchor:start;fill:rgb(0,0,0)" transform="rotate(350.0,782.8,394.6)" class="N100"></text>
    <path d="M 699.942,415.044 A252.375,252.375 0.000 0,1 701.782,432.711 L 776.606,427.573 A327.375,327.375 0.000 0,0 774.220,404.656 Z " style="stroke: none;   fill: rgb(53,100,153); " class="N102"/>
    <text x="785.9" y="418.5" font-size="9.1px" font-family="'CMUBright-Roman'" style="text-anchor:start;fill:rgb(0,0,0)" transform="rotate(354.1,785.9,418.5)" class="N102"></text>
    <path d="M 701.803,433.012 A252.375,252.375 0.000 0,1 702.374,450.766 L 777.373,450.993 A327.375,327.375 0.000 0,0 776.633,427.964 Z " style="stroke: none;   fill: rgb(53,100,153); " class="N277"/>
    <text x="787.3" y="442.6" font-size="9.1px" font-family="'CMUBright-Roman'" style="text-anchor:start;fill:rgb(0,0,0)" transform="rotate(358.2,787.3,442.6)" class="N277"></text>
    <path d="M 702.373,451.068 A252.375,252.375 0.000 0,1 701.673,468.816 L 776.464,474.408 A327.375,327.375 0.000 0,0 777.372,451.385 Z " style="stroke: none;   fill: rgb(53,100,153); " class="N269"/>
    <text x="787.0" y="466.8" font-size="9.1px" font-family="'CMUBright-Roman'" style="text-anchor:start;fill:rgb(0,0,0)" transform="rotate(2.3,787.0,466.8)" class="N269"></text>
    <path d="M 701.650,469.117 A252.375,252.375 0.000 0,1 699.682,486.771 L 773.882,497.698 A327.375,327.375 0.000 0,0 776.434,474.799 Z " style="stroke: none;   fill: rgb(53,100,153); " class="N275"/>
    <text x="784.9" y="490.9" font-size="9.1px" font-family="'CMUBright-Roman'" style="text-anchor:start;fill:rgb(0,0,0)" transform="rotate(6.4,784.9,490.9)" class="N275"></text>
    <path d="M 699.638,487.069 A252.375,252.375 0.000 0,1 696.412,504.536 L 769.640,520.743 A327.375,327.375 0.000 0,0 773.824,498.085 Z " style="stroke: none;   fill: rgb(53,100,153); " class="N279"/>
    <text x="781.1" y="514.7" font-size="9.1px" font-family="'CMUBright-Roman'" style="text-anchor:start;fill:rgb(0,0,0)" transform="rotate(10.5,781.1,514.7)" class="N279"></text>
    <path d="M 696.347,504.831 A252.375,252.375 0.000 0,1 691.880,522.023 L 763.761,543.426 A327.375,327.375 0.000 0,0 769.555,521.126 Z " style="stroke: none;   fill: rgb(53,100,153); " class="N272"/>
    <text x="775.6" y="538.2" font-size="9.1px" font-family="'CMUBright-Roman'" style="text-anchor:start;fill:rgb(0,0,0)" transform="rotate(14.6,775.6,538.2)" class="N272"></text>
    <path d="M 691.794,522.312 A252.375,252.375 0.000 0,1 686.108,539.140 L 756.274,565.631 A327.375,327.375 0.000 0,0 763.649,543.802 Z " style="stroke: none;   fill: rgb(53,100,153); " class="N152"/>
    <text x="768.5" y="561.3" font-size="9.1px" font-family="'CMUBright-Roman'" style="text-anchor:start;fill:rgb(0,0,0)" transform="rotate(18.7,768.5,561.3)" class="N152"></text>
    <path d="M 695.470,543.010 A262.500,262.500 0.000 0,1 692.754,549.884 L 762.112,578.423 A337.500,337.500 0.000 0,0 765.604,569.584 Z " style="stroke: none;   fill: rgb(179,186,212); " class="C3"/>
    <text x="771.9" y="580.9" font-size="9.1px" font-family="'CMUBright-Roman'" style="text-anchor:start;fill:rgb(0,0,0)" transform="rotate(21.6,771.9,580.9)" class="C3"></text>
    <path d="M 692.634,550.174 A262.500,262.500 0.000 0,1 687.405,562.004 L 755.235,594.005 A337.500,337.500 0.000 0,0 761.958,578.796 Z " style="stroke: none;   fill: rgb(179,186,212); " class="C4"/>
    <text x="766.4" y="593.7" font-size="9.1px" font-family="'CMUBright-Roman'" style="text-anchor:start;fill:rgb(0,0,0)" transform="rotate(23.8,766.4,593.7)" class="C4"></text>
    <path d="M 687.271,562.288 A262.500,262.500 0.000 0,1 684.847,567.273 L 751.946,600.780 A337.500,337.500 0.000 0,0 755.063,594.370 Z " style="stroke: none;   fill: rgb(179,186,212); " class="C6"/>
    <text x="761.0" y="605.1" font-size="9.1px" font-family="'CMUBright-Roman'" style="text-anchor:start;fill:rgb(0,0,0)" transform="rotate(25.9,761.0,605.1)" class="C6"></text>
    <path d="M 684.707,567.554 A262.500,262.500 0.000 0,1 682.172,572.484 L 748.507,607.479 A337.500,337.500 0.000 0,0 751.766,601.141 Z " style="stroke: none;   fill: rgb(179,186,212); " class="C5"/>
    <text x="757.4" y="612.0" font-size="9.1px" font-family="'CMUBright-Roman'" style="text-anchor:start;fill:rgb(0,0,0)" transform="rotate(27.2,757.4,612.0)" class="C5"></text>
    <path d="M 682.026,572.761 A262.500,262.500 0.000 0,1 676.635,582.449 L 741.388,620.292 A337.500,337.500 0.000 0,0 748.319,607.836 Z " style="stroke: none;   fill: rgb(179,186,212); " class="C7"/>
    <text x="751.9" y="622.0" font-size="9.1px" font-family="'CMUBright-Roman'" style="text-anchor:start;fill:rgb(0,0,0)" transform="rotate(29.1,751.9,622.0)" class="C7"></text>
    <path d="M 676.477,582.720 A262.500,262.500 0.000 0,1 666.581,598.321 L 728.461,640.698 A337.500,337.500 0.000 0,0 741.184,620.640 Z " style="stroke: none;   fill: rgb(179,186,212); " class="C8"/>
    <text x="741.6" y="639.1" font-size="9.1px" font-family="'CMUBright-Roman'" style="text-anchor:start;fill:rgb(0,0,0)" transform="rotate(32.4,741.6,639.1)" class="C8"></text>
    <path d="M 666.403,598.580 A262.500,262.500 0.000 0,1 663.217,603.116 L 724.136,646.864 A337.500,337.500 0.000 0,0 728.233,641.031 Z " style="stroke: none;   fill: rgb(179,186,212); " class="C9"/>
    <text x="732.4" y="652.6" font-size="9.1px" font-family="'CMUBright-Roman'" style="text-anchor:start;fill:rgb(0,0,0)" transform="rotate(35.1,732.4,652.6)" class="C9"></text>
    <path d="M 663.034,603.371 A262.500,262.500 0.000 0,1 646.909,623.588 L 703.169,673.185 A337.500,337.500 0.000 0,0 723.901,647.191 Z " style="stroke: none;   fill: rgb(179,186,212); " class="C10"/>
    <text x="719.5" y="669.4" font-size="9.1px" font-family="'CMUBright-Roman'" style="text-anchor:start;fill:rgb(0,0,0)" transform="rotate(38.6,719.5,669.4)" class="C10"></text>
    <path d="M 646.702,623.823 A262.500,262.500 0.000 0,1 631.334,639.800 L 683.144,694.029 A337.500,337.500 0.000 0,0 702.902,673.487 Z " style="stroke: none;   fill: rgb(179,186,212); " class="C11"/>
    <text x="698.0" y="693.4" font-size="9.1px" font-family="'CMUBright-Roman'" style="text-anchor:start;fill:rgb(0,0,0)" transform="rotate(43.9,698.0,693.4)" class="C11"></text>
    <path d="M 631.107,640.017 A262.500,262.500 0.000 0,1 593.497,669.806 L 634.497,732.608 A337.500,337.500 0.000 0,0 682.852,694.307 Z " style="stroke: none;   fill: rgb(179,186,212); " class="C12"/>
    <text x="663.0" y="724.6" font-size="9.1px" font-family="'CMUBright-Roman'" style="text-anchor:start;fill:rgb(0,0,0)" transform="rotate(51.6,663.0,724.6)" class="C12"></text>
    <path d="M 593.235,669.977 A262.500,262.500 0.000 0,1 588.557,672.953 L 628.145,736.654 A337.500,337.500 0.000 0,0 634.159,732.828 Z " style="stroke: none;   fill: rgb(179,186,212); " class="C13"/>
    <text x="633.6" y="745.1" font-size="9.1px" font-family="'CMUBright-Roman'" style="text-anchor:start;fill:rgb(0,0,0)" transform="rotate(57.5,633.6,745.1)" class="C13"></text>
    <path d="M 588.291,673.118 A262.500,262.500 0.000 0,1 575.513,680.549 L 611.374,746.420 A337.500,337.500 0.000 0,0 627.803,736.867 Z " style="stroke: none;   fill: rgb(179,186,212); " class="C14"/>
    <text x="621.6" y="752.1" font-size="9.1px" font-family="'CMUBright-Roman'" style="text-anchor:start;fill:rgb(0,0,0)" transform="rotate(59.8,621.6,752.1)" class="C14"></text>
    <path d="M 575.237,680.699 A262.500,262.500 0.000 0,1 555.326,690.443 L 585.419,759.141 A337.500,337.500 0.000 0,0 611.020,746.612 Z " style="stroke: none;   fill: rgb(179,186,212); " class="C15"/>
    <text x="599.6" y="763.7" font-size="9.1px" font-family="'CMUBright-Roman'" style="text-anchor:start;fill:rgb(0,0,0)" transform="rotate(63.9,599.6,763.7)" class="C15"></text>
    <path d="M 555.038,690.568 A262.500,262.500 0.000 0,1 544.787,694.789 L 571.869,764.729 A337.500,337.500 0.000 0,0 585.049,759.302 Z " style="stroke: none;   fill: rgb(179,186,212); " class="C16"/>
    <text x="579.1" y="772.6" font-size="9.1px" font-family="'CMUBright-Roman'" style="text-anchor:start;fill:rgb(0,0,0)" transform="rotate(67.6,579.1,772.6)" class="C16"></text>
    <path d="M 544.494,694.902 A262.500,262.500 0.000 0,1 537.562,697.466 L 562.579,768.170 A337.500,337.500 0.000 0,0 571.492,764.874 Z " style="stroke: none;   fill: rgb(179,186,212); " class="C17"/>
    <text x="567.2" y="777.1" font-size="9.1px" font-family="'CMUBright-Roman'" style="text-anchor:start;fill:rgb(0,0,0)" transform="rotate(69.7,567.2,777.1)" class="C17"></text>
    <path d="M 537.266,697.570 A262.500,262.500 0.000 0,1 532.018,699.358 L 555.452,770.603 A337.500,337.500 0.000 0,0 562.199,768.304 Z " style="stroke: none;   fill: rgb(179,186,212); " class="C18"/>
    <text x="558.7" y="780.0" font-size="9.1px" font-family="'CMUBright-Roman'" style="text-anchor:start;fill:rgb(0,0,0)" transform="rotate(71.2,558.7,780.0)" class="C18"></text>
    <path d="M 531.720,699.455 A262.500,262.500 0.000 0,1 486.783,709.910 L 497.292,784.170 A337.500,337.500 0.000 0,0 555.069,770.728 Z " style="stroke: none;   fill: rgb(179,186,212); " class="C19"/>
    <text x="525.3" y="789.2" font-size="9.1px" font-family="'CMUBright-Roman'" style="text-anchor:start;fill:rgb(0,0,0)" transform="rotate(76.9,525.3,789.2)" class="C19"></text>
    <path d="M 485.065,699.927 A252.375,252.375 0.000 0,1 449.647,702.375 L 449.542,777.375 A327.375,327.375 0.000 0,0 495.486,774.200 Z " style="stroke: none;   fill: rgb(157,55,110); " class="E231"/>
    <text x="469.8" y="786.8" font-size="9.1px" font-family="'CMUBright-Roman'" style="text-anchor:start;fill:rgb(0,0,0)" transform="rotate(86.0,469.8,786.8)" class="E231"></text>
    <path d="M 449.345,702.374 A252.375,252.375 0.000 0,1 413.937,699.785 L 403.219,774.015 A327.375,327.375 0.000 0,0 449.150,777.374 Z " style="stroke: none;   fill: rgb(157,55,110); " class="E230"/>
    <text x="428.9" y="786.7" font-size="9.1px" font-family="'CMUBright-Roman'" style="text-anchor:end;fill:rgb(0,0,0)" transform="rotate(-85.8,428.9,786.7)" class="E230"></text>
    <path d="M 413.638,699.742 A252.375,252.375 0.000 0,1 378.952,692.168 L 357.838,764.135 A327.375,327.375 0.000 0,0 402.832,773.959 Z " style="stroke: none;   fill: rgb(157,55,110); " class="E229"/>
    <text x="381.5" y="780.3" font-size="9.1px" font-family="'CMUBright-Roman'" style="text-anchor:end;fill:rgb(0,0,0)" transform="rotate(-77.7,381.5,780.3)" class="E229"></text>
    <path d="M 378.662,692.083 A252.375,252.375 0.000 0,1 345.398,679.677 L 314.312,747.932 A327.375,327.375 0.000 0,0 357.463,764.024 Z " style="stroke: none;   fill: rgb(157,55,110); " class="E228"/>
    <text x="335.4" y="767.3" font-size="9.1px" font-family="'CMUBright-Roman'" style="text-anchor:end;fill:rgb(0,0,0)" transform="rotate(-69.5,335.4,767.3)" class="E228"></text>
    <path d="M 345.123,679.552 A252.375,252.375 0.000 0,1 313.948,662.563 L 273.517,725.732 A327.375,327.375 0.000 0,0 313.956,747.769 Z " style="stroke: none;   fill: rgb(157,55,110); " class="E227"/>
    <text x="291.6" y="747.9" font-size="9.1px" font-family="'CMUBright-Roman'" style="text-anchor:end;fill:rgb(0,0,0)" transform="rotate(-61.4,291.6,747.9)" class="E227"></text>
    <path d="M 313.694,662.400 A252.375,252.375 0.000 0,1 285.237,641.171 L 236.274,697.983 A327.375,327.375 0.000 0,0 273.187,725.521 Z " style="stroke: none;   fill: rgb(157,55,110); " class="E226"/>
    <text x="251.1" y="722.5" font-size="9.1px" font-family="'CMUBright-Roman'" style="text-anchor:end;fill:rgb(0,0,0)" transform="rotate(-53.3,251.1,722.5)" class="E226"></text>
    <path d="M 285.009,640.974 A252.375,252.375 0.000 0,1 259.843,615.932 L 203.332,665.243 A327.375,327.375 0.000 0,0 235.977,697.727 Z " style="stroke: none;   fill: rgb(157,55,110); " class="E225"/>
    <text x="214.5" y="691.6" font-size="9.1px" font-family="'CMUBright-Roman'" style="text-anchor:end;fill:rgb(0,0,0)" transform="rotate(-45.1,214.5,691.6)" class="E225"></text>
    <path d="M 259.644,615.704 A252.375,252.375 0.000 0,1 238.275,587.352 L 175.355,628.170 A327.375,327.375 0.000 0,0 203.075,664.947 Z " style="stroke: none;   fill: rgb(157,55,110); " class="E224"/>
    <text x="182.7" y="655.8" font-size="9.1px" font-family="'CMUBright-Roman'" style="text-anchor:end;fill:rgb(0,0,0)" transform="rotate(-37.0,182.7,655.8)" class="E224"></text>
    <path d="M 238.111,587.099 A252.375,252.375 0.000 0,1 220.969,556.009 L 152.906,587.512 A327.375,327.375 0.000 0,0 175.142,627.842 Z " style="stroke: none;   fill: rgb(157,55,110); " class="E223"/>
    <text x="156.3" y="616.0" font-size="9.1px" font-family="'CMUBright-Roman'" style="text-anchor:end;fill:rgb(0,0,0)" transform="rotate(-28.9,156.3,616.0)" class="E223"></text>
    <path d="M 220.842,555.735 A252.375,252.375 0.000 0,1 208.272,522.531 L 136.436,544.086 A327.375,327.375 0.000 0,0 152.742,587.156 Z " style="stroke: none;   fill: rgb(157,55,110); " class="E222"/>
    <text x="135.7" y="572.7" font-size="9.1px" font-family="'CMUBright-Roman'" style="text-anchor:end;fill:rgb(0,0,0)" transform="rotate(-20.7,135.7,572.7)" class="E222"></text>
    <path d="M 208.186,522.242 A252.375,252.375 0.000 0,1 200.441,487.594 L 126.278,498.766 A327.375,327.375 0.000 0,0 136.324,543.711 Z " style="stroke: none;   fill: rgb(157,55,110); " class="E221"/>
    <text x="121.5" y="527.0" font-size="9.1px" font-family="'CMUBright-Roman'" style="text-anchor:end;fill:rgb(0,0,0)" transform="rotate(-12.6,121.5,527.0)" class="E221"></text>
    <path d="M 200.396,487.296 A252.375,252.375 0.000 0,1 197.632,451.900 L 122.634,452.465 A327.375,327.375 0.000 0,0 126.219,498.379 Z " style="stroke: none;   fill: rgb(157,55,110); " class="E220"/>
    <text x="113.9" y="479.8" font-size="9.1px" font-family="'CMUBright-Roman'" style="text-anchor:end;fill:rgb(0,0,0)" transform="rotate(-4.5,113.9,479.8)" class="E220"></text>
    <path d="M 197.630,451.599 A252.375,252.375 0.000 0,1 199.903,416.168 L 125.580,406.114 A327.375,327.375 0.000 0,0 122.632,452.074 Z " style="stroke: none;   fill: rgb(157,55,110); " class="E219"/>
    <text x="113.1" y="431.9" font-size="9.1px" font-family="'CMUBright-Roman'" style="text-anchor:end;fill:rgb(0,0,0)" transform="rotate(3.7,113.1,431.9)" class="E219"></text>
    <path d="M 199.944,415.869 A252.375,252.375 0.000 0,1 207.207,381.117 L 135.055,360.647 A327.375,327.375 0.000 0,0 125.633,405.726 Z " style="stroke: none;   fill: rgb(157,55,110); " class="E218"/>
    <text x="119.1" y="384.4" font-size="9.1px" font-family="'CMUBright-Roman'" style="text-anchor:end;fill:rgb(0,0,0)" transform="rotate(11.8,119.1,384.4)" class="E218"></text>
    <path d="M 207.290,380.827 A252.375,252.375 0.000 0,1 219.398,347.453 L 150.869,316.978 A327.375,327.375 0.000 0,0 135.162,360.270 Z " style="stroke: none;   fill: rgb(157,55,110); " class="E217"/>
    <text x="131.7" y="338.2" font-size="9.1px" font-family="'CMUBright-Roman'" style="text-anchor:end;fill:rgb(0,0,0)" transform="rotate(19.9,131.7,338.2)" class="E217"></text>
    <path d="M 210.275,343.052 A262.500,262.500 0.000 0,1 219.266,324.827 L 153.342,289.064 A337.500,337.500 0.000 0,0 141.782,312.495 Z " style="stroke: none;   fill: rgb(179,186,212); " class="C21"/>
    <text x="136.8" y="299.4" font-size="9.1px" font-family="'CMUBright-Roman'" style="text-anchor:end;fill:rgb(0,0,0)" transform="rotate(26.3,136.8,299.4)" class="C21"></text>
    <path d="M 219.416,324.552 A262.500,262.500 0.000 0,1 223.039,318.110 L 158.193,280.427 A337.500,337.500 0.000 0,0 153.535,288.709 Z " style="stroke: none;   fill: rgb(179,186,212); " class="C22"/>
    <text x="145.4" y="282.7" font-size="9.1px" font-family="'CMUBright-Roman'" style="text-anchor:end;fill:rgb(0,0,0)" transform="rotate(29.4,145.4,282.7)" class="C22"></text>
    <path d="M 223.197,317.838 A262.500,262.500 0.000 0,1 242.847,288.774 L 183.660,242.709 A337.500,337.500 0.000 0,0 158.396,280.078 Z " style="stroke: none;   fill: rgb(179,186,212); " class="C23"/>
    <text x="160.2" y="258.3" font-size="9.1px" font-family="'CMUBright-Roman'" style="text-anchor:end;fill:rgb(0,0,0)" transform="rotate(34.1,160.2,258.3)" class="C23"></text>
    <path d="M 243.040,288.526 A262.500,262.500 0.000 0,1 245.334,285.629 L 186.858,238.665 A337.500,337.500 0.000 0,0 183.908,242.391 Z " style="stroke: none;   fill: rgb(179,186,212); " class="C25"/>
    <text x="175.4" y="237.1" font-size="9.1px" font-family="'CMUBright-Roman'" style="text-anchor:end;fill:rgb(0,0,0)" transform="rotate(38.4,175.4,237.1)" class="C25"></text>
    <path d="M 253.417,291.734 A252.375,252.375 0.000 0,1 260.275,283.574 L 203.893,234.116 A327.375,327.375 0.000 0,0 194.997,244.701 Z " style="stroke: none;   fill: rgb(179,186,212); " class="C24"/>
    <text x="189.5" y="235.6" font-size="9.1px" font-family="'CMUBright-Roman'" style="text-anchor:end;fill:rgb(0,0,0)" transform="rotate(40.0,189.5,235.6)" class="C24"></text>
    <path d="M 252.870,276.662 A262.500,262.500 0.000 0,1 256.575,272.537 L 201.311,221.834 A337.500,337.500 0.000 0,0 196.548,227.136 Z " style="stroke: none;   fill: rgb(179,186,212); " class="C27"/>
    <text x="189.1" y="220.4" font-size="9.1px" font-family="'CMUBright-Roman'" style="text-anchor:end;fill:rgb(0,0,0)" transform="rotate(41.9,189.1,220.4)" class="C27"></text>
    <path d="M 256.787,272.306 A262.500,262.500 0.000 0,1 305.961,230.548 L 264.808,167.848 A337.500,337.500 0.000 0,0 201.583,221.537 Z " style="stroke: none;   fill: rgb(179,186,212); " class="C26"/>
    <text x="222.4" y="187.4" font-size="9.1px" font-family="'CMUBright-Roman'" style="text-anchor:end;fill:rgb(0,0,0)" transform="rotate(49.7,222.4,187.4)" class="C26"></text>
    <path d="M 306.224,230.376 A262.500,262.500 0.000 0,1 445.677,187.536 L 444.442,112.546 A337.500,337.500 0.000 0,0 265.145,167.626 Z " style="stroke: none;   fill: rgb(179,186,212); " class="C2"/>
    <text x="344.6" y="118.9" font-size="9.1px" font-family="'CMUBright-Roman'" style="text-anchor:end;fill:rgb(0,0,0)" transform="rotate(72.9,344.6,118.9)" class="C2"></text>
    <path d="M 445.991,187.531 A262.500,262.500 0.000 0,1 449.686,187.500 L 449.597,112.500 A337.500,337.500 0.000 0,0 444.845,112.539 Z " style="stroke: none;   fill: rgb(179,186,212); " class="C1"/>
    <text x="443.6" y="102.6" font-size="9.1px" font-family="'CMUBright-Roman'" style="text-anchor:end;fill:rgb(0,0,0)" transform="rotate(89.5,443.6,102.6)" class="C1"></text>
  </g>
  <g id="E218">
    <path d="M 688.461,474.885 A 239.756,239.756 0.00 0,1 688.1,478.2 Q 455.1,437.8 263.2,299.6 A 239.756,239.756 0.00 0,1 269.8,291.9 Q 455.8,436.7 688.5,474.9 Z" style="stroke-width: 1.0;  stroke: rgb(180,180,180); fill: rgb(222,220,70);" opacity="0.5"/>
  </g>
  <g id="E218">
    <path d="M 212.446,417.576 A 239.756,239.756 0.00 0,1 219.3,384.6 Q 449.0,434.2 671.1,357.3 A 239.756,239.756 0.00 0,1 672.4,360.4 Q 448.5,437.8 212.4,417.6 Z" style="stroke-width: 1.0;  stroke: rgb(180,180,180); fill: rgb(143,147,64);" opacity="0.8"/>
    <path d="M 382.229,679.979 A 239.756,239.756 0.00 0,1 350.6,668.2 Q 463.7,476.0 686.1,491.9 A 239.756,239.756 0.00 0,1 685.5,495.2 Q 466.8,477.5 382.2,680.0 Z" style="stroke-width: 1.0;  stroke: rgb(180,180,180); fill: rgb(222,220,70);" opacity="0.5"/>
    <path d="M 269.162,607.419 A 239.756,239.756 0.00 0,1 248.9,580.5 Q 453.7,465.5 688.5,474.9 A 239.756,239.756 0.00 0,1 688.1,478.2 Q 455.7,468.6 269.2,607.4 Z" style="stroke-width: 1.0;  stroke: rgb(180,180,180); fill: rgb(222,220,70);" opacity="0.5"/>
    <path d="M 220.276,518.630 A 239.756,239.756 0.00 0,1 212.9,485.7 Q 427.0,429.6 456.8,210.3 A 239.756,239.756 0.00 0,1 460.1,210.5 Q 428.0,432.9 220.3,518.6 Z" style="stroke-width: 1.0;  stroke: rgb(180,180,180); fill: rgb(222,220,70);" opacity="0.5"/>
    <path d="M 248.705,580.244 A 239.756,239.756 0.00 0,1 232.4,550.7 Q 428.9,436.1 456.8,210.3 A 239.756,239.756 0.00 0,1 460.1,210.5 Q 430.9,439.1 248.7,580.2 Z" style="stroke-width: 1.0;  stroke: rgb(180,180,180); fill: rgb(222,220,70);" opacity="0.5"/>
    <path d="M 320.509,651.780 A 239.756,239.756 0.00 0,1 293.5,631.6 Q 435.0,444.2 456.8,210.3 A 239.756,239.756 0.00 0,1 460.1,210.5 Q 438.1,446.2 320.5,651.8 Z" style="stroke-width: 1.0;  stroke: rgb(180,180,180); fill: rgb(222,220,70);" opacity="0.5"/>
    <path d="M 293.258,631.425 A 239.756,239.756 0.00 0,1 269.4,607.6 Q 437.7,442.5 507.7,217.3 A 239.756,239.756 0.00 0,1 510.9,218.1 Q 440.4,445.0 293.3,631.4 Z" style="stroke-width: 1.0;  stroke: rgb(180,180,180); fill: rgb(222,220,70);" opacity="0.5"/>
    <path d="M 210.249,451.519 A 239.756,239.756 0.00 0,1 212.4,417.9 Q 450.2,447.6 689.6,457.8 A 239.756,239.756 0.00 0,1 689.5,461.1 Q 450.0,451.3 210.2,451.5 Z" style="stroke-width: 1.0;  stroke: rgb(180,180,180); fill: rgb(222,220,70);" opacity="0.5"/>
    <path d="M 212.876,485.431 A 239.756,239.756 0.00 0,1 210.3,451.8 Q 441.0,431.4 599.4,262.4 A 239.756,239.756 0.00 0,1 602.0,264.6 Q 441.5,435.0 212.9,485.4 Z" style="stroke-width: 1.0;  stroke: rgb(180,180,180); fill: rgb(222,220,70);" opacity="0.5"/>
    <path d="M 350.367,668.074 A 239.756,239.756 0.00 0,1 320.8,651.9 Q 444.5,447.4 524.2,222.0 A 239.756,239.756 0.00 0,1 527.4,223.1 Q 447.8,449.1 350.4,668.1 Z" style="stroke-width: 1.0;  stroke: rgb(180,180,180); fill: rgb(222,220,70);" opacity="0.5"/>
    <path d="M 483.312,687.431 A 239.756,239.756 0.00 0,1 449.7,689.8 Q 452.4,450.1 473.9,211.4 A 239.756,239.756 0.00 0,1 477.2,211.8 Q 456.1,449.9 483.3,687.4 Z" style="stroke-width: 1.0;  stroke: rgb(180,180,180); fill: rgb(222,220,70);" opacity="0.5"/>
    <path d="M 415.456,687.255 A 239.756,239.756 0.00 0,1 382.5,680.1 Q 461.8,457.9 635.9,298.6 A 239.756,239.756 0.00 0,1 638.0,301.2 Q 465.3,458.8 415.5,687.3 Z" style="stroke-width: 1.0;  stroke: rgb(180,180,180); fill: rgb(222,220,70);" opacity="0.5"/>
    <path d="M 232.300,550.448 A 239.756,239.756 0.00 0,1 220.4,518.9 Q 446.7,443.1 646.2,312.3 A 239.756,239.756 0.00 0,1 648.2,315.0 Q 448.0,446.5 232.3,550.4 Z" style="stroke-width: 1.0;  stroke: rgb(180,180,180); fill: rgb(222,220,70);" opacity="0.5"/>
    <path d="M 449.378,689.755 A 239.756,239.756 0.00 0,1 415.7,687.3 Q 464.0,457.3 624.6,285.7 A 239.756,239.756 0.00 0,1 626.9,288.2 Q 467.6,457.8 449.4,689.8 Z" style="stroke-width: 1.0;  stroke: rgb(180,180,180); fill: rgb(222,220,70);" opacity="0.5"/>
    <path d="M 219.425,384.286 A 239.756,239.756 0.00 0,1 230.9,352.6 Q 443.0,421.5 599.4,262.4 A 239.756,239.756 0.00 0,1 602.0,264.6 Q 442.1,424.9 219.4,384.3 Z" style="stroke-width: 1.0;  stroke: rgb(180,180,180); fill: rgb(222,220,70);" opacity="0.5"/>
  </g>
  <g id="E218">
    <path d="M 507.674,217.284 A 239.756,239.756 0.00 0,1 510.9,218.1 Q 479.9,429.3 688.5,474.9 A 239.756,239.756 0.00 0,1 688.1,478.2 Q 479.6,429.6 507.7,217.3 Z" style="stroke-width: 1.0;  stroke: rgb(180,180,180); fill: rgb(222,220,70);" opacity="0.5"/>
    <path d="M 635.894,298.585 A 239.756,239.756 0.00 0,1 638.0,301.2 Q 472.9,411.5 490.9,213.8 A 239.756,239.756 0.00 0,1 494.2,214.4 Q 473.0,411.3 635.9,298.6 Z" style="stroke-width: 1.0;  stroke: rgb(180,180,180); fill: rgb(222,220,70);" opacity="0.5"/>
    <path d="M 655.598,326.661 A 239.756,239.756 0.00 0,1 657.3,329.6 Q 490.4,424.2 646.2,312.3 A 239.756,239.756 0.00 0,1 648.2,315.0 Q 490.4,424.2 655.6,326.7 Z" style="stroke-width: 1.0;  stroke: rgb(180,180,180); fill: rgb(222,220,70);" opacity="0.5"/>
    <path d="M 473.876,211.436 A 239.756,239.756 0.00 0,1 477.2,211.8 Q 474.1,415.3 663.9,341.7 A 239.756,239.756 0.00 0,1 665.4,344.7 Q 473.9,415.6 473.9,211.4 Z" style="stroke-width: 1.0;  stroke: rgb(180,180,180); fill: rgb(222,220,70);" opacity="0.5"/>
    <path d="M 646.249,312.270 A 239.756,239.756 0.00 0,1 648.2,315.0 Q 483.4,416.7 585.6,252.2 A 239.756,239.756 0.00 0,1 588.3,254.2 Q 483.5,416.6 646.2,312.3 Z" style="stroke-width: 1.0;  stroke: rgb(180,180,180); fill: rgb(222,220,70);" opacity="0.5"/>
    <path d="M 490.880,213.755 A 239.756,239.756 0.00 0,1 494.2,214.4 Q 460.2,403.2 507.7,217.3 A 239.756,239.756 0.00 0,1 510.9,218.1 Q 460.2,403.2 490.9,213.8 Z" style="stroke-width: 1.0;  stroke: rgb(180,180,180); fill: rgb(222,220,70);" opacity="0.5"/>
    <path d="M 524.173,222.006 A 239.756,239.756 0.00 0,1 527.4,223.1 Q 481.7,426.4 689.6,440.6 A 239.756,239.756 0.00 0,1 689.7,444.0 Q 481.4,426.6 524.2,222.0 Z" style="stroke-width: 1.0;  stroke: rgb(180,180,180); fill: rgb(222,220,70);" opacity="0.5"/>
    <path d="M 689.631,457.764 A 239.756,239.756 0.00 0,1 689.5,461.1 Q 496.7,458.6 677.7,525.1 A 239.756,239.756 0.00 0,1 676.6,528.3 Q 496.6,458.6 689.6,457.8 Z" style="stroke-width: 1.0;  stroke: rgb(180,180,180); fill: rgb(222,220,70);" opacity="0.5"/>
    <path d="M 635.894,298.585 A 239.756,239.756 0.00 0,1 638.0,301.2 Q 489.4,422.8 655.6,326.7 A 239.756,239.756 0.00 0,1 657.3,329.6 Q 489.3,422.8 635.9,298.6 Z" style="stroke-width: 1.0;  stroke: rgb(180,180,180); fill: rgb(222,220,70);" opacity="0.5"/>
    <path d="M 540.291,227.895 A 239.756,239.756 0.00 0,1 543.4,229.2 Q 482.9,432.1 686.1,491.9 A 239.756,239.756 0.00 0,1 685.5,495.2 Q 482.6,432.3 540.3,227.9 Z" style="stroke-width: 1.0;  stroke: rgb(180,180,180); fill: rgb(222,220,70);" opacity="0.5"/>
    <path d="M 688.461,474.885 A 239.756,239.756 0.00 0,1 688.1,478.2 Q 484.4,431.3 555.9,234.9 A 239.756,239.756 0.00 0,1 559.0,236.4 Q 484.7,431.1 688.5,474.9 Z" style="stroke-width: 1.0;  stroke: rgb(180,180,180); fill: rgb(222,220,70);" opacity="0.5"/>
    <path d="M 689.572,440.603 A 239.756,239.756 0.00 0,1 689.7,444.0 Q 496.7,441.7 677.2,373.3 A 239.756,239.756 0.00 0,1 678.2,376.5 Q 496.8,441.7 689.6,440.6 Z" style="stroke-width: 1.0;  stroke: rgb(180,180,180); fill: rgb(222,220,70);" opacity="0.5"/>
    <path d="M 473.876,211.436 A 239.756,239.756 0.00 0,1 477.2,211.8 Q 470.2,409.7 624.6,285.7 A 239.756,239.756 0.00 0,1 626.9,288.2 Q 470.1,410.0 473.9,211.4 Z" style="stroke-width: 1.0;  stroke: rgb(180,180,180); fill: rgb(222,220,70);" opacity="0.5"/>
    <path d="M 686.070,491.879 A 239.756,239.756 0.00 0,1 685.5,495.2 Q 481.0,431.7 524.2,222.0 A 239.756,239.756 0.00 0,1 527.4,223.1 Q 481.3,431.5 686.1,491.9 Z" style="stroke-width: 1.0;  stroke: rgb(180,180,180); fill: rgb(222,220,70);" opacity="0.5"/>
    <path d="M 677.679,525.136 A 239.756,239.756 0.00 0,1 676.6,528.3 Q 487.6,439.1 599.4,262.4 A 239.756,239.756 0.00 0,1 602.0,264.6 Q 488.0,439.0 677.7,525.1 Z" style="stroke-width: 1.0;  stroke: rgb(180,180,180); fill: rgb(222,220,70);" opacity="0.5"/>
    <path d="M 663.894,341.684 A 239.756,239.756 0.00 0,1 665.4,344.7 Q 495.4,436.8 688.3,423.5 A 239.756,239.756 0.00 0,1 688.6,426.8 Q 495.3,436.9 663.9,341.7 Z" style="stroke-width: 1.0;  stroke: rgb(180,180,180); fill: rgb(222,220,70);" opacity="0.5"/>
    <path d="M 635.894,298.585 A 239.756,239.756 0.00 0,1 638.0,301.2 Q 477.8,412.9 540.3,227.9 A 239.756,239.756 0.00 0,1 543.4,229.2 Q 477.9,412.8 635.9,298.6 Z" style="stroke-width: 1.0;  stroke: rgb(180,180,180); fill: rgb(222,220,70);" opacity="0.5"/>
    <path d="M 624.587,285.676 A 239.756,239.756 0.00 0,1 626.9,288.2 Q 490.9,439.7 682.5,508.7 A 239.756,239.756 0.00 0,1 681.6,511.9 Q 490.6,439.8 624.6,285.7 Z" style="stroke-width: 1.0;  stroke: rgb(180,180,180); fill: rgb(222,220,70);" opacity="0.5"/>
    <path d="M 507.674,217.284 A 239.756,239.756 0.00 0,1 510.9,218.1 Q 469.6,407.0 585.6,252.2 A 239.756,239.756 0.00 0,1 588.3,254.2 Q 469.6,407.1 507.7,217.3 Z" style="stroke-width: 1.0;  stroke: rgb(180,180,180); fill: rgb(222,220,70);" opacity="0.5"/>
    <path d="M 686.070,491.879 A 239.756,239.756 0.00 0,1 685.5,495.2 Q 487.1,434.7 585.6,252.2 A 239.756,239.756 0.00 0,1 588.3,254.2 Q 487.4,434.6 686.1,491.9 Z" style="stroke-width: 1.0;  stroke: rgb(180,180,180); fill: rgb(222,220,70);" opacity="0.5"/>
    <path d="M 624.587,285.676 A 239.756,239.756 0.00 0,1 626.9,288.2 Q 486.3,418.7 635.9,298.6 A 239.756,239.756 0.00 0,1 638.0,301.2 Q 486.3,418.7 624.6,285.7 Z" style="stroke-width: 1.0;  stroke: rgb(180,180,180); fill: rgb(222,220,70);" opacity="0.5"/>
    <path d="M 689.572,440.603 A 239.756,239.756 0.00 0,1 689.7,444.0 Q 474.6,425.4 456.8,210.3 A 239.756,239.756 0.00 0,1 460.1,210.5 Q 475.0,425.1 689.6,440.6 Z" style="stroke-width: 1.0;  stroke: rgb(180,180,180); fill: rgb(222,220,70);" opacity="0.5"/>
    <path d="M 677.679,525.136 A 239.756,239.756 0.00 0,1 676.6,528.3 Q 496.2,453.5 685.8,406.5 A 239.756,239.756 0.00 0,1 686.4,409.8 Q 496.4,453.5 677.7,525.1 Z" style="stroke-width: 1.0;  stroke: rgb(180,180,180); fill: rgb(222,220,70);" opacity="0.5"/>
    <path d="M 555.947,234.923 A 239.756,239.756 0.00 0,1 559.0,236.4 Q 461.6,404.7 456.8,210.3 A 239.756,239.756 0.00 0,1 460.1,210.5 Q 461.6,404.5 555.9,234.9 Z" style="stroke-width: 1.0;  stroke: rgb(180,180,180); fill: rgb(222,220,70);" opacity="0.5"/>
    <path d="M 555.947,234.923 A 239.756,239.756 0.00 0,1 559.0,236.4 Q 484.1,422.6 682.1,389.8 A 239.756,239.756 0.00 0,1 682.9,393.0 Q 483.9,422.8 555.9,234.9 Z" style="stroke-width: 1.0;  stroke: rgb(180,180,180); fill: rgb(222,220,70);" opacity="0.5"/>
    <path d="M 682.470,508.658 A 239.756,239.756 0.00 0,1 681.6,511.9 Q 488.1,437.4 599.4,262.4 A 239.756,239.756 0.00 0,1 602.0,264.6 Q 488.4,437.3 682.5,508.7 Z" style="stroke-width: 1.0;  stroke: rgb(180,180,180); fill: rgb(222,220,70);" opacity="0.5"/>
    <path d="M 490.880,213.755 A 239.756,239.756 0.00 0,1 494.2,214.4 Q 477.6,420.4 682.1,389.8 A 239.756,239.756 0.00 0,1 682.9,393.0 Q 477.4,420.7 490.9,213.8 Z" style="stroke-width: 1.0;  stroke: rgb(180,180,180); fill: rgb(222,220,70);" opacity="0.5"/>
    <path d="M 663.894,341.684 A 239.756,239.756 0.00 0,1 665.4,344.7 Q 495.5,440.2 689.6,457.8 A 239.756,239.756 0.00 0,1 689.5,461.1 Q 495.3,440.3 663.9,341.7 Z" style="stroke-width: 1.0;  stroke: rgb(180,180,180); fill: rgb(222,220,70);" opacity="0.5"/>
    <path d="M 540.291,227.895 A 239.756,239.756 0.00 0,1 543.4,229.2 Q 482.1,420.3 677.2,373.3 A 239.756,239.756 0.00 0,1 678.2,376.5 Q 481.9,420.4 540.3,227.9 Z" style="stroke-width: 1.0;  stroke: rgb(180,180,180); fill: rgb(222,220,70);" opacity="0.5"/>
    <path d="M 646.249,312.270 A 239.756,239.756 0.00 0,1 648.2,315.0 Q 470.5,412.5 456.8,210.3 A 239.756,239.756 0.00 0,1 460.1,210.5 Q 470.6,412.3 646.2,312.3 Z" style="stroke-width: 1.0;  stroke: rgb(180,180,180); fill: rgb(222,220,70);" opacity="0.5"/>
    <path d="M 689.631,457.764 A 239.756,239.756 0.00 0,1 689.5,461.1 Q 496.1,441.8 671.1,357.3 A 239.756,239.756 0.00 0,1 672.4,360.4 Q 496.2,441.8 689.6,457.8 Z" style="stroke-width: 1.0;  stroke: rgb(180,180,180); fill: rgb(222,220,70);" opacity="0.5"/>
    <path d="M 682.470,508.658 A 239.756,239.756 0.00 0,1 681.6,511.9 Q 485.3,435.5 571.1,243.1 A 239.756,239.756 0.00 0,1 574.0,244.8 Q 485.6,435.3 682.5,508.7 Z" style="stroke-width: 1.0;  stroke: rgb(180,180,180); fill: rgb(222,220,70);" opacity="0.5"/>
    <path d="M 655.598,326.661 A 239.756,239.756 0.00 0,1 657.3,329.6 Q 487.0,420.3 612.4,273.6 A 239.756,239.756 0.00 0,1 614.9,275.9 Q 487.0,420.3 655.6,326.7 Z" style="stroke-width: 1.0;  stroke: rgb(180,180,180); fill: rgb(222,220,70);" opacity="0.5"/>
  </g>
  <g id="E218"/>
  <g id="plot0">
    <g id="plot0-axis"/>
    <text x="773.0" y="321.8" font-family="'CMUSansSerif-DemiCondensed'" style="fill: rgb(0,0,0); font-size: 13.0px; text-anchor: start" transform="rotate(337.6,773.0,321.8)">N268</text>
    <text x="797.0" y="467.9" font-family="'CMUSansSerif-DemiCondensed'" style="fill: rgb(0,0,0); font-size: 13.0px; text-anchor: start" transform="rotate(2.3,797.0,467.9)">N269</text>
    <text x="777.8" y="565.2" font-family="'CMUSansSerif-DemiCondensed'" style="fill: rgb(0,0,0); font-size: 13.0px; text-anchor: start" transform="rotate(18.7,777.8,565.2)">N152</text>
    <text x="792.9" y="393.5" font-family="'CMUSansSerif-DemiCondensed'" style="fill: rgb(0,0,0); font-size: 13.0px; text-anchor: start" transform="rotate(350.0,792.9,393.5)">N100</text>
    <text x="738.2" y="255.9" font-family="'CMUSansSerif-DemiCondensed'" style="fill: rgb(0,0,0); font-size: 13.0px; text-anchor: start" transform="rotate(325.3,738.2,255.9)">N273</text>
    <text x="794.9" y="492.7" font-family="'CMUSansSerif-DemiCondensed'" style="fill: rgb(0,0,0); font-size: 13.0px; text-anchor: start" transform="rotate(6.4,794.9,492.7)">N275</text>
    <text x="609.5" y="141.3" font-family="'CMUSansSerif-DemiCondensed'" style="fill: rgb(0,0,0); font-size: 13.0px; text-anchor: start" transform="rotate(296.6,609.5,141.3)">N274</text>
    <text x="540.1" y="114.4" font-family="'CMUSansSerif-DemiCondensed'" style="fill: rgb(0,0,0); font-size: 13.0px; text-anchor: start" transform="rotate(284.3,540.1,114.4)">N276</text>
    <text x="563.8" y="121.7" font-family="'CMUSansSerif-DemiCondensed'" style="fill: rgb(0,0,0); font-size: 13.0px; text-anchor: start" transform="rotate(288.4,563.8,121.7)">N278</text>
    <text x="797.4" y="443.1" font-family="'CMUSansSerif-DemiCondensed'" style="fill: rgb(0,0,0); font-size: 13.0px; text-anchor: start" transform="rotate(358.2,797.4,443.1)">N277</text>
    <text x="790.9" y="517.3" font-family="'CMUSansSerif-DemiCondensed'" style="fill: rgb(0,0,0); font-size: 13.0px; text-anchor: start" transform="rotate(10.5,790.9,517.3)">N279</text>
    <text x="723.6" y="235.8" font-family="'CMUSansSerif-DemiCondensed'" style="fill: rgb(0,0,0); font-size: 13.0px; text-anchor: start" transform="rotate(321.2,723.6,235.8)">N284</text>
    <text x="751.4" y="277.0" font-family="'CMUSansSerif-DemiCondensed'" style="fill: rgb(0,0,0); font-size: 13.0px; text-anchor: start" transform="rotate(329.4,751.4,277.0)">N281</text>
    <text x="690.2" y="198.9" font-family="'CMUSansSerif-DemiCondensed'" style="fill: rgb(0,0,0); font-size: 13.0px; text-anchor: start" transform="rotate(313.0,690.2,198.9)">N280</text>
    <text x="515.8" y="108.8" font-family="'CMUSansSerif-DemiCondensed'" style="fill: rgb(0,0,0); font-size: 13.0px; text-anchor: start" transform="rotate(280.2,515.8,108.8)">N282</text>
    <text x="587.0" y="130.7" font-family="'CMUSansSerif-DemiCondensed'" style="fill: rgb(0,0,0); font-size: 13.0px; text-anchor: start" transform="rotate(292.5,587.0,130.7)">N283</text>
    <text x="707.6" y="216.7" font-family="'CMUSansSerif-DemiCondensed'" style="fill: rgb(0,0,0); font-size: 13.0px; text-anchor: start" transform="rotate(317.1,707.6,216.7)">N285</text>
    <text x="785.2" y="541.5" font-family="'CMUSansSerif-DemiCondensed'" style="fill: rgb(0,0,0); font-size: 13.0px; text-anchor: start" transform="rotate(14.6,785.2,541.5)">N272</text>
    <text x="631.2" y="153.5" font-family="'CMUSansSerif-DemiCondensed'" style="fill: rgb(0,0,0); font-size: 13.0px; text-anchor: start" transform="rotate(300.7,631.2,153.5)">N271</text>
    <text x="491.2" y="105.0" font-family="'CMUSansSerif-DemiCondensed'" style="fill: rgb(0,0,0); font-size: 13.0px; text-anchor: start" transform="rotate(276.1,491.2,105.0)">N286</text>
    <text x="763.0" y="299.0" font-family="'CMUSansSerif-DemiCondensed'" style="fill: rgb(0,0,0); font-size: 13.0px; text-anchor: start" transform="rotate(333.5,763.0,299.0)">N270</text>
    <text x="796.0" y="418.2" font-family="'CMUSansSerif-DemiCondensed'" style="fill: rgb(0,0,0); font-size: 13.0px; text-anchor: start" transform="rotate(354.1,796.0,418.2)">N102</text>
    <text x="671.7" y="182.4" font-family="'CMUSansSerif-DemiCondensed'" style="fill: rgb(0,0,0); font-size: 13.0px; text-anchor: start" transform="rotate(308.9,671.7,182.4)">N17</text>
    <text x="651.9" y="167.2" font-family="'CMUSansSerif-DemiCondensed'" style="fill: rgb(0,0,0); font-size: 13.0px; text-anchor: start" transform="rotate(304.8,651.9,167.2)">N60</text>
    <text x="788.0" y="369.2" font-family="'CMUSansSerif-DemiCondensed'" style="fill: rgb(0,0,0); font-size: 13.0px; text-anchor: start" transform="rotate(345.9,788.0,369.2)">N11</text>
    <text x="781.3" y="345.2" font-family="'CMUSansSerif-DemiCondensed'" style="fill: rgb(0,0,0); font-size: 13.0px; text-anchor: start" transform="rotate(341.7,781.3,345.2)">N79</text>
    <text x="181.3" y="229.7" font-family="'CMUSansSerif-DemiCondensed'" style="fill: rgb(0,0,0); font-size: 13.0px; text-anchor: end" transform="rotate(40.0,181.3,229.7)">C24</text>
    <text x="466.1" y="102.9" font-family="'CMUSansSerif-DemiCondensed'" style="fill: rgb(0,0,0); font-size: 13.0px; text-anchor: start" transform="rotate(272.0,466.1,102.9)">N7</text>
  </g>
  <script>function init(evt) {
    $(evt.target).bind('mouseover', doMouseOver);
    $(evt.target).bind('mouseup'  , doMouseUp);
    $(evt.target).bind('mousedown', doMouseDown);
}</script>
</svg>