<svg width="900px" height="900px" version="1.1" onload="init(evt)" xmlns="http://www.w3.org/2000/svg" xmlns:xlink="http://www.w3.org/1999/xlink">
  <g id="ideograms">
    <path d="M 450.000,197.625 A252.375,252.375 0.000 0,1 460.355,197.838 L 463.432,122.901 A327.375,327.375 0.000 0,0 450.000,122.625 Z " style="stroke: none;   fill: rgb(53,100,153); " class="N186"/>
    <text x="460.4" y="112.8" font-size="9.1px" font-family="'CMUBright-Roman'" style="text-anchor:start;fill:rgb(0,0,0)" transform="rotate(271.2,460.4,112.8)" class="N186"></text>
    <path d="M 460.537,197.845 A252.375,252.375 0.000 0,1 470.875,198.490 L 477.078,123.747 A327.375,327.375 0.000 0,0 463.669,122.910 Z " style="stroke: none;   fill: rgb(53,100,153); " class="N152"/>
    <text x="474.5" y="113.5" font-size="9.1px" font-family="'CMUBright-Roman'" style="text-anchor:start;fill:rgb(0,0,0)" transform="rotate(273.6,474.5,113.5)" class="N152"></text>
    <path d="M 471.057,198.505 A252.375,252.375 0.000 0,1 481.358,199.581 L 490.677,125.162 A327.375,327.375 0.000 0,0 477.314,123.766 Z " style="stroke: none;   fill: rgb(53,100,153); " class="N343"/>
    <text x="488.5" y="114.8" font-size="9.1px" font-family="'CMUBright-Roman'" style="text-anchor:start;fill:rgb(0,0,0)" transform="rotate(276.0,488.5,114.8)" class="N343"></text>
    <path d="M 481.539,199.603 A252.375,252.375 0.000 0,1 491.786,201.108 L 504.204,127.144 A327.375,327.375 0.000 0,0 490.912,125.191 Z " style="stroke: none;   fill: rgb(53,100,153); " class="N357"/>
    <text x="502.5" y="116.7" font-size="9.1px" font-family="'CMUBright-Roman'" style="text-anchor:start;fill:rgb(0,0,0)" transform="rotate(278.4,502.5,116.7)" class="N357"></text>
    <path d="M 491.966,201.139 A252.375,252.375 0.000 0,1 502.142,203.070 L 517.637,129.688 A327.375,327.375 0.000 0,0 504.438,127.183 Z " style="stroke: none;   fill: rgb(53,100,153); " class="N369"/>
    <text x="516.4" y="119.2" font-size="9.1px" font-family="'CMUBright-Roman'" style="text-anchor:start;fill:rgb(0,0,0)" transform="rotate(280.7,516.4,119.2)" class="N369"></text>
    <path d="M 502.321,203.108 A252.375,252.375 0.000 0,1 512.407,205.463 L 530.952,132.792 A327.375,327.375 0.000 0,0 517.869,129.737 Z " style="stroke: none;   fill: rgb(53,100,153); " class="N345"/>
    <text x="530.1" y="122.3" font-size="9.1px" font-family="'CMUBright-Roman'" style="text-anchor:start;fill:rgb(0,0,0)" transform="rotate(283.1,530.1,122.3)" class="N345"></text>
    <path d="M 512.583,205.508 A252.375,252.375 0.000 0,1 522.562,208.282 L 544.126,136.448 A327.375,327.375 0.000 0,0 531.182,132.850 Z " style="stroke: none;   fill: rgb(53,100,153); " class="N339"/>
    <text x="543.7" y="125.9" font-size="9.1px" font-family="'CMUBright-Roman'" style="text-anchor:start;fill:rgb(0,0,0)" transform="rotate(285.5,543.7,125.9)" class="N339"></text>
    <path d="M 522.737,208.334 A252.375,252.375 0.000 0,1 532.592,211.522 L 557.136,140.652 A327.375,327.375 0.000 0,0 544.353,136.517 Z " style="stroke: none;   fill: rgb(53,100,153); " class="N333"/>
    <text x="557.2" y="130.1" font-size="9.1px" font-family="'CMUBright-Roman'" style="text-anchor:start;fill:rgb(0,0,0)" transform="rotate(287.9,557.2,130.1)" class="N333"></text>
    <path d="M 532.764,211.582 A252.375,252.375 0.000 0,1 542.477,215.178 L 569.959,145.395 A327.375,327.375 0.000 0,0 557.360,140.729 Z " style="stroke: none;   fill: rgb(53,100,153); " class="N100"/>
    <text x="570.4" y="134.9" font-size="9.1px" font-family="'CMUBright-Roman'" style="text-anchor:start;fill:rgb(0,0,0)" transform="rotate(290.3,570.4,134.9)" class="N100"></text>
    <path d="M 542.647,215.245 A252.375,252.375 0.000 0,1 552.201,219.244 L 582.573,150.669 A327.375,327.375 0.000 0,0 570.179,145.482 Z " style="stroke: none;   fill: rgb(53,100,153); " class="N332"/>
    <text x="583.5" y="140.2" font-size="9.1px" font-family="'CMUBright-Roman'" style="text-anchor:start;fill:rgb(0,0,0)" transform="rotate(292.7,583.5,140.2)" class="N332"></text>
    <path d="M 552.368,219.318 A252.375,252.375 0.000 0,1 561.747,223.713 L 594.955,156.466 A327.375,327.375 0.000 0,0 582.789,150.765 Z " style="stroke: none;   fill: rgb(53,100,153); " class="N358"/>
    <text x="596.3" y="146.0" font-size="9.1px" font-family="'CMUBright-Roman'" style="text-anchor:start;fill:rgb(0,0,0)" transform="rotate(295.1,596.3,146.0)" class="N358"></text>
    <path d="M 561.910,223.794 A252.375,252.375 0.000 0,1 571.097,228.576 L 607.085,162.774 A327.375,327.375 0.000 0,0 595.167,156.571 Z " style="stroke: none;   fill: rgb(53,100,153); " class="N371"/>
    <text x="608.9" y="152.4" font-size="9.1px" font-family="'CMUBright-Roman'" style="text-anchor:start;fill:rgb(0,0,0)" transform="rotate(297.5,608.9,152.4)" class="N371"></text>
    <path d="M 571.257,228.664 A252.375,252.375 0.000 0,1 580.237,233.825 L 618.940,169.583 A327.375,327.375 0.000 0,0 607.292,162.888 Z " style="stroke: none;   fill: rgb(53,100,153); " class="N350"/>
    <text x="621.2" y="159.3" font-size="9.1px" font-family="'CMUBright-Roman'" style="text-anchor:start;fill:rgb(0,0,0)" transform="rotate(299.9,621.2,159.3)" class="N350"></text>
    <path d="M 580.393,233.920 A252.375,252.375 0.000 0,1 589.149,239.452 L 630.501,176.882 A327.375,327.375 0.000 0,0 619.143,169.705 Z " style="stroke: none;   fill: rgb(53,100,153); " class="N331"/>
    <text x="633.1" y="166.7" font-size="9.1px" font-family="'CMUBright-Roman'" style="text-anchor:start;fill:rgb(0,0,0)" transform="rotate(302.3,633.1,166.7)" class="N331"></text>
    <path d="M 589.302,239.552 A252.375,252.375 0.000 0,1 597.819,245.445 L 641.748,184.656 A327.375,327.375 0.000 0,0 630.699,177.012 Z " style="stroke: none;   fill: rgb(53,100,153); " class="N341"/>
    <text x="644.8" y="174.6" font-size="9.1px" font-family="'CMUBright-Roman'" style="text-anchor:start;fill:rgb(0,0,0)" transform="rotate(304.7,644.8,174.6)" class="N341"></text>
    <path d="M 597.967,245.552 A252.375,252.375 0.000 0,1 606.231,251.796 L 652.659,192.894 A327.375,327.375 0.000 0,0 641.939,184.795 Z " style="stroke: none;   fill: rgb(53,100,153); " class="N372"/>
    <text x="656.2" y="182.9" font-size="9.1px" font-family="'CMUBright-Roman'" style="text-anchor:start;fill:rgb(0,0,0)" transform="rotate(307.1,656.2,182.9)" class="N372"></text>
    <path d="M 606.374,251.909 A252.375,252.375 0.000 0,1 614.371,258.492 L 663.218,201.580 A327.375,327.375 0.000 0,0 652.845,193.040 Z " style="stroke: none;   fill: rgb(53,100,153); " class="N353"/>
    <text x="667.1" y="191.8" font-size="9.1px" font-family="'CMUBright-Roman'" style="text-anchor:start;fill:rgb(0,0,0)" transform="rotate(309.5,667.1,191.8)" class="N353"></text>
    <path d="M 614.509,258.610 A252.375,252.375 0.000 0,1 622.223,265.522 L 673.404,210.699 A327.375,327.375 0.000 0,0 663.397,201.734 Z " style="stroke: none;   fill: rgb(53,100,153); " class="N329"/>
    <text x="677.7" y="201.1" font-size="9.1px" font-family="'CMUBright-Roman'" style="text-anchor:start;fill:rgb(0,0,0)" transform="rotate(311.9,677.7,201.1)" class="N329"></text>
    <path d="M 622.357,265.646 A252.375,252.375 0.000 0,1 629.776,272.873 L 683.201,220.235 A327.375,327.375 0.000 0,0 673.577,210.860 Z " style="stroke: none;   fill: rgb(53,100,153); " class="N368"/>
    <text x="687.9" y="210.8" font-size="9.1px" font-family="'CMUBright-Roman'" style="text-anchor:start;fill:rgb(0,0,0)" transform="rotate(314.2,687.9,210.8)" class="N368"></text>
    <path d="M 629.904,273.003 A252.375,252.375 0.000 0,1 637.015,280.534 L 692.591,230.173 A327.375,327.375 0.000 0,0 683.367,220.404 Z " style="stroke: none;   fill: rgb(53,100,153); " class="N17"/>
    <text x="697.7" y="220.9" font-size="9.1px" font-family="'CMUBright-Roman'" style="text-anchor:start;fill:rgb(0,0,0)" transform="rotate(316.6,697.7,220.9)" class="N17"></text>
    <path d="M 637.137,280.669 A252.375,252.375 0.000 0,1 643.927,288.490 L 701.558,240.493 A327.375,327.375 0.000 0,0 692.750,230.348 Z " style="stroke: none;   fill: rgb(53,100,153); " class="N0"/>
    <text x="707.0" y="231.5" font-size="9.1px" font-family="'CMUBright-Roman'" style="text-anchor:start;fill:rgb(0,0,0)" transform="rotate(319.0,707.0,231.5)" class="N0"></text>
    <path d="M 644.044,288.631 A252.375,252.375 0.000 0,1 650.502,296.728 L 710.086,251.179 A327.375,327.375 0.000 0,0 701.709,240.675 Z " style="stroke: none;   fill: rgb(53,100,153); " class="N319"/>
    <text x="715.9" y="242.4" font-size="9.1px" font-family="'CMUBright-Roman'" style="text-anchor:start;fill:rgb(0,0,0)" transform="rotate(321.4,715.9,242.4)" class="N319"></text>
    <path d="M 650.612,296.873 A252.375,252.375 0.000 0,1 656.726,305.234 L 718.161,262.212 A327.375,327.375 0.000 0,0 710.230,251.368 Z " style="stroke: none;   fill: rgb(53,100,153); " class="N96"/>
    <text x="724.4" y="253.7" font-size="9.1px" font-family="'CMUBright-Roman'" style="text-anchor:start;fill:rgb(0,0,0)" transform="rotate(323.8,724.4,253.7)" class="N96"></text>
    <path d="M 656.831,305.383 A252.375,252.375 0.000 0,1 662.591,313.991 L 725.768,273.573 A327.375,327.375 0.000 0,0 718.296,262.406 Z " style="stroke: none;   fill: rgb(53,100,153); " class="N337"/>
    <text x="732.3" y="265.3" font-size="9.1px" font-family="'CMUBright-Roman'" style="text-anchor:start;fill:rgb(0,0,0)" transform="rotate(326.2,732.3,265.3)" class="N337"></text>
    <path d="M 662.689,314.145 A252.375,252.375 0.000 0,1 668.084,322.986 L 732.894,285.241 A327.375,327.375 0.000 0,0 725.895,273.772 Z " style="stroke: none;   fill: rgb(53,100,153); " class="N347"/>
    <text x="739.8" y="277.3" font-size="9.1px" font-family="'CMUBright-Roman'" style="text-anchor:start;fill:rgb(0,0,0)" transform="rotate(328.6,739.8,277.3)" class="N347"></text>
    <path d="M 668.176,323.144 A252.375,252.375 0.000 0,1 673.197,332.203 L 739.526,297.196 A327.375,327.375 0.000 0,0 733.013,285.445 Z " style="stroke: none;   fill: rgb(53,100,153); " class="N336"/>
    <text x="746.8" y="289.5" font-size="9.1px" font-family="'CMUBright-Roman'" style="text-anchor:start;fill:rgb(0,0,0)" transform="rotate(331.0,746.8,289.5)" class="N336"></text>
    <path d="M 673.282,332.364 A252.375,252.375 0.000 0,1 677.921,341.625 L 745.654,309.418 A327.375,327.375 0.000 0,0 739.637,297.405 Z " style="stroke: none;   fill: rgb(53,100,153); " class="N370"/>
    <text x="753.2" y="302.0" font-size="9.1px" font-family="'CMUBright-Roman'" style="text-anchor:start;fill:rgb(0,0,0)" transform="rotate(333.4,753.2,302.0)" class="N370"></text>
    <path d="M 677.999,341.789 A252.375,252.375 0.000 0,1 682.247,351.236 L 751.266,321.885 A327.375,327.375 0.000 0,0 745.755,309.632 Z " style="stroke: none;   fill: rgb(53,100,153); " class="N335"/>
    <text x="759.1" y="314.8" font-size="9.1px" font-family="'CMUBright-Roman'" style="text-anchor:start;fill:rgb(0,0,0)" transform="rotate(335.8,759.1,314.8)" class="N335"></text>
    <path d="M 682.318,351.404 A252.375,252.375 0.000 0,1 686.168,361.019 L 756.352,334.576 A327.375,327.375 0.000 0,0 751.358,322.103 Z " style="stroke: none;   fill: rgb(53,100,153); " class="N374"/>
    <text x="764.5" y="327.9" font-size="9.1px" font-family="'CMUBright-Roman'" style="text-anchor:start;fill:rgb(0,0,0)" transform="rotate(338.2,764.5,327.9)" class="N374"></text>
    <path d="M 686.233,361.190 A252.375,252.375 0.000 0,1 689.678,370.957 L 760.904,347.468 A327.375,327.375 0.000 0,0 756.435,334.797 Z " style="stroke: none;   fill: rgb(53,100,153); " class="N346"/>
    <text x="769.3" y="341.1" font-size="9.1px" font-family="'CMUBright-Roman'" style="text-anchor:start;fill:rgb(0,0,0)" transform="rotate(340.6,769.3,341.1)" class="N346"></text>
    <path d="M 689.735,371.131 A252.375,252.375 0.000 0,1 692.769,381.033 L 764.914,360.538 A327.375,327.375 0.000 0,0 760.978,347.692 Z " style="stroke: none;   fill: rgb(53,100,153); " class="N359"/>
    <text x="773.6" y="354.5" font-size="9.1px" font-family="'CMUBright-Roman'" style="text-anchor:start;fill:rgb(0,0,0)" transform="rotate(343.0,773.6,354.5)" class="N359"></text>
    <path d="M 692.819,381.209 A252.375,252.375 0.000 0,1 695.437,391.230 L 768.375,373.765 A327.375,327.375 0.000 0,0 764.979,360.766 Z " style="stroke: none;   fill: rgb(53,100,153); " class="N338"/>
    <text x="777.3" y="368.1" font-size="9.1px" font-family="'CMUBright-Roman'" style="text-anchor:start;fill:rgb(0,0,0)" transform="rotate(345.4,777.3,368.1)" class="N338"></text>
    <path d="M 695.479,391.408 A252.375,252.375 0.000 0,1 697.677,401.529 L 771.280,387.125 A327.375,327.375 0.000 0,0 768.430,373.995 Z " style="stroke: none;   fill: rgb(53,100,153); " class="N355"/>
    <text x="780.4" y="381.8" font-size="9.1px" font-family="'CMUBright-Roman'" style="text-anchor:start;fill:rgb(0,0,0)" transform="rotate(347.8,780.4,381.8)" class="N355"></text>
    <path d="M 697.712,401.708 A252.375,252.375 0.000 0,1 699.484,411.913 L 773.625,400.594 A327.375,327.375 0.000 0,0 771.326,387.357 Z " style="stroke: none;   fill: rgb(53,100,153); " class="N187"/>
    <text x="783.0" y="395.7" font-size="9.1px" font-family="'CMUBright-Roman'" style="text-anchor:start;fill:rgb(0,0,0)" transform="rotate(350.1,783.0,395.7)" class="N187"></text>
    <path d="M 699.512,412.093 A252.375,252.375 0.000 0,1 700.857,422.363 L 775.406,414.150 A327.375,327.375 0.000 0,0 773.661,400.828 Z " style="stroke: none;   fill: rgb(53,100,153); " class="N356"/>
    <text x="785.0" y="409.7" font-size="9.1px" font-family="'CMUBright-Roman'" style="text-anchor:start;fill:rgb(0,0,0)" transform="rotate(352.5,785.0,409.7)" class="N356"></text>
    <path d="M 700.877,422.544 A252.375,252.375 0.000 0,1 701.792,432.861 L 776.619,427.768 A327.375,327.375 0.000 0,0 775.432,414.385 Z " style="stroke: none;   fill: rgb(53,100,153); " class="N348"/>
    <text x="786.3" y="423.7" font-size="9.1px" font-family="'CMUBright-Roman'" style="text-anchor:start;fill:rgb(0,0,0)" transform="rotate(354.9,786.3,423.7)" class="N348"></text>
    <path d="M 701.805,433.043 A252.375,252.375 0.000 0,1 702.288,443.389 L 777.263,441.424 A327.375,327.375 0.000 0,0 776.635,428.004 Z " style="stroke: none;   fill: rgb(53,100,153); " class="N342"/>
    <text x="787.2" y="437.7" font-size="9.1px" font-family="'CMUBright-Roman'" style="text-anchor:start;fill:rgb(0,0,0)" transform="rotate(357.3,787.2,437.7)" class="N342"></text>
    <path d="M 702.293,443.571 A252.375,252.375 0.000 0,1 702.344,453.929 L 777.335,455.096 A327.375,327.375 0.000 0,0 777.269,441.661 Z " style="stroke: none;   fill: rgb(53,100,153); " class="N340"/>
    <text x="787.4" y="451.8" font-size="9.1px" font-family="'CMUBright-Roman'" style="text-anchor:start;fill:rgb(0,0,0)" transform="rotate(359.7,787.4,451.8)" class="N340"></text>
    <path d="M 702.342,454.111 A252.375,252.375 0.000 0,1 701.960,464.461 L 776.837,468.759 A327.375,327.375 0.000 0,0 777.332,455.333 Z " style="stroke: none;   fill: rgb(53,100,153); " class="N354"/>
    <text x="787.0" y="465.9" font-size="9.1px" font-family="'CMUBright-Roman'" style="text-anchor:start;fill:rgb(0,0,0)" transform="rotate(2.1,787.0,465.9)" class="N354"></text>
    <path d="M 701.950,464.644 A252.375,252.375 0.000 0,1 701.137,474.969 L 775.769,482.389 A327.375,327.375 0.000 0,0 776.823,468.995 Z " style="stroke: none;   fill: rgb(53,100,153); " class="N161"/>
    <text x="786.0" y="480.0" font-size="9.1px" font-family="'CMUBright-Roman'" style="text-anchor:start;fill:rgb(0,0,0)" transform="rotate(4.5,786.0,480.0)" class="N161"></text>
    <path d="M 701.119,475.151 A252.375,252.375 0.000 0,1 699.875,485.433 L 774.132,495.963 A327.375,327.375 0.000 0,0 775.745,482.625 Z " style="stroke: none;   fill: rgb(53,100,153); " class="N367"/>
    <text x="784.5" y="494.0" font-size="9.1px" font-family="'CMUBright-Roman'" style="text-anchor:start;fill:rgb(0,0,0)" transform="rotate(6.9,784.5,494.0)" class="N367"></text>
    <path d="M 699.850,485.614 A252.375,252.375 0.000 0,1 698.178,495.835 L 771.931,509.456 A327.375,327.375 0.000 0,0 774.099,496.197 Z " style="stroke: none;   fill: rgb(53,100,153); " class="N160"/>
    <text x="782.4" y="507.9" font-size="9.1px" font-family="'CMUBright-Roman'" style="text-anchor:start;fill:rgb(0,0,0)" transform="rotate(9.3,782.4,507.9)" class="N160"></text>
    <path d="M 698.145,496.015 A252.375,252.375 0.000 0,1 696.048,506.158 L 769.167,522.846 A327.375,327.375 0.000 0,0 771.888,509.689 Z " style="stroke: none;   fill: rgb(53,100,153); " class="N170"/>
    <text x="779.7" y="521.7" font-size="9.1px" font-family="'CMUBright-Roman'" style="text-anchor:start;fill:rgb(0,0,0)" transform="rotate(11.7,779.7,521.7)" class="N170"></text>
    <path d="M 696.007,506.335 A252.375,252.375 0.000 0,1 693.488,516.382 L 765.847,536.109 A327.375,327.375 0.000 0,0 769.115,523.077 Z " style="stroke: none;   fill: rgb(53,100,153); " class="N352"/>
    <text x="776.4" y="535.4" font-size="9.1px" font-family="'CMUBright-Roman'" style="text-anchor:start;fill:rgb(0,0,0)" transform="rotate(14.1,776.4,535.4)" class="N352"></text>
    <path d="M 693.440,516.558 A252.375,252.375 0.000 0,1 690.504,526.490 L 761.977,549.222 A327.375,327.375 0.000 0,0 765.785,536.337 Z " style="stroke: none;   fill: rgb(53,100,153); " class="N349"/>
    <text x="772.5" y="549.0" font-size="9.1px" font-family="'CMUBright-Roman'" style="text-anchor:start;fill:rgb(0,0,0)" transform="rotate(16.5,772.5,549.0)" class="N349"></text>
    <path d="M 690.449,526.664 A252.375,252.375 0.000 0,1 687.101,536.466 L 757.562,562.161 A327.375,327.375 0.000 0,0 761.905,549.447 Z " style="stroke: none;   fill: rgb(53,100,153); " class="N344"/>
    <text x="768.1" y="562.4" font-size="9.1px" font-family="'CMUBright-Roman'" style="text-anchor:start;fill:rgb(0,0,0)" transform="rotate(18.9,768.1,562.4)" class="N344"></text>
    <path d="M 687.038,536.637 A252.375,252.375 0.000 0,1 683.284,546.290 L 752.611,574.905 A327.375,327.375 0.000 0,0 757.481,562.383 Z " style="stroke: none;   fill: rgb(53,100,153); " class="N373"/>
    <text x="763.1" y="575.5" font-size="9.1px" font-family="'CMUBright-Roman'" style="text-anchor:start;fill:rgb(0,0,0)" transform="rotate(21.3,763.1,575.5)" class="N373"></text>
    <path d="M 683.214,546.459 A252.375,252.375 0.000 0,1 679.060,555.946 L 747.131,587.431 A327.375,327.375 0.000 0,0 752.520,575.124 Z " style="stroke: none;   fill: rgb(53,100,153); " class="N366"/>
    <text x="757.6" y="588.5" font-size="9.1px" font-family="'CMUBright-Roman'" style="text-anchor:start;fill:rgb(0,0,0)" transform="rotate(23.6,757.6,588.5)" class="N366"></text>
    <path d="M 678.983,556.112 A252.375,252.375 0.000 0,1 674.437,565.418 L 741.134,599.717 A327.375,327.375 0.000 0,0 747.032,587.646 Z " style="stroke: none;   fill: rgb(53,100,153); " class="N334"/>
    <text x="751.6" y="601.2" font-size="9.1px" font-family="'CMUBright-Roman'" style="text-anchor:start;fill:rgb(0,0,0)" transform="rotate(26.0,751.6,601.2)" class="N334"></text>
    <path d="M 674.353,565.580 A252.375,252.375 0.000 0,1 669.422,574.688 L 734.629,611.743 A327.375,327.375 0.000 0,0 741.026,599.928 Z " style="stroke: none;   fill: rgb(53,100,153); " class="N330"/>
    <text x="745.0" y="613.7" font-size="9.1px" font-family="'CMUBright-Roman'" style="text-anchor:start;fill:rgb(0,0,0)" transform="rotate(28.4,745.0,613.7)" class="N330"></text>
    <path d="M 669.332,574.847 A252.375,252.375 0.000 0,1 664.024,583.741 L 727.628,623.486 A327.375,327.375 0.000 0,0 734.512,611.948 Z " style="stroke: none;   fill: rgb(53,100,153); " class="N351"/>
    <text x="737.9" y="625.9" font-size="9.1px" font-family="'CMUBright-Roman'" style="text-anchor:start;fill:rgb(0,0,0)" transform="rotate(30.8,737.9,625.9)" class="N351"></text>
    <path d="M 663.928,583.896 A252.375,252.375 0.000 0,1 658.254,592.561 L 720.142,634.926 A327.375,327.375 0.000 0,0 727.502,623.687 Z " style="stroke: none;   fill: rgb(53,100,153); " class="N365"/>
    <text x="730.3" y="637.7" font-size="9.1px" font-family="'CMUBright-Roman'" style="text-anchor:start;fill:rgb(0,0,0)" transform="rotate(33.2,730.3,637.7)" class="N365"></text>
    <path d="M 666.501,598.437 A262.500,262.500 0.000 0,1 664.035,601.971 L 725.188,645.391 A337.500,337.500 0.000 0,0 728.359,640.847 Z " style="stroke: none;   fill: rgb(179,186,212); " class="C3"/>
    <text x="733.0" y="651.7" font-size="9.1px" font-family="'CMUBright-Roman'" style="text-anchor:start;fill:rgb(0,0,0)" transform="rotate(34.9,733.0,651.7)" class="C3"></text>
    <path d="M 663.926,602.125 A262.500,262.500 0.000 0,1 659.467,608.208 L 719.315,653.410 A337.500,337.500 0.000 0,0 725.047,645.590 Z " style="stroke: none;   fill: rgb(179,186,212); " class="C4"/>
    <text x="728.2" y="658.2" font-size="9.1px" font-family="'CMUBright-Roman'" style="text-anchor:start;fill:rgb(0,0,0)" transform="rotate(36.2,728.2,658.2)" class="C4"></text>
    <path d="M 659.353,608.359 A262.500,262.500 0.000 0,1 657.387,610.925 L 716.641,656.903 A337.500,337.500 0.000 0,0 719.168,653.604 Z " style="stroke: none;   fill: rgb(179,186,212); " class="C6"/>
    <text x="723.7" y="664.1" font-size="9.1px" font-family="'CMUBright-Roman'" style="text-anchor:start;fill:rgb(0,0,0)" transform="rotate(37.5,723.7,664.1)" class="C6"></text>
    <path d="M 657.271,611.074 A262.500,262.500 0.000 0,1 655.272,613.614 L 713.921,660.361 A337.500,337.500 0.000 0,0 716.491,657.096 Z " style="stroke: none;   fill: rgb(179,186,212); " class="C5"/>
    <text x="720.9" y="667.7" font-size="9.1px" font-family="'CMUBright-Roman'" style="text-anchor:start;fill:rgb(0,0,0)" transform="rotate(38.2,720.9,667.7)" class="C5"></text>
    <path d="M 655.154,613.762 A262.500,262.500 0.000 0,1 651.059,618.764 L 708.505,666.983 A337.500,337.500 0.000 0,0 713.769,660.552 Z " style="stroke: none;   fill: rgb(179,186,212); " class="C7"/>
    <text x="716.7" y="672.8" font-size="9.1px" font-family="'CMUBright-Roman'" style="text-anchor:start;fill:rgb(0,0,0)" transform="rotate(39.3,716.7,672.8)" class="C7"></text>
    <path d="M 650.937,618.909 A262.500,262.500 0.000 0,1 643.838,627.012 L 699.220,677.587 A337.500,337.500 0.000 0,0 708.348,667.169 Z " style="stroke: none;   fill: rgb(179,186,212); " class="C8"/>
    <text x="709.0" y="681.6" font-size="9.1px" font-family="'CMUBright-Roman'" style="text-anchor:start;fill:rgb(0,0,0)" transform="rotate(41.2,709.0,681.6)" class="C8"></text>
    <path d="M 643.710,627.152 A262.500,262.500 0.000 0,1 641.514,629.523 L 696.232,680.816 A337.500,337.500 0.000 0,0 699.055,677.767 Z " style="stroke: none;   fill: rgb(179,186,212); " class="C9"/>
    <text x="702.6" y="688.6" font-size="9.1px" font-family="'CMUBright-Roman'" style="text-anchor:start;fill:rgb(0,0,0)" transform="rotate(42.8,702.6,688.6)" class="C9"></text>
    <path d="M 641.384,629.662 A262.500,262.500 0.000 0,1 630.751,640.356 L 682.394,694.743 A337.500,337.500 0.000 0,0 696.065,680.994 Z " style="stroke: none;   fill: rgb(179,186,212); " class="C10"/>
    <text x="693.9" y="697.5" font-size="9.1px" font-family="'CMUBright-Roman'" style="text-anchor:start;fill:rgb(0,0,0)" transform="rotate(44.8,693.9,697.5)" class="C10"></text>
    <path d="M 630.613,640.486 A262.500,262.500 0.000 0,1 621.016,649.147 L 669.878,706.046 A337.500,337.500 0.000 0,0 682.217,694.911 Z " style="stroke: none;   fill: rgb(179,186,212); " class="C11"/>
    <text x="680.2" y="710.3" font-size="9.1px" font-family="'CMUBright-Roman'" style="text-anchor:start;fill:rgb(0,0,0)" transform="rotate(47.9,680.2,710.3)" class="C11"></text>
    <path d="M 620.873,649.271 A262.500,262.500 0.000 0,1 598.677,666.336 L 641.156,728.147 A337.500,337.500 0.000 0,0 669.693,706.205 Z " style="stroke: none;   fill: rgb(179,186,212); " class="C12"/>
    <text x="659.0" y="727.6" font-size="9.1px" font-family="'CMUBright-Roman'" style="text-anchor:start;fill:rgb(0,0,0)" transform="rotate(52.4,659.0,727.6)" class="C12"></text>
    <path d="M 598.520,666.444 A262.500,262.500 0.000 0,1 595.844,668.256 L 637.514,730.615 A337.500,337.500 0.000 0,0 640.955,728.285 Z " style="stroke: none;   fill: rgb(179,186,212); " class="C13"/>
    <text x="641.9" y="739.7" font-size="9.1px" font-family="'CMUBright-Roman'" style="text-anchor:start;fill:rgb(0,0,0)" transform="rotate(55.9,641.9,739.7)" class="C13"></text>
    <path d="M 590.067,659.939 A252.375,252.375 0.000 0,1 583.100,664.424 L 622.654,728.146 A327.375,327.375 0.000 0,0 631.692,722.328 Z " style="stroke: none;   fill: rgb(179,186,212); " class="C14"/>
    <text x="629.7" y="735.6" font-size="9.1px" font-family="'CMUBright-Roman'" style="text-anchor:start;fill:rgb(0,0,0)" transform="rotate(57.2,629.7,735.6)" class="C14"></text>
    <path d="M 582.945,664.520 A252.375,252.375 0.000 0,1 572.223,670.805 L 608.545,736.423 A327.375,327.375 0.000 0,0 622.453,728.270 Z " style="stroke: none;   fill: rgb(179,186,212); " class="C15"/>
    <text x="617.6" y="742.8" font-size="9.1px" font-family="'CMUBright-Roman'" style="text-anchor:start;fill:rgb(0,0,0)" transform="rotate(59.6,617.6,742.8)" class="C15"></text>
    <path d="M 576.960,679.755 A262.500,262.500 0.000 0,1 571.265,682.811 L 605.912,749.329 A337.500,337.500 0.000 0,0 613.235,745.399 Z " style="stroke: none;   fill: rgb(179,186,212); " class="C16"/>
    <text x="611.2" y="757.8" font-size="9.1px" font-family="'CMUBright-Roman'" style="text-anchor:start;fill:rgb(0,0,0)" transform="rotate(61.8,611.2,757.8)" class="C16"></text>
    <path d="M 571.096,682.899 A262.500,262.500 0.000 0,1 567.257,684.856 L 600.759,751.957 A337.500,337.500 0.000 0,0 605.695,749.442 Z " style="stroke: none;   fill: rgb(179,186,212); " class="C17"/>
    <text x="604.6" y="761.2" font-size="9.1px" font-family="'CMUBright-Roman'" style="text-anchor:start;fill:rgb(0,0,0)" transform="rotate(63.0,604.6,761.2)" class="C17"></text>
    <path d="M 567.087,684.940 A262.500,262.500 0.000 0,1 564.185,686.364 L 596.810,753.897 A337.500,337.500 0.000 0,0 600.540,752.066 Z " style="stroke: none;   fill: rgb(179,186,212); " class="C18"/>
    <text x="599.9" y="763.5" font-size="9.1px" font-family="'CMUBright-Roman'" style="text-anchor:start;fill:rgb(0,0,0)" transform="rotate(63.9,599.9,763.5)" class="C18"></text>
    <path d="M 564.015,686.446 A262.500,262.500 0.000 0,1 539.197,696.881 L 564.682,767.418 A337.500,337.500 0.000 0,0 596.590,754.003 Z " style="stroke: none;   fill: rgb(179,186,212); " class="C19"/>
    <text x="581.5" y="771.7" font-size="9.1px" font-family="'CMUBright-Roman'" style="text-anchor:start;fill:rgb(0,0,0)" transform="rotate(67.2,581.5,771.7)" class="C19"></text>
    <path d="M 539.018,696.945 A262.500,262.500 0.000 0,1 523.657,701.954 L 544.701,773.941 A337.500,337.500 0.000 0,0 564.452,767.501 Z " style="stroke: none;   fill: rgb(179,186,212); " class="C20"/>
    <text x="554.4" y="781.4" font-size="9.1px" font-family="'CMUBright-Roman'" style="text-anchor:start;fill:rgb(0,0,0)" transform="rotate(71.9,554.4,781.4)" class="C20"></text>
    <path d="M 523.475,702.007 A262.500,262.500 0.000 0,1 512.026,705.067 L 529.748,777.943 A337.500,337.500 0.000 0,0 544.467,774.010 Z " style="stroke: none;   fill: rgb(179,186,212); " class="C21"/>
    <text x="536.3" y="786.6" font-size="9.1px" font-family="'CMUBright-Roman'" style="text-anchor:start;fill:rgb(0,0,0)" transform="rotate(75.0,536.3,786.6)" class="C21"></text>
    <path d="M 511.842,705.111 A262.500,262.500 0.000 0,1 507.646,706.092 L 524.116,779.261 A337.500,337.500 0.000 0,0 529.511,778.000 Z " style="stroke: none;   fill: rgb(179,186,212); " class="C22"/>
    <text x="525.7" y="789.2" font-size="9.1px" font-family="'CMUBright-Roman'" style="text-anchor:start;fill:rgb(0,0,0)" transform="rotate(76.8,525.7,789.2)" class="C22"></text>
    <path d="M 505.244,696.254 A252.375,252.375 0.000 0,1 485.893,699.810 L 496.560,774.047 A327.375,327.375 0.000 0,0 521.662,769.435 Z " style="stroke: none;   fill: rgb(179,186,212); " class="C23"/>
    <text x="507.5" y="782.4" font-size="9.1px" font-family="'CMUBright-Roman'" style="text-anchor:start;fill:rgb(0,0,0)" transform="rotate(79.6,507.5,782.4)" class="C23"></text>
    <path d="M 487.145,709.859 A262.500,262.500 0.000 0,1 485.011,710.155 L 495.014,784.485 A337.500,337.500 0.000 0,0 497.758,784.104 Z " style="stroke: none;   fill: rgb(179,186,212); " class="C25"/>
    <text x="494.3" y="794.7" font-size="9.1px" font-family="'CMUBright-Roman'" style="text-anchor:start;fill:rgb(0,0,0)" transform="rotate(82.1,494.3,794.7)" class="C25"></text>
    <path d="M 484.823,710.180 A262.500,262.500 0.000 0,1 478.406,710.959 L 486.522,785.518 A337.500,337.500 0.000 0,0 494.773,784.517 Z " style="stroke: none;   fill: rgb(179,186,212); " class="C24"/>
    <text x="488.4" y="795.4" font-size="9.1px" font-family="'CMUBright-Roman'" style="text-anchor:start;fill:rgb(0,0,0)" transform="rotate(83.1,488.4,795.4)" class="C24"></text>
    <path d="M 478.218,710.979 A262.500,262.500 0.000 0,1 475.002,711.307 L 482.146,785.966 A337.500,337.500 0.000 0,0 486.280,785.544 Z " style="stroke: none;   fill: rgb(179,186,212); " class="C27"/>
    <text x="481.7" y="796.0" font-size="9.1px" font-family="'CMUBright-Roman'" style="text-anchor:start;fill:rgb(0,0,0)" transform="rotate(84.2,481.7,796.0)" class="C27"></text>
    <path d="M 473.856,701.245 A252.375,252.375 0.000 0,1 453.176,702.355 L 454.120,777.349 A327.375,327.375 0.000 0,0 480.946,775.909 Z " style="stroke: none;   fill: rgb(157,55,110); " class="E316"/>
    <text x="464.6" y="787.1" font-size="9.1px" font-family="'CMUBright-Roman'" style="text-anchor:start;fill:rgb(0,0,0)" transform="rotate(86.9,464.6,787.1)" class="E316"></text>
    <path d="M 452.993,702.357 A252.375,252.375 0.000 0,1 432.292,701.753 L 427.029,776.568 A327.375,327.375 0.000 0,0 453.883,777.352 Z " style="stroke: none;   fill: rgb(157,55,110); " class="E315"/>
    <text x="443.7" y="787.3" font-size="9.1px" font-family="'CMUBright-Roman'" style="text-anchor:end;fill:rgb(0,0,0)" transform="rotate(-88.3,443.7,787.3)" class="E315"></text>
    <path d="M 432.110,701.740 A252.375,252.375 0.000 0,1 411.529,699.426 L 400.097,773.549 A327.375,327.375 0.000 0,0 426.793,776.551 Z " style="stroke: none;   fill: rgb(157,55,110); " class="E314"/>
    <text x="415.8" y="785.6" font-size="9.1px" font-family="'CMUBright-Roman'" style="text-anchor:end;fill:rgb(0,0,0)" transform="rotate(-83.6,415.8,785.6)" class="E314"></text>
    <path d="M 411.349,699.398 A252.375,252.375 0.000 0,1 391.030,695.389 L 373.506,768.313 A327.375,327.375 0.000 0,0 399.863,773.513 Z " style="stroke: none;   fill: rgb(157,55,110); " class="E313"/>
    <text x="388.1" y="781.7" font-size="9.1px" font-family="'CMUBright-Roman'" style="text-anchor:end;fill:rgb(0,0,0)" transform="rotate(-78.8,388.1,781.7)" class="E313"></text>
    <path d="M 390.853,695.346 A252.375,252.375 0.000 0,1 370.936,689.671 L 347.439,760.895 A327.375,327.375 0.000 0,0 373.276,768.257 Z " style="stroke: none;   fill: rgb(157,55,110); " class="E312"/>
    <text x="360.9" y="775.4" font-size="9.1px" font-family="'CMUBright-Roman'" style="text-anchor:end;fill:rgb(0,0,0)" transform="rotate(-74.1,360.9,775.4)" class="E312"></text>
    <path d="M 370.762,689.613 A252.375,252.375 0.000 0,1 351.383,682.310 L 322.076,751.347 A327.375,327.375 0.000 0,0 347.215,760.821 Z " style="stroke: none;   fill: rgb(157,55,110); " class="E311"/>
    <text x="334.3" y="766.9" font-size="9.1px" font-family="'CMUBright-Roman'" style="text-anchor:end;fill:rgb(0,0,0)" transform="rotate(-69.3,334.3,766.9)" class="E311"></text>
    <path d="M 351.215,682.238 A252.375,252.375 0.000 0,1 332.505,673.357 L 297.589,739.733 A327.375,327.375 0.000 0,0 321.858,751.254 Z " style="stroke: none;   fill: rgb(157,55,110); " class="E310"/>
    <text x="308.5" y="756.3" font-size="9.1px" font-family="'CMUBright-Roman'" style="text-anchor:end;fill:rgb(0,0,0)" transform="rotate(-64.6,308.5,756.3)" class="E310"></text>
    <path d="M 332.344,673.272 A252.375,252.375 0.000 0,1 314.434,662.873 L 274.146,726.134 A327.375,327.375 0.000 0,0 297.379,739.623 Z " style="stroke: none;   fill: rgb(157,55,110); " class="E309"/>
    <text x="283.6" y="743.5" font-size="9.1px" font-family="'CMUBright-Roman'" style="text-anchor:end;fill:rgb(0,0,0)" transform="rotate(-59.9,283.6,743.5)" class="E309"></text>
    <path d="M 314.280,662.775 A252.375,252.375 0.000 0,1 297.291,650.930 L 251.909,710.642 A327.375,327.375 0.000 0,0 273.947,726.007 Z " style="stroke: none;   fill: rgb(157,55,110); " class="E305"/>
    <text x="259.9" y="728.7" font-size="9.1px" font-family="'CMUBright-Roman'" style="text-anchor:end;fill:rgb(0,0,0)" transform="rotate(-55.1,259.9,728.7)" class="E305"></text>
    <path d="M 297.145,650.820 A252.375,252.375 0.000 0,1 281.194,637.611 L 231.029,693.364 A327.375,327.375 0.000 0,0 251.721,710.499 Z " style="stroke: none;   fill: rgb(157,55,110); " class="E304"/>
    <text x="237.5" y="712.1" font-size="9.1px" font-family="'CMUBright-Roman'" style="text-anchor:end;fill:rgb(0,0,0)" transform="rotate(-50.4,237.5,712.1)" class="E304"></text>
    <path d="M 281.059,637.489 A252.375,252.375 0.000 0,1 266.255,623.005 L 211.650,674.419 A327.375,327.375 0.000 0,0 230.853,693.206 Z " style="stroke: none;   fill: rgb(157,55,110); " class="E303"/>
    <text x="216.6" y="693.6" font-size="9.1px" font-family="'CMUBright-Roman'" style="text-anchor:end;fill:rgb(0,0,0)" transform="rotate(-45.6,216.6,693.6)" class="E303"></text>
    <path d="M 266.130,622.873 A252.375,252.375 0.000 0,1 252.575,607.215 L 193.905,653.935 A327.375,327.375 0.000 0,0 211.488,674.246 Z " style="stroke: none;   fill: rgb(157,55,110); " class="E302"/>
    <text x="197.2" y="673.5" font-size="9.1px" font-family="'CMUBright-Roman'" style="text-anchor:end;fill:rgb(0,0,0)" transform="rotate(-40.9,197.2,673.5)" class="E302"></text>
    <path d="M 252.461,607.072 A252.375,252.375 0.000 0,1 240.248,590.346 L 177.914,632.054 A327.375,327.375 0.000 0,0 193.757,653.750 Z " style="stroke: none;   fill: rgb(157,55,110); " class="E301"/>
    <text x="179.6" y="651.8" font-size="9.1px" font-family="'CMUBright-Roman'" style="text-anchor:end;fill:rgb(0,0,0)" transform="rotate(-36.1,179.6,651.8)" class="E301"></text>
    <path d="M 240.146,590.194 A252.375,252.375 0.000 0,1 229.358,572.516 L 163.788,608.925 A327.375,327.375 0.000 0,0 177.782,631.857 Z " style="stroke: none;   fill: rgb(157,55,110); " class="E300"/>
    <text x="163.9" y="628.7" font-size="9.1px" font-family="'CMUBright-Roman'" style="text-anchor:end;fill:rgb(0,0,0)" transform="rotate(-31.4,163.9,628.7)" class="E300"></text>
    <path d="M 229.269,572.356 A252.375,252.375 0.000 0,1 219.980,553.846 L 151.624,584.707 A327.375,327.375 0.000 0,0 163.673,608.718 Z " style="stroke: none;   fill: rgb(157,55,110); " class="E299"/>
    <text x="150.1" y="604.4" font-size="9.1px" font-family="'CMUBright-Roman'" style="text-anchor:end;fill:rgb(0,0,0)" transform="rotate(-26.6,150.1,604.4)" class="E299"></text>
    <path d="M 219.905,553.680 A252.375,252.375 0.000 0,1 212.179,534.465 L 141.504,559.566 A327.375,327.375 0.000 0,0 151.526,584.491 Z " style="stroke: none;   fill: rgb(157,55,110); " class="E298"/>
    <text x="138.3" y="579.1" font-size="9.1px" font-family="'CMUBright-Roman'" style="text-anchor:end;fill:rgb(0,0,0)" transform="rotate(-21.9,138.3,579.1)" class="E298"></text>
    <path d="M 212.118,534.293 A252.375,252.375 0.000 0,1 206.008,514.504 L 133.499,533.674 A327.375,327.375 0.000 0,0 141.425,559.343 Z " style="stroke: none;   fill: rgb(157,55,110); " class="E297"/>
    <text x="128.7" y="552.9" font-size="9.1px" font-family="'CMUBright-Roman'" style="text-anchor:end;fill:rgb(0,0,0)" transform="rotate(-17.2,128.7,552.9)" class="E297"></text>
    <path d="M 205.961,514.328 A252.375,252.375 0.000 0,1 201.508,494.102 L 127.662,507.208 A327.375,327.375 0.000 0,0 133.438,533.445 Z " style="stroke: none;   fill: rgb(157,55,110); " class="E296"/>
    <text x="121.3" y="525.9" font-size="9.1px" font-family="'CMUBright-Roman'" style="text-anchor:end;fill:rgb(0,0,0)" transform="rotate(-12.4,121.3,525.9)" class="E296"></text>
    <path d="M 201.476,493.922 A252.375,252.375 0.000 0,1 198.712,473.397 L 124.035,480.350 A327.375,327.375 0.000 0,0 127.621,506.975 Z " style="stroke: none;   fill: rgb(157,55,110); " class="E295"/>
    <text x="116.1" y="498.5" font-size="9.1px" font-family="'CMUBright-Roman'" style="text-anchor:end;fill:rgb(0,0,0)" transform="rotate(-7.7,116.1,498.5)" class="E295"></text>
    <path d="M 198.695,473.216 A252.375,252.375 0.000 0,1 197.638,452.532 L 122.641,453.285 A327.375,327.375 0.000 0,0 124.013,480.115 Z " style="stroke: none;   fill: rgb(157,55,110); " class="E294"/>
    <text x="113.3" y="470.7" font-size="9.1px" font-family="'CMUBright-Roman'" style="text-anchor:end;fill:rgb(0,0,0)" transform="rotate(-2.9,113.3,470.7)" class="E294"></text>
    <path d="M 197.636,452.350 A252.375,252.375 0.000 0,1 198.293,431.650 L 123.492,426.197 A327.375,327.375 0.000 0,0 122.639,453.048 Z " style="stroke: none;   fill: rgb(157,55,110); " class="E293"/>
    <text x="112.7" y="442.8" font-size="9.1px" font-family="'CMUBright-Roman'" style="text-anchor:end;fill:rgb(0,0,0)" transform="rotate(1.8,112.7,442.8)" class="E293"></text>
    <path d="M 198.306,431.468 A252.375,252.375 0.000 0,1 200.673,410.893 L 126.579,399.272 A327.375,327.375 0.000 0,0 123.509,425.961 Z " style="stroke: none;   fill: rgb(157,55,110); " class="E292"/>
    <text x="114.5" y="414.9" font-size="9.1px" font-family="'CMUBright-Roman'" style="text-anchor:end;fill:rgb(0,0,0)" transform="rotate(6.6,114.5,414.9)" class="E292"></text>
    <path d="M 200.702,410.713 A252.375,252.375 0.000 0,1 204.762,390.405 L 131.883,372.694 A327.375,327.375 0.000 0,0 126.616,399.038 Z " style="stroke: none;   fill: rgb(157,55,110); " class="E291"/>
    <text x="118.5" y="387.3" font-size="9.1px" font-family="'CMUBright-Roman'" style="text-anchor:end;fill:rgb(0,0,0)" transform="rotate(11.3,118.5,387.3)" class="E291"></text>
    <path d="M 204.805,390.227 A252.375,252.375 0.000 0,1 210.532,370.325 L 139.368,346.647 A327.375,327.375 0.000 0,0 131.939,372.464 Z " style="stroke: none;   fill: rgb(157,55,110); " class="E290"/>
    <text x="124.8" y="360.1" font-size="9.1px" font-family="'CMUBright-Roman'" style="text-anchor:end;fill:rgb(0,0,0)" transform="rotate(16.1,124.8,360.1)" class="E290"></text>
    <path d="M 210.590,370.151 A252.375,252.375 0.000 0,1 217.943,350.790 L 148.981,321.308 A327.375,327.375 0.000 0,0 139.442,346.422 Z " style="stroke: none;   fill: rgb(157,55,110); " class="E289"/>
    <text x="133.4" y="333.5" font-size="9.1px" font-family="'CMUBright-Roman'" style="text-anchor:end;fill:rgb(0,0,0)" transform="rotate(20.8,133.4,333.5)" class="E289"></text>
    <path d="M 218.014,350.623 A252.375,252.375 0.000 0,1 226.944,331.936 L 160.657,296.850 A327.375,327.375 0.000 0,0 149.074,321.090 Z " style="stroke: none;   fill: rgb(157,55,110); " class="E288"/>
    <text x="144.1" y="307.7" font-size="9.1px" font-family="'CMUBright-Roman'" style="text-anchor:end;fill:rgb(0,0,0)" transform="rotate(25.5,144.1,307.7)" class="E288"></text>
    <path d="M 227.029,331.775 A252.375,252.375 0.000 0,1 237.474,313.891 L 174.316,273.443 A327.375,327.375 0.000 0,0 160.767,296.641 Z " style="stroke: none;   fill: rgb(157,55,110); " class="E287"/>
    <text x="156.9" y="282.9" font-size="9.1px" font-family="'CMUBright-Roman'" style="text-anchor:end;fill:rgb(0,0,0)" transform="rotate(30.3,156.9,282.9)" class="E287"></text>
    <path d="M 237.572,313.737 A252.375,252.375 0.000 0,1 249.460,296.779 L 189.864,251.245 A327.375,327.375 0.000 0,0 174.443,273.243 Z " style="stroke: none;   fill: rgb(157,55,110); " class="E286"/>
    <text x="171.7" y="259.2" font-size="9.1px" font-family="'CMUBright-Roman'" style="text-anchor:end;fill:rgb(0,0,0)" transform="rotate(35.0,171.7,259.2)" class="E286"></text>
    <path d="M 249.571,296.634 A252.375,252.375 0.000 0,1 262.820,280.716 L 207.195,230.409 A327.375,327.375 0.000 0,0 190.008,251.057 Z " style="stroke: none;   fill: rgb(157,55,110); " class="E285"/>
    <text x="188.5" y="236.9" font-size="9.1px" font-family="'CMUBright-Roman'" style="text-anchor:end;fill:rgb(0,0,0)" transform="rotate(39.8,188.5,236.9)" class="E285"></text>
    <path d="M 262.943,280.581 A252.375,252.375 0.000 0,1 277.464,265.814 L 226.190,211.079 A327.375,327.375 0.000 0,0 207.354,230.234 Z " style="stroke: none;   fill: rgb(157,55,110); " class="E284"/>
    <text x="207.0" y="216.0" font-size="9.1px" font-family="'CMUBright-Roman'" style="text-anchor:end;fill:rgb(0,0,0)" transform="rotate(44.5,207.0,216.0)" class="E284"></text>
    <path d="M 277.597,265.690 A252.375,252.375 0.000 0,1 293.289,252.174 L 246.719,193.385 A327.375,327.375 0.000 0,0 226.363,210.917 Z " style="stroke: none;   fill: rgb(157,55,110); " class="E283"/>
    <text x="227.2" y="196.7" font-size="9.1px" font-family="'CMUBright-Roman'" style="text-anchor:end;fill:rgb(0,0,0)" transform="rotate(49.3,227.2,196.7)" class="E283"></text>
    <path d="M 293.433,252.061 A252.375,252.375 0.000 0,1 310.189,239.890 L 268.641,177.451 A327.375,327.375 0.000 0,0 246.904,193.238 Z " style="stroke: none;   fill: rgb(157,55,110); " class="E282"/>
    <text x="248.9" y="179.1" font-size="9.1px" font-family="'CMUBright-Roman'" style="text-anchor:end;fill:rgb(0,0,0)" transform="rotate(54.0,248.9,179.1)" class="E282"></text>
    <path d="M 310.341,239.789 A252.375,252.375 0.000 0,1 328.047,229.046 L 291.806,163.384 A327.375,327.375 0.000 0,0 268.838,177.320 Z " style="stroke: none;   fill: rgb(157,55,110); " class="E281"/>
    <text x="272.0" y="163.4" font-size="9.1px" font-family="'CMUBright-Roman'" style="text-anchor:end;fill:rgb(0,0,0)" transform="rotate(58.8,272.0,163.4)" class="E281"></text>
    <path d="M 328.207,228.958 A252.375,252.375 0.000 0,1 346.741,219.716 L 316.055,151.281 A327.375,327.375 0.000 0,0 292.013,163.269 Z " style="stroke: none;   fill: rgb(157,55,110); " class="E280"/>
    <text x="296.3" y="149.7" font-size="9.1px" font-family="'CMUBright-Roman'" style="text-anchor:end;fill:rgb(0,0,0)" transform="rotate(63.5,296.3,149.7)" class="E280"></text>
    <path d="M 346.907,219.641 A252.375,252.375 0.000 0,1 366.142,211.964 L 341.221,141.226 A327.375,327.375 0.000 0,0 316.271,151.184 Z " style="stroke: none;   fill: rgb(157,55,110); " class="E279"/>
    <text x="321.7" y="138.0" font-size="9.1px" font-family="'CMUBright-Roman'" style="text-anchor:end;fill:rgb(0,0,0)" transform="rotate(68.2,321.7,138.0)" class="E279"></text>
    <path d="M 362.957,202.352 A262.500,262.500 0.000 0,1 447.466,187.512 L 446.742,112.516 A337.500,337.500 0.000 0,0 338.087,131.595 Z " style="stroke: none;   fill: rgb(179,186,212); " class="C2"/>
    <text x="386.5" y="108.4" font-size="9.1px" font-family="'CMUBright-Roman'" style="text-anchor:end;fill:rgb(0,0,0)" transform="rotate(80.0,386.5,108.4)" class="C2"></text>
    <path d="M 447.656,187.510 A262.500,262.500 0.000 0,1 449.810,187.500 L 449.756,112.500 A337.500,337.500 0.000 0,0 446.986,112.513 Z " style="stroke: none;   fill: rgb(179,186,212); " class="C1"/>
    <text x="444.8" y="102.5" font-size="9.1px" font-family="'CMUBright-Roman'" style="text-anchor:end;fill:rgb(0,0,0)" transform="rotate(89.7,444.8,102.5)" class="C1"></text>
  </g>
  <g id="E286">
    <path d="M 686.047,407.992 A 239.756,239.756 0.00 0,1 686.4,409.9 Q 478.9,469.4 502.5,683.9 A 239.756,239.756 0.00 0,1 484.1,687.3 Q 477.0,469.5 686.0,408.0 Z" style="stroke-width: 1.0;  stroke: rgb(180,180,180); fill: rgb(222,220,70);" opacity="0.5"/>
  </g>
  <g id="E286">
    <path d="M 689.092,467.839 A 239.756,239.756 0.00 0,1 688.9,469.8 Q 486.5,472.4 576.3,653.8 A 239.756,239.756 0.00 0,1 566.1,659.8 Q 485.5,472.8 689.1,467.8 Z" style="stroke-width: 1.0;  stroke: rgb(180,180,180); fill: rgb(222,220,70);" opacity="0.5"/>
  </g>
  <g id="E286">
    <path d="M 689.092,467.839 A 239.756,239.756 0.00 0,1 688.9,469.8 Q 487.2,471.9 583.1,649.4 A 239.756,239.756 0.00 0,1 576.4,653.7 Q 486.6,472.2 689.1,467.8 Z" style="stroke-width: 1.0;  stroke: rgb(180,180,180); fill: rgb(222,220,70);" opacity="0.5"/>
  </g>
  <g id="E286">
    <path d="M 259.592,304.302 A 239.756,239.756 0.00 0,1 272.2,289.2 Q 449.6,417.4 623.6,284.7 A 239.756,239.756 0.00 0,1 625.0,286.1 Q 448.5,419.0 259.6,304.3 Z" style="stroke-width: 1.0;  stroke: rgb(180,180,180); fill: rgb(222,220,70);" opacity="0.5"/>
    <path d="M 393.810,683.079 A 239.756,239.756 0.00 0,1 374.9,677.7 Q 461.8,458.5 642.9,307.7 A 239.756,239.756 0.00 0,1 644.1,309.3 Q 463.8,459.2 393.8,683.1 Z" style="stroke-width: 1.0;  stroke: rgb(180,180,180); fill: rgb(222,220,70);" opacity="0.5"/>
    <path d="M 262.338,599.218 A 239.756,239.756 0.00 0,1 250.7,583.3 Q 454.0,465.1 689.1,467.8 A 239.756,239.756 0.00 0,1 688.9,469.8 Q 455.1,466.9 262.3,599.2 Z" style="stroke-width: 1.0;  stroke: rgb(180,180,180); fill: rgb(222,220,70);" opacity="0.5"/>
    <path d="M 304.788,640.779 A 239.756,239.756 0.00 0,1 289.6,628.2 Q 437.3,444.1 483.9,212.6 A 239.756,239.756 0.00 0,1 485.8,212.9 Q 439.1,445.4 304.8,640.8 Z" style="stroke-width: 1.0;  stroke: rgb(180,180,180); fill: rgb(222,220,70);" opacity="0.5"/>
    <path d="M 250.639,583.185 A 239.756,239.756 0.00 0,1 240.4,566.4 Q 446.4,445.1 623.6,284.7 A 239.756,239.756 0.00 0,1 625.0,286.1 Q 447.6,446.9 250.6,583.2 Z" style="stroke-width: 1.0;  stroke: rgb(180,180,180); fill: rgb(222,220,70);" opacity="0.5"/>
    <path d="M 286.217,274.905 A 239.756,239.756 0.00 0,1 301.1,262.1 Q 456.9,421.3 668.3,350.8 A 239.756,239.756 0.00 0,1 669.1,352.6 Q 455.5,422.7 286.2,274.9 Z" style="stroke-width: 1.0;  stroke: rgb(180,180,180); fill: rgb(222,220,70);" opacity="0.5"/>
    <path d="M 210.891,432.395 A 239.756,239.756 0.00 0,1 213.1,412.8 Q 449.3,453.0 680.2,517.0 A 239.756,239.756 0.00 0,1 679.6,518.9 Q 449.1,455.1 210.9,432.4 Z" style="stroke-width: 1.0;  stroke: rgb(180,180,180); fill: rgb(222,220,70);" opacity="0.5"/>
    <path d="M 289.506,628.114 A 239.756,239.756 0.00 0,1 275.4,614.4 Q 456.3,463.2 687.6,417.9 A 239.756,239.756 0.00 0,1 687.9,419.8 Q 457.7,464.8 289.5,628.1 Z" style="stroke-width: 1.0;  stroke: rgb(180,180,180); fill: rgb(222,220,70);" opacity="0.5"/>
    <path d="M 210.254,452.232 A 239.756,239.756 0.00 0,1 210.9,432.6 Q 443.5,431.7 623.6,284.7 A 239.756,239.756 0.00 0,1 625.0,286.1 Q 443.5,433.8 210.3,452.2 Z" style="stroke-width: 1.0;  stroke: rgb(180,180,180); fill: rgb(222,220,70);" opacity="0.5"/>
    <path d="M 352.062,231.159 A 239.756,239.756 0.00 0,1 370.3,223.9 Q 458.0,409.5 609.2,270.8 A 239.756,239.756 0.00 0,1 610.7,272.1 Q 456.3,410.3 352.1,231.2 Z" style="stroke-width: 1.0;  stroke: rgb(180,180,180); fill: rgb(222,220,70);" opacity="0.5"/>
    <path d="M 213.167,412.677 A 239.756,239.756 0.00 0,1 217.0,393.4 Q 444.1,427.8 623.6,284.7 A 239.756,239.756 0.00 0,1 625.0,286.1 Q 443.8,429.9 213.2,412.7 Z" style="stroke-width: 1.0;  stroke: rgb(180,180,180); fill: rgb(222,220,70);" opacity="0.5"/>
    <path d="M 211.260,472.055 A 239.756,239.756 0.00 0,1 210.3,452.4 Q 449.0,456.9 680.2,517.0 A 239.756,239.756 0.00 0,1 679.6,518.9 Q 449.1,459.1 211.3,472.1 Z" style="stroke-width: 1.0;  stroke: rgb(180,180,180); fill: rgb(222,220,70);" opacity="0.5"/>
    <path d="M 240.306,566.239 A 239.756,239.756 0.00 0,1 231.5,548.7 Q 451.6,464.6 685.0,497.6 A 239.756,239.756 0.00 0,1 684.6,499.5 Q 452.5,466.6 240.3,566.2 Z" style="stroke-width: 1.0;  stroke: rgb(180,180,180); fill: rgb(222,220,70);" opacity="0.5"/>
    <path d="M 275.323,614.229 A 239.756,239.756 0.00 0,1 262.4,599.4 Q 454.7,459.8 684.1,398.2 A 239.756,239.756 0.00 0,1 684.5,400.1 Q 456.0,461.4 275.3,614.2 Z" style="stroke-width: 1.0;  stroke: rgb(180,180,180); fill: rgb(222,220,70);" opacity="0.5"/>
    <path d="M 238.178,337.686 A 239.756,239.756 0.00 0,1 248.1,320.7 Q 453.4,432.9 686.0,408.0 A 239.756,239.756 0.00 0,1 686.4,409.9 Q 452.5,434.8 238.2,337.7 Z" style="stroke-width: 1.0;  stroke: rgb(180,180,180); fill: rgb(222,220,70);" opacity="0.5"/>
    <path d="M 321.066,652.136 A 239.756,239.756 0.00 0,1 304.9,640.9 Q 445.6,447.3 550.8,232.5 A 239.756,239.756 0.00 0,1 552.6,233.3 Q 447.4,448.5 321.1,652.1 Z" style="stroke-width: 1.0;  stroke: rgb(180,180,180); fill: rgb(222,220,70);" opacity="0.5"/>
    <path d="M 224.012,530.078 A 239.756,239.756 0.00 0,1 218.2,511.3 Q 445.5,441.1 636.8,299.7 A 239.756,239.756 0.00 0,1 638.1,301.3 Q 446.2,443.1 224.0,530.1 Z" style="stroke-width: 1.0;  stroke: rgb(180,180,180); fill: rgb(222,220,70);" opacity="0.5"/>
    <path d="M 413.282,686.928 A 239.756,239.756 0.00 0,1 394.0,683.1 Q 467.3,466.2 678.9,378.8 A 239.756,239.756 0.00 0,1 679.5,380.7 Q 469.3,466.8 413.3,686.9 Z" style="stroke-width: 1.0;  stroke: rgb(180,180,180); fill: rgb(222,220,70);" opacity="0.5"/>
    <path d="M 334.297,240.010 A 239.756,239.756 0.00 0,1 351.9,231.2 Q 447.5,405.3 522.9,221.6 A 239.756,239.756 0.00 0,1 524.7,222.2 Q 445.9,406.2 334.3,240.0 Z" style="stroke-width: 1.0;  stroke: rgb(180,180,180); fill: rgb(222,220,70);" opacity="0.5"/>
    <path d="M 222.560,374.144 A 239.756,239.756 0.00 0,1 229.5,355.8 Q 450.7,448.2 677.2,526.6 A 239.756,239.756 0.00 0,1 676.6,528.4 Q 449.9,450.3 222.6,374.1 Z" style="stroke-width: 1.0;  stroke: rgb(180,180,180); fill: rgb(222,220,70);" opacity="0.5"/>
    <path d="M 356.154,670.626 A 239.756,239.756 0.00 0,1 338.4,662.2 Q 443.2,447.6 493.7,214.3 A 239.756,239.756 0.00 0,1 495.7,214.6 Q 445.2,448.5 356.2,670.6 Z" style="stroke-width: 1.0;  stroke: rgb(180,180,180); fill: rgb(222,220,70);" opacity="0.5"/>
    <path d="M 218.163,511.111 A 239.756,239.756 0.00 0,1 213.9,491.9 Q 449.9,458.9 685.0,497.6 A 239.756,239.756 0.00 0,1 684.6,499.5 Q 450.3,461.1 218.2,511.1 Z" style="stroke-width: 1.0;  stroke: rgb(180,180,180); fill: rgb(222,220,70);" opacity="0.5"/>
    <path d="M 217.065,393.216 A 239.756,239.756 0.00 0,1 222.5,374.3 Q 447.7,429.9 654.1,324.3 A 239.756,239.756 0.00 0,1 655.2,326.0 Q 447.2,431.9 217.1,393.2 Z" style="stroke-width: 1.0;  stroke: rgb(180,180,180); fill: rgb(222,220,70);" opacity="0.5"/>
    <path d="M 231.410,548.496 A 239.756,239.756 0.00 0,1 224.1,530.2 Q 450.7,463.8 682.8,507.3 A 239.756,239.756 0.00 0,1 682.3,509.3 Q 451.4,465.8 231.4,548.5 Z" style="stroke-width: 1.0;  stroke: rgb(180,180,180); fill: rgb(222,220,70);" opacity="0.5"/>
    <path d="M 248.193,320.551 A 239.756,239.756 0.00 0,1 259.5,304.4 Q 454.9,437.2 689.1,467.8 A 239.756,239.756 0.00 0,1 688.9,469.8 Q 453.7,439.0 248.2,320.6 Z" style="stroke-width: 1.0;  stroke: rgb(180,180,180); fill: rgb(143,147,64);" opacity="0.8"/>
    <path d="M 472.664,688.683 A 239.756,239.756 0.00 0,1 453.0,689.7 Q 472.5,465.0 672.2,360.0 A 239.756,239.756 0.00 0,1 672.9,361.8 Q 474.6,465.0 472.7,688.7 Z" style="stroke-width: 1.0;  stroke: rgb(180,180,180); fill: rgb(222,220,70);" opacity="0.5"/>
    <path d="M 213.903,491.726 A 239.756,239.756 0.00 0,1 211.3,472.2 Q 446.8,464.4 656.4,572.0 A 239.756,239.756 0.00 0,1 655.4,573.7 Q 446.9,466.5 213.9,491.7 Z" style="stroke-width: 1.0;  stroke: rgb(180,180,180); fill: rgb(222,220,70);" opacity="0.5"/>
    <path d="M 317.324,250.300 A 239.756,239.756 0.00 0,1 334.1,240.1 Q 455.8,412.5 623.6,284.7 A 239.756,239.756 0.00 0,1 625.0,286.1 Q 454.2,413.6 317.3,250.3 Z" style="stroke-width: 1.0;  stroke: rgb(180,180,180); fill: rgb(222,220,70);" opacity="0.5"/>
    <path d="M 338.227,662.108 A 239.756,239.756 0.00 0,1 321.2,652.2 Q 457.2,483.3 651.1,580.5 A 239.756,239.756 0.00 0,1 650.0,582.2 Q 458.8,484.4 338.2,662.1 Z" style="stroke-width: 1.0;  stroke: rgb(180,180,180); fill: rgb(222,220,70);" opacity="0.5"/>
    <path d="M 374.724,677.633 A 239.756,239.756 0.00 0,1 356.3,670.7 Q 458.0,455.5 623.6,284.7 A 239.756,239.756 0.00 0,1 625.0,286.1 Q 460.0,456.4 374.7,677.6 Z" style="stroke-width: 1.0;  stroke: rgb(180,180,180); fill: rgb(222,220,70);" opacity="0.5"/>
    <path d="M 301.261,261.958 A 239.756,239.756 0.00 0,1 317.2,250.4 Q 458.3,440.5 665.9,554.4 A 239.756,239.756 0.00 0,1 665.0,556.1 Q 456.6,441.8 301.3,262.0 Z" style="stroke-width: 1.0;  stroke: rgb(180,180,180); fill: rgb(222,220,70);" opacity="0.5"/>
    <path d="M 272.296,289.052 A 239.756,239.756 0.00 0,1 286.1,275.0 Q 439.9,409.4 513.3,218.7 A 239.756,239.756 0.00 0,1 515.2,219.3 Q 438.7,410.8 272.3,289.1 Z" style="stroke-width: 1.0;  stroke: rgb(180,180,180); fill: rgb(222,220,70);" opacity="0.5"/>
    <path d="M 433.004,689.153 A 239.756,239.756 0.00 0,1 413.5,687.0 Q 460.7,454.5 593.7,258.1 A 239.756,239.756 0.00 0,1 595.3,259.3 Q 462.8,454.8 433.0,689.2 Z" style="stroke-width: 1.0;  stroke: rgb(180,180,180); fill: rgb(222,220,70);" opacity="0.5"/>
    <path d="M 452.844,689.739 A 239.756,239.756 0.00 0,1 433.2,689.2 Q 470.7,482.5 673.8,536.0 A 239.756,239.756 0.00 0,1 673.1,537.8 Q 472.6,482.8 452.8,689.7 Z" style="stroke-width: 1.0;  stroke: rgb(180,180,180); fill: rgb(222,220,70);" opacity="0.5"/>
    <path d="M 229.614,355.592 A 239.756,239.756 0.00 0,1 238.1,337.8 Q 431.2,414.9 473.9,211.4 A 239.756,239.756 0.00 0,1 475.9,211.6 Q 430.5,416.7 229.6,355.6 Z" style="stroke-width: 1.0;  stroke: rgb(180,180,180); fill: rgb(222,220,70);" opacity="0.5"/>
  </g>
  <g id="E286">
    <path d="M 675.776,369.326 A 239.756,239.756 0.00 0,1 676.4,371.2 Q 495.4,449.8 677.2,526.6 A 239.756,239.756 0.00 0,1 676.6,528.4 Q 495.2,449.8 675.8,369.3 Z" style="stroke-width: 1.0;  stroke: rgb(180,180,180); fill: rgb(222,220,70);" opacity="0.5"/>
    <path d="M 680.199,517.018 A 239.756,239.756 0.00 0,1 679.6,518.9 Q 490.3,440.4 623.6,284.7 A 239.756,239.756 0.00 0,1 625.0,286.1 Q 490.5,440.3 680.2,517.0 Z" style="stroke-width: 1.0;  stroke: rgb(180,180,180); fill: rgb(222,220,70);" opacity="0.5"/>
    <path d="M 687.596,417.885 A 239.756,239.756 0.00 0,1 687.9,419.8 Q 497.2,441.8 684.1,398.2 A 239.756,239.756 0.00 0,1 684.5,400.1 Q 497.2,441.8 687.6,417.9 Z" style="stroke-width: 1.0;  stroke: rgb(180,180,180); fill: rgb(222,220,70);" opacity="0.5"/>
    <path d="M 689.628,457.840 A 239.756,239.756 0.00 0,1 689.6,459.8 Q 497.9,452.8 689.1,467.8 A 239.756,239.756 0.00 0,1 688.9,469.8 Q 497.9,452.8 689.6,457.8 Z" style="stroke-width: 1.0;  stroke: rgb(180,180,180); fill: rgb(222,220,70);" opacity="0.5"/>
    <path d="M 493.744,214.268 A 239.756,239.756 0.00 0,1 495.7,214.6 Q 471.2,409.2 616.6,277.6 A 239.756,239.756 0.00 0,1 618.0,278.9 Q 471.2,409.3 493.7,214.3 Z" style="stroke-width: 1.0;  stroke: rgb(180,180,180); fill: rgb(222,220,70);" opacity="0.5"/>
    <path d="M 672.210,359.969 A 239.756,239.756 0.00 0,1 672.9,361.8 Q 494.7,449.8 673.8,536.0 A 239.756,239.756 0.00 0,1 673.1,537.8 Q 494.5,449.8 672.2,360.0 Z" style="stroke-width: 1.0;  stroke: rgb(180,180,180); fill: rgb(222,220,70);" opacity="0.5"/>
    <path d="M 473.923,211.440 A 239.756,239.756 0.00 0,1 475.9,211.6 Q 476.5,424.9 689.4,437.8 A 239.756,239.756 0.00 0,1 689.5,439.8 Q 476.3,425.1 473.9,211.4 Z" style="stroke-width: 1.0;  stroke: rgb(180,180,180); fill: rgb(222,220,70);" opacity="0.5"/>
    <path d="M 687.596,417.885 A 239.756,239.756 0.00 0,1 687.9,419.8 Q 497.7,447.8 689.6,457.8 A 239.756,239.756 0.00 0,1 689.6,459.8 Q 497.7,447.8 687.6,417.9 Z" style="stroke-width: 1.0;  stroke: rgb(180,180,180); fill: rgb(222,220,70);" opacity="0.5"/>
    <path d="M 680.199,517.018 A 239.756,239.756 0.00 0,1 679.6,518.9 Q 496.8,454.7 688.7,427.8 A 239.756,239.756 0.00 0,1 688.9,429.8 Q 496.9,454.7 680.2,517.0 Z" style="stroke-width: 1.0;  stroke: rgb(180,180,180); fill: rgb(222,220,70);" opacity="0.5"/>
    <path d="M 654.146,324.272 A 239.756,239.756 0.00 0,1 655.2,326.0 Q 493.1,429.5 675.8,369.3 A 239.756,239.756 0.00 0,1 676.4,371.2 Q 493.1,429.5 654.1,324.3 Z" style="stroke-width: 1.0;  stroke: rgb(180,180,180); fill: rgb(222,220,70);" opacity="0.5"/>
    <path d="M 689.092,467.839 A 239.756,239.756 0.00 0,1 688.9,469.8 Q 497.6,455.8 686.8,487.7 A 239.756,239.756 0.00 0,1 686.5,489.7 Q 497.6,455.8 689.1,467.8 Z" style="stroke-width: 1.0;  stroke: rgb(180,180,180); fill: rgb(222,220,70);" opacity="0.5"/>
    <path d="M 686.770,487.725 A 239.756,239.756 0.00 0,1 686.5,489.7 Q 497.6,455.8 689.1,467.8 A 239.756,239.756 0.00 0,1 688.9,469.8 Q 497.6,455.8 686.8,487.7 Z" style="stroke-width: 1.0;  stroke: rgb(180,180,180); fill: rgb(143,147,64);" opacity="0.8"/>
    <path d="M 689.092,467.839 A 239.756,239.756 0.00 0,1 688.9,469.8 Q 497.6,455.8 686.8,487.7 A 239.756,239.756 0.00 0,1 686.5,489.7 Q 497.6,455.8 689.1,467.8 Z" style="stroke-width: 1.0;  stroke: rgb(180,180,180); fill: rgb(143,147,64);" opacity="0.8"/>
    <path d="M 672.210,359.969 A 239.756,239.756 0.00 0,1 672.9,361.8 Q 490.3,425.4 630.4,292.1 A 239.756,239.756 0.00 0,1 631.7,293.6 Q 490.4,425.4 672.2,360.0 Z" style="stroke-width: 1.0;  stroke: rgb(180,180,180); fill: rgb(222,220,70);" opacity="0.5"/>
    <path d="M 675.776,369.326 A 239.756,239.756 0.00 0,1 676.4,371.2 Q 478.0,418.7 503.5,216.3 A 239.756,239.756 0.00 0,1 505.5,216.7 Q 478.1,418.6 675.8,369.3 Z" style="stroke-width: 1.0;  stroke: rgb(180,180,180); fill: rgb(222,220,70);" opacity="0.5"/>
    <path d="M 483.863,212.647 A 239.756,239.756 0.00 0,1 485.8,212.9 Q 477.1,431.1 685.0,497.6 A 239.756,239.756 0.00 0,1 684.6,499.5 Q 476.8,431.2 483.9,212.6 Z" style="stroke-width: 1.0;  stroke: rgb(180,180,180); fill: rgb(222,220,70);" opacity="0.5"/>
    <path d="M 585.601,252.274 A 239.756,239.756 0.00 0,1 587.2,253.4 Q 487.7,430.1 689.7,447.8 A 239.756,239.756 0.00 0,1 689.8,449.8 Q 487.5,430.2 585.6,252.3 Z" style="stroke-width: 1.0;  stroke: rgb(180,180,180); fill: rgb(222,220,70);" opacity="0.5"/>
    <path d="M 559.828,236.878 A 239.756,239.756 0.00 0,1 561.6,237.8 Q 482.5,418.0 663.9,341.7 A 239.756,239.756 0.00 0,1 664.8,343.5 Q 482.5,418.0 559.8,236.9 Z" style="stroke-width: 1.0;  stroke: rgb(180,180,180); fill: rgb(222,220,70);" opacity="0.5"/>
    <path d="M 463.942,210.649 A 239.756,239.756 0.00 0,1 465.9,210.8 Q 459.8,403.6 532.3,224.8 A 239.756,239.756 0.00 0,1 534.2,225.5 Q 459.8,403.6 463.9,210.6 Z" style="stroke-width: 1.0;  stroke: rgb(180,180,180); fill: rgb(222,220,70);" opacity="0.5"/>
    <path d="M 616.592,277.575 A 239.756,239.756 0.00 0,1 618.0,278.9 Q 490.6,435.7 688.1,477.8 A 239.756,239.756 0.00 0,1 687.9,479.8 Q 490.4,435.7 616.6,277.6 Z" style="stroke-width: 1.0;  stroke: rgb(180,180,180); fill: rgb(222,220,70);" opacity="0.5"/>
    <path d="M 483.863,212.647 A 239.756,239.756 0.00 0,1 485.8,212.9 Q 477.3,423.1 687.6,417.9 A 239.756,239.756 0.00 0,1 687.9,419.8 Q 477.2,423.2 483.9,212.6 Z" style="stroke-width: 1.0;  stroke: rgb(180,180,180); fill: rgb(222,220,70);" opacity="0.5"/>
    <path d="M 656.390,572.009 A 239.756,239.756 0.00 0,1 655.4,573.7 Q 493.6,469.1 680.2,517.0 A 239.756,239.756 0.00 0,1 679.6,518.9 Q 493.6,469.1 656.4,572.0 Z" style="stroke-width: 1.0;  stroke: rgb(180,180,180); fill: rgb(222,220,70);" opacity="0.5"/>
    <path d="M 682.797,507.348 A 239.756,239.756 0.00 0,1 682.3,509.3 Q 496.7,460.7 685.0,497.6 A 239.756,239.756 0.00 0,1 684.6,499.5 Q 496.7,460.7 682.8,507.3 Z" style="stroke-width: 1.0;  stroke: rgb(180,180,180); fill: rgb(222,220,70);" opacity="0.5"/>
    <path d="M 541.664,228.458 A 239.756,239.756 0.00 0,1 543.5,229.2 Q 472.1,407.6 577.2,246.8 A 239.756,239.756 0.00 0,1 578.9,247.8 Q 472.1,407.6 541.7,228.5 Z" style="stroke-width: 1.0;  stroke: rgb(180,180,180); fill: rgb(222,220,70);" opacity="0.5"/>
    <path d="M 688.138,477.806 A 239.756,239.756 0.00 0,1 687.9,479.8 Q 495.8,462.5 670.0,545.3 A 239.756,239.756 0.00 0,1 669.2,547.1 Q 495.7,462.5 688.1,477.8 Z" style="stroke-width: 1.0;  stroke: rgb(180,180,180); fill: rgb(222,220,70);" opacity="0.5"/>
    <path d="M 522.860,221.583 A 239.756,239.756 0.00 0,1 524.7,222.2 Q 466.6,405.1 541.7,228.5 A 239.756,239.756 0.00 0,1 543.5,229.2 Q 466.6,405.1 522.9,221.6 Z" style="stroke-width: 1.0;  stroke: rgb(180,180,180); fill: rgb(222,220,70);" opacity="0.5"/>
    <path d="M 648.718,315.858 A 239.756,239.756 0.00 0,1 649.8,317.5 Q 490.9,425.0 659.2,332.9 A 239.756,239.756 0.00 0,1 660.2,334.6 Q 490.9,425.0 648.7,315.9 Z" style="stroke-width: 1.0;  stroke: rgb(180,180,180); fill: rgb(222,220,70);" opacity="0.5"/>
    <path d="M 453.936,210.276 A 239.756,239.756 0.00 0,1 455.9,210.3 Q 474.5,427.8 689.1,467.8 A 239.756,239.756 0.00 0,1 688.9,469.8 Q 474.3,428.0 453.9,210.3 Z" style="stroke-width: 1.0;  stroke: rgb(180,180,180); fill: rgb(222,220,70);" opacity="0.5"/>
    <path d="M 577.227,246.785 A 239.756,239.756 0.00 0,1 578.9,247.8 Q 484.0,441.1 661.3,563.3 A 239.756,239.756 0.00 0,1 660.4,565.0 Q 483.8,441.2 577.2,246.8 Z" style="stroke-width: 1.0;  stroke: rgb(180,180,180); fill: rgb(222,220,70);" opacity="0.5"/>
    <path d="M 689.447,437.820 A 239.756,239.756 0.00 0,1 689.5,439.8 Q 487.5,429.2 585.6,252.3 A 239.756,239.756 0.00 0,1 587.2,253.4 Q 487.7,429.1 689.4,437.8 Z" style="stroke-width: 1.0;  stroke: rgb(180,180,180); fill: rgb(222,220,70);" opacity="0.5"/>
    <path d="M 668.258,350.770 A 239.756,239.756 0.00 0,1 669.1,352.6 Q 473.3,416.3 463.9,210.6 A 239.756,239.756 0.00 0,1 465.9,210.8 Q 473.4,416.2 668.3,350.8 Z" style="stroke-width: 1.0;  stroke: rgb(180,180,180); fill: rgb(222,220,70);" opacity="0.5"/>
    <path d="M 673.805,535.991 A 239.756,239.756 0.00 0,1 673.1,537.8 Q 483.3,437.5 559.8,236.9 A 239.756,239.756 0.00 0,1 561.6,237.8 Q 483.5,437.4 673.8,536.0 Z" style="stroke-width: 1.0;  stroke: rgb(180,180,180); fill: rgb(222,220,70);" opacity="0.5"/>
    <path d="M 681.720,388.444 A 239.756,239.756 0.00 0,1 682.2,390.3 Q 495.0,434.1 668.3,350.8 A 239.756,239.756 0.00 0,1 669.1,352.6 Q 495.1,434.1 681.7,388.4 Z" style="stroke-width: 1.0;  stroke: rgb(180,180,180); fill: rgb(222,220,70);" opacity="0.5"/>
    <path d="M 672.210,359.969 A 239.756,239.756 0.00 0,1 672.9,361.8 Q 495.3,447.9 680.2,517.0 A 239.756,239.756 0.00 0,1 679.6,518.9 Q 495.2,447.9 672.2,360.0 Z" style="stroke-width: 1.0;  stroke: rgb(180,180,180); fill: rgb(222,220,70);" opacity="0.5"/>
    <path d="M 463.942,210.649 A 239.756,239.756 0.00 0,1 465.9,210.8 Q 469.0,409.5 623.6,284.7 A 239.756,239.756 0.00 0,1 625.0,286.1 Q 468.9,409.7 463.9,210.6 Z" style="stroke-width: 1.0;  stroke: rgb(180,180,180); fill: rgb(222,220,70);" opacity="0.5"/>
    <path d="M 682.797,507.348 A 239.756,239.756 0.00 0,1 682.3,509.3 Q 491.9,440.9 636.8,299.7 A 239.756,239.756 0.00 0,1 638.1,301.3 Q 492.1,440.9 682.8,507.3 Z" style="stroke-width: 1.0;  stroke: rgb(180,180,180); fill: rgb(222,220,70);" opacity="0.5"/>
    <path d="M 686.047,407.992 A 239.756,239.756 0.00 0,1 686.4,409.9 Q 474.0,422.0 453.9,210.3 A 239.756,239.756 0.00 0,1 455.9,210.3 Q 474.2,421.8 686.0,408.0 Z" style="stroke-width: 1.0;  stroke: rgb(180,180,180); fill: rgb(222,220,70);" opacity="0.5"/>
    <path d="M 689.092,467.839 A 239.756,239.756 0.00 0,1 688.9,469.8 Q 491.3,435.4 623.6,284.7 A 239.756,239.756 0.00 0,1 625.0,286.1 Q 491.4,435.4 689.1,467.8 Z" style="stroke-width: 1.0;  stroke: rgb(180,180,180); fill: rgb(222,220,70);" opacity="0.5"/>
    <path d="M 623.646,284.682 A 239.756,239.756 0.00 0,1 625.0,286.1 Q 491.4,435.4 689.1,467.8 A 239.756,239.756 0.00 0,1 688.9,469.8 Q 491.3,435.4 623.6,284.7 Z" style="stroke-width: 1.0;  stroke: rgb(180,180,180); fill: rgb(143,147,64);" opacity="0.8"/>
    <path d="M 689.092,467.839 A 239.756,239.756 0.00 0,1 688.9,469.8 Q 491.3,435.4 623.6,284.7 A 239.756,239.756 0.00 0,1 625.0,286.1 Q 491.4,435.4 689.1,467.8 Z" style="stroke-width: 1.0;  stroke: rgb(180,180,180); fill: rgb(143,147,64);" opacity="0.8"/>
    <path d="M 673.805,535.991 A 239.756,239.756 0.00 0,1 673.1,537.8 Q 495.2,451.7 678.9,378.8 A 239.756,239.756 0.00 0,1 679.5,380.7 Q 495.3,451.7 673.8,536.0 Z" style="stroke-width: 1.0;  stroke: rgb(180,180,180); fill: rgb(222,220,70);" opacity="0.5"/>
    <path d="M 681.720,388.444 A 239.756,239.756 0.00 0,1 682.2,390.3 Q 493.1,430.6 648.7,315.9 A 239.756,239.756 0.00 0,1 649.8,317.5 Q 493.2,430.6 681.7,388.4 Z" style="stroke-width: 1.0;  stroke: rgb(180,180,180); fill: rgb(222,220,70);" opacity="0.5"/>
    <path d="M 513.259,218.740 A 239.756,239.756 0.00 0,1 515.2,219.3 Q 479.7,420.8 681.7,388.4 A 239.756,239.756 0.00 0,1 682.2,390.3 Q 479.5,420.9 513.3,218.7 Z" style="stroke-width: 1.0;  stroke: rgb(180,180,180); fill: rgb(222,220,70);" opacity="0.5"/>
    <path d="M 550.834,232.479 A 239.756,239.756 0.00 0,1 552.6,233.3 Q 483.5,434.1 682.8,507.3 A 239.756,239.756 0.00 0,1 682.3,509.3 Q 483.3,434.2 550.8,232.5 Z" style="stroke-width: 1.0;  stroke: rgb(180,180,180); fill: rgb(222,220,70);" opacity="0.5"/>
    <path d="M 616.592,277.575 A 239.756,239.756 0.00 0,1 618.0,278.9 Q 486.9,445.9 651.1,580.5 A 239.756,239.756 0.00 0,1 650.0,582.2 Q 486.7,446.0 616.6,277.6 Z" style="stroke-width: 1.0;  stroke: rgb(180,180,180); fill: rgb(222,220,70);" opacity="0.5"/>
    <path d="M 550.834,232.479 A 239.756,239.756 0.00 0,1 552.6,233.3 Q 463.6,404.6 483.9,212.6 A 239.756,239.756 0.00 0,1 485.8,212.9 Q 463.7,404.5 550.8,232.5 Z" style="stroke-width: 1.0;  stroke: rgb(180,180,180); fill: rgb(222,220,70);" opacity="0.5"/>
    <path d="M 668.258,350.770 A 239.756,239.756 0.00 0,1 669.1,352.6 Q 493.5,450.7 665.9,554.4 A 239.756,239.756 0.00 0,1 665.0,556.1 Q 493.3,450.7 668.3,350.8 Z" style="stroke-width: 1.0;  stroke: rgb(180,180,180); fill: rgb(222,220,70);" opacity="0.5"/>
    <path d="M 453.936,210.276 A 239.756,239.756 0.00 0,1 455.9,210.3 Q 474.1,430.8 685.0,497.6 A 239.756,239.756 0.00 0,1 684.6,499.5 Q 473.9,431.0 453.9,210.3 Z" style="stroke-width: 1.0;  stroke: rgb(180,180,180); fill: rgb(222,220,70);" opacity="0.5"/>
    <path d="M 541.664,228.458 A 239.756,239.756 0.00 0,1 543.5,229.2 Q 475.3,410.0 609.2,270.8 A 239.756,239.756 0.00 0,1 610.7,272.1 Q 475.2,410.1 541.7,228.5 Z" style="stroke-width: 1.0;  stroke: rgb(180,180,180); fill: rgb(222,220,70);" opacity="0.5"/>
    <path d="M 559.828,236.878 A 239.756,239.756 0.00 0,1 561.6,237.8 Q 480.5,414.5 642.9,307.7 A 239.756,239.756 0.00 0,1 644.1,309.3 Q 480.4,414.6 559.8,236.9 Z" style="stroke-width: 1.0;  stroke: rgb(180,180,180); fill: rgb(222,220,70);" opacity="0.5"/>
    <path d="M 656.390,572.009 A 239.756,239.756 0.00 0,1 655.4,573.7 Q 482.4,441.5 568.6,241.6 A 239.756,239.756 0.00 0,1 570.3,242.6 Q 482.7,441.5 656.4,572.0 Z" style="stroke-width: 1.0;  stroke: rgb(180,180,180); fill: rgb(222,220,70);" opacity="0.5"/>
    <path d="M 689.628,457.840 A 239.756,239.756 0.00 0,1 689.6,459.8 Q 489.1,432.4 601.6,264.3 A 239.756,239.756 0.00 0,1 603.1,265.5 Q 489.3,432.3 689.6,457.8 Z" style="stroke-width: 1.0;  stroke: rgb(180,180,180); fill: rgb(222,220,70);" opacity="0.5"/>
    <path d="M 689.447,437.820 A 239.756,239.756 0.00 0,1 689.5,439.8 Q 497.6,444.8 686.0,408.0 A 239.756,239.756 0.00 0,1 686.4,409.9 Q 497.6,444.8 689.4,437.8 Z" style="stroke-width: 1.0;  stroke: rgb(180,180,180); fill: rgb(222,220,70);" opacity="0.5"/>
    <path d="M 673.805,535.991 A 239.756,239.756 0.00 0,1 673.1,537.8 Q 486.7,439.6 593.7,258.1 A 239.756,239.756 0.00 0,1 595.3,259.3 Q 486.9,439.5 673.8,536.0 Z" style="stroke-width: 1.0;  stroke: rgb(180,180,180); fill: rgb(222,220,70);" opacity="0.5"/>
  </g>
  <g id="E286"/>
  <g id="plot0">
    <g id="plot0-axis"/>
    <text x="685.0" y="194.0" font-family="'CMUSansSerif-DemiCondensed'" style="fill: rgb(0,0,0); font-size: 13.0px; text-anchor: start" transform="rotate(311.9,685.0,194.0)">N329</text>
    <text x="561.0" y="120.7" font-family="'CMUSansSerif-DemiCondensed'" style="fill: rgb(0,0,0); font-size: 13.0px; text-anchor: start" transform="rotate(287.9,561.0,120.7)">N333</text>
    <text x="588.1" y="131.1" font-family="'CMUSansSerif-DemiCondensed'" style="fill: rgb(0,0,0); font-size: 13.0px; text-anchor: start" transform="rotate(292.7,588.1,131.1)">N332</text>
    <text x="639.2" y="158.5" font-family="'CMUSansSerif-DemiCondensed'" style="fill: rgb(0,0,0); font-size: 13.0px; text-anchor: start" transform="rotate(302.3,639.2,158.5)">N331</text>
    <text x="753.5" y="619.2" font-family="'CMUSansSerif-DemiCondensed'" style="fill: rgb(0,0,0); font-size: 13.0px; text-anchor: start" transform="rotate(28.4,753.5,619.2)">N330</text>
    <text x="760.3" y="606.3" font-family="'CMUSansSerif-DemiCondensed'" style="fill: rgb(0,0,0); font-size: 13.0px; text-anchor: start" transform="rotate(26.0,760.3,606.3)">N334</text>
    <text x="768.6" y="311.3" font-family="'CMUSansSerif-DemiCondensed'" style="fill: rgb(0,0,0); font-size: 13.0px; text-anchor: start" transform="rotate(335.8,768.6,311.3)">N335</text>
    <text x="475.9" y="103.5" font-family="'CMUSansSerif-DemiCondensed'" style="fill: rgb(0,0,0); font-size: 13.0px; text-anchor: start" transform="rotate(273.6,475.9,103.5)">N152</text>
    <text x="574.6" y="125.6" font-family="'CMUSansSerif-DemiCondensed'" style="fill: rgb(0,0,0); font-size: 13.0px; text-anchor: start" transform="rotate(290.3,574.6,125.6)">N100</text>
    <text x="547.1" y="116.4" font-family="'CMUSansSerif-DemiCondensed'" style="fill: rgb(0,0,0); font-size: 13.0px; text-anchor: start" transform="rotate(285.5,547.1,116.4)">N339</text>
    <text x="787.3" y="366.3" font-family="'CMUSansSerif-DemiCondensed'" style="fill: rgb(0,0,0); font-size: 13.0px; text-anchor: start" transform="rotate(345.4,787.3,366.3)">N338</text>
    <text x="741.1" y="260.3" font-family="'CMUSansSerif-DemiCondensed'" style="fill: rgb(0,0,0); font-size: 13.0px; text-anchor: start" transform="rotate(326.2,741.1,260.3)">N337</text>
    <text x="756.0" y="285.2" font-family="'CMUSansSerif-DemiCondensed'" style="fill: rgb(0,0,0); font-size: 13.0px; text-anchor: start" transform="rotate(331.0,756.0,285.2)">N336</text>
    <text x="796.1" y="481.5" font-family="'CMUSansSerif-DemiCondensed'" style="fill: rgb(0,0,0); font-size: 13.0px; text-anchor: start" transform="rotate(4.5,796.1,481.5)">N161</text>
    <text x="792.2" y="510.3" font-family="'CMUSansSerif-DemiCondensed'" style="fill: rgb(0,0,0); font-size: 13.0px; text-anchor: start" transform="rotate(9.3,792.2,510.3)">N160</text>
    <text x="793.1" y="394.7" font-family="'CMUSansSerif-DemiCondensed'" style="fill: rgb(0,0,0); font-size: 13.0px; text-anchor: start" transform="rotate(350.1,793.1,394.7)">N187</text>
    <text x="461.4" y="102.7" font-family="'CMUSansSerif-DemiCondensed'" style="fill: rgb(0,0,0); font-size: 13.0px; text-anchor: start" transform="rotate(271.2,461.4,102.7)">N186</text>
    <text x="789.4" y="524.5" font-family="'CMUSansSerif-DemiCondensed'" style="fill: rgb(0,0,0); font-size: 13.0px; text-anchor: start" transform="rotate(11.7,789.4,524.5)">N170</text>
    <text x="490.3" y="104.8" font-family="'CMUSansSerif-DemiCondensed'" style="fill: rgb(0,0,0); font-size: 13.0px; text-anchor: start" transform="rotate(276.0,490.3,104.8)">N343</text>
    <text x="797.3" y="438.0" font-family="'CMUSansSerif-DemiCondensed'" style="fill: rgb(0,0,0); font-size: 13.0px; text-anchor: start" transform="rotate(357.3,797.3,438.0)">N342</text>
    <text x="651.2" y="166.7" font-family="'CMUSansSerif-DemiCondensed'" style="fill: rgb(0,0,0); font-size: 13.0px; text-anchor: start" transform="rotate(304.7,651.2,166.7)">N341</text>
    <text x="797.5" y="452.5" font-family="'CMUSansSerif-DemiCondensed'" style="fill: rgb(0,0,0); font-size: 13.0px; text-anchor: start" transform="rotate(359.7,797.5,452.5)">N340</text>
    <text x="777.5" y="566.3" font-family="'CMUSansSerif-DemiCondensed'" style="fill: rgb(0,0,0); font-size: 13.0px; text-anchor: start" transform="rotate(18.9,777.5,566.3)">N344</text>
    <text x="748.8" y="272.6" font-family="'CMUSansSerif-DemiCondensed'" style="fill: rgb(0,0,0); font-size: 13.0px; text-anchor: start" transform="rotate(328.6,748.8,272.6)">N347</text>
    <text x="779.1" y="338.4" font-family="'CMUSansSerif-DemiCondensed'" style="fill: rgb(0,0,0); font-size: 13.0px; text-anchor: start" transform="rotate(340.6,779.1,338.4)">N346</text>
    <text x="533.1" y="112.6" font-family="'CMUSansSerif-DemiCondensed'" style="fill: rgb(0,0,0); font-size: 13.0px; text-anchor: start" transform="rotate(283.1,533.1,112.6)">N345</text>
    <text x="782.0" y="552.6" font-family="'CMUSansSerif-DemiCondensed'" style="fill: rgb(0,0,0); font-size: 13.0px; text-anchor: start" transform="rotate(16.5,782.0,552.6)">N349</text>
    <text x="796.5" y="423.5" font-family="'CMUSansSerif-DemiCondensed'" style="fill: rgb(0,0,0); font-size: 13.0px; text-anchor: start" transform="rotate(354.9,796.5,423.5)">N348</text>
    <text x="746.2" y="631.7" font-family="'CMUSansSerif-DemiCondensed'" style="fill: rgb(0,0,0); font-size: 13.0px; text-anchor: start" transform="rotate(30.8,746.2,631.7)">N351</text>
    <text x="626.8" y="150.9" font-family="'CMUSansSerif-DemiCondensed'" style="fill: rgb(0,0,0); font-size: 13.0px; text-anchor: start" transform="rotate(299.9,626.8,150.9)">N350</text>
    <text x="724.3" y="236.7" font-family="'CMUSansSerif-DemiCondensed'" style="fill: rgb(0,0,0); font-size: 13.0px; text-anchor: start" transform="rotate(321.4,724.3,236.7)">N319</text>
    <text x="786.0" y="538.6" font-family="'CMUSansSerif-DemiCondensed'" style="fill: rgb(0,0,0); font-size: 13.0px; text-anchor: start" transform="rotate(14.1,786.0,538.6)">N352</text>
    <text x="790.5" y="380.4" font-family="'CMUSansSerif-DemiCondensed'" style="fill: rgb(0,0,0); font-size: 13.0px; text-anchor: start" transform="rotate(347.8,790.5,380.4)">N355</text>
    <text x="795.1" y="409.1" font-family="'CMUSansSerif-DemiCondensed'" style="fill: rgb(0,0,0); font-size: 13.0px; text-anchor: start" transform="rotate(352.5,795.1,409.1)">N356</text>
    <text x="797.1" y="467.0" font-family="'CMUSansSerif-DemiCondensed'" style="fill: rgb(0,0,0); font-size: 13.0px; text-anchor: start" transform="rotate(2.1,797.1,467.0)">N354</text>
    <text x="674.1" y="184.4" font-family="'CMUSansSerif-DemiCondensed'" style="fill: rgb(0,0,0); font-size: 13.0px; text-anchor: start" transform="rotate(309.5,674.1,184.4)">N353</text>
    <text x="504.7" y="106.8" font-family="'CMUSansSerif-DemiCondensed'" style="fill: rgb(0,0,0); font-size: 13.0px; text-anchor: start" transform="rotate(278.4,504.7,106.8)">N357</text>
    <text x="601.3" y="137.1" font-family="'CMUSansSerif-DemiCondensed'" style="fill: rgb(0,0,0); font-size: 13.0px; text-anchor: start" transform="rotate(295.1,601.3,137.1)">N358</text>
    <text x="738.4" y="643.9" font-family="'CMUSansSerif-DemiCondensed'" style="fill: rgb(0,0,0); font-size: 13.0px; text-anchor: start" transform="rotate(33.2,738.4,643.9)">N365</text>
    <text x="519.0" y="109.4" font-family="'CMUSansSerif-DemiCondensed'" style="fill: rgb(0,0,0); font-size: 13.0px; text-anchor: start" transform="rotate(280.7,519.0,109.4)">N369</text>
    <text x="695.5" y="204.1" font-family="'CMUSansSerif-DemiCondensed'" style="fill: rgb(0,0,0); font-size: 13.0px; text-anchor: start" transform="rotate(314.2,695.5,204.1)">N368</text>
    <text x="794.5" y="495.9" font-family="'CMUSansSerif-DemiCondensed'" style="fill: rgb(0,0,0); font-size: 13.0px; text-anchor: start" transform="rotate(6.9,794.5,495.9)">N367</text>
    <text x="766.6" y="593.2" font-family="'CMUSansSerif-DemiCondensed'" style="fill: rgb(0,0,0); font-size: 13.0px; text-anchor: start" transform="rotate(23.6,766.6,593.2)">N366</text>
    <text x="783.5" y="352.3" font-family="'CMUSansSerif-DemiCondensed'" style="fill: rgb(0,0,0); font-size: 13.0px; text-anchor: start" transform="rotate(343.0,783.5,352.3)">N359</text>
    <text x="662.8" y="175.3" font-family="'CMUSansSerif-DemiCondensed'" style="fill: rgb(0,0,0); font-size: 13.0px; text-anchor: start" transform="rotate(307.1,662.8,175.3)">N372</text>
    <text x="772.3" y="579.9" font-family="'CMUSansSerif-DemiCondensed'" style="fill: rgb(0,0,0); font-size: 13.0px; text-anchor: start" transform="rotate(21.3,772.3,579.9)">N373</text>
    <text x="614.2" y="143.7" font-family="'CMUSansSerif-DemiCondensed'" style="fill: rgb(0,0,0); font-size: 13.0px; text-anchor: start" transform="rotate(297.5,614.2,143.7)">N371</text>
    <text x="762.6" y="298.2" font-family="'CMUSansSerif-DemiCondensed'" style="fill: rgb(0,0,0); font-size: 13.0px; text-anchor: start" transform="rotate(333.4,762.6,298.2)">N370</text>
    <text x="774.2" y="324.8" font-family="'CMUSansSerif-DemiCondensed'" style="fill: rgb(0,0,0); font-size: 13.0px; text-anchor: start" transform="rotate(338.2,774.2,324.8)">N374</text>
    <text x="705.5" y="214.5" font-family="'CMUSansSerif-DemiCondensed'" style="fill: rgb(0,0,0); font-size: 13.0px; text-anchor: start" transform="rotate(316.6,705.5,214.5)">N17</text>
    <text x="733.0" y="248.3" font-family="'CMUSansSerif-DemiCondensed'" style="fill: rgb(0,0,0); font-size: 13.0px; text-anchor: start" transform="rotate(323.8,733.0,248.3)">N96</text>
    <text x="634.5" y="744.5" font-family="'CMUSansSerif-DemiCondensed'" style="fill: rgb(0,0,0); font-size: 13.0px; text-anchor: start" transform="rotate(57.2,634.5,744.5)">C14</text>
    <text x="622.1" y="751.9" font-family="'CMUSansSerif-DemiCondensed'" style="fill: rgb(0,0,0); font-size: 13.0px; text-anchor: start" transform="rotate(59.6,622.1,751.9)">C15</text>
    <text x="508.6" y="792.5" font-family="'CMUSansSerif-DemiCondensed'" style="fill: rgb(0,0,0); font-size: 13.0px; text-anchor: start" transform="rotate(79.6,508.6,792.5)">C23</text>
    <text x="715.2" y="225.4" font-family="'CMUSansSerif-DemiCondensed'" style="fill: rgb(0,0,0); font-size: 13.0px; text-anchor: start" transform="rotate(319.0,715.2,225.4)">N0</text>
  </g>
  <script>function init(evt) {
    $(evt.target).bind('mouseover', doMouseOver);
    $(evt.target).bind('mouseup'  , doMouseUp);
    $(evt.target).bind('mousedown', doMouseDown);
}</script>
</svg>