<svg width="900px" height="900px" version="1.1" onload="init(evt)" xmlns="http://www.w3.org/2000/svg" xmlns:xlink="http://www.w3.org/1999/xlink">
  <g id="ideograms">
    <path d="M 450.000,197.625 A252.375,252.375 0.000 0,1 475.289,198.895 L 482.804,124.273 A327.375,327.375 0.000 0,0 450.000,122.625 Z " style="stroke: none;   fill: rgb(53,100,153); " class=""/>
    <text x="470.4" y="113.2" font-size="9.1px" font-family="'CMUBright-Roman'" style="text-anchor:start;fill:rgb(0,0,0)" transform="rotate(272.9,470.4,113.2)" class=""></text>
    <path d="M 475.709,198.938 A252.375,252.375 0.000 0,1 500.736,202.778 L 515.814,129.309 A327.375,327.375 0.000 0,0 483.349,124.328 Z " style="stroke: none;   fill: rgb(53,100,153); " class=""/>
    <text x="504.6" y="117.1" font-size="9.1px" font-family="'CMUBright-Roman'" style="text-anchor:start;fill:rgb(0,0,0)" transform="rotate(278.7,504.6,117.1)" class=""></text>
    <path d="M 501.150,202.863 A252.375,252.375 0.000 0,1 525.656,209.232 L 548.140,137.681 A327.375,327.375 0.000 0,0 516.350,129.419 Z " style="stroke: none;   fill: rgb(53,100,153); " class=""/>
    <text x="538.2" y="124.4" font-size="9.1px" font-family="'CMUBright-Roman'" style="text-anchor:start;fill:rgb(0,0,0)" transform="rotate(284.6,538.2,124.4)" class=""></text>
    <path d="M 526.059,209.359 A252.375,252.375 0.000 0,1 549.789,218.191 L 579.444,149.303 A327.375,327.375 0.000 0,0 548.662,137.846 Z " style="stroke: none;   fill: rgb(53,100,153); " class=""/>
    <text x="571.0" y="135.1" font-size="9.1px" font-family="'CMUBright-Roman'" style="text-anchor:start;fill:rgb(0,0,0)" transform="rotate(290.4,571.0,135.1)" class=""></text>
    <path d="M 550.177,218.359 A252.375,252.375 0.000 0,1 572.884,229.562 L 609.402,164.053 A327.375,327.375 0.000 0,0 579.947,149.520 Z " style="stroke: none;   fill: rgb(53,100,153); " class=""/>
    <text x="602.4" y="149.0" font-size="9.1px" font-family="'CMUBright-Roman'" style="text-anchor:start;fill:rgb(0,0,0)" transform="rotate(296.3,602.4,149.0)" class=""></text>
    <path d="M 573.252,229.768 A252.375,252.375 0.000 0,1 594.700,243.227 L 637.701,181.779 A327.375,327.375 0.000 0,0 609.880,164.320 Z " style="stroke: none;   fill: rgb(53,100,153); " class=""/>
    <text x="632.3" y="166.1" font-size="9.1px" font-family="'CMUBright-Roman'" style="text-anchor:start;fill:rgb(0,0,0)" transform="rotate(302.1,632.3,166.1)" class=""></text>
    <path d="M 595.045,243.469 A252.375,252.375 0.000 0,1 615.010,259.043 L 664.048,202.295 A327.375,327.375 0.000 0,0 638.150,182.093 Z " style="stroke: none;   fill: rgb(53,100,153); " class=""/>
    <text x="660.3" y="186.2" font-size="9.1px" font-family="'CMUBright-Roman'" style="text-anchor:start;fill:rgb(0,0,0)" transform="rotate(308.0,660.3,186.2)" class=""></text>
    <path d="M 615.330,259.319 A252.375,252.375 0.000 0,1 633.604,276.845 L 688.167,225.388 A327.375,327.375 0.000 0,0 664.462,202.653 Z " style="stroke: none;   fill: rgb(53,100,153); " class=""/>
    <text x="686.0" y="208.9" font-size="9.1px" font-family="'CMUBright-Roman'" style="text-anchor:start;fill:rgb(0,0,0)" transform="rotate(313.8,686.0,208.9)" class=""></text>
    <path d="M 633.894,277.153 A252.375,252.375 0.000 0,1 650.288,296.449 L 709.809,250.817 A327.375,327.375 0.000 0,0 688.543,225.786 Z " style="stroke: none;   fill: rgb(53,100,153); " class=""/>
    <text x="709.4" y="234.2" font-size="9.1px" font-family="'CMUBright-Roman'" style="text-anchor:start;fill:rgb(0,0,0)" transform="rotate(319.6,709.4,234.2)" class=""></text>
    <path d="M 650.545,296.784 A252.375,252.375 0.000 0,1 664.888,317.651 L 728.748,278.319 A327.375,327.375 0.000 0,0 710.142,251.252 Z " style="stroke: none;   fill: rgb(53,100,153); " class=""/>
    <text x="730.0" y="261.8" font-size="9.1px" font-family="'CMUBright-Roman'" style="text-anchor:start;fill:rgb(0,0,0)" transform="rotate(325.5,730.0,261.8)" class=""></text>
    <path d="M 665.109,318.010 A252.375,252.375 0.000 0,1 677.252,340.229 L 744.786,307.608 A327.375,327.375 0.000 0,0 729.034,278.786 Z " style="stroke: none;   fill: rgb(53,100,153); " class=""/>
    <text x="747.7" y="291.3" font-size="9.1px" font-family="'CMUBright-Roman'" style="text-anchor:start;fill:rgb(0,0,0)" transform="rotate(331.3,747.7,291.3)" class=""></text>
    <path d="M 677.435,340.609 A252.375,252.375 0.000 0,1 687.252,363.950 L 757.758,338.377 A327.375,327.375 0.000 0,0 745.024,308.101 Z " style="stroke: none;   fill: rgb(53,100,153); " class=""/>
    <text x="762.3" y="322.4" font-size="9.1px" font-family="'CMUBright-Roman'" style="text-anchor:start;fill:rgb(0,0,0)" transform="rotate(337.2,762.3,322.4)" class=""></text>
    <path d="M 687.396,364.347 A252.375,252.375 0.000 0,1 694.783,388.565 L 767.527,370.309 A327.375,327.375 0.000 0,0 757.944,338.893 Z " style="stroke: none;   fill: rgb(53,100,153); " class=""/>
    <text x="773.7" y="354.9" font-size="9.1px" font-family="'CMUBright-Roman'" style="text-anchor:start;fill:rgb(0,0,0)" transform="rotate(343.0,773.7,354.9)" class=""></text>
    <path d="M 694.886,388.975 A252.375,252.375 0.000 0,1 699.768,413.820 L 773.994,403.069 A327.375,327.375 0.000 0,0 767.660,370.840 Z " style="stroke: none;   fill: rgb(53,100,153); " class=""/>
    <text x="781.7" y="388.4" font-size="9.1px" font-family="'CMUBright-Roman'" style="text-anchor:start;fill:rgb(0,0,0)" transform="rotate(348.9,781.7,388.4)" class=""></text>
    <path d="M 709.851,412.804 A262.500,262.500 0.000 0,1 711.135,423.263 L 785.745,415.624 A337.500,337.500 0.000 0,0 784.094,402.176 Z " style="stroke: none;   fill: rgb(179,186,212); " class=""/>
    <text x="795.3" y="411.1" font-size="9.1px" font-family="'CMUBright-Roman'" style="text-anchor:start;fill:rgb(0,0,0)" transform="rotate(353.0,795.3,411.1)" class=""></text>
    <path d="M 711.179,423.700 A262.500,262.500 0.000 0,1 712.381,442.100 L 787.347,439.843 A337.500,337.500 0.000 0,0 785.802,416.185 Z " style="stroke: none;   fill: rgb(179,186,212); " class=""/>
    <text x="797.0" y="430.8" font-size="9.1px" font-family="'CMUBright-Roman'" style="text-anchor:start;fill:rgb(0,0,0)" transform="rotate(356.3,797.0,430.8)" class=""></text>
    <path d="M 712.394,442.538 A262.500,262.500 0.000 0,1 712.500,450.442 L 787.500,450.568 A337.500,337.500 0.000 0,0 787.364,440.407 Z " style="stroke: none;   fill: rgb(179,186,212); " class=""/>
    <text x="797.5" y="448.9" font-size="9.1px" font-family="'CMUBright-Roman'" style="text-anchor:start;fill:rgb(0,0,0)" transform="rotate(359.2,797.5,448.9)" class=""></text>
    <path d="M 712.499,450.880 A262.500,262.500 0.000 0,1 712.353,458.783 L 787.311,461.292 A337.500,337.500 0.000 0,0 787.498,451.132 Z " style="stroke: none;   fill: rgb(179,186,212); " class=""/>
    <text x="797.4" y="459.9" font-size="9.1px" font-family="'CMUBright-Roman'" style="text-anchor:start;fill:rgb(0,0,0)" transform="rotate(1.1,797.4,459.9)" class=""></text>
    <path d="M 712.338,459.221 A262.500,262.500 0.000 0,1 711.307,474.994 L 785.967,482.135 A337.500,337.500 0.000 0,0 787.292,461.856 Z " style="stroke: none;   fill: rgb(179,186,212); " class=""/>
    <text x="796.5" y="476.1" font-size="9.1px" font-family="'CMUBright-Roman'" style="text-anchor:start;fill:rgb(0,0,0)" transform="rotate(3.7,796.5,476.1)" class=""></text>
    <path d="M 711.265,475.431 A262.500,262.500 0.000 0,1 707.402,501.482 L 780.946,516.191 A337.500,337.500 0.000 0,0 785.912,482.696 Z " style="stroke: none;   fill: rgb(179,186,212); " class=""/>
    <text x="793.2" y="504.4" font-size="9.1px" font-family="'CMUBright-Roman'" style="text-anchor:start;fill:rgb(0,0,0)" transform="rotate(8.4,793.2,504.4)" class=""></text>
    <path d="M 707.316,501.912 A262.500,262.500 0.000 0,1 705.636,509.636 L 778.675,526.674 A337.500,337.500 0.000 0,0 780.835,516.744 Z " style="stroke: none;   fill: rgb(179,186,212); " class=""/>
    <text x="788.8" y="527.3" font-size="9.1px" font-family="'CMUBright-Roman'" style="text-anchor:start;fill:rgb(0,0,0)" transform="rotate(12.3,788.8,527.3)" class=""></text>
    <path d="M 705.536,510.063 A262.500,262.500 0.000 0,1 694.605,545.260 L 764.492,572.478 A337.500,337.500 0.000 0,0 778.546,527.223 Z " style="stroke: none;   fill: rgb(179,186,212); " class=""/>
    <text x="780.8" y="556.4" font-size="9.1px" font-family="'CMUBright-Roman'" style="text-anchor:start;fill:rgb(0,0,0)" transform="rotate(17.3,780.8,556.4)" class=""></text>
    <path d="M 694.446,545.669 A262.500,262.500 0.000 0,1 681.180,574.347 L 747.231,609.875 A337.500,337.500 0.000 0,0 764.287,573.003 Z " style="stroke: none;   fill: rgb(179,186,212); " class=""/>
    <text x="763.9" y="599.1" font-size="9.1px" font-family="'CMUBright-Roman'" style="text-anchor:start;fill:rgb(0,0,0)" transform="rotate(24.8,763.9,599.1)" class=""></text>
    <path d="M 680.972,574.733 A262.500,262.500 0.000 0,1 640.969,630.104 L 695.531,681.562 A337.500,337.500 0.000 0,0 746.963,610.371 Z " style="stroke: none;   fill: rgb(179,186,212); " class=""/>
    <text x="729.6" y="656.3" font-size="9.1px" font-family="'CMUBright-Roman'" style="text-anchor:start;fill:rgb(0,0,0)" transform="rotate(35.8,729.6,656.3)" class=""></text>
    <path d="M 640.667,630.422 A262.500,262.500 0.000 0,1 635.149,636.081 L 688.049,689.247 A337.500,337.500 0.000 0,0 695.144,681.972 Z " style="stroke: none;   fill: rgb(179,186,212); " class=""/>
    <text x="696.3" y="695.1" font-size="9.1px" font-family="'CMUBright-Roman'" style="text-anchor:start;fill:rgb(0,0,0)" transform="rotate(44.3,696.3,695.1)" class=""></text>
    <path d="M 627.708,629.201 A252.375,252.375 0.000 0,1 588.408,661.037 L 629.539,723.752 A327.375,327.375 0.000 0,0 680.519,682.455 Z " style="stroke: none;   fill: rgb(157,55,110); " class=""/>
    <text x="659.6" y="714.3" font-size="9.1px" font-family="'CMUBright-Roman'" style="text-anchor:start;fill:rgb(0,0,0)" transform="rotate(51.0,659.6,714.3)" class=""></text>
    <path d="M 588.054,661.268 A252.375,252.375 0.000 0,1 543.156,684.553 L 570.840,754.257 A327.375,327.375 0.000 0,0 629.081,724.052 Z " style="stroke: none;   fill: rgb(157,55,110); " class=""/>
    <text x="602.2" y="751.1" font-size="9.1px" font-family="'CMUBright-Roman'" style="text-anchor:start;fill:rgb(0,0,0)" transform="rotate(62.6,602.2,751.1)" class=""></text>
    <path d="M 542.763,684.709 A252.375,252.375 0.000 0,1 494.101,698.492 L 507.206,772.338 A327.375,327.375 0.000 0,0 570.331,754.458 Z " style="stroke: none;   fill: rgb(157,55,110); " class=""/>
    <text x="538.6" y="775.5" font-size="9.1px" font-family="'CMUBright-Roman'" style="text-anchor:start;fill:rgb(0,0,0)" transform="rotate(74.2,538.6,775.5)" class=""></text>
    <path d="M 493.685,698.565 A252.375,252.375 0.000 0,1 443.245,702.285 L 441.237,777.258 A327.375,327.375 0.000 0,0 506.667,772.433 Z " style="stroke: none;   fill: rgb(157,55,110); " class=""/>
    <text x="471.3" y="786.7" font-size="9.1px" font-family="'CMUBright-Roman'" style="text-anchor:start;fill:rgb(0,0,0)" transform="rotate(85.8,471.3,786.7)" class=""></text>
    <path d="M 442.822,702.273 A252.375,252.375 0.000 0,1 392.664,695.776 L 375.625,768.815 A327.375,327.375 0.000 0,0 440.689,777.243 Z " style="stroke: none;   fill: rgb(157,55,110); " class=""/>
    <text x="410.1" y="785.0" font-size="9.1px" font-family="'CMUBright-Roman'" style="text-anchor:end;fill:rgb(0,0,0)" transform="rotate(-82.6,410.1,785.0)" class=""></text>
    <path d="M 392.253,695.680 A252.375,252.375 0.000 0,1 344.425,679.232 L 313.051,747.354 A327.375,327.375 0.000 0,0 375.092,768.690 Z " style="stroke: none;   fill: rgb(157,55,110); " class=""/>
    <text x="343.6" y="770.2" font-size="9.1px" font-family="'CMUBright-Roman'" style="text-anchor:end;fill:rgb(0,0,0)" transform="rotate(-71.0,343.6,770.2)" class=""></text>
    <path d="M 344.042,679.055 A252.375,252.375 0.000 0,1 300.497,653.327 L 256.068,713.751 A327.375,327.375 0.000 0,0 312.553,747.124 Z " style="stroke: none;   fill: rgb(157,55,110); " class=""/>
    <text x="281.4" y="742.2" font-size="9.1px" font-family="'CMUBright-Roman'" style="text-anchor:end;fill:rgb(0,0,0)" transform="rotate(-59.4,281.4,742.2)" class=""></text>
    <path d="M 300.157,653.077 A252.375,252.375 0.000 0,1 262.673,619.121 L 207.004,669.379 A327.375,327.375 0.000 0,0 255.627,713.427 Z " style="stroke: none;   fill: rgb(157,55,110); " class=""/>
    <text x="226.1" y="702.4" font-size="9.1px" font-family="'CMUBright-Roman'" style="text-anchor:end;fill:rgb(0,0,0)" transform="rotate(-47.8,226.1,702.4)" class=""></text>
    <path d="M 262.390,618.807 A252.375,252.375 0.000 0,1 243.467,595.042 L 182.090,638.145 A327.375,327.375 0.000 0,0 206.637,668.972 Z " style="stroke: none;   fill: rgb(179,186,212); " class=""/>
    <text x="188.3" y="662.9" font-size="9.1px" font-family="'CMUBright-Roman'" style="text-anchor:end;fill:rgb(0,0,0)" transform="rotate(-38.5,188.3,662.9)" class=""></text>
    <path d="M 234.929,600.502 A262.500,262.500 0.000 0,1 226.261,587.284 L 162.335,626.509 A337.500,337.500 0.000 0,0 173.480,643.502 Z " style="stroke: none;   fill: rgb(179,186,212); " class=""/>
    <text x="161.4" y="643.5" font-size="9.1px" font-family="'CMUBright-Roman'" style="text-anchor:end;fill:rgb(0,0,0)" transform="rotate(-33.3,161.4,643.5)" class=""></text>
    <path d="M 226.032,586.910 A262.500,262.500 0.000 0,1 220.717,577.810 L 155.207,614.328 A337.500,337.500 0.000 0,0 162.041,626.028 Z " style="stroke: none;   fill: rgb(179,186,212); " class=""/>
    <text x="151.7" y="628.3" font-size="9.1px" font-family="'CMUBright-Roman'" style="text-anchor:end;fill:rgb(0,0,0)" transform="rotate(-30.3,151.7,628.3)" class=""></text>
    <path d="M 220.504,577.427 A262.500,262.500 0.000 0,1 216.771,570.460 L 150.134,604.877 A337.500,337.500 0.000 0,0 154.933,613.835 Z " style="stroke: none;   fill: rgb(179,186,212); " class=""/>
    <text x="145.4" y="617.2" font-size="9.1px" font-family="'CMUBright-Roman'" style="text-anchor:end;fill:rgb(0,0,0)" transform="rotate(-28.2,145.4,617.2)" class=""></text>
    <path d="M 216.570,570.070 A262.500,262.500 0.000 0,1 194.067,508.349 L 120.943,525.020 A337.500,337.500 0.000 0,0 149.876,604.376 Z " style="stroke: none;   fill: rgb(179,186,212); " class=""/>
    <text x="124.7" y="572.3" font-size="9.1px" font-family="'CMUBright-Roman'" style="text-anchor:end;fill:rgb(0,0,0)" transform="rotate(-20.0,124.7,572.3)" class=""></text>
    <path d="M 193.970,507.921 A262.500,262.500 0.000 0,1 188.179,468.864 L 113.373,474.254 A337.500,337.500 0.000 0,0 120.818,524.470 Z " style="stroke: none;   fill: rgb(179,186,212); " class=""/>
    <text x="106.8" y="504.4" font-size="9.1px" font-family="'CMUBright-Roman'" style="text-anchor:end;fill:rgb(0,0,0)" transform="rotate(-8.4,106.8,504.4)" class=""></text>
    <path d="M 188.148,468.426 A262.500,262.500 0.000 0,1 187.712,439.462 L 112.772,436.452 A337.500,337.500 0.000 0,0 113.333,473.691 Z " style="stroke: none;   fill: rgb(179,186,212); " class=""/>
    <text x="102.6" y="458.7" font-size="9.1px" font-family="'CMUBright-Roman'" style="text-anchor:end;fill:rgb(0,0,0)" transform="rotate(-0.9,102.6,458.7)" class=""></text>
    <path d="M 187.730,439.024 A262.500,262.500 0.000 0,1 188.381,428.506 L 113.633,422.365 A337.500,337.500 0.000 0,0 112.795,435.888 Z " style="stroke: none;   fill: rgb(179,186,212); " class=""/>
    <text x="103.0" y="432.0" font-size="9.1px" font-family="'CMUBright-Roman'" style="text-anchor:end;fill:rgb(0,0,0)" transform="rotate(3.5,103.0,432.0)" class=""></text>
    <path d="M 188.418,428.069 A262.500,262.500 0.000 0,1 197.317,378.883 L 125.122,358.564 A337.500,337.500 0.000 0,0 113.680,421.803 Z " style="stroke: none;   fill: rgb(179,186,212); " class=""/>
    <text x="107.4" y="391.6" font-size="9.1px" font-family="'CMUBright-Roman'" style="text-anchor:end;fill:rgb(0,0,0)" transform="rotate(10.3,107.4,391.6)" class=""></text>
    <path d="M 197.436,378.461 A262.500,262.500 0.000 0,1 198.923,373.406 L 127.187,351.522 A337.500,337.500 0.000 0,0 125.275,358.021 Z " style="stroke: none;   fill: rgb(179,186,212); " class=""/>
    <text x="115.7" y="355.3" font-size="9.1px" font-family="'CMUBright-Roman'" style="text-anchor:end;fill:rgb(0,0,0)" transform="rotate(16.4,115.7,355.3)" class=""></text>
    <path d="M 199.052,372.986 A262.500,262.500 0.000 0,1 204.142,358.022 L 133.896,331.743 A337.500,337.500 0.000 0,0 127.352,350.982 Z " style="stroke: none;   fill: rgb(179,186,212); " class=""/>
    <text x="119.9" y="341.4" font-size="9.1px" font-family="'CMUBright-Roman'" style="text-anchor:end;fill:rgb(0,0,0)" transform="rotate(18.8,119.9,341.4)" class=""></text>
    <path d="M 204.296,357.611 A262.500,262.500 0.000 0,1 207.189,350.256 L 137.814,321.758 A337.500,337.500 0.000 0,0 134.094,331.215 Z " style="stroke: none;   fill: rgb(179,186,212); " class=""/>
    <text x="125.3" y="326.1" font-size="9.1px" font-family="'CMUBright-Roman'" style="text-anchor:end;fill:rgb(0,0,0)" transform="rotate(21.5,125.3,326.1)" class=""></text>
    <path d="M 207.356,349.850 A262.500,262.500 0.000 0,1 256.638,272.469 L 201.392,221.745 A337.500,337.500 0.000 0,0 138.029,321.236 Z " style="stroke: none;   fill: rgb(179,186,212); " class=""/>
    <text x="155.0" y="266.3" font-size="9.1px" font-family="'CMUBright-Roman'" style="text-anchor:end;fill:rgb(0,0,0)" transform="rotate(32.5,155.0,266.3)" class=""></text>
    <path d="M 256.935,272.146 A262.500,262.500 0.000 0,1 443.854,187.572 L 442.098,112.593 A337.500,337.500 0.000 0,0 201.773,221.330 Z " style="stroke: none;   fill: rgb(179,186,212); " class=""/>
    <text x="303.6" y="134.9" font-size="9.1px" font-family="'CMUBright-Roman'" style="text-anchor:end;fill:rgb(0,0,0)" transform="rotate(65.7,303.6,134.9)" class=""></text>
    <path d="M 444.292,187.562 A262.500,262.500 0.000 0,1 449.561,187.500 L 449.436,112.500 A337.500,337.500 0.000 0,0 442.661,112.580 Z " style="stroke: none;   fill: rgb(179,186,212); " class=""/>
    <text x="442.4" y="102.6" font-size="9.1px" font-family="'CMUBright-Roman'" style="text-anchor:end;fill:rgb(0,0,0)" transform="rotate(89.3,442.4,102.6)" class=""></text>
  </g>
  <g id="E138">
    <path d="M 531.374,224.475 A 239.756,239.756 0.00 0,1 535.9,226.2 Q 440.8,443.7 271.8,610.4 A 239.756,239.756 0.00 0,1 253.8,587.8 Q 438.5,441.2 531.4,224.5 Z" style="stroke-width: 1.0;  stroke: rgb(180,180,180); fill: rgb(222,220,70);" opacity="0.5"/>
    <path d="M 271.771,610.367 A 239.756,239.756 0.00 0,1 253.8,587.8 Q 438.5,441.2 531.4,224.5 A 239.756,239.756 0.00 0,1 535.9,226.2 Q 440.8,443.7 271.8,610.4 Z" style="stroke-width: 1.0;  stroke: rgb(180,180,180); fill: rgb(222,220,70);" opacity="0.5"/>
    <path d="M 531.374,224.475 A 239.756,239.756 0.00 0,1 535.9,226.2 Q 440.8,443.7 271.8,610.4 A 239.756,239.756 0.00 0,1 253.8,587.8 Q 438.5,441.2 531.4,224.5 Z" style="stroke-width: 1.0;  stroke: rgb(180,180,180); fill: rgb(222,220,70);" opacity="0.5"/>
    <path d="M 271.771,610.367 A 239.756,239.756 0.00 0,1 253.8,587.8 Q 438.5,441.2 531.4,224.5 A 239.756,239.756 0.00 0,1 535.9,226.2 Q 440.8,443.7 271.8,610.4 Z" style="stroke-width: 1.0;  stroke: rgb(180,180,180); fill: rgb(222,220,70);" opacity="0.5"/>
    <path d="M 531.374,224.475 A 239.756,239.756 0.00 0,1 535.9,226.2 Q 440.8,443.7 271.8,610.4 A 239.756,239.756 0.00 0,1 253.8,587.8 Q 438.5,441.2 531.4,224.5 Z" style="stroke-width: 1.0;  stroke: rgb(180,180,180); fill: rgb(222,220,70);" opacity="0.5"/>
    <path d="M 595.557,259.485 A 239.756,239.756 0.00 0,1 599.4,262.4 Q 447.1,447.3 271.8,610.4 A 239.756,239.756 0.00 0,1 253.8,587.8 Q 444.9,444.7 595.6,259.5 Z" style="stroke-width: 1.0;  stroke: rgb(180,180,180); fill: rgb(222,220,70);" opacity="0.5"/>
    <path d="M 271.771,610.367 A 239.756,239.756 0.00 0,1 253.8,587.8 Q 444.9,444.7 595.6,259.5 A 239.756,239.756 0.00 0,1 599.4,262.4 Q 447.1,447.3 271.8,610.4 Z" style="stroke-width: 1.0;  stroke: rgb(180,180,180); fill: rgb(222,220,70);" opacity="0.5"/>
    <path d="M 595.557,259.485 A 239.756,239.756 0.00 0,1 599.4,262.4 Q 447.1,447.3 271.8,610.4 A 239.756,239.756 0.00 0,1 253.8,587.8 Q 444.9,444.7 595.6,259.5 Z" style="stroke-width: 1.0;  stroke: rgb(180,180,180); fill: rgb(222,220,70);" opacity="0.5"/>
    <path d="M 553.924,233.938 A 239.756,239.756 0.00 0,1 558.2,236.1 Q 443.0,444.6 271.8,610.4 A 239.756,239.756 0.00 0,1 253.8,587.8 Q 440.8,442.2 553.9,233.9 Z" style="stroke-width: 1.0;  stroke: rgb(180,180,180); fill: rgb(222,220,70);" opacity="0.5"/>
    <path d="M 271.771,610.367 A 239.756,239.756 0.00 0,1 253.8,587.8 Q 440.8,442.2 553.9,233.9 A 239.756,239.756 0.00 0,1 558.2,236.1 Q 443.0,444.6 271.8,610.4 Z" style="stroke-width: 1.0;  stroke: rgb(180,180,180); fill: rgb(222,220,70);" opacity="0.5"/>
    <path d="M 553.924,233.938 A 239.756,239.756 0.00 0,1 558.2,236.1 Q 443.0,444.6 271.8,610.4 A 239.756,239.756 0.00 0,1 253.8,587.8 Q 440.8,442.2 553.9,233.9 Z" style="stroke-width: 1.0;  stroke: rgb(180,180,180); fill: rgb(222,220,70);" opacity="0.5"/>
  </g>
  <g id="E138">
    <path d="M 349.340,667.602 A 239.756,239.756 0.00 0,1 308.0,643.2 Q 443.9,446.8 531.4,224.5 A 239.756,239.756 0.00 0,1 535.9,226.2 Q 448.5,449.4 349.3,667.6 Z" style="stroke-width: 1.0;  stroke: rgb(180,180,180); fill: rgb(222,220,70);" opacity="0.5"/>
    <path d="M 491.501,686.137 A 239.756,239.756 0.00 0,1 443.6,689.7 Q 470.3,462.3 659.2,332.9 A 239.756,239.756 0.00 0,1 661.5,337.1 Q 475.3,462.3 491.5,686.1 Z" style="stroke-width: 1.0;  stroke: rgb(180,180,180); fill: rgb(222,220,70);" opacity="0.5"/>
    <path d="M 395.140,683.396 A 239.756,239.756 0.00 0,1 349.7,667.8 Q 450.4,450.2 553.9,233.9 A 239.756,239.756 0.00 0,1 558.2,236.1 Q 455.3,451.9 395.1,683.4 Z" style="stroke-width: 1.0;  stroke: rgb(180,180,180); fill: rgb(143,147,64);" opacity="0.8"/>
    <path d="M 581.152,650.705 A 239.756,239.756 0.00 0,1 538.5,672.8 Q 473.4,453.2 595.6,259.5 A 239.756,239.756 0.00 0,1 599.4,262.4 Q 478.1,451.3 581.2,650.7 Z" style="stroke-width: 1.0;  stroke: rgb(180,180,180); fill: rgb(222,220,70);" opacity="0.5"/>
    <path d="M 618.823,620.241 A 239.756,239.756 0.00 0,1 581.5,650.5 Q 486.6,465.2 684.8,401.4 A 239.756,239.756 0.00 0,1 685.7,406.1 Q 490.5,462.6 618.8,620.2 Z" style="stroke-width: 1.0;  stroke: rgb(180,180,180); fill: rgb(222,220,70);" opacity="0.5"/>
    <path d="M 307.649,642.923 A 239.756,239.756 0.00 0,1 272.0,610.7 Q 433.2,442.1 459.6,210.4 A 239.756,239.756 0.00 0,1 464.4,210.7 Q 437.2,445.4 307.6,642.9 Z" style="stroke-width: 1.0;  stroke: rgb(180,180,180); fill: rgb(222,220,70);" opacity="0.5"/>
    <path d="M 538.125,672.973 A 239.756,239.756 0.00 0,1 491.9,686.1 Q 455.2,449.7 459.6,210.4 A 239.756,239.756 0.00 0,1 464.4,210.7 Q 460.3,448.4 538.1,673.0 Z" style="stroke-width: 1.0;  stroke: rgb(180,180,180); fill: rgb(222,220,70);" opacity="0.5"/>
    <path d="M 443.181,689.659 A 239.756,239.756 0.00 0,1 395.5,683.5 Q 464.2,459.6 646.2,312.2 A 239.756,239.756 0.00 0,1 648.9,316.2 Q 469.2,460.6 443.2,689.7 Z" style="stroke-width: 1.0;  stroke: rgb(180,180,180); fill: rgb(222,220,70);" opacity="0.5"/>
  </g>
  <g id="E138">
    <path d="M 531.374,224.475 A 239.756,239.756 0.00 0,1 535.9,226.2 Q 459.6,403.7 459.6,210.4 A 239.756,239.756 0.00 0,1 464.4,210.7 Q 459.6,403.5 531.4,224.5 Z" style="stroke-width: 1.0;  stroke: rgb(180,180,180); fill: rgb(222,220,70);" opacity="0.5"/>
    <path d="M 459.623,210.437 A 239.756,239.756 0.00 0,1 464.4,210.7 Q 459.6,403.5 531.4,224.5 A 239.756,239.756 0.00 0,1 535.9,226.2 Q 459.6,403.7 459.6,210.4 Z" style="stroke-width: 1.0;  stroke: rgb(180,180,180); fill: rgb(143,147,64);" opacity="0.8"/>
    <path d="M 531.374,224.475 A 239.756,239.756 0.00 0,1 535.9,226.2 Q 459.6,403.7 459.6,210.4 A 239.756,239.756 0.00 0,1 464.4,210.7 Q 459.6,403.5 531.4,224.5 Z" style="stroke-width: 1.0;  stroke: rgb(180,180,180); fill: rgb(143,147,64);" opacity="0.8"/>
    <path d="M 459.623,210.437 A 239.756,239.756 0.00 0,1 464.4,210.7 Q 459.6,403.5 531.4,224.5 A 239.756,239.756 0.00 0,1 535.9,226.2 Q 459.6,403.7 459.6,210.4 Z" style="stroke-width: 1.0;  stroke: rgb(180,180,180); fill: rgb(222,220,70);" opacity="0.5"/>
    <path d="M 531.374,224.475 A 239.756,239.756 0.00 0,1 535.9,226.2 Q 459.6,403.7 459.6,210.4 A 239.756,239.756 0.00 0,1 464.4,210.7 Q 459.6,403.5 531.4,224.5 Z" style="stroke-width: 1.0;  stroke: rgb(180,180,180); fill: rgb(222,220,70);" opacity="0.5"/>
    <path d="M 595.557,259.485 A 239.756,239.756 0.00 0,1 599.4,262.4 Q 465.9,407.3 459.6,210.4 A 239.756,239.756 0.00 0,1 464.4,210.7 Q 466.0,407.0 595.6,259.5 Z" style="stroke-width: 1.0;  stroke: rgb(180,180,180); fill: rgb(222,220,70);" opacity="0.5"/>
    <path d="M 459.623,210.437 A 239.756,239.756 0.00 0,1 464.4,210.7 Q 466.0,407.0 595.6,259.5 A 239.756,239.756 0.00 0,1 599.4,262.4 Q 465.9,407.3 459.6,210.4 Z" style="stroke-width: 1.0;  stroke: rgb(180,180,180); fill: rgb(222,220,70);" opacity="0.5"/>
    <path d="M 595.557,259.485 A 239.756,239.756 0.00 0,1 599.4,262.4 Q 465.9,407.3 459.6,210.4 A 239.756,239.756 0.00 0,1 464.4,210.7 Q 466.0,407.0 595.6,259.5 Z" style="stroke-width: 1.0;  stroke: rgb(180,180,180); fill: rgb(222,220,70);" opacity="0.5"/>
    <path d="M 678.610,377.747 A 239.756,239.756 0.00 0,1 680.0,382.4 Q 487.6,424.2 595.6,259.5 A 239.756,239.756 0.00 0,1 599.4,262.4 Q 487.8,424.0 678.6,377.7 Z" style="stroke-width: 1.0;  stroke: rgb(180,180,180); fill: rgb(222,220,70);" opacity="0.5"/>
    <path d="M 659.222,332.913 A 239.756,239.756 0.00 0,1 661.5,337.1 Q 490.8,424.9 646.2,312.2 A 239.756,239.756 0.00 0,1 648.9,316.2 Q 490.8,424.9 659.2,332.9 Z" style="stroke-width: 1.0;  stroke: rgb(180,180,180); fill: rgb(222,220,70);" opacity="0.5"/>
    <path d="M 684.781,401.411 A 239.756,239.756 0.00 0,1 685.7,406.1 Q 496.4,438.4 678.6,377.7 A 239.756,239.756 0.00 0,1 680.0,382.4 Q 496.5,438.4 684.8,401.4 Z" style="stroke-width: 1.0;  stroke: rgb(180,180,180); fill: rgb(222,220,70);" opacity="0.5"/>
    <path d="M 678.610,377.747 A 239.756,239.756 0.00 0,1 680.0,382.4 Q 495.0,433.7 670.1,354.8 A 239.756,239.756 0.00 0,1 671.9,359.3 Q 495.1,433.7 678.6,377.7 Z" style="stroke-width: 1.0;  stroke: rgb(180,180,180); fill: rgb(222,220,70);" opacity="0.5"/>
    <path d="M 631.149,292.939 A 239.756,239.756 0.00 0,1 634.3,296.6 Q 478.8,413.1 553.9,233.9 A 239.756,239.756 0.00 0,1 558.2,236.1 Q 478.9,412.9 631.1,292.9 Z" style="stroke-width: 1.0;  stroke: rgb(180,180,180); fill: rgb(222,220,70);" opacity="0.5"/>
    <path d="M 659.222,332.913 A 239.756,239.756 0.00 0,1 661.5,337.1 Q 489.3,423.0 631.1,292.9 A 239.756,239.756 0.00 0,1 634.3,296.6 Q 489.3,423.0 659.2,332.9 Z" style="stroke-width: 1.0;  stroke: rgb(180,180,180); fill: rgb(222,220,70);" opacity="0.5"/>
    <path d="M 631.149,292.939 A 239.756,239.756 0.00 0,1 634.3,296.6 Q 484.8,417.2 614.2,275.3 A 239.756,239.756 0.00 0,1 617.7,278.6 Q 484.9,417.2 631.1,292.9 Z" style="stroke-width: 1.0;  stroke: rgb(180,180,180); fill: rgb(222,220,70);" opacity="0.5"/>
    <path d="M 595.557,259.485 A 239.756,239.756 0.00 0,1 599.4,262.4 Q 477.5,410.8 575.4,245.6 A 239.756,239.756 0.00 0,1 579.5,248.2 Q 477.5,410.8 595.6,259.5 Z" style="stroke-width: 1.0;  stroke: rgb(180,180,180); fill: rgb(222,220,70);" opacity="0.5"/>
    <path d="M 575.393,245.648 A 239.756,239.756 0.00 0,1 579.5,248.2 Q 477.5,410.8 595.6,259.5 A 239.756,239.756 0.00 0,1 599.4,262.4 Q 477.5,410.8 575.4,245.6 Z" style="stroke-width: 1.0;  stroke: rgb(180,180,180); fill: rgb(222,220,70);" opacity="0.5"/>
    <path d="M 595.557,259.485 A 239.756,239.756 0.00 0,1 599.4,262.4 Q 477.5,410.8 575.4,245.6 A 239.756,239.756 0.00 0,1 579.5,248.2 Q 477.5,410.8 595.6,259.5 Z" style="stroke-width: 1.0;  stroke: rgb(180,180,180); fill: rgb(222,220,70);" opacity="0.5"/>
    <path d="M 553.924,233.938 A 239.756,239.756 0.00 0,1 558.2,236.1 Q 464.2,404.9 484.0,212.7 A 239.756,239.756 0.00 0,1 488.7,213.4 Q 464.3,404.7 553.9,233.9 Z" style="stroke-width: 1.0;  stroke: rgb(180,180,180); fill: rgb(222,220,70);" opacity="0.5"/>
    <path d="M 483.977,212.663 A 239.756,239.756 0.00 0,1 488.7,213.4 Q 464.3,404.7 553.9,233.9 A 239.756,239.756 0.00 0,1 558.2,236.1 Q 464.2,404.9 484.0,212.7 Z" style="stroke-width: 1.0;  stroke: rgb(180,180,180); fill: rgb(143,147,64);" opacity="0.8"/>
    <path d="M 553.924,233.938 A 239.756,239.756 0.00 0,1 558.2,236.1 Q 464.2,404.9 484.0,212.7 A 239.756,239.756 0.00 0,1 488.7,213.4 Q 464.3,404.7 553.9,233.9 Z" style="stroke-width: 1.0;  stroke: rgb(180,180,180); fill: rgb(143,147,64);" opacity="0.8"/>
    <path d="M 531.374,224.475 A 239.756,239.756 0.00 0,1 535.9,226.2 Q 464.4,404.4 508.0,217.4 A 239.756,239.756 0.00 0,1 512.6,218.6 Q 464.4,404.3 531.4,224.5 Z" style="stroke-width: 1.0;  stroke: rgb(180,180,180); fill: rgb(222,220,70);" opacity="0.5"/>
    <path d="M 507.977,217.359 A 239.756,239.756 0.00 0,1 512.6,218.6 Q 464.4,404.3 531.4,224.5 A 239.756,239.756 0.00 0,1 535.9,226.2 Q 464.4,404.4 508.0,217.4 Z" style="stroke-width: 1.0;  stroke: rgb(180,180,180); fill: rgb(143,147,64);" opacity="0.8"/>
    <path d="M 531.374,224.475 A 239.756,239.756 0.00 0,1 535.9,226.2 Q 464.4,404.4 508.0,217.4 A 239.756,239.756 0.00 0,1 512.6,218.6 Q 464.4,404.3 531.4,224.5 Z" style="stroke-width: 1.0;  stroke: rgb(180,180,180); fill: rgb(143,147,64);" opacity="0.8"/>
    <path d="M 507.977,217.359 A 239.756,239.756 0.00 0,1 512.6,218.6 Q 464.4,404.3 531.4,224.5 A 239.756,239.756 0.00 0,1 535.9,226.2 Q 464.4,404.4 508.0,217.4 Z" style="stroke-width: 1.0;  stroke: rgb(180,180,180); fill: rgb(222,220,70);" opacity="0.5"/>
    <path d="M 531.374,224.475 A 239.756,239.756 0.00 0,1 535.9,226.2 Q 464.4,404.4 508.0,217.4 A 239.756,239.756 0.00 0,1 512.6,218.6 Q 464.4,404.3 531.4,224.5 Z" style="stroke-width: 1.0;  stroke: rgb(180,180,180); fill: rgb(222,220,70);" opacity="0.5"/>
    <path d="M 553.924,233.938 A 239.756,239.756 0.00 0,1 558.2,236.1 Q 469.0,406.1 531.4,224.5 A 239.756,239.756 0.00 0,1 535.9,226.2 Q 469.0,406.0 553.9,233.9 Z" style="stroke-width: 1.0;  stroke: rgb(180,180,180); fill: rgb(222,220,70);" opacity="0.5"/>
    <path d="M 531.374,224.475 A 239.756,239.756 0.00 0,1 535.9,226.2 Q 469.0,406.0 553.9,233.9 A 239.756,239.756 0.00 0,1 558.2,236.1 Q 469.0,406.1 531.4,224.5 Z" style="stroke-width: 1.0;  stroke: rgb(180,180,180); fill: rgb(143,147,64);" opacity="0.8"/>
    <path d="M 553.924,233.938 A 239.756,239.756 0.00 0,1 558.2,236.1 Q 469.0,406.1 531.4,224.5 A 239.756,239.756 0.00 0,1 535.9,226.2 Q 469.0,406.0 553.9,233.9 Z" style="stroke-width: 1.0;  stroke: rgb(180,180,180); fill: rgb(143,147,64);" opacity="0.8"/>
  </g>
  <g id="E138"/>
  <g id="plot0">
    <g id="plot0-axis"/>
    <text x="575.2" y="125.8" font-family="'CMUSansSerif-DemiCondensed'" style="fill: rgb(0,0,0); font-size: 13.0px; text-anchor: start" transform="rotate(290.4,575.2,125.8)">N132</text>
    <text x="541.5" y="114.8" font-family="'CMUSansSerif-DemiCondensed'" style="fill: rgb(0,0,0); font-size: 13.0px; text-anchor: start" transform="rotate(284.6,541.5,114.8)">N131</text>
    <text x="607.5" y="140.3" font-family="'CMUSansSerif-DemiCondensed'" style="fill: rgb(0,0,0); font-size: 13.0px; text-anchor: start" transform="rotate(296.3,607.5,140.3)">N133</text>
    <text x="506.9" y="107.2" font-family="'CMUSansSerif-DemiCondensed'" style="fill: rgb(0,0,0); font-size: 13.0px; text-anchor: start" transform="rotate(278.7,506.9,107.2)">N100</text>
    <text x="738.7" y="256.7" font-family="'CMUSansSerif-DemiCondensed'" style="fill: rgb(0,0,0); font-size: 13.0px; text-anchor: start" transform="rotate(325.5,738.7,256.7)">N179</text>
    <text x="756.9" y="287.1" font-family="'CMUSansSerif-DemiCondensed'" style="fill: rgb(0,0,0); font-size: 13.0px; text-anchor: start" transform="rotate(331.3,756.9,287.1)">N180</text>
    <text x="717.5" y="228.2" font-family="'CMUSansSerif-DemiCondensed'" style="fill: rgb(0,0,0); font-size: 13.0px; text-anchor: start" transform="rotate(319.6,717.5,228.2)">N178</text>
    <text x="693.6" y="202.1" font-family="'CMUSansSerif-DemiCondensed'" style="fill: rgb(0,0,0); font-size: 13.0px; text-anchor: start" transform="rotate(313.8,693.6,202.1)">N177</text>
    <text x="667.1" y="178.6" font-family="'CMUSansSerif-DemiCondensed'" style="fill: rgb(0,0,0); font-size: 13.0px; text-anchor: start" transform="rotate(308.0,667.1,178.6)">N161</text>
    <text x="638.3" y="157.9" font-family="'CMUSansSerif-DemiCondensed'" style="fill: rgb(0,0,0); font-size: 13.0px; text-anchor: start" transform="rotate(302.1,638.3,157.9)">N160</text>
    <text x="791.8" y="387.2" font-family="'CMUSansSerif-DemiCondensed'" style="fill: rgb(0,0,0); font-size: 13.0px; text-anchor: start" transform="rotate(348.9,791.8,387.2)">N183</text>
    <text x="783.6" y="352.7" font-family="'CMUSansSerif-DemiCondensed'" style="fill: rgb(0,0,0); font-size: 13.0px; text-anchor: start" transform="rotate(343.0,783.6,352.7)">N182</text>
    <text x="771.9" y="319.2" font-family="'CMUSansSerif-DemiCondensed'" style="fill: rgb(0,0,0); font-size: 13.0px; text-anchor: start" transform="rotate(337.2,771.9,319.2)">N181</text>
    <text x="471.7" y="103.2" font-family="'CMUSansSerif-DemiCondensed'" style="fill: rgb(0,0,0); font-size: 13.0px; text-anchor: start" transform="rotate(272.9,471.7,103.2)">N17</text>
    <text x="180.8" y="669.8" font-family="'CMUSansSerif-DemiCondensed'" style="fill: rgb(0,0,0); font-size: 13.0px; text-anchor: end" transform="rotate(321.5,180.8,669.8)">C15</text>
  </g>
  <script>function init(evt) {
    $(evt.target).bind('mouseover', doMouseOver);
    $(evt.target).bind('mouseup'  , doMouseUp);
    $(evt.target).bind('mousedown', doMouseDown);
}</script>
</svg>