<svg width="900px" height="900px" version="1.1" onload="init(evt)" xmlns="http://www.w3.org/2000/svg" xmlns:xlink="http://www.w3.org/1999/xlink">
  <g id="ideograms">
    <path d="M 450.000,197.625 A252.375,252.375 0.000 0,1 483.072,199.801 L 492.900,125.448 A327.375,327.375 0.000 0,0 450.000,122.625 Z " style="stroke: none;   fill: rgb(53,100,153); " class="N256"/>
    <text x="475.6" y="113.6" font-size="9.1px" font-family="'CMUBright-Roman'" style="text-anchor:start;fill:rgb(0,0,0)" transform="rotate(273.8,475.6,113.6)" class="N256"></text>
    <path d="M 483.614,199.874 A252.375,252.375 0.000 0,1 516.101,206.435 L 535.745,134.054 A327.375,327.375 0.000 0,0 493.603,125.542 Z " style="stroke: none;   fill: rgb(53,100,153); " class="N7"/>
    <text x="520.2" y="120.0" font-size="9.1px" font-family="'CMUBright-Roman'" style="text-anchor:start;fill:rgb(0,0,0)" transform="rotate(281.4,520.2,120.0)" class="N7"></text>
    <path d="M 516.629,206.579 A252.375,252.375 0.000 0,1 547.953,217.410 L 577.063,148.289 A327.375,327.375 0.000 0,0 536.430,134.240 Z " style="stroke: none;   fill: rgb(53,100,153); " class="N17"/>
    <text x="563.5" y="132.3" font-size="9.1px" font-family="'CMUBright-Roman'" style="text-anchor:start;fill:rgb(0,0,0)" transform="rotate(289.1,563.5,132.3)" class="N17"></text>
    <path d="M 548.457,217.622 A252.375,252.375 0.000 0,1 578.059,232.528 L 616.116,167.901 A327.375,327.375 0.000 0,0 577.716,148.565 Z " style="stroke: none;   fill: rgb(53,100,153); " class="N306"/>
    <text x="604.8" y="150.3" font-size="9.1px" font-family="'CMUBright-Roman'" style="text-anchor:start;fill:rgb(0,0,0)" transform="rotate(296.7,604.8,150.3)" class="N306"></text>
    <path d="M 578.531,232.806 A252.375,252.375 0.000 0,1 605.884,251.522 L 652.209,192.539 A327.375,327.375 0.000 0,0 616.727,168.262 Z " style="stroke: none;   fill: rgb(53,100,153); " class="N305"/>
    <text x="643.4" y="173.6" font-size="9.1px" font-family="'CMUBright-Roman'" style="text-anchor:start;fill:rgb(0,0,0)" transform="rotate(304.4,643.4,173.6)" class="N305"></text>
    <path d="M 606.314,251.861 A252.375,252.375 0.000 0,1 630.930,274.053 L 684.699,221.766 A327.375,327.375 0.000 0,0 652.766,192.978 Z " style="stroke: none;   fill: rgb(53,100,153); " class="N307"/>
    <text x="678.5" y="201.8" font-size="9.1px" font-family="'CMUBright-Roman'" style="text-anchor:start;fill:rgb(0,0,0)" transform="rotate(312.0,678.5,201.8)" class="N307"></text>
    <path d="M 631.311,274.446 A252.375,252.375 0.000 0,1 652.753,299.719 L 713.006,255.059 A327.375,327.375 0.000 0,0 685.193,222.275 Z " style="stroke: none;   fill: rgb(53,100,153); " class="N255"/>
    <text x="709.5" y="234.4" font-size="9.1px" font-family="'CMUBright-Roman'" style="text-anchor:start;fill:rgb(0,0,0)" transform="rotate(319.7,709.5,234.4)" class="N255"></text>
    <path d="M 661.226,294.147 A262.500,262.500 0.000 0,1 669.123,305.461 L 731.729,264.165 A337.500,337.500 0.000 0,0 721.576,249.618 Z " style="stroke: none;   fill: rgb(179,186,212); " class="C3"/>
    <text x="736.9" y="254.0" font-size="9.1px" font-family="'CMUBright-Roman'" style="text-anchor:start;fill:rgb(0,0,0)" transform="rotate(325.1,736.9,254.0)" class="C3"></text>
    <path d="M 669.435,305.936 A262.500,262.500 0.000 0,1 681.742,326.704 L 747.954,291.476 A337.500,337.500 0.000 0,0 732.131,264.775 Z " style="stroke: none;   fill: rgb(179,186,212); " class="C4"/>
    <text x="750.7" y="275.9" font-size="9.1px" font-family="'CMUBright-Roman'" style="text-anchor:start;fill:rgb(0,0,0)" transform="rotate(329.3,750.7,275.9)" class="C4"></text>
    <path d="M 682.008,327.206 A262.500,262.500 0.000 0,1 686.668,336.446 L 754.287,304.002 A337.500,337.500 0.000 0,0 748.296,292.122 Z " style="stroke: none;   fill: rgb(179,186,212); " class="C6"/>
    <text x="761.8" y="296.7" font-size="9.1px" font-family="'CMUBright-Roman'" style="text-anchor:start;fill:rgb(0,0,0)" transform="rotate(333.2,761.8,296.7)" class="C6"></text>
    <path d="M 686.913,336.959 A262.500,262.500 0.000 0,1 691.185,346.385 L 760.095,316.780 A337.500,337.500 0.000 0,0 754.603,304.661 Z " style="stroke: none;   fill: rgb(179,186,212); " class="C5"/>
    <text x="767.9" y="309.8" font-size="9.1px" font-family="'CMUBright-Roman'" style="text-anchor:start;fill:rgb(0,0,0)" transform="rotate(335.6,767.9,309.8)" class="C5"></text>
    <path d="M 691.409,346.907 A262.500,262.500 0.000 0,1 698.779,366.243 L 769.859,342.313 A337.500,337.500 0.000 0,0 760.382,317.452 Z " style="stroke: none;   fill: rgb(179,186,212); " class="C7"/>
    <text x="775.9" y="329.5" font-size="9.1px" font-family="'CMUBright-Roman'" style="text-anchor:start;fill:rgb(0,0,0)" transform="rotate(339.1,775.9,329.5)" class="C7"></text>
    <path d="M 698.960,366.782 A262.500,262.500 0.000 0,1 707.718,400.124 L 781.352,385.874 A337.500,337.500 0.000 0,0 770.091,343.006 Z " style="stroke: none;   fill: rgb(179,186,212); " class="C8"/>
    <text x="787.0" y="365.1" font-size="9.1px" font-family="'CMUBright-Roman'" style="text-anchor:start;fill:rgb(0,0,0)" transform="rotate(345.3,787.0,365.1)" class="C8"></text>
    <path d="M 707.826,400.682 A262.500,262.500 0.000 0,1 709.569,410.883 L 783.732,399.707 A337.500,337.500 0.000 0,0 781.490,386.591 Z " style="stroke: none;   fill: rgb(179,186,212); " class="C9"/>
    <text x="793.1" y="394.9" font-size="9.1px" font-family="'CMUBright-Roman'" style="text-anchor:start;fill:rgb(0,0,0)" transform="rotate(350.3,793.1,394.9)" class="C9"></text>
    <path d="M 709.653,411.445 A262.500,262.500 0.000 0,1 712.324,459.600 L 787.274,462.343 A337.500,337.500 0.000 0,0 783.840,400.429 Z " style="stroke: none;   fill: rgb(179,186,212); " class="C10"/>
    <text x="797.1" y="434.2" font-size="9.1px" font-family="'CMUBright-Roman'" style="text-anchor:start;fill:rgb(0,0,0)" transform="rotate(356.8,797.1,434.2)" class="C10"></text>
    <path d="M 712.303,460.168 A262.500,262.500 0.000 0,1 707.451,501.237 L 781.008,515.876 A337.500,337.500 0.000 0,0 787.247,463.073 Z " style="stroke: none;   fill: rgb(179,186,212); " class="C11"/>
    <text x="794.7" y="494.2" font-size="9.1px" font-family="'CMUBright-Roman'" style="text-anchor:start;fill:rgb(0,0,0)" transform="rotate(6.7,794.7,494.2)" class="C11"></text>
    <path d="M 707.339,501.794 A262.500,262.500 0.000 0,1 675.107,585.030 L 739.423,623.610 A337.500,337.500 0.000 0,0 780.865,516.593 Z " style="stroke: none;   fill: rgb(179,186,212); " class="C12"/>
    <text x="772.8" y="578.7" font-size="9.1px" font-family="'CMUBright-Roman'" style="text-anchor:start;fill:rgb(0,0,0)" transform="rotate(21.2,772.8,578.7)" class="C12"></text>
    <path d="M 674.814,585.517 A262.500,262.500 0.000 0,1 669.298,594.273 L 731.954,635.494 A337.500,337.500 0.000 0,0 739.047,624.236 Z " style="stroke: none;   fill: rgb(179,186,212); " class="C13"/>
    <text x="742.1" y="638.2" font-size="9.1px" font-family="'CMUBright-Roman'" style="text-anchor:start;fill:rgb(0,0,0)" transform="rotate(32.2,742.1,638.2)" class="C13"></text>
    <path d="M 668.985,594.748 A262.500,262.500 0.000 0,1 652.586,616.929 L 710.467,664.623 A337.500,337.500 0.000 0,0 731.552,636.104 Z " style="stroke: none;   fill: rgb(179,186,212); " class="C14"/>
    <text x="727.3" y="659.4" font-size="9.1px" font-family="'CMUBright-Roman'" style="text-anchor:start;fill:rgb(0,0,0)" transform="rotate(36.5,727.3,659.4)" class="C14"></text>
    <path d="M 652.224,617.367 A262.500,262.500 0.000 0,1 623.429,647.050 L 672.980,703.350 A337.500,337.500 0.000 0,0 710.002,665.187 Z " style="stroke: none;   fill: rgb(179,186,212); " class="C15"/>
    <text x="697.0" y="694.5" font-size="9.1px" font-family="'CMUBright-Roman'" style="text-anchor:start;fill:rgb(0,0,0)" transform="rotate(44.1,697.0,694.5)" class="C15"></text>
    <path d="M 623.002,647.425 A262.500,262.500 0.000 0,1 606.913,660.439 L 651.745,720.565 A337.500,337.500 0.000 0,0 672.431,703.832 Z " style="stroke: none;   fill: rgb(179,186,212); " class="C16"/>
    <text x="665.8" y="722.4" font-size="9.1px" font-family="'CMUBright-Roman'" style="text-anchor:start;fill:rgb(0,0,0)" transform="rotate(51.0,665.8,722.4)" class="C16"></text>
    <path d="M 606.457,660.778 A262.500,262.500 0.000 0,1 595.166,668.708 L 636.641,731.196 A337.500,337.500 0.000 0,0 651.159,721.001 Z " style="stroke: none;   fill: rgb(179,186,212); " class="C17"/>
    <text x="646.8" y="736.4" font-size="9.1px" font-family="'CMUBright-Roman'" style="text-anchor:start;fill:rgb(0,0,0)" transform="rotate(54.9,646.8,736.4)" class="C17"></text>
    <path d="M 594.692,669.022 A262.500,262.500 0.000 0,1 585.946,674.555 L 624.788,738.713 A337.500,337.500 0.000 0,0 636.032,731.599 Z " style="stroke: none;   fill: rgb(179,186,212); " class="C18"/>
    <text x="632.8" y="745.5" font-size="9.1px" font-family="'CMUBright-Roman'" style="text-anchor:start;fill:rgb(0,0,0)" transform="rotate(57.7,632.8,745.5)" class="C18"></text>
    <path d="M 585.460,674.849 A262.500,262.500 0.000 0,1 505.662,706.531 L 521.565,779.825 A337.500,337.500 0.000 0,0 624.163,739.091 Z " style="stroke: none;   fill: rgb(179,186,212); " class="C19"/>
    <text x="575.0" y="774.3" font-size="9.1px" font-family="'CMUBright-Roman'" style="text-anchor:start;fill:rgb(0,0,0)" transform="rotate(68.3,575.0,774.3)" class="C19"></text>
    <path d="M 505.106,706.651 A262.500,262.500 0.000 0,1 453.772,712.473 L 454.850,787.465 A337.500,337.500 0.000 0,0 520.851,779.979 Z " style="stroke: none;   fill: rgb(179,186,212); " class="C20"/>
    <text x="485.7" y="795.7" font-size="9.1px" font-family="'CMUBright-Roman'" style="text-anchor:start;fill:rgb(0,0,0)" transform="rotate(83.5,485.7,795.7)" class="C20"></text>
    <path d="M 453.204,712.480 A262.500,262.500 0.000 0,1 415.358,710.204 L 405.460,784.548 A337.500,337.500 0.000 0,0 454.119,787.475 Z " style="stroke: none;   fill: rgb(179,186,212); " class="C21"/>
    <text x="432.6" y="797.1" font-size="9.1px" font-family="'CMUBright-Roman'" style="text-anchor:end;fill:rgb(0,0,0)" transform="rotate(-86.6,432.6,797.1)" class="C21"></text>
    <path d="M 416.152,700.095 A252.375,252.375 0.000 0,1 352.334,682.711 L 323.310,751.868 A327.375,327.375 0.000 0,0 406.094,774.417 Z " style="stroke: none;   fill: rgb(157,55,110); " class="E248"/>
    <text x="364.7" y="776.4" font-size="9.1px" font-family="'CMUBright-Roman'" style="text-anchor:end;fill:rgb(0,0,0)" transform="rotate(-74.8,364.7,776.4)" class="E248"></text>
    <path d="M 351.830,682.499 A252.375,252.375 0.000 0,1 294.792,649.007 L 248.668,708.147 A327.375,327.375 0.000 0,0 322.656,751.592 Z " style="stroke: none;   fill: rgb(157,55,110); " class="E247"/>
    <text x="282.2" y="742.7" font-size="9.1px" font-family="'CMUBright-Roman'" style="text-anchor:end;fill:rgb(0,0,0)" transform="rotate(-59.6,282.2,742.7)" class="E247"></text>
    <path d="M 294.361,648.670 A252.375,252.375 0.000 0,1 248.087,601.408 L 188.083,646.403 A327.375,327.375 0.000 0,0 248.109,707.710 Z " style="stroke: none;   fill: rgb(157,55,110); " class="E246"/>
    <text x="211.4" y="688.5" font-size="9.1px" font-family="'CMUBright-Roman'" style="text-anchor:end;fill:rgb(0,0,0)" transform="rotate(-44.4,211.4,688.5)" class="E246"></text>
    <path d="M 247.759,600.970 A252.375,252.375 0.000 0,1 215.480,543.238 L 145.785,570.946 A327.375,327.375 0.000 0,0 187.658,645.835 Z " style="stroke: none;   fill: rgb(157,55,110); " class="E245"/>
    <text x="157.3" y="617.7" font-size="9.1px" font-family="'CMUBright-Roman'" style="text-anchor:end;fill:rgb(0,0,0)" transform="rotate(-29.2,157.3,617.7)" class="E245"></text>
    <path d="M 205.861,546.449 A262.500,262.500 0.000 0,1 189.599,483.129 L 115.199,492.594 A337.500,337.500 0.000 0,0 136.107,574.006 Z " style="stroke: none;   fill: rgb(179,186,212); " class="C23"/>
    <text x="114.3" y="539.8" font-size="9.1px" font-family="'CMUBright-Roman'" style="text-anchor:end;fill:rgb(0,0,0)" transform="rotate(-14.4,114.3,539.8)" class="C23"></text>
    <path d="M 189.528,482.565 A262.500,262.500 0.000 0,1 188.762,475.708 L 114.122,483.053 A337.500,337.500 0.000 0,0 115.107,491.869 Z " style="stroke: none;   fill: rgb(179,186,212); " class="C25"/>
    <text x="105.1" y="492.1" font-size="9.1px" font-family="'CMUBright-Roman'" style="text-anchor:end;fill:rgb(0,0,0)" transform="rotate(-6.4,105.1,492.1)" class="C25"></text>
    <path d="M 188.707,475.142 A262.500,262.500 0.000 0,1 187.538,454.482 L 112.549,455.762 A337.500,337.500 0.000 0,0 114.052,482.326 Z " style="stroke: none;   fill: rgb(179,186,212); " class="C24"/>
    <text x="103.3" y="473.1" font-size="9.1px" font-family="'CMUBright-Roman'" style="text-anchor:end;fill:rgb(0,0,0)" transform="rotate(-3.2,103.3,473.1)" class="C24"></text>
    <path d="M 187.529,453.914 A262.500,262.500 0.000 0,1 187.579,443.565 L 112.601,441.726 A337.500,337.500 0.000 0,0 112.538,455.032 Z " style="stroke: none;   fill: rgb(179,186,212); " class="C27"/>
    <text x="102.5" y="451.8" font-size="9.1px" font-family="'CMUBright-Roman'" style="text-anchor:end;fill:rgb(0,0,0)" transform="rotate(0.3,102.5,451.8)" class="C27"></text>
    <path d="M 187.593,442.997 A262.500,262.500 0.000 0,1 217.975,327.237 L 151.683,292.161 A337.500,337.500 0.000 0,0 112.620,440.996 Z " style="stroke: none;   fill: rgb(179,186,212); " class="C26"/>
    <text x="113.0" y="365.2" font-size="9.1px" font-family="'CMUBright-Roman'" style="text-anchor:end;fill:rgb(0,0,0)" transform="rotate(14.7,113.0,365.2)" class="C26"></text>
    <path d="M 218.242,326.734 A262.500,262.500 0.000 0,1 441.965,187.623 L 439.669,112.658 A337.500,337.500 0.000 0,0 152.025,291.516 Z " style="stroke: none;   fill: rgb(179,186,212); " class="C2"/>
    <text x="263.5" y="156.8" font-size="9.1px" font-family="'CMUBright-Roman'" style="text-anchor:end;fill:rgb(0,0,0)" transform="rotate(58.1,263.5,156.8)" class="C2"></text>
    <path d="M 442.533,187.606 A262.500,262.500 0.000 0,1 449.432,187.501 L 449.269,112.501 A337.500,337.500 0.000 0,0 440.400,112.637 Z " style="stroke: none;   fill: rgb(179,186,212); " class="C1"/>
    <text x="441.2" y="102.6" font-size="9.1px" font-family="'CMUBright-Roman'" style="text-anchor:end;fill:rgb(0,0,0)" transform="rotate(89.1,441.2,102.6)" class="C1"></text>
  </g>
  <g id="E247">
    <path d="M 257.872,593.421 A 239.756,239.756 0.00 0,1 227.2,538.6 Q 432.2,435.3 494.4,214.4 A 239.756,239.756 0.00 0,1 500.6,215.6 Q 435.8,440.9 257.9,593.4 Z" style="stroke-width: 1.0;  stroke: rgb(180,180,180); fill: rgb(222,220,70);" opacity="0.5"/>
    <path d="M 302.143,638.736 A 239.756,239.756 0.00 0,1 258.2,593.8 Q 438.4,441.6 525.4,222.4 A 239.756,239.756 0.00 0,1 531.3,224.5 Q 443.3,446.3 302.1,638.7 Z" style="stroke-width: 1.0;  stroke: rgb(180,180,180); fill: rgb(222,220,70);" opacity="0.5"/>
    <path d="M 356.738,670.874 A 239.756,239.756 0.00 0,1 302.6,639.1 Q 436.5,445.0 462.6,210.6 A 239.756,239.756 0.00 0,1 468.9,211.0 Q 442.6,448.2 356.7,670.9 Z" style="stroke-width: 1.0;  stroke: rgb(180,180,180); fill: rgb(143,147,64);" opacity="0.8"/>
    <path d="M 417.845,687.590 A 239.756,239.756 0.00 0,1 357.2,671.1 Q 456.5,454.1 608.2,269.8 A 239.756,239.756 0.00 0,1 612.9,274.0 Q 463.1,456.2 417.8,687.6 Z" style="stroke-width: 1.0;  stroke: rgb(180,180,180); fill: rgb(222,220,70);" opacity="0.5"/>
  </g>
  <g id="E247">
    <path d="M 462.598,210.575 A 239.756,239.756 0.00 0,1 468.9,211.0 Q 459.4,403.3 525.4,222.4 A 239.756,239.756 0.00 0,1 531.3,224.5 Q 459.4,403.5 462.6,210.6 Z" style="stroke-width: 1.0;  stroke: rgb(180,180,180); fill: rgb(222,220,70);" opacity="0.5"/>
    <path d="M 525.361,222.396 A 239.756,239.756 0.00 0,1 531.3,224.5 Q 459.4,403.5 462.6,210.6 A 239.756,239.756 0.00 0,1 468.9,211.0 Q 459.4,403.3 525.4,222.4 Z" style="stroke-width: 1.0;  stroke: rgb(180,180,180); fill: rgb(143,147,64);" opacity="0.8"/>
    <path d="M 462.598,210.575 A 239.756,239.756 0.00 0,1 468.9,211.0 Q 459.4,403.3 525.4,222.4 A 239.756,239.756 0.00 0,1 531.3,224.5 Q 459.4,403.5 462.6,210.6 Z" style="stroke-width: 1.0;  stroke: rgb(180,180,180); fill: rgb(143,147,64);" opacity="0.8"/>
    <path d="M 608.183,269.830 A 239.756,239.756 0.00 0,1 612.9,274.0 Q 476.8,410.9 555.0,234.5 A 239.756,239.756 0.00 0,1 560.6,237.3 Q 476.9,410.7 608.2,269.8 Z" style="stroke-width: 1.0;  stroke: rgb(180,180,180); fill: rgb(222,220,70);" opacity="0.5"/>
    <path d="M 462.598,210.575 A 239.756,239.756 0.00 0,1 468.9,211.0 Q 470.0,410.3 630.8,292.5 A 239.756,239.756 0.00 0,1 634.8,297.3 Q 469.7,410.8 462.6,210.6 Z" style="stroke-width: 1.0;  stroke: rgb(180,180,180); fill: rgb(222,220,70);" opacity="0.5"/>
    <path d="M 630.771,292.504 A 239.756,239.756 0.00 0,1 634.8,297.3 Q 469.7,410.8 462.6,210.6 A 239.756,239.756 0.00 0,1 468.9,211.0 Q 470.0,410.3 630.8,292.5 Z" style="stroke-width: 1.0;  stroke: rgb(180,180,180); fill: rgb(143,147,64);" opacity="0.8"/>
    <path d="M 462.598,210.575 A 239.756,239.756 0.00 0,1 468.9,211.0 Q 470.0,410.3 630.8,292.5 A 239.756,239.756 0.00 0,1 634.8,297.3 Q 469.7,410.8 462.6,210.6 Z" style="stroke-width: 1.0;  stroke: rgb(180,180,180); fill: rgb(143,147,64);" opacity="0.8"/>
    <path d="M 555.005,234.461 A 239.756,239.756 0.00 0,1 560.6,237.3 Q 465.5,405.2 494.4,214.4 A 239.756,239.756 0.00 0,1 500.6,215.6 Q 465.6,405.0 555.0,234.5 Z" style="stroke-width: 1.0;  stroke: rgb(180,180,180); fill: rgb(222,220,70);" opacity="0.5"/>
    <path d="M 608.183,269.830 A 239.756,239.756 0.00 0,1 612.9,274.0 Q 467.5,408.5 462.6,210.6 A 239.756,239.756 0.00 0,1 468.9,211.0 Q 467.7,408.1 608.2,269.8 Z" style="stroke-width: 1.0;  stroke: rgb(180,180,180); fill: rgb(222,220,70);" opacity="0.5"/>
    <path d="M 555.005,234.461 A 239.756,239.756 0.00 0,1 560.6,237.3 Q 474.3,408.8 582.8,250.4 A 239.756,239.756 0.00 0,1 588.0,253.9 Q 474.3,408.8 555.0,234.5 Z" style="stroke-width: 1.0;  stroke: rgb(180,180,180); fill: rgb(222,220,70);" opacity="0.5"/>
  </g>
  <g id="E247"/>
  <g id="plot0">
    <g id="plot0-axis"/>
    <text x="477.0" y="103.6" font-family="'CMUSansSerif-DemiCondensed'" style="fill: rgb(0,0,0); font-size: 13.0px; text-anchor: start" transform="rotate(273.8,477.0,103.6)">N256</text>
    <text x="717.7" y="228.4" font-family="'CMUSansSerif-DemiCondensed'" style="fill: rgb(0,0,0); font-size: 13.0px; text-anchor: start" transform="rotate(319.7,717.7,228.4)">N255</text>
    <text x="685.8" y="194.8" font-family="'CMUSansSerif-DemiCondensed'" style="fill: rgb(0,0,0); font-size: 13.0px; text-anchor: start" transform="rotate(312.0,685.8,194.8)">N307</text>
    <text x="610.1" y="141.6" font-family="'CMUSansSerif-DemiCondensed'" style="fill: rgb(0,0,0); font-size: 13.0px; text-anchor: start" transform="rotate(296.7,610.1,141.6)">N306</text>
    <text x="649.7" y="165.6" font-family="'CMUSansSerif-DemiCondensed'" style="fill: rgb(0,0,0); font-size: 13.0px; text-anchor: start" transform="rotate(304.4,649.7,165.6)">N305</text>
    <text x="567.5" y="123.0" font-family="'CMUSansSerif-DemiCondensed'" style="fill: rgb(0,0,0); font-size: 13.0px; text-anchor: start" transform="rotate(289.1,567.5,123.0)">N17</text>
    <text x="522.6" y="110.2" font-family="'CMUSansSerif-DemiCondensed'" style="fill: rgb(0,0,0); font-size: 13.0px; text-anchor: start" transform="rotate(281.4,522.6,110.2)">N7</text>
  </g>
  <script>function init(evt) {
    $(evt.target).bind('mouseover', doMouseOver);
    $(evt.target).bind('mouseup'  , doMouseUp);
    $(evt.target).bind('mousedown', doMouseDown);
}</script>
</svg>