<svg width="900px" height="900px" version="1.1" onload="init(evt)" xmlns="http://www.w3.org/2000/svg" xmlns:xlink="http://www.w3.org/1999/xlink">
  <g id="ideograms">
    <path d="M 450.000,197.625 A252.375,252.375 0.000 0,1 488.595,200.594 L 500.065,126.476 A327.375,327.375 0.000 0,0 450.000,122.625 Z " style="stroke: none;   fill: rgb(53,100,153); " class="N205"/>
    <text x="479.4" y="113.9" font-size="9.1px" font-family="'CMUBright-Roman'" style="text-anchor:start;fill:rgb(0,0,0)" transform="rotate(274.4,479.4,113.9)" class="N205"></text>
    <path d="M 489.224,200.692 A252.375,252.375 0.000 0,1 526.888,209.623 L 549.738,138.188 A327.375,327.375 0.000 0,0 500.880,126.603 Z " style="stroke: none;   fill: rgb(53,100,153); " class="N324"/>
    <text x="531.2" y="122.6" font-size="9.1px" font-family="'CMUBright-Roman'" style="text-anchor:start;fill:rgb(0,0,0)" transform="rotate(283.3,531.2,122.6)" class="N324"></text>
    <path d="M 527.494,209.817 A252.375,252.375 0.000 0,1 563.313,224.493 L 596.987,157.478 A327.375,327.375 0.000 0,0 550.523,138.440 Z " style="stroke: none;   fill: rgb(53,100,153); " class="N46"/>
    <text x="581.1" y="139.2" font-size="9.1px" font-family="'CMUBright-Roman'" style="text-anchor:start;fill:rgb(0,0,0)" transform="rotate(292.3,581.1,139.2)" class="N46"></text>
    <path d="M 563.881,224.780 A252.375,252.375 0.000 0,1 596.984,244.844 L 640.664,183.877 A327.375,327.375 0.000 0,0 597.724,157.849 Z " style="stroke: none;   fill: rgb(53,100,153); " class="N325"/>
    <text x="627.9" y="163.3" font-size="9.1px" font-family="'CMUBright-Roman'" style="text-anchor:start;fill:rgb(0,0,0)" transform="rotate(301.2,627.9,163.3)" class="N325"></text>
    <path d="M 603.418,237.000 A262.500,262.500 0.000 0,1 616.201,246.817 L 663.687,188.765 A337.500,337.500 0.000 0,0 647.252,176.142 Z " style="stroke: none;   fill: rgb(179,186,212); " class="C3"/>
    <text x="664.4" y="176.5" font-size="9.1px" font-family="'CMUBright-Roman'" style="text-anchor:start;fill:rgb(0,0,0)" transform="rotate(307.5,664.4,176.5)" class="C3"></text>
    <path d="M 616.712,247.236 A262.500,262.500 0.000 0,1 637.500,266.288 L 691.071,213.799 A337.500,337.500 0.000 0,0 664.345,189.303 Z " style="stroke: none;   fill: rgb(179,186,212); " class="C4"/>
    <text x="687.4" y="196.2" font-size="9.1px" font-family="'CMUBright-Roman'" style="text-anchor:start;fill:rgb(0,0,0)" transform="rotate(312.5,687.4,196.2)" class="C4"></text>
    <path d="M 637.962,266.761 A262.500,262.500 0.000 0,1 646.199,275.609 L 702.256,225.784 A337.500,337.500 0.000 0,0 691.665,214.407 Z " style="stroke: none;   fill: rgb(179,186,212); " class="C6"/>
    <text x="706.7" y="215.8" font-size="9.1px" font-family="'CMUBright-Roman'" style="text-anchor:start;fill:rgb(0,0,0)" transform="rotate(317.0,706.7,215.8)" class="C6"></text>
    <path d="M 646.638,276.104 A262.500,262.500 0.000 0,1 654.436,285.342 L 712.846,238.297 A337.500,337.500 0.000 0,0 702.820,226.419 Z " style="stroke: none;   fill: rgb(179,186,212); " class="C5"/>
    <text x="717.8" y="228.5" font-size="9.1px" font-family="'CMUBright-Roman'" style="text-anchor:start;fill:rgb(0,0,0)" transform="rotate(319.8,717.8,228.5)" class="C5"></text>
    <path d="M 654.850,285.857 A262.500,262.500 0.000 0,1 669.080,305.397 L 731.675,264.082 A337.500,337.500 0.000 0,0 713.378,238.960 Z " style="stroke: none;   fill: rgb(179,186,212); " class="C7"/>
    <text x="732.9" y="248.3" font-size="9.1px" font-family="'CMUBright-Roman'" style="text-anchor:start;fill:rgb(0,0,0)" transform="rotate(323.9,732.9,248.3)" class="C7"></text>
    <path d="M 669.444,305.949 A262.500,262.500 0.000 0,1 688.892,341.202 L 757.147,310.117 A337.500,337.500 0.000 0,0 732.142,264.792 Z " style="stroke: none;   fill: rgb(179,186,212); " class="C8"/>
    <text x="755.9" y="285.2" font-size="9.1px" font-family="'CMUBright-Roman'" style="text-anchor:start;fill:rgb(0,0,0)" transform="rotate(331.1,755.9,285.2)" class="C8"></text>
    <path d="M 689.165,341.804 A262.500,262.500 0.000 0,1 693.893,352.931 L 763.577,325.197 A337.500,337.500 0.000 0,0 757.498,310.891 Z " style="stroke: none;   fill: rgb(179,186,212); " class="C9"/>
    <text x="771.2" y="317.3" font-size="9.1px" font-family="'CMUBright-Roman'" style="text-anchor:start;fill:rgb(0,0,0)" transform="rotate(337.0,771.2,317.3)" class="C9"></text>
    <path d="M 694.137,353.545 A262.500,262.500 0.000 0,1 709.092,407.837 L 783.118,395.790 A337.500,337.500 0.000 0,0 763.890,325.987 Z " style="stroke: none;   fill: rgb(179,186,212); " class="C10"/>
    <text x="785.9" y="361.1" font-size="9.1px" font-family="'CMUBright-Roman'" style="text-anchor:start;fill:rgb(0,0,0)" transform="rotate(344.6,785.9,361.1)" class="C10"></text>
    <path d="M 709.197,408.489 A262.500,262.500 0.000 0,1 712.415,456.675 L 787.391,458.583 A337.500,337.500 0.000 0,0 783.253,396.629 Z " style="stroke: none;   fill: rgb(179,186,212); " class="C11"/>
    <text x="796.9" y="430.3" font-size="9.1px" font-family="'CMUBright-Roman'" style="text-anchor:start;fill:rgb(0,0,0)" transform="rotate(356.2,796.9,430.3)" class="C11"></text>
    <path d="M 712.397,457.336 A262.500,262.500 0.000 0,1 688.917,558.743 L 757.179,589.812 A337.500,337.500 0.000 0,0 787.368,459.432 Z " style="stroke: none;   fill: rgb(179,186,212); " class="C12"/>
    <text x="787.7" y="531.8" font-size="9.1px" font-family="'CMUBright-Roman'" style="text-anchor:start;fill:rgb(0,0,0)" transform="rotate(13.0,787.7,531.8)" class="C12"></text>
    <path d="M 688.642,559.344 A262.500,262.500 0.000 0,1 683.355,570.216 L 750.028,604.563 A337.500,337.500 0.000 0,0 756.826,590.585 Z " style="stroke: none;   fill: rgb(179,186,212); " class="C13"/>
    <text x="761.0" y="605.1" font-size="9.1px" font-family="'CMUBright-Roman'" style="text-anchor:start;fill:rgb(0,0,0)" transform="rotate(25.9,761.0,605.1)" class="C13"></text>
    <path d="M 683.051,570.803 A262.500,262.500 0.000 0,1 666.495,598.445 L 728.351,640.858 A337.500,337.500 0.000 0,0 749.637,605.318 Z " style="stroke: none;   fill: rgb(179,186,212); " class="C14"/>
    <text x="746.3" y="631.5" font-size="9.1px" font-family="'CMUBright-Roman'" style="text-anchor:start;fill:rgb(0,0,0)" transform="rotate(30.9,746.3,631.5)" class="C14"></text>
    <path d="M 666.121,598.990 A262.500,262.500 0.000 0,1 635.169,636.061 L 688.075,689.221 A337.500,337.500 0.000 0,0 727.870,641.558 Z " style="stroke: none;   fill: rgb(179,186,212); " class="C15"/>
    <text x="714.5" y="675.4" font-size="9.1px" font-family="'CMUBright-Roman'" style="text-anchor:start;fill:rgb(0,0,0)" transform="rotate(39.9,714.5,675.4)" class="C15"></text>
    <path d="M 634.700,636.526 A262.500,262.500 0.000 0,1 616.759,652.726 L 664.405,710.647 A337.500,337.500 0.000 0,0 687.472,689.819 Z " style="stroke: none;   fill: rgb(179,186,212); " class="C16"/>
    <text x="680.3" y="710.3" font-size="9.1px" font-family="'CMUBright-Roman'" style="text-anchor:start;fill:rgb(0,0,0)" transform="rotate(47.9,680.3,710.3)" class="C16"></text>
    <path d="M 616.248,653.145 A262.500,262.500 0.000 0,1 603.467,662.965 L 647.315,723.812 A337.500,337.500 0.000 0,0 663.748,711.186 Z " style="stroke: none;   fill: rgb(179,186,212); " class="C17"/>
    <text x="658.9" y="727.7" font-size="9.1px" font-family="'CMUBright-Roman'" style="text-anchor:start;fill:rgb(0,0,0)" transform="rotate(52.5,658.9,727.7)" class="C17"></text>
    <path d="M 602.930,663.351 A262.500,262.500 0.000 0,1 592.945,670.166 L 633.786,733.070 A337.500,337.500 0.000 0,0 646.625,724.308 Z " style="stroke: none;   fill: rgb(179,186,212); " class="C18"/>
    <text x="643.0" y="739.0" font-size="9.1px" font-family="'CMUBright-Roman'" style="text-anchor:start;fill:rgb(0,0,0)" transform="rotate(55.7,643.0,739.0)" class="C18"></text>
    <path d="M 592.390,670.525 A262.500,262.500 0.000 0,1 499.450,707.800 L 513.578,781.457 A337.500,337.500 0.000 0,0 633.073,733.532 Z " style="stroke: none;   fill: rgb(179,186,212); " class="C19"/>
    <text x="576.1" y="773.8" font-size="9.1px" font-family="'CMUBright-Roman'" style="text-anchor:start;fill:rgb(0,0,0)" transform="rotate(68.1,576.1,773.8)" class="C19"></text>
    <path d="M 498.801,707.924 A262.500,262.500 0.000 0,1 438.638,712.254 L 435.391,787.184 A337.500,337.500 0.000 0,0 512.744,781.616 Z " style="stroke: none;   fill: rgb(179,186,212); " class="C20"/>
    <text x="471.5" y="796.8" font-size="9.1px" font-family="'CMUBright-Roman'" style="text-anchor:start;fill:rgb(0,0,0)" transform="rotate(85.9,471.5,796.8)" class="C20"></text>
    <path d="M 437.977,712.225 A262.500,262.500 0.000 0,1 394.073,706.473 L 378.094,779.751 A337.500,337.500 0.000 0,0 434.542,787.146 Z " style="stroke: none;   fill: rgb(179,186,212); " class="C21"/>
    <text x="408.3" y="795.0" font-size="9.1px" font-family="'CMUBright-Roman'" style="text-anchor:end;fill:rgb(0,0,0)" transform="rotate(-82.5,408.3,795.0)" class="C21"></text>
    <path d="M 393.428,706.331 A262.500,262.500 0.000 0,1 377.802,702.376 L 357.175,774.484 A337.500,337.500 0.000 0,0 377.264,779.569 Z " style="stroke: none;   fill: rgb(179,186,212); " class="C22"/>
    <text x="368.1" y="787.7" font-size="9.1px" font-family="'CMUBright-Roman'" style="text-anchor:end;fill:rgb(0,0,0)" transform="rotate(-75.8,368.1,787.7)" class="C22"></text>
    <path d="M 377.167,702.194 A262.500,262.500 0.000 0,1 307.717,670.594 L 267.064,733.621 A337.500,337.500 0.000 0,0 356.358,774.249 Z " style="stroke: none;   fill: rgb(179,186,212); " class="C23"/>
    <text x="309.3" y="767.7" font-size="9.1px" font-family="'CMUBright-Roman'" style="text-anchor:end;fill:rgb(0,0,0)" transform="rotate(-65.5,309.3,767.7)" class="C23"></text>
    <path d="M 312.671,661.740 A252.375,252.375 0.000 0,1 255.095,610.328 L 197.173,657.973 A327.375,327.375 0.000 0,0 271.860,724.664 Z " style="stroke: none;   fill: rgb(157,55,110); " class="E274"/>
    <text x="227.9" y="704.0" font-size="9.1px" font-family="'CMUBright-Roman'" style="text-anchor:end;fill:rgb(0,0,0)" transform="rotate(-48.2,227.9,704.0)" class="E274"></text>
    <path d="M 254.691,609.836 A252.375,252.375 0.000 0,1 215.515,543.326 L 145.831,571.061 A327.375,327.375 0.000 0,0 196.650,657.336 Z " style="stroke: none;   fill: rgb(157,55,110); " class="E273"/>
    <text x="161.1" y="624.2" font-size="9.1px" font-family="'CMUBright-Roman'" style="text-anchor:end;fill:rgb(0,0,0)" transform="rotate(-30.5,161.1,624.2)" class="E273"></text>
    <path d="M 205.864,546.456 A262.500,262.500 0.000 0,1 198.026,523.589 L 126.033,544.614 A337.500,337.500 0.000 0,0 136.110,574.014 Z " style="stroke: none;   fill: rgb(179,186,212); " class="C24"/>
    <text x="122.4" y="566.0" font-size="9.1px" font-family="'CMUBright-Roman'" style="text-anchor:end;fill:rgb(0,0,0)" transform="rotate(-18.9,122.4,566.0)" class="C24"></text>
    <path d="M 197.842,522.954 A262.500,262.500 0.000 0,1 194.750,511.267 L 121.821,528.772 A337.500,337.500 0.000 0,0 125.796,543.798 Z " style="stroke: none;   fill: rgb(179,186,212); " class="C27"/>
    <text x="115.0" y="542.2" font-size="9.1px" font-family="'CMUBright-Roman'" style="text-anchor:end;fill:rgb(0,0,0)" transform="rotate(-14.8,115.0,542.2)" class="C27"></text>
    <path d="M 194.596,510.624 A262.500,262.500 0.000 0,1 199.560,371.348 L 128.006,348.876 A337.500,337.500 0.000 0,0 121.624,527.945 Z " style="stroke: none;   fill: rgb(179,186,212); " class="C26"/>
    <text x="102.6" y="441.1" font-size="9.1px" font-family="'CMUBright-Roman'" style="text-anchor:end;fill:rgb(0,0,0)" transform="rotate(2.0,102.6,441.1)" class="C26"></text>
    <path d="M 199.759,370.718 A262.500,262.500 0.000 0,1 440.620,187.668 L 437.940,112.716 A337.500,337.500 0.000 0,0 128.261,348.066 Z " style="stroke: none;   fill: rgb(179,186,212); " class="C2"/>
    <text x="237.0" y="175.5" font-size="9.1px" font-family="'CMUBright-Roman'" style="text-anchor:end;fill:rgb(0,0,0)" transform="rotate(52.8,237.0,175.5)" class="C2"></text>
    <path d="M 441.280,187.645 A262.500,262.500 0.000 0,1 449.339,187.501 L 449.150,112.501 A337.500,337.500 0.000 0,0 438.789,112.686 Z " style="stroke: none;   fill: rgb(179,186,212); " class="C1"/>
    <text x="440.3" y="102.6" font-size="9.1px" font-family="'CMUBright-Roman'" style="text-anchor:end;fill:rgb(0,0,0)" transform="rotate(89.0,440.3,102.6)" class="C1"></text>
  </g>
  <g id="E274">
    <path d="M 319.538,651.153 A 239.756,239.756 0.00 0,1 264.8,602.3 Q 443.6,444.5 571.1,243.1 A 239.756,239.756 0.00 0,1 577.4,246.9 Q 449.7,449.8 319.5,651.2 Z" style="stroke-width: 1.0;  stroke: rgb(180,180,180); fill: rgb(143,147,64);" opacity="0.8"/>
    <path d="M 264.456,601.844 A 239.756,239.756 0.00 0,1 227.2,538.7 Q 436.5,436.5 537.5,226.8 A 239.756,239.756 0.00 0,1 544.3,229.6 Q 440.9,443.1 264.5,601.8 Z" style="stroke-width: 1.0;  stroke: rgb(180,180,180); fill: rgb(222,220,70);" opacity="0.5"/>
  </g>
  <g id="E274">
    <path d="M 501.728,215.890 A 239.756,239.756 0.00 0,1 508.9,217.6 Q 457.4,402.8 464.7,210.7 A 239.756,239.756 0.00 0,1 472.1,211.3 Q 457.4,402.7 501.7,215.9 Z" style="stroke-width: 1.0;  stroke: rgb(180,180,180); fill: rgb(143,147,64);" opacity="0.8"/>
    <path d="M 501.728,215.890 A 239.756,239.756 0.00 0,1 508.9,217.6 Q 464.6,404.4 537.5,226.8 A 239.756,239.756 0.00 0,1 544.3,229.6 Q 464.6,404.5 501.7,215.9 Z" style="stroke-width: 1.0;  stroke: rgb(180,180,180); fill: rgb(143,147,64);" opacity="0.8"/>
    <path d="M 571.114,243.084 A 239.756,239.756 0.00 0,1 577.4,246.9 Q 467.9,406.3 501.7,215.9 A 239.756,239.756 0.00 0,1 508.9,217.6 Q 468.0,406.1 571.1,243.1 Z" style="stroke-width: 1.0;  stroke: rgb(180,180,180); fill: rgb(143,147,64);" opacity="0.8"/>
  </g>
  <g id="E274"/>
  <g id="plot0">
    <g id="plot0-axis"/>
    <text x="633.7" y="155.0" font-family="'CMUSansSerif-DemiCondensed'" style="fill: rgb(0,0,0); font-size: 13.0px; text-anchor: start" transform="rotate(301.2,633.7,155.0)">N325</text>
    <text x="534.3" y="112.9" font-family="'CMUSansSerif-DemiCondensed'" style="fill: rgb(0,0,0); font-size: 13.0px; text-anchor: start" transform="rotate(283.3,534.3,112.9)">N324</text>
    <text x="480.9" y="103.9" font-family="'CMUSansSerif-DemiCondensed'" style="fill: rgb(0,0,0); font-size: 13.0px; text-anchor: start" transform="rotate(274.4,480.9,103.9)">N205</text>
    <text x="585.7" y="130.1" font-family="'CMUSansSerif-DemiCondensed'" style="fill: rgb(0,0,0); font-size: 13.0px; text-anchor: start" transform="rotate(292.3,585.7,130.1)">N46</text>
  </g>
  <script>function init(evt) {
    $(evt.target).bind('mouseover', doMouseOver);
    $(evt.target).bind('mouseup'  , doMouseUp);
    $(evt.target).bind('mousedown', doMouseDown);
}</script>
</svg>