<svg width="900px" height="900px" version="1.1" onload="init(evt)" xmlns="http://www.w3.org/2000/svg" xmlns:xlink="http://www.w3.org/1999/xlink">
  <g id="ideograms">
    <path d="M 450.000,197.625 A252.375,252.375 0.000 0,1 471.671,198.557 L 478.111,123.834 A327.375,327.375 0.000 0,0 450.000,122.625 Z " style="stroke: none;   fill: rgb(53,100,153); " class="N125"/>
    <text x="468.0" y="113.1" font-size="9.1px" font-family="'CMUBright-Roman'" style="text-anchor:start;fill:rgb(0,0,0)" transform="rotate(272.5,468.0,113.1)" class="N125"></text>
    <path d="M 472.031,198.588 A252.375,252.375 0.000 0,1 493.538,201.409 L 506.477,127.533 A327.375,327.375 0.000 0,0 478.578,123.875 Z " style="stroke: none;   fill: rgb(53,100,153); " class="N74"/>
    <text x="497.3" y="116.0" font-size="9.1px" font-family="'CMUBright-Roman'" style="text-anchor:start;fill:rgb(0,0,0)" transform="rotate(277.5,497.3,116.0)" class="N74"></text>
    <path d="M 493.894,201.471 A252.375,252.375 0.000 0,1 515.073,206.158 L 534.411,133.694 A327.375,327.375 0.000 0,0 506.938,127.614 Z " style="stroke: none;   fill: rgb(53,100,153); " class="N128"/>
    <text x="526.3" y="121.4" font-size="9.1px" font-family="'CMUBright-Roman'" style="text-anchor:start;fill:rgb(0,0,0)" transform="rotate(282.5,526.3,121.4)" class="N128"></text>
    <path d="M 515.421,206.252 A252.375,252.375 0.000 0,1 536.110,212.770 L 561.700,142.270 A327.375,327.375 0.000 0,0 534.863,133.815 Z " style="stroke: none;   fill: rgb(53,100,153); " class="N121"/>
    <text x="554.7" y="129.3" font-size="9.1px" font-family="'CMUBright-Roman'" style="text-anchor:start;fill:rgb(0,0,0)" transform="rotate(287.5,554.7,129.3)" class="N121"></text>
    <path d="M 536.450,212.893 A252.375,252.375 0.000 0,1 556.490,221.192 L 588.137,153.196 A327.375,327.375 0.000 0,0 562.140,142.431 Z " style="stroke: none;   fill: rgb(53,100,153); " class="N123"/>
    <text x="582.3" y="139.7" font-size="9.1px" font-family="'CMUBright-Roman'" style="text-anchor:start;fill:rgb(0,0,0)" transform="rotate(292.5,582.3,139.7)" class="N123"></text>
    <path d="M 556.818,221.345 A252.375,252.375 0.000 0,1 576.058,231.362 L 613.519,166.388 A327.375,327.375 0.000 0,0 588.561,153.394 Z " style="stroke: none;   fill: rgb(53,100,153); " class="N122"/>
    <text x="608.9" y="152.4" font-size="9.1px" font-family="'CMUBright-Roman'" style="text-anchor:start;fill:rgb(0,0,0)" transform="rotate(297.5,608.9,152.4)" class="N122"></text>
    <path d="M 576.370,231.542 A252.375,252.375 0.000 0,1 594.662,243.201 L 637.653,181.745 A327.375,327.375 0.000 0,0 613.925,166.622 Z " style="stroke: none;   fill: rgb(53,100,153); " class="N127"/>
    <text x="634.3" y="167.4" font-size="9.1px" font-family="'CMUBright-Roman'" style="text-anchor:start;fill:rgb(0,0,0)" transform="rotate(302.5,634.3,167.4)" class="N127"></text>
    <path d="M 594.958,243.408 A252.375,252.375 0.000 0,1 612.162,256.618 L 660.353,199.150 A327.375,327.375 0.000 0,0 638.036,182.013 Z " style="stroke: none;   fill: rgb(53,100,153); " class="N119"/>
    <text x="658.2" y="184.6" font-size="9.1px" font-family="'CMUBright-Roman'" style="text-anchor:start;fill:rgb(0,0,0)" transform="rotate(307.5,658.2,184.6)" class="N119"></text>
    <path d="M 612.439,256.851 A252.375,252.375 0.000 0,1 628.425,271.512 L 681.448,218.470 A327.375,327.375 0.000 0,0 660.712,199.451 Z " style="stroke: none;   fill: rgb(53,100,153); " class="N17"/>
    <text x="680.6" y="203.7" font-size="9.1px" font-family="'CMUBright-Roman'" style="text-anchor:start;fill:rgb(0,0,0)" transform="rotate(312.5,680.6,203.7)" class="N17"></text>
    <path d="M 628.680,271.768 A252.375,252.375 0.000 0,1 643.324,287.769 L 700.776,239.558 A327.375,327.375 0.000 0,0 681.779,218.802 Z " style="stroke: none;   fill: rgb(53,100,153); " class="N129"/>
    <text x="701.2" y="224.8" font-size="9.1px" font-family="'CMUBright-Roman'" style="text-anchor:start;fill:rgb(0,0,0)" transform="rotate(317.5,701.2,224.8)" class="N129"></text>
    <path d="M 643.556,288.046 A252.375,252.375 0.000 0,1 656.748,305.265 L 718.189,262.253 A327.375,327.375 0.000 0,0 701.077,239.917 Z " style="stroke: none;   fill: rgb(53,100,153); " class="N124"/>
    <text x="719.9" y="247.6" font-size="9.1px" font-family="'CMUBright-Roman'" style="text-anchor:start;fill:rgb(0,0,0)" transform="rotate(322.5,719.9,247.6)" class="N124"></text>
    <path d="M 656.955,305.561 A252.375,252.375 0.000 0,1 668.594,323.865 L 733.555,286.381 A327.375,327.375 0.000 0,0 718.458,262.637 Z " style="stroke: none;   fill: rgb(53,100,153); " class="N120"/>
    <text x="736.6" y="271.9" font-size="9.1px" font-family="'CMUBright-Roman'" style="text-anchor:start;fill:rgb(0,0,0)" transform="rotate(327.6,736.6,271.9)" class="N120"></text>
    <path d="M 668.774,324.178 A252.375,252.375 0.000 0,1 678.770,343.429 L 746.755,311.759 A327.375,327.375 0.000 0,0 733.788,286.787 Z " style="stroke: none;   fill: rgb(53,100,153); " class="N126"/>
    <text x="751.0" y="297.6" font-size="9.1px" font-family="'CMUBright-Roman'" style="text-anchor:start;fill:rgb(0,0,0)" transform="rotate(332.6,751.0,297.6)" class="N126"></text>
    <path d="M 688.106,339.494 A262.500,262.500 0.000 0,1 691.765,347.746 L 760.841,318.531 A337.500,337.500 0.000 0,0 756.137,307.921 Z " style="stroke: none;   fill: rgb(179,186,212); " class="C3"/>
    <text x="769.1" y="312.4" font-size="9.1px" font-family="'CMUBright-Roman'" style="text-anchor:start;fill:rgb(0,0,0)" transform="rotate(336.1,769.1,312.4)" class="C3"></text>
    <path d="M 691.911,348.092 A262.500,262.500 0.000 0,1 697.603,362.826 L 768.346,337.920 A337.500,337.500 0.000 0,0 761.029,318.975 Z " style="stroke: none;   fill: rgb(179,186,212); " class="C4"/>
    <text x="775.4" y="328.1" font-size="9.1px" font-family="'CMUBright-Roman'" style="text-anchor:start;fill:rgb(0,0,0)" transform="rotate(338.9,775.4,328.1)" class="C4"></text>
    <path d="M 697.727,363.180 A262.500,262.500 0.000 0,1 699.884,369.598 L 771.279,346.626 A337.500,337.500 0.000 0,0 768.506,338.375 Z " style="stroke: none;   fill: rgb(179,186,212); " class="C6"/>
    <text x="780.5" y="342.6" font-size="9.1px" font-family="'CMUBright-Roman'" style="text-anchor:start;fill:rgb(0,0,0)" transform="rotate(341.4,780.5,342.6)" class="C6"></text>
    <path d="M 699.998,369.955 A262.500,262.500 0.000 0,1 701.979,376.429 L 773.973,355.409 A337.500,337.500 0.000 0,0 771.426,347.085 Z " style="stroke: none;   fill: rgb(179,186,212); " class="C5"/>
    <text x="783.3" y="351.7" font-size="9.1px" font-family="'CMUBright-Roman'" style="text-anchor:start;fill:rgb(0,0,0)" transform="rotate(343.0,783.3,351.7)" class="C5"></text>
    <path d="M 702.084,376.790 A262.500,262.500 0.000 0,1 705.524,389.885 L 778.531,372.709 A337.500,337.500 0.000 0,0 774.108,355.872 Z " style="stroke: none;   fill: rgb(179,186,212); " class="C7"/>
    <text x="787.0" y="365.1" font-size="9.1px" font-family="'CMUBright-Roman'" style="text-anchor:start;fill:rgb(0,0,0)" transform="rotate(345.3,787.0,365.1)" class="C7"></text>
    <path d="M 705.610,390.250 A262.500,262.500 0.000 0,1 709.796,412.420 L 784.023,401.683 A337.500,337.500 0.000 0,0 778.641,373.179 Z " style="stroke: none;   fill: rgb(179,186,212); " class="C8"/>
    <text x="792.1" y="389.0" font-size="9.1px" font-family="'CMUBright-Roman'" style="text-anchor:start;fill:rgb(0,0,0)" transform="rotate(349.3,792.1,389.0)" class="C8"></text>
    <path d="M 709.849,412.791 A262.500,262.500 0.000 0,1 710.723,419.505 L 785.215,410.792 A337.500,337.500 0.000 0,0 784.092,402.160 Z " style="stroke: none;   fill: rgb(179,186,212); " class="C9"/>
    <text x="795.0" y="408.7" font-size="9.1px" font-family="'CMUBright-Roman'" style="text-anchor:start;fill:rgb(0,0,0)" transform="rotate(352.6,795.0,408.7)" class="C9"></text>
    <path d="M 700.708,421.040 A252.375,252.375 0.000 0,1 701.966,464.364 L 776.844,468.632 A327.375,327.375 0.000 0,0 775.212,412.433 Z " style="stroke: none;   fill: rgb(157,55,110); " class="E90"/>
    <text x="787.3" y="443.7" font-size="9.1px" font-family="'CMUBright-Roman'" style="text-anchor:start;fill:rgb(0,0,0)" transform="rotate(358.3,787.3,443.7)" class="E90"></text>
    <path d="M 701.945,464.724 A252.375,252.375 0.000 0,1 695.710,507.616 L 768.730,524.738 A327.375,327.375 0.000 0,0 776.817,469.100 Z " style="stroke: none;   fill: rgb(157,55,110); " class="E89"/>
    <text x="783.3" y="502.0" font-size="9.1px" font-family="'CMUBright-Roman'" style="text-anchor:start;fill:rgb(0,0,0)" transform="rotate(8.3,783.3,502.0)" class="E89"></text>
    <path d="M 695.628,507.967 A252.375,252.375 0.000 0,1 682.087,549.140 L 751.058,578.603 A327.375,327.375 0.000 0,0 768.622,525.194 Z " style="stroke: none;   fill: rgb(157,55,110); " class="E88"/>
    <text x="769.4" y="558.7" font-size="9.1px" font-family="'CMUBright-Roman'" style="text-anchor:start;fill:rgb(0,0,0)" transform="rotate(18.2,769.4,558.7)" class="E88"></text>
    <path d="M 681.945,549.472 A252.375,252.375 0.000 0,1 661.504,587.692 L 724.358,628.611 A327.375,327.375 0.000 0,0 750.873,579.033 Z " style="stroke: none;   fill: rgb(157,55,110); " class="E87"/>
    <text x="745.8" y="612.2" font-size="9.1px" font-family="'CMUBright-Roman'" style="text-anchor:start;fill:rgb(0,0,0)" transform="rotate(28.1,745.8,612.2)" class="E87"></text>
    <path d="M 661.307,587.995 A252.375,252.375 0.000 0,1 634.579,622.115 L 689.432,673.264 A327.375,327.375 0.000 0,0 724.103,629.003 Z " style="stroke: none;   fill: rgb(157,55,110); " class="E86"/>
    <text x="713.4" y="660.8" font-size="9.1px" font-family="'CMUBright-Roman'" style="text-anchor:start;fill:rgb(0,0,0)" transform="rotate(38.1,713.4,660.8)" class="E86"></text>
    <path d="M 634.333,622.379 A252.375,252.375 0.000 0,1 602.120,651.377 L 647.327,711.221 A327.375,327.375 0.000 0,0 689.113,673.606 Z " style="stroke: none;   fill: rgb(157,55,110); " class="E85"/>
    <text x="673.1" y="703.1" font-size="9.1px" font-family="'CMUBright-Roman'" style="text-anchor:start;fill:rgb(0,0,0)" transform="rotate(48.0,673.1,703.1)" class="E85"></text>
    <path d="M 601.832,651.594 A252.375,252.375 0.000 0,1 565.099,674.600 L 599.304,741.346 A327.375,327.375 0.000 0,0 646.953,711.504 Z " style="stroke: none;   fill: rgb(157,55,110); " class="E84"/>
    <text x="626.1" y="737.8" font-size="9.1px" font-family="'CMUBright-Roman'" style="text-anchor:start;fill:rgb(0,0,0)" transform="rotate(57.9,626.1,737.8)" class="E84"></text>
    <path d="M 564.778,674.765 A252.375,252.375 0.000 0,1 524.627,691.089 L 546.804,762.735 A327.375,327.375 0.000 0,0 598.887,741.560 Z " style="stroke: none;   fill: rgb(157,55,110); " class="E83"/>
    <text x="573.8" y="763.8" font-size="9.1px" font-family="'CMUBright-Roman'" style="text-anchor:start;fill:rgb(0,0,0)" transform="rotate(67.9,573.8,763.8)" class="E83"></text>
    <path d="M 524.282,691.196 A252.375,252.375 0.000 0,1 481.917,700.349 L 491.402,774.746 A327.375,327.375 0.000 0,0 546.357,762.873 Z " style="stroke: none;   fill: rgb(157,55,110); " class="E82"/>
    <text x="517.8" y="780.5" font-size="9.1px" font-family="'CMUBright-Roman'" style="text-anchor:start;fill:rgb(0,0,0)" transform="rotate(77.8,517.8,780.5)" class="E82"></text>
    <path d="M 481.559,700.394 A252.375,252.375 0.000 0,1 438.250,702.101 L 434.758,777.020 A327.375,327.375 0.000 0,0 490.937,774.805 Z " style="stroke: none;   fill: rgb(157,55,110); " class="E81"/>
    <text x="459.8" y="787.2" font-size="9.1px" font-family="'CMUBright-Roman'" style="text-anchor:start;fill:rgb(0,0,0)" transform="rotate(87.7,459.8,787.2)" class="E81"></text>
    <path d="M 437.889,702.084 A252.375,252.375 0.000 0,1 394.935,696.295 L 378.571,769.488 A327.375,327.375 0.000 0,0 434.290,776.998 Z " style="stroke: none;   fill: rgb(157,55,110); " class="E80"/>
    <text x="408.4" y="784.8" font-size="9.1px" font-family="'CMUBright-Roman'" style="text-anchor:end;fill:rgb(0,0,0)" transform="rotate(-82.3,408.4,784.8)" class="E80"></text>
    <path d="M 394.583,696.216 A252.375,252.375 0.000 0,1 353.272,683.103 L 324.526,752.375 A327.375,327.375 0.000 0,0 378.114,769.385 Z " style="stroke: none;   fill: rgb(157,55,110); " class="E79"/>
    <text x="351.3" y="772.6" font-size="9.1px" font-family="'CMUBright-Roman'" style="text-anchor:end;fill:rgb(0,0,0)" transform="rotate(-72.4,351.3,772.6)" class="E79"></text>
    <path d="M 352.938,682.964 A252.375,252.375 0.000 0,1 314.509,662.921 L 274.244,726.196 A327.375,327.375 0.000 0,0 324.094,752.195 Z " style="stroke: none;   fill: rgb(157,55,110); " class="E78"/>
    <text x="297.1" y="750.7" font-size="9.1px" font-family="'CMUBright-Roman'" style="text-anchor:end;fill:rgb(0,0,0)" transform="rotate(-62.5,297.1,750.7)" class="E78"></text>
    <path d="M 314.204,662.727 A252.375,252.375 0.000 0,1 279.808,636.354 L 229.231,691.735 A327.375,327.375 0.000 0,0 273.849,725.944 Z " style="stroke: none;   fill: rgb(157,55,110); " class="E77"/>
    <text x="247.5" y="719.8" font-size="9.1px" font-family="'CMUBright-Roman'" style="text-anchor:end;fill:rgb(0,0,0)" transform="rotate(-52.5,247.5,719.8)" class="E77"></text>
    <path d="M 279.542,636.111 A252.375,252.375 0.000 0,1 261.281,617.566 L 205.198,667.363 A327.375,327.375 0.000 0,0 228.886,691.418 Z " style="stroke: none;   fill: rgb(179,186,212); " class="C11"/>
    <text x="212.1" y="689.2" font-size="9.1px" font-family="'CMUBright-Roman'" style="text-anchor:end;fill:rgb(0,0,0)" transform="rotate(-44.6,212.1,689.2)" class="C11"></text>
    <path d="M 253.461,624.008 A262.500,262.500 0.000 0,1 219.777,576.110 L 154.000,612.142 A337.500,337.500 0.000 0,0 197.307,673.724 Z " style="stroke: none;   fill: rgb(179,186,212); " class="C12"/>
    <text x="167.8" y="652.7" font-size="9.1px" font-family="'CMUBright-Roman'" style="text-anchor:end;fill:rgb(0,0,0)" transform="rotate(-35.1,167.8,652.7)" class="C12"></text>
    <path d="M 219.597,575.781 A262.500,262.500 0.000 0,1 216.430,569.797 L 149.696,604.025 A337.500,337.500 0.000 0,0 153.768,611.719 Z " style="stroke: none;   fill: rgb(179,186,212); " class="C13"/>
    <text x="144.5" y="615.6" font-size="9.1px" font-family="'CMUBright-Roman'" style="text-anchor:end;fill:rgb(0,0,0)" transform="rotate(-27.9,144.5,615.6)" class="C13"></text>
    <path d="M 216.259,569.463 A262.500,262.500 0.000 0,1 208.602,553.117 L 139.631,582.579 A337.500,337.500 0.000 0,0 149.476,603.596 Z " style="stroke: none;   fill: rgb(179,186,212); " class="C14"/>
    <text x="136.8" y="600.6" font-size="9.1px" font-family="'CMUBright-Roman'" style="text-anchor:end;fill:rgb(0,0,0)" transform="rotate(-25.1,136.8,600.6)" class="C14"></text>
    <path d="M 208.455,552.772 A262.500,262.500 0.000 0,1 199.155,527.349 L 127.485,549.449 A337.500,337.500 0.000 0,0 139.442,582.135 Z " style="stroke: none;   fill: rgb(179,186,212); " class="C15"/>
    <text x="124.9" y="572.7" font-size="9.1px" font-family="'CMUBright-Roman'" style="text-anchor:end;fill:rgb(0,0,0)" transform="rotate(-20.1,124.9,572.7)" class="C15"></text>
    <path d="M 199.044,526.991 A262.500,262.500 0.000 0,1 195.408,513.948 L 122.668,532.219 A337.500,337.500 0.000 0,0 127.343,548.988 Z " style="stroke: none;   fill: rgb(179,186,212); " class="C16"/>
    <text x="116.2" y="546.7" font-size="9.1px" font-family="'CMUBright-Roman'" style="text-anchor:end;fill:rgb(0,0,0)" transform="rotate(-15.6,116.2,546.7)" class="C16"></text>
    <path d="M 195.317,513.584 A262.500,262.500 0.000 0,1 193.282,504.790 L 119.934,520.444 A337.500,337.500 0.000 0,0 122.551,531.751 Z " style="stroke: none;   fill: rgb(179,186,212); " class="C17"/>
    <text x="112.3" y="531.8" font-size="9.1px" font-family="'CMUBright-Roman'" style="text-anchor:end;fill:rgb(0,0,0)" transform="rotate(-13.0,112.3,531.8)" class="C17"></text>
    <path d="M 193.204,504.423 A262.500,262.500 0.000 0,1 191.885,497.782 L 118.138,511.434 A337.500,337.500 0.000 0,0 119.833,519.972 Z " style="stroke: none;   fill: rgb(179,186,212); " class="C18"/>
    <text x="109.8" y="521.1" font-size="9.1px" font-family="'CMUBright-Roman'" style="text-anchor:end;fill:rgb(0,0,0)" transform="rotate(-11.2,109.8,521.1)" class="C18"></text>
    <path d="M 201.776,495.584 A252.375,252.375 0.000 0,1 197.765,441.593 L 122.807,439.094 A327.375,327.375 0.000 0,0 128.009,509.131 Z " style="stroke: none;   fill: rgb(179,186,212); " class="C19"/>
    <text x="113.8" y="478.5" font-size="9.1px" font-family="'CMUBright-Roman'" style="text-anchor:end;fill:rgb(0,0,0)" transform="rotate(-4.2,113.8,478.5)" class="C19"></text>
    <path d="M 187.658,440.881 A262.500,262.500 0.000 0,1 191.010,407.218 L 117.013,394.994 A337.500,337.500 0.000 0,0 112.704,438.275 Z " style="stroke: none;   fill: rgb(179,186,212); " class="C20"/>
    <text x="103.9" y="419.1" font-size="9.1px" font-family="'CMUBright-Roman'" style="text-anchor:end;fill:rgb(0,0,0)" transform="rotate(5.7,103.9,419.1)" class="C20"></text>
    <path d="M 191.071,406.848 A262.500,262.500 0.000 0,1 196.303,382.589 L 123.818,363.329 A337.500,337.500 0.000 0,0 117.092,394.518 Z " style="stroke: none;   fill: rgb(179,186,212); " class="C21"/>
    <text x="109.6" y="380.2" font-size="9.1px" font-family="'CMUBright-Roman'" style="text-anchor:end;fill:rgb(0,0,0)" transform="rotate(12.2,109.6,380.2)" class="C21"></text>
    <path d="M 196.400,382.227 A262.500,262.500 0.000 0,1 198.880,373.547 L 127.131,351.704 A337.500,337.500 0.000 0,0 123.943,362.863 Z " style="stroke: none;   fill: rgb(179,186,212); " class="C22"/>
    <text x="114.9" y="357.9" font-size="9.1px" font-family="'CMUBright-Roman'" style="text-anchor:end;fill:rgb(0,0,0)" transform="rotate(15.9,114.9,357.9)" class="C22"></text>
    <path d="M 198.990,373.189 A262.500,262.500 0.000 0,1 214.823,333.390 L 147.629,300.073 A337.500,337.500 0.000 0,0 127.272,351.242 Z " style="stroke: none;   fill: rgb(179,186,212); " class="C23"/>
    <text x="125.8" y="324.8" font-size="9.1px" font-family="'CMUBright-Roman'" style="text-anchor:end;fill:rgb(0,0,0)" transform="rotate(21.7,125.8,324.8)" class="C23"></text>
    <path d="M 214.990,333.054 A262.500,262.500 0.000 0,1 217.035,329.031 L 150.474,294.468 A337.500,337.500 0.000 0,0 147.844,299.641 Z " style="stroke: none;   fill: rgb(179,186,212); " class="C25"/>
    <text x="138.7" y="295.6" font-size="9.1px" font-family="'CMUBright-Roman'" style="text-anchor:end;fill:rgb(0,0,0)" transform="rotate(26.9,138.7,295.6)" class="C25"></text>
    <path d="M 217.208,328.698 A262.500,262.500 0.000 0,1 223.773,316.856 L 159.136,278.815 A337.500,337.500 0.000 0,0 150.696,294.040 Z " style="stroke: none;   fill: rgb(179,186,212); " class="C24"/>
    <text x="144.4" y="284.6" font-size="9.1px" font-family="'CMUBright-Roman'" style="text-anchor:end;fill:rgb(0,0,0)" transform="rotate(29.0,144.4,284.6)" class="C24"></text>
    <path d="M 223.963,316.533 A262.500,262.500 0.000 0,1 227.480,310.748 L 163.903,270.961 A337.500,337.500 0.000 0,0 159.381,278.399 Z " style="stroke: none;   fill: rgb(179,186,212); " class="C27"/>
    <text x="151.3" y="272.5" font-size="9.1px" font-family="'CMUBright-Roman'" style="text-anchor:end;fill:rgb(0,0,0)" transform="rotate(31.3,151.3,272.5)" class="C27"></text>
    <path d="M 227.680,310.430 A262.500,262.500 0.000 0,1 279.037,250.807 L 230.190,193.895 A337.500,337.500 0.000 0,0 164.159,270.552 Z " style="stroke: none;   fill: rgb(179,186,212); " class="C26"/>
    <text x="184.4" y="225.9" font-size="9.1px" font-family="'CMUBright-Roman'" style="text-anchor:end;fill:rgb(0,0,0)" transform="rotate(40.7,184.4,225.9)" class="C26"></text>
    <path d="M 279.322,250.563 A262.500,262.500 0.000 0,1 444.736,187.553 L 443.232,112.568 A337.500,337.500 0.000 0,0 230.556,193.581 Z " style="stroke: none;   fill: rgb(179,186,212); " class="C2"/>
    <text x="323.0" y="126.5" font-size="9.1px" font-family="'CMUBright-Roman'" style="text-anchor:end;fill:rgb(0,0,0)" transform="rotate(69.1,323.0,126.5)" class="C2"></text>
    <path d="M 445.111,187.546 A262.500,262.500 0.000 0,1 449.625,187.500 L 449.518,112.500 A337.500,337.500 0.000 0,0 443.715,112.559 Z " style="stroke: none;   fill: rgb(179,186,212); " class="C1"/>
    <text x="443.0" y="102.6" font-size="9.1px" font-family="'CMUBright-Roman'" style="text-anchor:end;fill:rgb(0,0,0)" transform="rotate(89.4,443.0,102.6)" class="C1"></text>
  </g>
  <g id="E80">
    <path d="M 639.060,302.557 A 239.756,239.756 0.00 0,1 641.6,305.8 Q 445.6,439.9 214.2,493.3 A 239.756,239.756 0.00 0,1 210.4,442.0 Q 444.9,434.5 639.1,302.6 Z" style="stroke-width: 1.0;  stroke: rgb(180,180,180); fill: rgb(222,220,70);" opacity="0.5"/>
  </g>
  <g id="E80">
    <path d="M 594.377,258.588 A 239.756,239.756 0.00 0,1 597.6,261.1 Q 448.6,448.8 288.1,626.8 A 239.756,239.756 0.00 0,1 270.7,609.2 Q 446.5,446.8 594.4,258.6 Z" style="stroke-width: 1.0;  stroke: rgb(180,180,180); fill: rgb(222,220,70);" opacity="0.5"/>
  </g>
  <g id="E80">
    <path d="M 650.742,581.095 A 239.756,239.756 0.00 0,1 625.4,613.5 Q 488.7,455.1 661.8,337.7 A 239.756,239.756 0.00 0,1 663.7,341.3 Q 491.4,452.2 650.7,581.1 Z" style="stroke-width: 1.0;  stroke: rgb(180,180,180); fill: rgb(222,220,70);" opacity="0.5"/>
    <path d="M 479.981,687.874 A 239.756,239.756 0.00 0,1 438.8,689.5 Q 467.8,459.2 639.1,302.6 A 239.756,239.756 0.00 0,1 641.6,305.8 Q 472.2,459.4 480.0,687.9 Z" style="stroke-width: 1.0;  stroke: rgb(180,180,180); fill: rgb(222,220,70);" opacity="0.5"/>
    <path d="M 625.116,613.760 A 239.756,239.756 0.00 0,1 594.5,641.3 Q 478.9,450.0 594.4,258.6 A 239.756,239.756 0.00 0,1 597.6,261.1 Q 482.3,447.5 625.1,613.8 Z" style="stroke-width: 1.0;  stroke: rgb(180,180,180); fill: rgb(222,220,70);" opacity="0.5"/>
    <path d="M 688.172,422.488 A 239.756,239.756 0.00 0,1 689.4,463.6 Q 491.5,435.0 625.5,286.6 A 239.756,239.756 0.00 0,1 628.3,289.7 Q 491.6,431.2 688.2,422.5 Z" style="stroke-width: 1.0;  stroke: rgb(180,180,180); fill: rgb(222,220,70);" opacity="0.5"/>
    <path d="M 357.791,671.316 A 239.756,239.756 0.00 0,1 321.3,652.3 Q 451.6,451.1 594.4,258.6 A 239.756,239.756 0.00 0,1 597.6,261.1 Q 455.5,453.2 357.8,671.3 Z" style="stroke-width: 1.0;  stroke: rgb(180,180,180); fill: rgb(222,220,70);" opacity="0.5"/>
    <path d="M 683.346,505.069 A 239.756,239.756 0.00 0,1 670.5,544.2 Q 477.0,436.0 499.8,215.5 A 239.756,239.756 0.00 0,1 503.8,216.4 Q 478.7,432.1 683.3,505.1 Z" style="stroke-width: 1.0;  stroke: rgb(180,180,180); fill: rgb(222,220,70);" opacity="0.5"/>
    <path d="M 520.568,679.136 A 239.756,239.756 0.00 0,1 480.3,687.8 Q 469.1,456.0 610.5,271.9 A 239.756,239.756 0.00 0,1 613.6,274.7 Q 473.4,455.4 520.6,679.1 Z" style="stroke-width: 1.0;  stroke: rgb(180,180,180); fill: rgb(222,220,70);" opacity="0.5"/>
    <path d="M 438.495,689.480 A 239.756,239.756 0.00 0,1 397.7,684.0 Q 460.8,455.6 610.5,271.9 A 239.756,239.756 0.00 0,1 613.6,274.7 Q 465.2,456.4 438.5,689.5 Z" style="stroke-width: 1.0;  stroke: rgb(180,180,180); fill: rgb(143,147,64);" opacity="0.8"/>
    <path d="M 594.240,641.515 A 239.756,239.756 0.00 0,1 559.3,663.4 Q 477.0,453.5 610.5,271.9 A 239.756,239.756 0.00 0,1 613.6,274.7 Q 480.8,451.6 594.2,641.5 Z" style="stroke-width: 1.0;  stroke: rgb(180,180,180); fill: rgb(222,220,70);" opacity="0.5"/>
    <path d="M 559.039,663.527 A 239.756,239.756 0.00 0,1 520.9,679.0 Q 457.9,448.9 458.2,210.4 A 239.756,239.756 0.00 0,1 462.4,210.6 Q 462.1,447.4 559.0,663.5 Z" style="stroke-width: 1.0;  stroke: rgb(180,180,180); fill: rgb(222,220,70);" opacity="0.5"/>
    <path d="M 670.348,544.499 A 239.756,239.756 0.00 0,1 650.9,580.8 Q 486.1,445.3 610.5,271.9 A 239.756,239.756 0.00 0,1 613.6,274.7 Q 488.4,441.9 670.3,544.5 Z" style="stroke-width: 1.0;  stroke: rgb(180,180,180); fill: rgb(222,220,70);" opacity="0.5"/>
    <path d="M 320.994,652.090 A 239.756,239.756 0.00 0,1 288.3,627.0 Q 449.9,449.9 610.5,271.9 A 239.756,239.756 0.00 0,1 613.6,274.7 Q 453.5,452.7 321.0,652.1 Z" style="stroke-width: 1.0;  stroke: rgb(180,180,180); fill: rgb(222,220,70);" opacity="0.5"/>
    <path d="M 397.354,683.905 A 239.756,239.756 0.00 0,1 358.1,671.4 Q 451.7,450.8 558.9,236.4 A 239.756,239.756 0.00 0,1 562.5,238.3 Q 456.0,452.2 397.4,683.9 Z" style="stroke-width: 1.0;  stroke: rgb(180,180,180); fill: rgb(222,220,70);" opacity="0.5"/>
    <path d="M 689.348,463.988 A 239.756,239.756 0.00 0,1 683.4,504.7 Q 489.4,437.7 610.5,271.9 A 239.756,239.756 0.00 0,1 613.6,274.7 Q 490.3,433.9 689.3,464.0 Z" style="stroke-width: 1.0;  stroke: rgb(180,180,180); fill: rgb(222,220,70);" opacity="0.5"/>
  </g>
  <g id="E80">
    <path d="M 520.075,220.713 A 239.756,239.756 0.00 0,1 524.0,222.0 Q 471.8,408.1 594.4,258.6 A 239.756,239.756 0.00 0,1 597.6,261.1 Q 471.8,408.2 520.1,220.7 Z" style="stroke-width: 1.0;  stroke: rgb(180,180,180); fill: rgb(222,220,70);" opacity="0.5"/>
    <path d="M 639.060,302.557 A 239.756,239.756 0.00 0,1 641.6,305.8 Q 485.2,417.8 610.5,271.9 A 239.756,239.756 0.00 0,1 613.6,274.7 Q 485.3,417.7 639.1,302.6 Z" style="stroke-width: 1.0;  stroke: rgb(180,180,180); fill: rgb(222,220,70);" opacity="0.5"/>
    <path d="M 639.060,302.557 A 239.756,239.756 0.00 0,1 641.6,305.8 Q 478.1,413.4 539.8,227.7 A 239.756,239.756 0.00 0,1 543.6,229.3 Q 478.3,413.2 639.1,302.6 Z" style="stroke-width: 1.0;  stroke: rgb(180,180,180); fill: rgb(222,220,70);" opacity="0.5"/>
    <path d="M 458.244,210.386 A 239.756,239.756 0.00 0,1 462.4,210.6 Q 470.1,411.3 639.1,302.6 A 239.756,239.756 0.00 0,1 641.6,305.8 Q 470.0,411.6 458.2,210.4 Z" style="stroke-width: 1.0;  stroke: rgb(180,180,180); fill: rgb(222,220,70);" opacity="0.5"/>
    <path d="M 458.244,210.386 A 239.756,239.756 0.00 0,1 462.4,210.6 Q 462.1,404.7 558.9,236.4 A 239.756,239.756 0.00 0,1 562.5,238.3 Q 462.1,404.9 458.2,210.4 Z" style="stroke-width: 1.0;  stroke: rgb(180,180,180); fill: rgb(222,220,70);" opacity="0.5"/>
    <path d="M 520.075,220.713 A 239.756,239.756 0.00 0,1 524.0,222.0 Q 477.5,414.2 651.2,319.6 A 239.756,239.756 0.00 0,1 653.4,323.1 Q 477.3,414.4 520.1,220.7 Z" style="stroke-width: 1.0;  stroke: rgb(180,180,180); fill: rgb(222,220,70);" opacity="0.5"/>
    <path d="M 625.467,286.616 A 239.756,239.756 0.00 0,1 628.3,289.7 Q 474.8,411.0 520.1,220.7 A 239.756,239.756 0.00 0,1 524.0,222.0 Q 474.9,410.9 625.5,286.6 Z" style="stroke-width: 1.0;  stroke: rgb(180,180,180); fill: rgb(222,220,70);" opacity="0.5"/>
    <path d="M 594.377,258.588 A 239.756,239.756 0.00 0,1 597.6,261.1 Q 467.7,407.3 479.1,212.0 A 239.756,239.756 0.00 0,1 483.2,212.6 Q 467.8,407.1 594.4,258.6 Z" style="stroke-width: 1.0;  stroke: rgb(180,180,180); fill: rgb(222,220,70);" opacity="0.5"/>
    <path d="M 499.792,215.471 A 239.756,239.756 0.00 0,1 503.8,216.4 Q 468.1,406.3 577.1,246.7 A 239.756,239.756 0.00 0,1 580.6,248.9 Q 468.0,406.4 499.8,215.5 Z" style="stroke-width: 1.0;  stroke: rgb(180,180,180); fill: rgb(222,220,70);" opacity="0.5"/>
    <path d="M 625.467,286.616 A 239.756,239.756 0.00 0,1 628.3,289.7 Q 483.9,416.2 610.5,271.9 A 239.756,239.756 0.00 0,1 613.6,274.7 Q 483.9,416.1 625.5,286.6 Z" style="stroke-width: 1.0;  stroke: rgb(180,180,180); fill: rgb(222,220,70);" opacity="0.5"/>
    <path d="M 458.244,210.386 A 239.756,239.756 0.00 0,1 462.4,210.6 Q 458.2,403.1 520.1,220.7 A 239.756,239.756 0.00 0,1 524.0,222.0 Q 458.2,403.2 458.2,210.4 Z" style="stroke-width: 1.0;  stroke: rgb(180,180,180); fill: rgb(222,220,70);" opacity="0.5"/>
    <path d="M 625.467,286.616 A 239.756,239.756 0.00 0,1 628.3,289.7 Q 472.8,410.5 499.8,215.5 A 239.756,239.756 0.00 0,1 503.8,216.4 Q 472.9,410.3 625.5,286.6 Z" style="stroke-width: 1.0;  stroke: rgb(180,180,180); fill: rgb(222,220,70);" opacity="0.5"/>
    <path d="M 594.377,258.588 A 239.756,239.756 0.00 0,1 597.6,261.1 Q 480.8,413.3 610.5,271.9 A 239.756,239.756 0.00 0,1 613.6,274.7 Q 480.8,413.3 594.4,258.6 Z" style="stroke-width: 1.0;  stroke: rgb(180,180,180); fill: rgb(222,220,70);" opacity="0.5"/>
    <path d="M 458.244,210.386 A 239.756,239.756 0.00 0,1 462.4,210.6 Q 467.3,408.2 610.5,271.9 A 239.756,239.756 0.00 0,1 613.6,274.7 Q 467.2,408.5 458.2,210.4 Z" style="stroke-width: 1.0;  stroke: rgb(180,180,180); fill: rgb(222,220,70);" opacity="0.5"/>
    <path d="M 499.792,215.471 A 239.756,239.756 0.00 0,1 503.8,216.4 Q 471.4,408.8 610.5,271.9 A 239.756,239.756 0.00 0,1 613.6,274.7 Q 471.3,409.0 499.8,215.5 Z" style="stroke-width: 1.0;  stroke: rgb(180,180,180); fill: rgb(222,220,70);" opacity="0.5"/>
    <path d="M 625.467,286.616 A 239.756,239.756 0.00 0,1 628.3,289.7 Q 489.0,422.7 661.8,337.7 A 239.756,239.756 0.00 0,1 663.7,341.3 Q 488.9,422.8 625.5,286.6 Z" style="stroke-width: 1.0;  stroke: rgb(180,180,180); fill: rgb(222,220,70);" opacity="0.5"/>
  </g>
  <g id="E80"/>
  <g id="plot0">
    <g id="plot0-axis"/>
    <text x="665.0" y="177.0" font-family="'CMUSansSerif-DemiCondensed'" style="fill: rgb(0,0,0); font-size: 13.0px; text-anchor: start" transform="rotate(307.5,665.0,177.0)">N119</text>
    <text x="614.2" y="143.7" font-family="'CMUSansSerif-DemiCondensed'" style="fill: rgb(0,0,0); font-size: 13.0px; text-anchor: start" transform="rotate(297.5,614.2,143.7)">N122</text>
    <text x="728.4" y="242.0" font-family="'CMUSansSerif-DemiCondensed'" style="fill: rgb(0,0,0); font-size: 13.0px; text-anchor: start" transform="rotate(322.5,728.4,242.0)">N124</text>
    <text x="586.9" y="130.6" font-family="'CMUSansSerif-DemiCondensed'" style="fill: rgb(0,0,0); font-size: 13.0px; text-anchor: start" transform="rotate(292.5,586.9,130.6)">N123</text>
    <text x="469.2" y="103.0" font-family="'CMUSansSerif-DemiCondensed'" style="fill: rgb(0,0,0); font-size: 13.0px; text-anchor: start" transform="rotate(272.5,469.2,103.0)">N125</text>
    <text x="558.4" y="119.9" font-family="'CMUSansSerif-DemiCondensed'" style="fill: rgb(0,0,0); font-size: 13.0px; text-anchor: start" transform="rotate(287.5,558.4,119.9)">N121</text>
    <text x="745.5" y="267.1" font-family="'CMUSansSerif-DemiCondensed'" style="fill: rgb(0,0,0); font-size: 13.0px; text-anchor: start" transform="rotate(327.6,745.5,267.1)">N120</text>
    <text x="760.3" y="293.6" font-family="'CMUSansSerif-DemiCondensed'" style="fill: rgb(0,0,0); font-size: 13.0px; text-anchor: start" transform="rotate(332.6,760.3,293.6)">N126</text>
    <text x="529.2" y="111.6" font-family="'CMUSansSerif-DemiCondensed'" style="fill: rgb(0,0,0); font-size: 13.0px; text-anchor: start" transform="rotate(282.5,529.2,111.6)">N128</text>
    <text x="640.3" y="159.3" font-family="'CMUSansSerif-DemiCondensed'" style="fill: rgb(0,0,0); font-size: 13.0px; text-anchor: start" transform="rotate(302.5,640.3,159.3)">N127</text>
    <text x="709.2" y="218.5" font-family="'CMUSansSerif-DemiCondensed'" style="fill: rgb(0,0,0); font-size: 13.0px; text-anchor: start" transform="rotate(317.5,709.2,218.5)">N129</text>
    <text x="688.0" y="196.8" font-family="'CMUSansSerif-DemiCondensed'" style="fill: rgb(0,0,0); font-size: 13.0px; text-anchor: start" transform="rotate(312.5,688.0,196.8)">N17</text>
    <text x="499.0" y="106.0" font-family="'CMUSansSerif-DemiCondensed'" style="fill: rgb(0,0,0); font-size: 13.0px; text-anchor: start" transform="rotate(277.5,499.0,106.0)">N74</text>
    <text x="205.4" y="696.8" font-family="'CMUSansSerif-DemiCondensed'" style="fill: rgb(0,0,0); font-size: 13.0px; text-anchor: end" transform="rotate(315.4,205.4,696.8)">C11</text>
    <text x="103.8" y="480.0" font-family="'CMUSansSerif-DemiCondensed'" style="fill: rgb(0,0,0); font-size: 13.0px; text-anchor: end" transform="rotate(355.8,103.8,480.0)">C19</text>
  </g>
  <script>function init(evt) {
    $(evt.target).bind('mouseover', doMouseOver);
    $(evt.target).bind('mouseup'  , doMouseUp);
    $(evt.target).bind('mousedown', doMouseDown);
}</script>
</svg>