<svg width="900px" height="900px" version="1.1" onload="init(evt)" xmlns="http://www.w3.org/2000/svg" xmlns:xlink="http://www.w3.org/1999/xlink">
  <g id="ideograms">
    <path d="M 450.000,197.625 A252.375,252.375 0.000 0,1 463.376,197.980 L 467.351,123.085 A327.375,327.375 0.000 0,0 450.000,122.625 Z " style="stroke: none;   fill: rgb(53,100,153); " class=""/>
    <text x="462.4" y="112.9" font-size="9.1px" font-family="'CMUBright-Roman'" style="text-anchor:start;fill:rgb(0,0,0)" transform="rotate(271.5,462.4,112.9)" class=""></text>
    <path d="M 463.606,197.992 A252.375,252.375 0.000 0,1 476.943,199.067 L 484.950,124.496 A327.375,327.375 0.000 0,0 467.649,123.101 Z " style="stroke: none;   fill: rgb(53,100,153); " class=""/>
    <text x="480.6" y="114.0" font-size="9.1px" font-family="'CMUBright-Roman'" style="text-anchor:start;fill:rgb(0,0,0)" transform="rotate(274.6,480.6,114.0)" class=""></text>
    <path d="M 477.172,199.092 A252.375,252.375 0.000 0,1 490.432,200.885 L 502.447,126.853 A327.375,327.375 0.000 0,0 485.246,124.528 Z " style="stroke: none;   fill: rgb(53,100,153); " class=""/>
    <text x="498.7" y="116.2" font-size="9.1px" font-family="'CMUBright-Roman'" style="text-anchor:start;fill:rgb(0,0,0)" transform="rotate(277.7,498.7,116.2)" class=""></text>
    <path d="M 490.659,200.922 A252.375,252.375 0.000 0,1 503.803,203.427 L 519.792,130.151 A327.375,327.375 0.000 0,0 502.741,126.901 Z " style="stroke: none;   fill: rgb(53,100,153); " class=""/>
    <text x="516.6" y="119.3" font-size="9.1px" font-family="'CMUBright-Roman'" style="text-anchor:start;fill:rgb(0,0,0)" transform="rotate(280.8,516.6,119.3)" class=""></text>
    <path d="M 504.027,203.476 A252.375,252.375 0.000 0,1 517.017,206.686 L 536.933,134.378 A327.375,327.375 0.000 0,0 520.083,130.215 Z " style="stroke: none;   fill: rgb(53,100,153); " class=""/>
    <text x="534.3" y="123.3" font-size="9.1px" font-family="'CMUBright-Roman'" style="text-anchor:start;fill:rgb(0,0,0)" transform="rotate(283.9,534.3,123.3)" class=""></text>
    <path d="M 517.239,206.747 A252.375,252.375 0.000 0,1 530.037,210.652 L 553.822,139.524 A327.375,327.375 0.000 0,0 537.221,134.458 Z " style="stroke: none;   fill: rgb(53,100,153); " class=""/>
    <text x="551.8" y="128.4" font-size="9.1px" font-family="'CMUBright-Roman'" style="text-anchor:start;fill:rgb(0,0,0)" transform="rotate(287.0,551.8,128.4)" class=""></text>
    <path d="M 530.255,210.726 A252.375,252.375 0.000 0,1 542.824,215.315 L 570.409,145.573 A327.375,327.375 0.000 0,0 554.105,139.619 Z " style="stroke: none;   fill: rgb(53,100,153); " class=""/>
    <text x="569.0" y="134.3" font-size="9.1px" font-family="'CMUBright-Roman'" style="text-anchor:start;fill:rgb(0,0,0)" transform="rotate(290.1,569.0,134.3)" class=""></text>
    <path d="M 543.038,215.400 A252.375,252.375 0.000 0,1 555.341,220.661 L 586.646,152.507 A327.375,327.375 0.000 0,0 570.686,145.682 Z " style="stroke: none;   fill: rgb(53,100,153); " class=""/>
    <text x="585.9" y="141.2" font-size="9.1px" font-family="'CMUBright-Roman'" style="text-anchor:start;fill:rgb(0,0,0)" transform="rotate(293.2,585.9,141.2)" class=""></text>
    <path d="M 555.550,220.757 A252.375,252.375 0.000 0,1 567.551,226.673 L 602.485,160.306 A327.375,327.375 0.000 0,0 586.917,152.631 Z " style="stroke: none;   fill: rgb(53,100,153); " class=""/>
    <text x="602.3" y="149.0" font-size="9.1px" font-family="'CMUBright-Roman'" style="text-anchor:start;fill:rgb(0,0,0)" transform="rotate(296.2,602.3,149.0)" class=""></text>
    <path d="M 567.755,226.781 A252.375,252.375 0.000 0,1 579.420,233.335 L 617.881,168.948 A327.375,327.375 0.000 0,0 602.749,160.445 Z " style="stroke: none;   fill: rgb(53,100,153); " class=""/>
    <text x="618.3" y="157.6" font-size="9.1px" font-family="'CMUBright-Roman'" style="text-anchor:start;fill:rgb(0,0,0)" transform="rotate(299.3,618.3,157.6)" class=""></text>
    <path d="M 579.617,233.453 A252.375,252.375 0.000 0,1 590.912,240.627 L 632.788,178.407 A327.375,327.375 0.000 0,0 618.137,169.101 Z " style="stroke: none;   fill: rgb(53,100,153); " class=""/>
    <text x="633.8" y="167.1" font-size="9.1px" font-family="'CMUBright-Roman'" style="text-anchor:start;fill:rgb(0,0,0)" transform="rotate(302.4,633.8,167.1)" class=""></text>
    <path d="M 591.103,240.756 A252.375,252.375 0.000 0,1 601.995,248.529 L 647.164,188.656 A327.375,327.375 0.000 0,0 633.036,178.573 Z " style="stroke: none;   fill: rgb(53,100,153); " class=""/>
    <text x="648.8" y="177.4" font-size="9.1px" font-family="'CMUBright-Roman'" style="text-anchor:start;fill:rgb(0,0,0)" transform="rotate(305.5,648.8,177.4)" class=""></text>
    <path d="M 602.178,248.667 A252.375,252.375 0.000 0,1 612.635,257.016 L 660.966,199.665 A327.375,327.375 0.000 0,0 647.402,188.836 Z " style="stroke: none;   fill: rgb(53,100,153); " class=""/>
    <text x="663.2" y="188.5" font-size="9.1px" font-family="'CMUBright-Roman'" style="text-anchor:start;fill:rgb(0,0,0)" transform="rotate(308.6,663.2,188.5)" class=""></text>
    <path d="M 612.811,257.164 A252.375,252.375 0.000 0,1 622.802,266.064 L 674.155,211.402 A327.375,327.375 0.000 0,0 661.195,199.858 Z " style="stroke: none;   fill: rgb(53,100,153); " class=""/>
    <text x="677.0" y="200.4" font-size="9.1px" font-family="'CMUBright-Roman'" style="text-anchor:start;fill:rgb(0,0,0)" transform="rotate(311.7,677.0,200.4)" class=""></text>
    <path d="M 622.970,266.222 A252.375,252.375 0.000 0,1 632.467,275.647 L 686.692,223.834 A327.375,327.375 0.000 0,0 674.373,211.607 Z " style="stroke: none;   fill: rgb(53,100,153); " class=""/>
    <text x="690.1" y="213.0" font-size="9.1px" font-family="'CMUBright-Roman'" style="text-anchor:start;fill:rgb(0,0,0)" transform="rotate(314.8,690.1,213.0)" class=""></text>
    <path d="M 632.626,275.814 A252.375,252.375 0.000 0,1 641.601,285.738 L 698.541,236.923 A327.375,327.375 0.000 0,0 686.898,224.050 Z " style="stroke: none;   fill: rgb(53,100,153); " class=""/>
    <text x="702.6" y="226.3" font-size="9.1px" font-family="'CMUBright-Roman'" style="text-anchor:start;fill:rgb(0,0,0)" transform="rotate(317.9,702.6,226.3)" class=""></text>
    <path d="M 641.751,285.912 A252.375,252.375 0.000 0,1 650.178,296.306 L 709.666,250.631 A327.375,327.375 0.000 0,0 698.735,237.149 Z " style="stroke: none;   fill: rgb(53,100,153); " class=""/>
    <text x="714.2" y="240.2" font-size="9.1px" font-family="'CMUBright-Roman'" style="text-anchor:start;fill:rgb(0,0,0)" transform="rotate(321.0,714.2,240.2)" class=""></text>
    <path d="M 650.318,296.488 A252.375,252.375 0.000 0,1 658.173,307.321 L 720.037,264.920 A327.375,327.375 0.000 0,0 709.848,250.868 Z " style="stroke: none;   fill: rgb(53,100,153); " class=""/>
    <text x="725.2" y="254.8" font-size="9.1px" font-family="'CMUBright-Roman'" style="text-anchor:start;fill:rgb(0,0,0)" transform="rotate(324.1,725.2,254.8)" class=""></text>
    <path d="M 658.303,307.511 A252.375,252.375 0.000 0,1 665.562,318.751 L 729.622,279.747 A327.375,327.375 0.000 0,0 720.205,265.166 Z " style="stroke: none;   fill: rgb(53,100,153); " class=""/>
    <text x="735.3" y="269.9" font-size="9.1px" font-family="'CMUBright-Roman'" style="text-anchor:start;fill:rgb(0,0,0)" transform="rotate(327.1,735.3,269.9)" class=""></text>
    <path d="M 665.681,318.948 A252.375,252.375 0.000 0,1 672.324,330.563 L 738.393,295.069 A327.375,327.375 0.000 0,0 729.777,280.002 Z " style="stroke: none;   fill: rgb(53,100,153); " class=""/>
    <text x="744.6" y="285.6" font-size="9.1px" font-family="'CMUBright-Roman'" style="text-anchor:start;fill:rgb(0,0,0)" transform="rotate(330.2,744.6,285.6)" class=""></text>
    <path d="M 672.433,330.766 A252.375,252.375 0.000 0,1 678.440,342.722 L 746.326,310.842 A327.375,327.375 0.000 0,0 738.535,295.332 Z " style="stroke: none;   fill: rgb(53,100,153); " class=""/>
    <text x="753.0" y="301.7" font-size="9.1px" font-family="'CMUBright-Roman'" style="text-anchor:start;fill:rgb(0,0,0)" transform="rotate(333.3,753.0,301.7)" class=""></text>
    <path d="M 678.537,342.930 A252.375,252.375 0.000 0,1 683.891,355.193 L 753.398,327.019 A327.375,327.375 0.000 0,0 746.453,311.112 Z " style="stroke: none;   fill: rgb(53,100,153); " class=""/>
    <text x="760.6" y="318.2" font-size="9.1px" font-family="'CMUBright-Roman'" style="text-anchor:start;fill:rgb(0,0,0)" transform="rotate(336.4,760.6,318.2)" class=""></text>
    <path d="M 683.977,355.407 A252.375,252.375 0.000 0,1 688.662,367.940 L 759.586,343.554 A327.375,327.375 0.000 0,0 753.510,327.296 Z " style="stroke: none;   fill: rgb(53,100,153); " class=""/>
    <text x="767.2" y="335.2" font-size="9.1px" font-family="'CMUBright-Roman'" style="text-anchor:start;fill:rgb(0,0,0)" transform="rotate(339.5,767.2,335.2)" class=""></text>
    <path d="M 688.736,368.158 A252.375,252.375 0.000 0,1 692.738,380.926 L 764.875,360.399 A327.375,327.375 0.000 0,0 759.683,343.836 Z " style="stroke: none;   fill: rgb(53,100,153); " class=""/>
    <text x="773.0" y="352.4" font-size="9.1px" font-family="'CMUBright-Roman'" style="text-anchor:start;fill:rgb(0,0,0)" transform="rotate(342.6,773.0,352.4)" class=""></text>
    <path d="M 692.801,381.147 A252.375,252.375 0.000 0,1 696.109,394.113 L 769.247,377.504 A327.375,327.375 0.000 0,0 764.956,360.686 Z " style="stroke: none;   fill: rgb(53,100,153); " class=""/>
    <text x="777.8" y="370.0" font-size="9.1px" font-family="'CMUBright-Roman'" style="text-anchor:start;fill:rgb(0,0,0)" transform="rotate(345.7,777.8,370.0)" class=""></text>
    <path d="M 696.160,394.337 A252.375,252.375 0.000 0,1 698.764,407.462 L 772.691,394.820 A327.375,327.375 0.000 0,0 769.313,377.795 Z " style="stroke: none;   fill: rgb(53,100,153); " class=""/>
    <text x="781.6" y="387.8" font-size="9.1px" font-family="'CMUBright-Roman'" style="text-anchor:start;fill:rgb(0,0,0)" transform="rotate(348.8,781.6,387.8)" class=""></text>
    <path d="M 698.803,407.689 A252.375,252.375 0.000 0,1 700.696,420.935 L 775.197,412.297 A327.375,327.375 0.000 0,0 772.741,395.115 Z " style="stroke: none;   fill: rgb(53,100,153); " class=""/>
    <text x="784.5" y="405.7" font-size="9.1px" font-family="'CMUBright-Roman'" style="text-anchor:start;fill:rgb(0,0,0)" transform="rotate(351.9,784.5,405.7)" class=""></text>
    <path d="M 700.722,421.163 A252.375,252.375 0.000 0,1 701.898,434.492 L 776.756,429.883 A327.375,327.375 0.000 0,0 775.231,412.593 Z " style="stroke: none;   fill: rgb(53,100,153); " class=""/>
    <text x="786.4" y="423.8" font-size="9.1px" font-family="'CMUBright-Roman'" style="text-anchor:start;fill:rgb(0,0,0)" transform="rotate(355.0,786.4,423.8)" class=""></text>
    <path d="M 701.912,434.722 A252.375,252.375 0.000 0,1 702.368,448.094 L 777.366,447.528 A327.375,327.375 0.000 0,0 776.775,430.181 Z " style="stroke: none;   fill: rgb(53,100,153); " class=""/>
    <text x="787.3" y="442.0" font-size="9.1px" font-family="'CMUBright-Roman'" style="text-anchor:start;fill:rgb(0,0,0)" transform="rotate(358.0,787.3,442.0)" class=""></text>
    <path d="M 702.369,448.324 A252.375,252.375 0.000 0,1 702.104,461.702 L 777.023,465.180 A327.375,327.375 0.000 0,0 777.368,447.826 Z " style="stroke: none;   fill: rgb(53,100,153); " class=""/>
    <text x="787.2" y="460.2" font-size="9.1px" font-family="'CMUBright-Roman'" style="text-anchor:start;fill:rgb(0,0,0)" transform="rotate(1.1,787.2,460.2)" class=""></text>
    <path d="M 702.093,461.932 A252.375,252.375 0.000 0,1 701.106,475.276 L 775.729,482.788 A327.375,327.375 0.000 0,0 777.009,465.478 Z " style="stroke: none;   fill: rgb(53,100,153); " class=""/>
    <text x="786.2" y="478.4" font-size="9.1px" font-family="'CMUBright-Roman'" style="text-anchor:start;fill:rgb(0,0,0)" transform="rotate(4.2,786.2,478.4)" class=""></text>
    <path d="M 701.083,475.505 A252.375,252.375 0.000 0,1 699.378,488.777 L 773.488,500.300 A327.375,327.375 0.000 0,0 775.699,483.085 Z " style="stroke: none;   fill: rgb(53,100,153); " class=""/>
    <text x="784.2" y="496.5" font-size="9.1px" font-family="'CMUBright-Roman'" style="text-anchor:start;fill:rgb(0,0,0)" transform="rotate(7.3,784.2,496.5)" class=""></text>
    <path d="M 699.343,489.004 A252.375,252.375 0.000 0,1 696.925,502.164 L 770.306,517.666 A327.375,327.375 0.000 0,0 773.442,500.595 Z " style="stroke: none;   fill: rgb(53,100,153); " class=""/>
    <text x="781.2" y="514.4" font-size="9.1px" font-family="'CMUBright-Roman'" style="text-anchor:start;fill:rgb(0,0,0)" transform="rotate(10.4,781.2,514.4)" class=""></text>
    <path d="M 696.877,502.389 A252.375,252.375 0.000 0,1 693.754,515.400 L 766.192,534.836 A327.375,327.375 0.000 0,0 770.244,517.958 Z " style="stroke: none;   fill: rgb(53,100,153); " class=""/>
    <text x="777.2" y="532.2" font-size="9.1px" font-family="'CMUBright-Roman'" style="text-anchor:start;fill:rgb(0,0,0)" transform="rotate(13.5,777.2,532.2)" class=""></text>
    <path d="M 693.694,515.623 A252.375,252.375 0.000 0,1 689.874,528.446 L 761.159,551.758 A327.375,327.375 0.000 0,0 766.114,535.124 Z " style="stroke: none;   fill: rgb(53,100,153); " class=""/>
    <text x="772.3" y="549.7" font-size="9.1px" font-family="'CMUBright-Roman'" style="text-anchor:start;fill:rgb(0,0,0)" transform="rotate(16.6,772.3,549.7)" class=""></text>
    <path d="M 699.423,531.821 A262.500,262.500 0.000 0,1 697.631,537.092 L 768.383,561.976 A337.500,337.500 0.000 0,0 770.686,555.198 Z " style="stroke: none;   fill: rgb(179,186,212); " class=""/>
    <text x="777.9" y="565.1" font-size="9.1px" font-family="'CMUBright-Roman'" style="text-anchor:start;fill:rgb(0,0,0)" transform="rotate(18.8,777.9,565.1)" class=""></text>
    <path d="M 697.552,537.318 A262.500,262.500 0.000 0,1 694.141,546.444 L 763.896,573.999 A337.500,337.500 0.000 0,0 768.281,562.265 Z " style="stroke: none;   fill: rgb(179,186,212); " class=""/>
    <text x="774.3" y="574.9" font-size="9.1px" font-family="'CMUBright-Roman'" style="text-anchor:start;fill:rgb(0,0,0)" transform="rotate(20.5,774.3,574.9)" class=""></text>
    <path d="M 694.053,546.666 A262.500,262.500 0.000 0,1 692.485,550.536 L 761.766,579.261 A337.500,337.500 0.000 0,0 763.783,574.285 Z " style="stroke: none;   fill: rgb(179,186,212); " class=""/>
    <text x="770.7" y="583.8" font-size="9.1px" font-family="'CMUBright-Roman'" style="text-anchor:start;fill:rgb(0,0,0)" transform="rotate(22.1,770.7,583.8)" class=""></text>
    <path d="M 692.393,550.757 A262.500,262.500 0.000 0,1 690.760,554.600 L 759.548,584.485 A337.500,337.500 0.000 0,0 761.648,579.544 Z " style="stroke: none;   fill: rgb(179,186,212); " class=""/>
    <text x="768.4" y="589.1" font-size="9.1px" font-family="'CMUBright-Roman'" style="text-anchor:start;fill:rgb(0,0,0)" transform="rotate(23.0,768.4,589.1)" class=""></text>
    <path d="M 690.664,554.819 A262.500,262.500 0.000 0,1 687.208,562.421 L 754.982,594.542 A337.500,337.500 0.000 0,0 759.425,584.767 Z " style="stroke: none;   fill: rgb(179,186,212); " class=""/>
    <text x="764.9" y="597.0" font-size="9.1px" font-family="'CMUBright-Roman'" style="text-anchor:start;fill:rgb(0,0,0)" transform="rotate(24.4,764.9,597.0)" class=""></text>
    <path d="M 687.106,562.637 A262.500,262.500 0.000 0,1 680.803,575.046 L 746.746,610.773 A337.500,337.500 0.000 0,0 754.850,594.819 Z " style="stroke: none;   fill: rgb(179,186,212); " class=""/>
    <text x="758.2" y="610.5" font-size="9.1px" font-family="'CMUBright-Roman'" style="text-anchor:start;fill:rgb(0,0,0)" transform="rotate(26.9,758.2,610.5)" class=""></text>
    <path d="M 680.689,575.256 A262.500,262.500 0.000 0,1 678.667,578.909 L 744.001,615.741 A337.500,337.500 0.000 0,0 746.600,611.043 Z " style="stroke: none;   fill: rgb(179,186,212); " class=""/>
    <text x="752.3" y="621.3" font-size="9.1px" font-family="'CMUBright-Roman'" style="text-anchor:start;fill:rgb(0,0,0)" transform="rotate(29.0,752.3,621.3)" class=""></text>
    <path d="M 669.734,574.137 A252.375,252.375 0.000 0,1 659.922,590.092 L 722.306,631.724 A327.375,327.375 0.000 0,0 735.034,611.028 Z " style="stroke: none;   fill: rgb(179,186,212); " class=""/>
    <text x="735.5" y="629.7" font-size="9.1px" font-family="'CMUBright-Roman'" style="text-anchor:start;fill:rgb(0,0,0)" transform="rotate(31.6,735.5,629.7)" class=""></text>
    <path d="M 659.794,590.283 A252.375,252.375 0.000 0,1 650.450,603.340 L 710.019,648.909 A327.375,327.375 0.000 0,0 722.140,631.972 Z " style="stroke: none;   fill: rgb(179,186,212); " class=""/>
    <text x="722.3" y="649.2" font-size="9.1px" font-family="'CMUBright-Roman'" style="text-anchor:start;fill:rgb(0,0,0)" transform="rotate(35.6,722.3,649.2)" class=""></text>
    <path d="M 650.310,603.522 A252.375,252.375 0.000 0,1 632.934,623.863 L 687.298,675.531 A327.375,327.375 0.000 0,0 709.837,649.145 Z " style="stroke: none;   fill: rgb(157,55,110); " class=""/>
    <text x="704.2" y="671.8" font-size="9.1px" font-family="'CMUBright-Roman'" style="text-anchor:start;fill:rgb(0,0,0)" transform="rotate(40.5,704.2,671.8)" class=""></text>
    <path d="M 632.776,624.029 A252.375,252.375 0.000 0,1 613.328,642.399 L 661.865,699.575 A327.375,327.375 0.000 0,0 687.092,675.747 Z " style="stroke: none;   fill: rgb(157,55,110); " class=""/>
    <text x="679.1" y="697.7" font-size="9.1px" font-family="'CMUBright-Roman'" style="text-anchor:start;fill:rgb(0,0,0)" transform="rotate(46.6,679.1,697.7)" class=""></text>
    <path d="M 613.152,642.547 A252.375,252.375 0.000 0,1 591.854,658.735 L 634.010,720.767 A327.375,327.375 0.000 0,0 661.637,699.768 Z " style="stroke: none;   fill: rgb(157,55,110); " class=""/>
    <text x="651.4" y="720.7" font-size="9.1px" font-family="'CMUBright-Roman'" style="text-anchor:start;fill:rgb(0,0,0)" transform="rotate(52.8,651.4,720.7)" class=""></text>
    <path d="M 591.664,658.865 A252.375,252.375 0.000 0,1 568.760,672.687 L 604.052,738.864 A327.375,327.375 0.000 0,0 633.763,720.934 Z " style="stroke: none;   fill: rgb(157,55,110); " class=""/>
    <text x="621.3" y="740.6" font-size="9.1px" font-family="'CMUBright-Roman'" style="text-anchor:start;fill:rgb(0,0,0)" transform="rotate(58.9,621.3,740.6)" class=""></text>
    <path d="M 568.557,672.795 A252.375,252.375 0.000 0,1 544.307,684.092 L 572.333,753.659 A327.375,327.375 0.000 0,0 603.789,739.004 Z " style="stroke: none;   fill: rgb(157,55,110); " class=""/>
    <text x="589.3" y="757.3" font-size="9.1px" font-family="'CMUBright-Roman'" style="text-anchor:start;fill:rgb(0,0,0)" transform="rotate(65.0,589.3,757.3)" class=""></text>
    <path d="M 544.094,684.178 A252.375,252.375 0.000 0,1 518.777,692.823 L 539.217,764.984 A327.375,327.375 0.000 0,0 572.057,753.771 Z " style="stroke: none;   fill: rgb(157,55,110); " class=""/>
    <text x="555.7" y="770.4" font-size="9.1px" font-family="'CMUBright-Roman'" style="text-anchor:start;fill:rgb(0,0,0)" transform="rotate(71.1,555.7,770.4)" class=""></text>
    <path d="M 518.556,692.885 A252.375,252.375 0.000 0,1 492.461,698.777 L 505.080,772.708 A327.375,327.375 0.000 0,0 538.929,765.065 Z " style="stroke: none;   fill: rgb(157,55,110); " class=""/>
    <text x="520.9" y="779.8" font-size="9.1px" font-family="'CMUBright-Roman'" style="text-anchor:start;fill:rgb(0,0,0)" transform="rotate(77.3,520.9,779.8)" class=""></text>
    <path d="M 492.234,698.816 A252.375,252.375 0.000 0,1 465.660,701.889 L 470.314,776.744 A327.375,327.375 0.000 0,0 504.786,772.758 Z " style="stroke: none;   fill: rgb(157,55,110); " class=""/>
    <text x="485.3" y="785.5" font-size="9.1px" font-family="'CMUBright-Roman'" style="text-anchor:start;fill:rgb(0,0,0)" transform="rotate(83.4,485.3,785.5)" class=""></text>
    <path d="M 465.430,701.903 A252.375,252.375 0.000 0,1 438.679,702.121 L 435.315,777.045 A327.375,327.375 0.000 0,0 470.016,776.763 Z " style="stroke: none;   fill: rgb(157,55,110); " class=""/>
    <text x="449.3" y="787.4" font-size="9.1px" font-family="'CMUBright-Roman'" style="text-anchor:start;fill:rgb(0,0,0)" transform="rotate(89.5,449.3,787.4)" class=""></text>
    <path d="M 438.450,702.111 A252.375,252.375 0.000 0,1 411.828,699.472 L 400.485,773.609 A327.375,327.375 0.000 0,0 435.017,777.032 Z " style="stroke: none;   fill: rgb(157,55,110); " class=""/>
    <text x="420.2" y="786.1" font-size="9.1px" font-family="'CMUBright-Roman'" style="text-anchor:end;fill:rgb(0,0,0)" transform="rotate(-84.3,420.2,786.1)" class=""></text>
    <path d="M 411.601,699.437 A252.375,252.375 0.000 0,1 385.414,693.971 L 366.220,766.473 A327.375,327.375 0.000 0,0 400.190,773.563 Z " style="stroke: none;   fill: rgb(157,55,110); " class=""/>
    <text x="384.5" y="781.0" font-size="9.1px" font-family="'CMUBright-Roman'" style="text-anchor:end;fill:rgb(0,0,0)" transform="rotate(-78.2,384.5,781.0)" class=""></text>
    <path d="M 385.191,693.912 A252.375,252.375 0.000 0,1 359.737,685.681 L 332.913,755.720 A327.375,327.375 0.000 0,0 365.932,766.397 Z " style="stroke: none;   fill: rgb(157,55,110); " class=""/>
    <text x="349.5" y="772.1" font-size="9.1px" font-family="'CMUBright-Roman'" style="text-anchor:end;fill:rgb(0,0,0)" transform="rotate(-72.1,349.5,772.1)" class=""></text>
    <path d="M 359.522,685.599 A252.375,252.375 0.000 0,1 335.092,674.698 L 300.944,741.473 A327.375,327.375 0.000 0,0 332.634,755.614 Z " style="stroke: none;   fill: rgb(157,55,110); " class=""/>
    <text x="315.7" y="759.5" font-size="9.1px" font-family="'CMUBright-Roman'" style="text-anchor:end;fill:rgb(0,0,0)" transform="rotate(-66.0,315.7,759.5)" class=""></text>
    <path d="M 334.887,674.593 A252.375,252.375 0.000 0,1 311.761,661.147 L 270.679,723.895 A327.375,327.375 0.000 0,0 300.679,741.337 Z " style="stroke: none;   fill: rgb(157,55,110); " class=""/>
    <text x="283.5" y="743.4" font-size="9.1px" font-family="'CMUBright-Roman'" style="text-anchor:end;fill:rgb(0,0,0)" transform="rotate(-59.8,283.5,743.4)" class=""></text>
    <path d="M 311.568,661.021 A252.375,252.375 0.000 0,1 290.009,645.182 L 242.464,703.186 A327.375,327.375 0.000 0,0 270.429,723.731 Z " style="stroke: none;   fill: rgb(157,55,110); " class=""/>
    <text x="253.1" y="723.9" font-size="9.1px" font-family="'CMUBright-Roman'" style="text-anchor:end;fill:rgb(0,0,0)" transform="rotate(-53.7,253.1,723.9)" class=""></text>
    <path d="M 289.831,645.036 A252.375,252.375 0.000 0,1 270.086,626.987 L 216.620,679.583 A327.375,327.375 0.000 0,0 242.233,702.996 Z " style="stroke: none;   fill: rgb(157,55,110); " class=""/>
    <text x="225.0" y="701.4" font-size="9.1px" font-family="'CMUBright-Roman'" style="text-anchor:end;fill:rgb(0,0,0)" transform="rotate(-47.6,225.0,701.4)" class=""></text>
    <path d="M 269.925,626.822 A252.375,252.375 0.000 0,1 252.220,606.768 L 193.444,653.356 A327.375,327.375 0.000 0,0 216.411,679.370 Z " style="stroke: none;   fill: rgb(157,55,110); " class=""/>
    <text x="199.4" y="675.9" font-size="9.1px" font-family="'CMUBright-Roman'" style="text-anchor:end;fill:rgb(0,0,0)" transform="rotate(-41.4,199.4,675.9)" class=""></text>
    <path d="M 252.077,606.588 A252.375,252.375 0.000 0,1 236.614,584.758 L 173.201,624.804 A327.375,327.375 0.000 0,0 193.259,653.122 Z " style="stroke: none;   fill: rgb(157,55,110); " class=""/>
    <text x="176.7" y="647.9" font-size="9.1px" font-family="'CMUBright-Roman'" style="text-anchor:end;fill:rgb(0,0,0)" transform="rotate(-35.3,176.7,647.9)" class=""></text>
    <path d="M 236.491,584.563 A252.375,252.375 0.000 0,1 223.447,561.207 L 156.121,594.255 A327.375,327.375 0.000 0,0 173.042,624.552 Z " style="stroke: none;   fill: rgb(157,55,110); " class=""/>
    <text x="157.2" y="617.6" font-size="9.1px" font-family="'CMUBright-Roman'" style="text-anchor:end;fill:rgb(0,0,0)" transform="rotate(-29.2,157.2,617.6)" class=""></text>
    <path d="M 223.346,561.000 A252.375,252.375 0.000 0,1 212.870,536.385 L 142.400,562.057 A327.375,327.375 0.000 0,0 155.990,593.987 Z " style="stroke: none;   fill: rgb(157,55,110); " class=""/>
    <text x="141.0" y="585.3" font-size="9.1px" font-family="'CMUBright-Roman'" style="text-anchor:end;fill:rgb(0,0,0)" transform="rotate(-23.1,141.0,585.3)" class=""></text>
    <path d="M 212.791,536.169 A252.375,252.375 0.000 0,1 205.003,510.576 L 132.195,528.578 A327.375,327.375 0.000 0,0 142.298,561.777 Z " style="stroke: none;   fill: rgb(157,55,110); " class=""/>
    <text x="128.3" y="551.6" font-size="9.1px" font-family="'CMUBright-Roman'" style="text-anchor:end;fill:rgb(0,0,0)" transform="rotate(-16.9,128.3,551.6)" class=""></text>
    <path d="M 204.948,510.353 A252.375,252.375 0.000 0,1 199.936,484.075 L 125.623,494.201 A327.375,327.375 0.000 0,0 132.124,528.288 Z " style="stroke: none;   fill: rgb(157,55,110); " class=""/>
    <text x="119.3" y="516.6" font-size="9.1px" font-family="'CMUBright-Roman'" style="text-anchor:end;fill:rgb(0,0,0)" transform="rotate(-10.8,119.3,516.6)" class=""></text>
    <path d="M 199.905,483.847 A252.375,252.375 0.000 0,1 197.727,457.184 L 122.758,459.319 A327.375,327.375 0.000 0,0 125.583,493.905 Z " style="stroke: none;   fill: rgb(157,55,110); " class=""/>
    <text x="114.0" y="481.0" font-size="9.1px" font-family="'CMUBright-Roman'" style="text-anchor:end;fill:rgb(0,0,0)" transform="rotate(-4.7,114.0,481.0)" class=""></text>
    <path d="M 197.721,456.954 A252.375,252.375 0.000 0,1 198.402,430.211 L 123.633,424.330 A327.375,327.375 0.000 0,0 122.749,459.020 Z " style="stroke: none;   fill: rgb(157,55,110); " class=""/>
    <text x="112.7" y="444.9" font-size="9.1px" font-family="'CMUBright-Roman'" style="text-anchor:end;fill:rgb(0,0,0)" transform="rotate(1.5,112.7,444.9)" class=""></text>
    <path d="M 198.420,429.982 A252.375,252.375 0.000 0,1 201.953,403.464 L 128.239,389.635 A327.375,327.375 0.000 0,0 123.656,424.033 Z " style="stroke: none;   fill: rgb(157,55,110); " class=""/>
    <text x="115.1" y="408.9" font-size="9.1px" font-family="'CMUBright-Roman'" style="text-anchor:end;fill:rgb(0,0,0)" transform="rotate(7.6,115.1,408.9)" class=""></text>
    <path d="M 201.995,403.238 A252.375,252.375 0.000 0,1 208.338,377.249 L 136.522,355.629 A327.375,327.375 0.000 0,0 128.294,389.341 Z " style="stroke: none;   fill: rgb(157,55,110); " class=""/>
    <text x="121.4" y="373.4" font-size="9.1px" font-family="'CMUBright-Roman'" style="text-anchor:end;fill:rgb(0,0,0)" transform="rotate(13.7,121.4,373.4)" class=""></text>
    <path d="M 198.712,374.101 A262.500,262.500 0.000 0,1 199.951,370.114 L 128.509,347.289 A337.500,337.500 0.000 0,0 126.915,352.416 Z " style="stroke: none;   fill: rgb(179,186,212); " class=""/>
    <text x="117.1" y="350.2" font-size="9.1px" font-family="'CMUBright-Roman'" style="text-anchor:end;fill:rgb(0,0,0)" transform="rotate(17.3,117.1,350.2)" class=""></text>
    <path d="M 209.666,372.976 A252.375,252.375 0.000 0,1 213.148,362.854 L 142.762,336.956 A327.375,327.375 0.000 0,0 138.244,350.087 Z " style="stroke: none;   fill: rgb(179,186,212); " class=""/>
    <text x="129.9" y="343.6" font-size="9.1px" font-family="'CMUBright-Roman'" style="text-anchor:end;fill:rgb(0,0,0)" transform="rotate(19.0,129.9,343.6)" class=""></text>
    <path d="M 213.228,362.638 A252.375,252.375 0.000 0,1 219.262,347.759 L 150.692,317.376 A327.375,327.375 0.000 0,0 142.865,336.676 Z " style="stroke: none;   fill: rgb(179,186,212); " class=""/>
    <text x="136.1" y="326.5" font-size="9.1px" font-family="'CMUBright-Roman'" style="text-anchor:end;fill:rgb(0,0,0)" transform="rotate(22.1,136.1,326.5)" class=""></text>
    <path d="M 210.102,343.439 A262.500,262.500 0.000 0,1 213.613,335.862 L 146.074,303.251 A337.500,337.500 0.000 0,0 141.560,312.993 Z " style="stroke: none;   fill: rgb(179,186,212); " class=""/>
    <text x="133.2" y="307.1" font-size="9.1px" font-family="'CMUBright-Roman'" style="text-anchor:end;fill:rgb(0,0,0)" transform="rotate(24.9,133.2,307.1)" class=""></text>
    <path d="M 213.717,335.647 A262.500,262.500 0.000 0,1 216.196,330.661 L 149.394,296.564 A337.500,337.500 0.000 0,0 146.208,302.974 Z " style="stroke: none;   fill: rgb(179,186,212); " class=""/>
    <text x="137.3" y="298.5" font-size="9.1px" font-family="'CMUBright-Roman'" style="text-anchor:end;fill:rgb(0,0,0)" transform="rotate(26.4,137.3,298.5)" class=""></text>
    <path d="M 216.304,330.448 A262.500,262.500 0.000 0,1 218.236,326.746 L 152.017,291.531 A337.500,337.500 0.000 0,0 149.534,296.291 Z " style="stroke: none;   fill: rgb(179,186,212); " class=""/>
    <text x="140.3" y="292.4" font-size="9.1px" font-family="'CMUBright-Roman'" style="text-anchor:end;fill:rgb(0,0,0)" transform="rotate(27.5,140.3,292.4)" class=""></text>
    <path d="M 218.348,326.535 A262.500,262.500 0.000 0,1 236.699,297.000 L 175.756,253.286 A337.500,337.500 0.000 0,0 152.162,291.259 Z " style="stroke: none;   fill: rgb(179,186,212); " class=""/>
    <text x="153.0" y="269.6" font-size="9.1px" font-family="'CMUBright-Roman'" style="text-anchor:end;fill:rgb(0,0,0)" transform="rotate(31.9,153.0,269.6)" class=""></text>
    <path d="M 236.839,296.806 A262.500,262.500 0.000 0,1 249.684,280.354 L 192.451,231.883 A337.500,337.500 0.000 0,0 175.935,253.036 Z " style="stroke: none;   fill: rgb(179,186,212); " class=""/>
    <text x="174.0" y="238.9" font-size="9.1px" font-family="'CMUBright-Roman'" style="text-anchor:end;fill:rgb(0,0,0)" transform="rotate(38.0,174.0,238.9)" class=""></text>
    <path d="M 249.839,280.171 A262.500,262.500 0.000 0,1 260.079,268.792 L 205.816,217.018 A337.500,337.500 0.000 0,0 192.650,231.649 Z " style="stroke: none;   fill: rgb(179,186,212); " class=""/>
    <text x="189.4" y="220.2" font-size="9.1px" font-family="'CMUBright-Roman'" style="text-anchor:end;fill:rgb(0,0,0)" transform="rotate(42.0,189.4,220.2)" class=""></text>
    <path d="M 260.244,268.619 A262.500,262.500 0.000 0,1 264.134,264.635 L 211.029,211.674 A337.500,337.500 0.000 0,0 206.029,216.796 Z " style="stroke: none;   fill: rgb(179,186,212); " class=""/>
    <text x="198.9" y="209.8" font-size="9.1px" font-family="'CMUBright-Roman'" style="text-anchor:end;fill:rgb(0,0,0)" transform="rotate(44.3,198.9,209.8)" class=""></text>
    <path d="M 264.303,264.466 A262.500,262.500 0.000 0,1 283.905,246.730 L 236.449,188.653 A337.500,337.500 0.000 0,0 211.246,211.457 Z " style="stroke: none;   fill: rgb(179,186,212); " class=""/>
    <text x="214.3" y="194.7" font-size="9.1px" font-family="'CMUBright-Roman'" style="text-anchor:end;fill:rgb(0,0,0)" transform="rotate(47.9,214.3,194.7)" class=""></text>
    <path d="M 284.090,246.579 A262.500,262.500 0.000 0,1 286.257,244.831 L 239.473,186.211 A337.500,337.500 0.000 0,0 236.687,188.459 Z " style="stroke: none;   fill: rgb(179,186,212); " class=""/>
    <text x="229.1" y="181.8" font-size="9.1px" font-family="'CMUBright-Roman'" style="text-anchor:end;fill:rgb(0,0,0)" transform="rotate(51.1,229.1,181.8)" class=""></text>
    <path d="M 286.443,244.682 A262.500,262.500 0.000 0,1 293.057,239.583 L 248.217,179.464 A337.500,337.500 0.000 0,0 239.713,186.020 Z " style="stroke: none;   fill: rgb(179,186,212); " class=""/>
    <text x="235.1" y="176.9" font-size="9.1px" font-family="'CMUBright-Roman'" style="text-anchor:end;fill:rgb(0,0,0)" transform="rotate(52.4,235.1,176.9)" class=""></text>
    <path d="M 293.249,239.440 A262.500,262.500 0.000 0,1 296.618,236.974 L 252.795,176.109 A337.500,337.500 0.000 0,0 248.463,179.280 Z " style="stroke: none;   fill: rgb(179,186,212); " class=""/>
    <text x="241.9" y="171.7" font-size="9.1px" font-family="'CMUBright-Roman'" style="text-anchor:end;fill:rgb(0,0,0)" transform="rotate(53.8,241.9,171.7)" class=""></text>
    <path d="M 296.812,236.834 A262.500,262.500 0.000 0,1 338.777,212.228 L 306.999,144.293 A337.500,337.500 0.000 0,0 253.044,175.929 Z " style="stroke: none;   fill: rgb(179,186,212); " class=""/>
    <text x="271.2" y="152.0" font-size="9.1px" font-family="'CMUBright-Roman'" style="text-anchor:end;fill:rgb(0,0,0)" transform="rotate(59.6,271.2,152.0)" class=""></text>
    <path d="M 338.993,212.127 A262.500,262.500 0.000 0,1 446.738,187.520 L 445.806,112.526 A337.500,337.500 0.000 0,0 307.277,144.163 Z " style="stroke: none;   fill: rgb(179,186,212); " class=""/>
    <text x="369.2" y="112.0" font-size="9.1px" font-family="'CMUBright-Roman'" style="text-anchor:end;fill:rgb(0,0,0)" transform="rotate(77.1,369.2,112.0)" class=""></text>
    <path d="M 446.977,187.517 A262.500,262.500 0.000 0,1 449.761,187.500 L 449.693,112.500 A337.500,337.500 0.000 0,0 446.114,112.522 Z " style="stroke: none;   fill: rgb(179,186,212); " class=""/>
    <text x="444.3" y="102.5" font-size="9.1px" font-family="'CMUBright-Roman'" style="text-anchor:end;fill:rgb(0,0,0)" transform="rotate(89.6,444.3,102.5)" class=""></text>
  </g>
  <g id="E117">
    <path d="M 518.764,220.316 A 239.756,239.756 0.00 0,1 521.2,221.1 Q 478.0,438.9 658.7,567.9 A 239.756,239.756 0.00 0,1 649.4,583.1 Q 476.8,440.3 518.8,220.3 Z" style="stroke-width: 1.0;  stroke: rgb(180,180,180); fill: rgb(150,150,150);" opacity="0.5"/>
  </g>
  <g id="E117">
    <path d="M 678.397,377.078 A 239.756,239.756 0.00 0,1 679.2,379.5 Q 450.4,434.7 225.1,367.0 A 239.756,239.756 0.00 0,1 230.8,352.9 Q 450.9,433.0 678.4,377.1 Z" style="stroke-width: 1.0;  stroke: rgb(180,180,180); fill: rgb(150,150,150);" opacity="0.5"/>
    <path d="M 518.764,220.316 A 239.756,239.756 0.00 0,1 521.2,221.1 Q 477.1,440.4 649.3,583.3 A 239.756,239.756 0.00 0,1 640.4,595.7 Q 475.9,441.6 518.8,220.3 Z" style="stroke-width: 1.0;  stroke: rgb(180,180,180); fill: rgb(150,150,150);" opacity="0.5"/>
  </g>
  <g id="E117">
    <path d="M 678.397,377.078 A 239.756,239.756 0.00 0,1 679.2,379.5 Q 450.1,435.6 221.7,376.8 A 239.756,239.756 0.00 0,1 225.0,367.2 Q 450.3,434.4 678.4,377.1 Z" style="stroke-width: 1.0;  stroke: rgb(180,180,180); fill: rgb(150,150,150);" opacity="0.5"/>
  </g>
  <g id="E117">
    <path d="M 247.167,577.835 A 239.756,239.756 0.00 0,1 234.8,555.6 Q 447.0,445.4 635.4,298.0 A 239.756,239.756 0.00 0,1 637.0,300.0 Q 448.4,447.8 247.2,577.8 Z" style="stroke-width: 1.0;  stroke: rgb(180,180,180); fill: rgb(222,220,70);" opacity="0.5"/>
    <path d="M 340.643,663.364 A 239.756,239.756 0.00 0,1 318.7,650.6 Q 458.2,459.2 663.7,341.2 A 239.756,239.756 0.00 0,1 664.8,343.5 Q 460.5,460.7 340.6,663.4 Z" style="stroke-width: 1.0;  stroke: rgb(180,180,180); fill: rgb(143,147,64);" opacity="0.8"/>
    <path d="M 584.581,648.421 A 239.756,239.756 0.00 0,1 562.8,661.6 Q 485.2,472.8 689.2,466.4 A 239.756,239.756 0.00 0,1 689.0,468.9 Q 487.4,471.7 584.6,648.4 Z" style="stroke-width: 1.0;  stroke: rgb(180,180,180); fill: rgb(222,220,70);" opacity="0.5"/>
    <path d="M 640.294,595.846 A 239.756,239.756 0.00 0,1 623.8,615.2 Q 490.4,473.2 680.1,517.2 A 239.756,239.756 0.00 0,1 679.4,519.7 Q 492.0,471.6 640.3,595.8 Z" style="stroke-width: 1.0;  stroke: rgb(180,180,180); fill: rgb(222,220,70);" opacity="0.5"/>
    <path d="M 278.929,617.981 A 239.756,239.756 0.00 0,1 262.1,598.9 Q 452.0,452.9 657.5,329.9 A 239.756,239.756 0.00 0,1 658.8,332.1 Q 453.8,455.0 278.9,618.0 Z" style="stroke-width: 1.0;  stroke: rgb(180,180,180); fill: rgb(222,220,70);" opacity="0.5"/>
    <path d="M 234.679,555.450 A 239.756,239.756 0.00 0,1 224.7,532.1 Q 445.2,442.0 627.0,288.2 A 239.756,239.756 0.00 0,1 628.7,290.1 Q 446.3,444.6 234.7,555.5 Z" style="stroke-width: 1.0;  stroke: rgb(180,180,180); fill: rgb(222,220,70);" opacity="0.5"/>
    <path d="M 214.395,405.576 A 239.756,239.756 0.00 0,1 220.4,380.9 Q 427.6,419.1 455.1,210.3 A 239.756,239.756 0.00 0,1 457.6,210.4 Q 427.2,421.6 214.4,405.6 Z" style="stroke-width: 1.0;  stroke: rgb(180,180,180); fill: rgb(222,220,70);" opacity="0.5"/>
    <path d="M 212.410,482.154 A 239.756,239.756 0.00 0,1 210.3,456.8 Q 437.7,429.7 566.3,240.4 A 239.756,239.756 0.00 0,1 568.6,241.6 Q 438.1,432.4 212.4,482.2 Z" style="stroke-width: 1.0;  stroke: rgb(180,180,180); fill: rgb(222,220,70);" opacity="0.5"/>
    <path d="M 318.490,650.470 A 239.756,239.756 0.00 0,1 298.0,635.4 Q 435.3,444.6 455.1,210.3 A 239.756,239.756 0.00 0,1 457.6,210.4 Q 437.6,446.1 318.5,650.5 Z" style="stroke-width: 1.0;  stroke: rgb(180,180,180); fill: rgb(222,220,70);" opacity="0.5"/>
    <path d="M 261.973,598.758 A 239.756,239.756 0.00 0,1 247.3,578.0 Q 449.1,448.6 643.4,308.2 A 239.756,239.756 0.00 0,1 644.8,310.3 Q 450.7,450.9 262.0,598.8 Z" style="stroke-width: 1.0;  stroke: rgb(180,180,180); fill: rgb(222,220,70);" opacity="0.5"/>
    <path d="M 210.335,456.606 A 239.756,239.756 0.00 0,1 211.0,431.2 Q 436.6,426.6 554.9,234.4 A 239.756,239.756 0.00 0,1 557.1,235.5 Q 436.7,429.2 210.3,456.6 Z" style="stroke-width: 1.0;  stroke: rgb(180,180,180); fill: rgb(222,220,70);" opacity="0.5"/>
    <path d="M 623.637,615.328 A 239.756,239.756 0.00 0,1 605.2,632.8 Q 484.9,454.1 643.4,308.2 A 239.756,239.756 0.00 0,1 644.8,310.3 Q 486.8,452.6 623.6,615.3 Z" style="stroke-width: 1.0;  stroke: rgb(180,180,180); fill: rgb(222,220,70);" opacity="0.5"/>
    <path d="M 604.995,632.920 A 239.756,239.756 0.00 0,1 584.8,648.3 Q 487.3,472.8 688.0,479.3 A 239.756,239.756 0.00 0,1 687.6,481.8 Q 489.3,471.5 605.0,632.9 Z" style="stroke-width: 1.0;  stroke: rgb(180,180,180); fill: rgb(222,220,70);" opacity="0.5"/>
    <path d="M 217.200,507.335 A 239.756,239.756 0.00 0,1 212.4,482.4 Q 442.1,435.2 608.5,270.1 A 239.756,239.756 0.00 0,1 610.4,271.8 Q 442.8,437.9 217.2,507.3 Z" style="stroke-width: 1.0;  stroke: rgb(180,180,180); fill: rgb(222,220,70);" opacity="0.5"/>
    <path d="M 224.652,531.861 A 239.756,239.756 0.00 0,1 217.3,507.5 Q 427.2,431.8 455.1,210.3 A 239.756,239.756 0.00 0,1 457.6,210.4 Q 428.2,434.2 224.7,531.9 Z" style="stroke-width: 1.0;  stroke: rgb(180,180,180); fill: rgb(222,220,70);" opacity="0.5"/>
    <path d="M 539.389,672.469 A 239.756,239.756 0.00 0,1 515.3,680.7 Q 480.5,473.4 689.7,453.5 A 239.756,239.756 0.00 0,1 689.7,456.0 Q 482.9,472.9 539.4,672.5 Z" style="stroke-width: 1.0;  stroke: rgb(180,180,180); fill: rgb(222,220,70);" opacity="0.5"/>
    <path d="M 562.629,661.655 A 239.756,239.756 0.00 0,1 539.6,672.4 Q 459.5,448.3 455.1,210.3 A 239.756,239.756 0.00 0,1 457.6,210.4 Q 462.0,447.2 562.6,661.7 Z" style="stroke-width: 1.0;  stroke: rgb(180,180,180); fill: rgb(222,220,70);" opacity="0.5"/>
    <path d="M 297.840,635.284 A 239.756,239.756 0.00 0,1 279.1,618.1 Q 433.4,442.8 455.1,210.3 A 239.756,239.756 0.00 0,1 457.6,210.4 Q 435.5,444.6 297.8,635.3 Z" style="stroke-width: 1.0;  stroke: rgb(180,180,180); fill: rgb(222,220,70);" opacity="0.5"/>
    <path d="M 210.999,430.982 A 239.756,239.756 0.00 0,1 214.4,405.8 Q 433.3,422.6 518.8,220.3 A 239.756,239.756 0.00 0,1 521.2,221.1 Q 433.2,425.2 211.0,431.0 Z" style="stroke-width: 1.0;  stroke: rgb(180,180,180); fill: rgb(222,220,70);" opacity="0.5"/>
    <path d="M 413.521,686.965 A 239.756,239.756 0.00 0,1 388.6,681.8 Q 444.4,449.2 455.1,210.3 A 239.756,239.756 0.00 0,1 457.6,210.4 Q 447.1,449.7 413.5,687.0 Z" style="stroke-width: 1.0;  stroke: rgb(180,180,180); fill: rgb(222,220,70);" opacity="0.5"/>
    <path d="M 515.128,680.741 A 239.756,239.756 0.00 0,1 490.3,686.3 Q 454.5,449.7 455.1,210.3 A 239.756,239.756 0.00 0,1 457.6,210.4 Q 457.3,449.1 515.1,680.7 Z" style="stroke-width: 1.0;  stroke: rgb(180,180,180); fill: rgb(222,220,70);" opacity="0.5"/>
    <path d="M 388.432,681.716 A 239.756,239.756 0.00 0,1 364.3,673.9 Q 464.6,466.3 682.0,389.5 A 239.756,239.756 0.00 0,1 682.6,392.0 Q 467.1,467.4 388.4,681.7 Z" style="stroke-width: 1.0;  stroke: rgb(180,180,180); fill: rgb(222,220,70);" opacity="0.5"/>
    <path d="M 364.046,673.819 A 239.756,239.756 0.00 0,1 340.8,663.5 Q 461.0,461.6 669.2,352.9 A 239.756,239.756 0.00 0,1 670.2,355.2 Q 463.4,462.9 364.0,673.8 Z" style="stroke-width: 1.0;  stroke: rgb(180,180,180); fill: rgb(222,220,70);" opacity="0.5"/>
    <path d="M 490.123,686.375 A 239.756,239.756 0.00 0,1 464.9,689.3 Q 455.9,450.4 493.6,214.2 A 239.756,239.756 0.00 0,1 496.1,214.7 Q 458.6,450.1 490.1,686.4 Z" style="stroke-width: 1.0;  stroke: rgb(180,180,180); fill: rgb(222,220,70);" opacity="0.5"/>
    <path d="M 464.659,689.308 A 239.756,239.756 0.00 0,1 439.2,689.5 Q 472.6,470.4 687.2,414.8 A 239.756,239.756 0.00 0,1 687.5,417.3 Q 475.2,470.7 464.7,689.3 Z" style="stroke-width: 1.0;  stroke: rgb(180,180,180); fill: rgb(222,220,70);" opacity="0.5"/>
    <path d="M 439.027,689.505 A 239.756,239.756 0.00 0,1 413.7,687.0 Q 469.2,466.4 678.4,377.1 A 239.756,239.756 0.00 0,1 679.2,379.5 Q 471.8,466.9 439.0,689.5 Z" style="stroke-width: 1.0;  stroke: rgb(180,180,180); fill: rgb(222,220,70);" opacity="0.5"/>
  </g>
  <g id="E117">
    <path d="M 598.593,261.843 A 239.756,239.756 0.00 0,1 600.6,263.4 Q 478.9,411.8 588.2,254.1 A 239.756,239.756 0.00 0,1 590.3,255.6 Q 478.9,411.7 598.6,261.8 Z" style="stroke-width: 1.0;  stroke: rgb(180,180,180); fill: rgb(222,220,70);" opacity="0.5"/>
    <path d="M 689.731,453.493 A 239.756,239.756 0.00 0,1 689.7,456.0 Q 474.5,426.6 455.1,210.3 A 239.756,239.756 0.00 0,1 457.6,210.4 Q 474.7,426.4 689.7,453.5 Z" style="stroke-width: 1.0;  stroke: rgb(180,180,180); fill: rgb(222,220,70);" opacity="0.5"/>
    <path d="M 683.425,504.733 A 239.756,239.756 0.00 0,1 682.8,507.2 Q 497.1,458.6 688.0,479.3 A 239.756,239.756 0.00 0,1 687.6,481.8 Q 497.1,458.7 683.4,504.7 Z" style="stroke-width: 1.0;  stroke: rgb(180,180,180); fill: rgb(222,220,70);" opacity="0.5"/>
    <path d="M 608.521,270.127 A 239.756,239.756 0.00 0,1 610.4,271.8 Q 480.9,413.4 598.6,261.8 A 239.756,239.756 0.00 0,1 600.6,263.4 Q 480.9,413.4 608.5,270.1 Z" style="stroke-width: 1.0;  stroke: rgb(180,180,180); fill: rgb(222,220,70);" opacity="0.5"/>
    <path d="M 680.135,517.237 A 239.756,239.756 0.00 0,1 679.4,519.7 Q 492.3,442.8 643.4,308.2 A 239.756,239.756 0.00 0,1 644.8,310.3 Q 492.5,442.8 680.1,517.2 Z" style="stroke-width: 1.0;  stroke: rgb(180,180,180); fill: rgb(222,220,70);" opacity="0.5"/>
    <path d="M 678.397,377.078 A 239.756,239.756 0.00 0,1 679.2,379.5 Q 495.3,434.4 674.1,364.9 A 239.756,239.756 0.00 0,1 675.0,367.3 Q 495.3,434.4 678.4,377.1 Z" style="stroke-width: 1.0;  stroke: rgb(180,180,180); fill: rgb(222,220,70);" opacity="0.5"/>
    <path d="M 688.713,427.663 A 239.756,239.756 0.00 0,1 688.9,430.2 Q 482.0,425.5 531.0,224.4 A 239.756,239.756 0.00 0,1 533.4,225.2 Q 482.2,425.3 688.7,427.7 Z" style="stroke-width: 1.0;  stroke: rgb(180,180,180); fill: rgb(222,220,70);" opacity="0.5"/>
    <path d="M 518.764,220.316 A 239.756,239.756 0.00 0,1 521.2,221.1 Q 460.2,403.3 480.9,212.2 A 239.756,239.756 0.00 0,1 483.4,212.6 Q 460.2,403.3 518.8,220.3 Z" style="stroke-width: 1.0;  stroke: rgb(180,180,180); fill: rgb(222,220,70);" opacity="0.5"/>
    <path d="M 543.093,229.055 A 239.756,239.756 0.00 0,1 545.4,230.1 Q 461.3,404.1 468.0,210.9 A 239.756,239.756 0.00 0,1 470.5,211.1 Q 461.4,404.0 543.1,229.1 Z" style="stroke-width: 1.0;  stroke: rgb(180,180,180); fill: rgb(222,220,70);" opacity="0.5"/>
    <path d="M 650.714,318.863 A 239.756,239.756 0.00 0,1 652.1,321.0 Q 488.8,421.9 635.4,298.0 A 239.756,239.756 0.00 0,1 637.0,300.0 Q 488.8,421.9 650.7,318.9 Z" style="stroke-width: 1.0;  stroke: rgb(180,180,180); fill: rgb(222,220,70);" opacity="0.5"/>
    <path d="M 689.194,466.412 A 239.756,239.756 0.00 0,1 689.0,468.9 Q 474.4,427.9 455.1,210.3 A 239.756,239.756 0.00 0,1 457.6,210.4 Q 474.7,427.7 689.2,466.4 Z" style="stroke-width: 1.0;  stroke: rgb(180,180,180); fill: rgb(222,220,70);" opacity="0.5"/>
    <path d="M 566.339,240.362 A 239.756,239.756 0.00 0,1 568.6,241.6 Q 472.3,407.6 554.9,234.4 A 239.756,239.756 0.00 0,1 557.1,235.5 Q 472.3,407.6 566.3,240.4 Z" style="stroke-width: 1.0;  stroke: rgb(180,180,180); fill: rgb(222,220,70);" opacity="0.5"/>
    <path d="M 588.234,254.106 A 239.756,239.756 0.00 0,1 590.3,255.6 Q 476.8,410.3 577.5,246.9 A 239.756,239.756 0.00 0,1 579.6,248.3 Q 476.8,410.2 588.2,254.1 Z" style="stroke-width: 1.0;  stroke: rgb(180,180,180); fill: rgb(222,220,70);" opacity="0.5"/>
    <path d="M 543.093,229.055 A 239.756,239.756 0.00 0,1 545.4,230.1 Q 466.4,405.0 518.8,220.3 A 239.756,239.756 0.00 0,1 521.2,221.1 Q 466.4,405.0 543.1,229.1 Z" style="stroke-width: 1.0;  stroke: rgb(180,180,180); fill: rgb(222,220,70);" opacity="0.5"/>
    <path d="M 617.987,278.935 A 239.756,239.756 0.00 0,1 619.8,280.7 Q 472.6,409.8 506.3,216.9 A 239.756,239.756 0.00 0,1 508.7,217.6 Q 472.7,409.6 618.0,278.9 Z" style="stroke-width: 1.0;  stroke: rgb(180,180,180); fill: rgb(222,220,70);" opacity="0.5"/>
    <path d="M 689.194,466.412 A 239.756,239.756 0.00 0,1 689.0,468.9 Q 497.8,449.7 688.7,427.7 A 239.756,239.756 0.00 0,1 688.9,430.2 Q 497.8,449.7 689.2,466.4 Z" style="stroke-width: 1.0;  stroke: rgb(180,180,180); fill: rgb(222,220,70);" opacity="0.5"/>
    <path d="M 518.764,220.316 A 239.756,239.756 0.00 0,1 521.2,221.1 Q 457.6,403.1 455.1,210.3 A 239.756,239.756 0.00 0,1 457.6,210.4 Q 457.6,403.1 518.8,220.3 Z" style="stroke-width: 1.0;  stroke: rgb(180,180,180); fill: rgb(222,220,70);" opacity="0.5"/>
    <path d="M 635.428,298.015 A 239.756,239.756 0.00 0,1 637.0,300.0 Q 486.4,418.8 627.0,288.2 A 239.756,239.756 0.00 0,1 628.7,290.1 Q 486.4,418.8 635.4,298.0 Z" style="stroke-width: 1.0;  stroke: rgb(180,180,180); fill: rgb(222,220,70);" opacity="0.5"/>
    <path d="M 657.492,329.874 A 239.756,239.756 0.00 0,1 658.8,332.1 Q 490.2,424.0 643.4,308.2 A 239.756,239.756 0.00 0,1 644.8,310.3 Q 490.2,424.0 657.5,329.9 Z" style="stroke-width: 1.0;  stroke: rgb(180,180,180); fill: rgb(222,220,70);" opacity="0.5"/>
    <path d="M 669.219,352.911 A 239.756,239.756 0.00 0,1 670.2,355.2 Q 493.4,429.6 663.7,341.2 A 239.756,239.756 0.00 0,1 664.8,343.5 Q 493.4,429.6 669.2,352.9 Z" style="stroke-width: 1.0;  stroke: rgb(180,180,180); fill: rgb(222,220,70);" opacity="0.5"/>
    <path d="M 687.961,479.283 A 239.756,239.756 0.00 0,1 687.6,481.8 Q 497.7,454.8 689.2,466.4 A 239.756,239.756 0.00 0,1 689.0,468.9 Q 497.7,454.8 688.0,479.3 Z" style="stroke-width: 1.0;  stroke: rgb(180,180,180); fill: rgb(222,220,70);" opacity="0.5"/>
    <path d="M 650.714,318.863 A 239.756,239.756 0.00 0,1 652.1,321.0 Q 489.5,422.9 643.4,308.2 A 239.756,239.756 0.00 0,1 644.8,310.3 Q 489.6,422.9 650.7,318.9 Z" style="stroke-width: 1.0;  stroke: rgb(180,180,180); fill: rgb(222,220,70);" opacity="0.5"/>
    <path d="M 688.713,427.663 A 239.756,239.756 0.00 0,1 688.9,430.2 Q 478.3,424.4 493.6,214.2 A 239.756,239.756 0.00 0,1 496.1,214.7 Q 478.5,424.2 688.7,427.7 Z" style="stroke-width: 1.0;  stroke: rgb(180,180,180); fill: rgb(222,220,70);" opacity="0.5"/>
    <path d="M 635.428,298.015 A 239.756,239.756 0.00 0,1 637.0,300.0 Q 485.5,417.9 618.0,278.9 A 239.756,239.756 0.00 0,1 619.8,280.7 Q 485.5,417.9 635.4,298.0 Z" style="stroke-width: 1.0;  stroke: rgb(180,180,180); fill: rgb(222,220,70);" opacity="0.5"/>
    <path d="M 687.961,479.283 A 239.756,239.756 0.00 0,1 687.6,481.8 Q 497.3,448.4 684.9,402.1 A 239.756,239.756 0.00 0,1 685.4,404.6 Q 497.3,448.4 688.0,479.3 Z" style="stroke-width: 1.0;  stroke: rgb(180,180,180); fill: rgb(222,220,70);" opacity="0.5"/>
    <path d="M 687.961,479.283 A 239.756,239.756 0.00 0,1 687.6,481.8 Q 497.5,449.7 687.2,414.8 A 239.756,239.756 0.00 0,1 687.5,417.3 Q 497.5,449.7 688.0,479.3 Z" style="stroke-width: 1.0;  stroke: rgb(180,180,180); fill: rgb(222,220,70);" opacity="0.5"/>
    <path d="M 684.921,402.092 A 239.756,239.756 0.00 0,1 685.4,404.6 Q 496.4,438.2 678.4,377.1 A 239.756,239.756 0.00 0,1 679.2,379.5 Q 496.4,438.2 684.9,402.1 Z" style="stroke-width: 1.0;  stroke: rgb(180,180,180); fill: rgb(222,220,70);" opacity="0.5"/>
    <path d="M 680.135,517.237 A 239.756,239.756 0.00 0,1 679.4,519.7 Q 496.3,462.4 683.4,504.7 A 239.756,239.756 0.00 0,1 682.8,507.2 Q 496.3,462.4 680.1,517.2 Z" style="stroke-width: 1.0;  stroke: rgb(180,180,180); fill: rgb(222,220,70);" opacity="0.5"/>
    <path d="M 681.997,389.497 A 239.756,239.756 0.00 0,1 682.6,392.0 Q 496.1,436.9 678.4,377.1 A 239.756,239.756 0.00 0,1 679.2,379.5 Q 496.1,436.9 682.0,389.5 Z" style="stroke-width: 1.0;  stroke: rgb(180,180,180); fill: rgb(222,220,70);" opacity="0.5"/>
    <path d="M 617.987,278.935 A 239.756,239.756 0.00 0,1 619.8,280.7 Q 467.5,409.1 455.1,210.3 A 239.756,239.756 0.00 0,1 457.6,210.4 Q 467.6,408.9 618.0,278.9 Z" style="stroke-width: 1.0;  stroke: rgb(180,180,180); fill: rgb(222,220,70);" opacity="0.5"/>
    <path d="M 566.339,240.362 A 239.756,239.756 0.00 0,1 568.6,241.6 Q 471.2,407.1 543.1,229.1 A 239.756,239.756 0.00 0,1 545.4,230.1 Q 471.2,407.0 566.3,240.4 Z" style="stroke-width: 1.0;  stroke: rgb(180,180,180); fill: rgb(222,220,70);" opacity="0.5"/>
    <path d="M 689.194,466.412 A 239.756,239.756 0.00 0,1 689.0,468.9 Q 497.9,452.2 689.7,453.5 A 239.756,239.756 0.00 0,1 689.7,456.0 Q 497.9,452.2 689.2,466.4 Z" style="stroke-width: 1.0;  stroke: rgb(180,180,180); fill: rgb(222,220,70);" opacity="0.5"/>
    <path d="M 678.397,377.078 A 239.756,239.756 0.00 0,1 679.2,379.5 Q 473.4,419.0 455.1,210.3 A 239.756,239.756 0.00 0,1 457.6,210.4 Q 473.6,418.7 678.4,377.1 Z" style="stroke-width: 1.0;  stroke: rgb(180,180,180); fill: rgb(222,220,70);" opacity="0.5"/>
    <path d="M 598.593,261.843 A 239.756,239.756 0.00 0,1 600.6,263.4 Q 476.7,410.4 566.3,240.4 A 239.756,239.756 0.00 0,1 568.6,241.6 Q 476.7,410.3 598.6,261.8 Z" style="stroke-width: 1.0;  stroke: rgb(180,180,180); fill: rgb(222,220,70);" opacity="0.5"/>
    <path d="M 683.425,504.733 A 239.756,239.756 0.00 0,1 682.8,507.2 Q 496.9,459.9 686.0,492.1 A 239.756,239.756 0.00 0,1 685.6,494.6 Q 496.9,459.9 683.4,504.7 Z" style="stroke-width: 1.0;  stroke: rgb(180,180,180); fill: rgb(222,220,70);" opacity="0.5"/>
    <path d="M 657.492,329.874 A 239.756,239.756 0.00 0,1 658.8,332.1 Q 490.9,425.1 650.7,318.9 A 239.756,239.756 0.00 0,1 652.1,321.0 Q 491.0,425.1 657.5,329.9 Z" style="stroke-width: 1.0;  stroke: rgb(180,180,180); fill: rgb(222,220,70);" opacity="0.5"/>
    <path d="M 669.219,352.911 A 239.756,239.756 0.00 0,1 670.2,355.2 Q 488.8,423.4 618.0,278.9 A 239.756,239.756 0.00 0,1 619.8,280.7 Q 488.9,423.4 669.2,352.9 Z" style="stroke-width: 1.0;  stroke: rgb(180,180,180); fill: rgb(222,220,70);" opacity="0.5"/>
    <path d="M 684.921,402.092 A 239.756,239.756 0.00 0,1 685.4,404.6 Q 481.6,422.9 531.0,224.4 A 239.756,239.756 0.00 0,1 533.4,225.2 Q 481.8,422.7 684.9,402.1 Z" style="stroke-width: 1.0;  stroke: rgb(180,180,180); fill: rgb(222,220,70);" opacity="0.5"/>
    <path d="M 681.997,389.497 A 239.756,239.756 0.00 0,1 682.6,392.0 Q 495.2,434.5 669.2,352.9 A 239.756,239.756 0.00 0,1 670.2,355.2 Q 495.2,434.5 682.0,389.5 Z" style="stroke-width: 1.0;  stroke: rgb(180,180,180); fill: rgb(222,220,70);" opacity="0.5"/>
    <path d="M 689.731,453.493 A 239.756,239.756 0.00 0,1 689.7,456.0 Q 497.9,449.7 689.6,440.6 A 239.756,239.756 0.00 0,1 689.7,443.1 Q 497.9,449.7 689.7,453.5 Z" style="stroke-width: 1.0;  stroke: rgb(180,180,180); fill: rgb(222,220,70);" opacity="0.5"/>
  </g>
  <g id="E117"/>
  <g id="plot0">
    <g id="plot0-axis"/>
    <text x="555.5" y="118.9" font-family="'CMUSansSerif-DemiCondensed'" style="fill: rgb(0,0,0); font-size: 13.0px; text-anchor: start" transform="rotate(287.0,555.5,118.9)">N119</text>
    <text x="607.4" y="140.2" font-family="'CMUSansSerif-DemiCondensed'" style="fill: rgb(0,0,0); font-size: 13.0px; text-anchor: start" transform="rotate(296.2,607.4,140.2)">N146</text>
    <text x="623.9" y="149.1" font-family="'CMUSansSerif-DemiCondensed'" style="fill: rgb(0,0,0); font-size: 13.0px; text-anchor: start" transform="rotate(299.3,623.9,149.1)">N147</text>
    <text x="590.5" y="132.2" font-family="'CMUSansSerif-DemiCondensed'" style="fill: rgb(0,0,0); font-size: 13.0px; text-anchor: start" transform="rotate(293.2,590.5,132.2)">N145</text>
    <text x="684.3" y="193.3" font-family="'CMUSansSerif-DemiCondensed'" style="fill: rgb(0,0,0); font-size: 13.0px; text-anchor: start" transform="rotate(311.7,684.3,193.3)">N151</text>
    <text x="670.1" y="181.1" font-family="'CMUSansSerif-DemiCondensed'" style="fill: rgb(0,0,0); font-size: 13.0px; text-anchor: start" transform="rotate(308.6,670.1,181.1)">N150</text>
    <text x="655.3" y="169.6" font-family="'CMUSansSerif-DemiCondensed'" style="fill: rgb(0,0,0); font-size: 13.0px; text-anchor: start" transform="rotate(305.5,655.3,169.6)">N149</text>
    <text x="639.9" y="159.0" font-family="'CMUSansSerif-DemiCondensed'" style="fill: rgb(0,0,0); font-size: 13.0px; text-anchor: start" transform="rotate(302.4,639.9,159.0)">N148</text>
    <text x="710.5" y="220.1" font-family="'CMUSansSerif-DemiCondensed'" style="fill: rgb(0,0,0); font-size: 13.0px; text-anchor: start" transform="rotate(317.9,710.5,220.1)">N153</text>
    <text x="722.6" y="234.4" font-family="'CMUSansSerif-DemiCondensed'" style="fill: rgb(0,0,0); font-size: 13.0px; text-anchor: start" transform="rotate(321.0,722.6,234.4)">N154</text>
    <text x="697.8" y="206.4" font-family="'CMUSansSerif-DemiCondensed'" style="fill: rgb(0,0,0); font-size: 13.0px; text-anchor: start" transform="rotate(314.8,697.8,206.4)">N152</text>
    <text x="537.5" y="113.7" font-family="'CMUSansSerif-DemiCondensed'" style="fill: rgb(0,0,0); font-size: 13.0px; text-anchor: start" transform="rotate(283.9,537.5,113.7)">N100</text>
    <text x="733.8" y="249.5" font-family="'CMUSansSerif-DemiCondensed'" style="fill: rgb(0,0,0); font-size: 13.0px; text-anchor: start" transform="rotate(324.1,733.8,249.5)">N155</text>
    <text x="753.7" y="281.2" font-family="'CMUSansSerif-DemiCondensed'" style="fill: rgb(0,0,0); font-size: 13.0px; text-anchor: start" transform="rotate(330.2,753.7,281.2)">N157</text>
    <text x="744.2" y="265.0" font-family="'CMUSansSerif-DemiCondensed'" style="fill: rgb(0,0,0); font-size: 13.0px; text-anchor: start" transform="rotate(327.1,744.2,265.0)">N156</text>
    <text x="762.4" y="297.8" font-family="'CMUSansSerif-DemiCondensed'" style="fill: rgb(0,0,0); font-size: 13.0px; text-anchor: start" transform="rotate(333.3,762.4,297.8)">N158</text>
    <text x="770.1" y="314.9" font-family="'CMUSansSerif-DemiCondensed'" style="fill: rgb(0,0,0); font-size: 13.0px; text-anchor: start" transform="rotate(336.4,770.1,314.9)">N159</text>
    <text x="787.7" y="368.2" font-family="'CMUSansSerif-DemiCondensed'" style="fill: rgb(0,0,0); font-size: 13.0px; text-anchor: start" transform="rotate(345.7,787.7,368.2)">N162</text>
    <text x="782.8" y="350.1" font-family="'CMUSansSerif-DemiCondensed'" style="fill: rgb(0,0,0); font-size: 13.0px; text-anchor: start" transform="rotate(342.6,782.8,350.1)">N161</text>
    <text x="777.0" y="332.3" font-family="'CMUSansSerif-DemiCondensed'" style="fill: rgb(0,0,0); font-size: 13.0px; text-anchor: start" transform="rotate(339.5,777.0,332.3)">N160</text>
    <text x="794.6" y="405.0" font-family="'CMUSansSerif-DemiCondensed'" style="fill: rgb(0,0,0); font-size: 13.0px; text-anchor: start" transform="rotate(351.9,794.6,405.0)">N164</text>
    <text x="797.3" y="461.1" font-family="'CMUSansSerif-DemiCondensed'" style="fill: rgb(0,0,0); font-size: 13.0px; text-anchor: start" transform="rotate(1.1,797.3,461.1)">N167</text>
    <text x="797.4" y="442.4" font-family="'CMUSansSerif-DemiCondensed'" style="fill: rgb(0,0,0); font-size: 13.0px; text-anchor: start" transform="rotate(358.0,797.4,442.4)">N166</text>
    <text x="796.2" y="479.8" font-family="'CMUSansSerif-DemiCondensed'" style="fill: rgb(0,0,0); font-size: 13.0px; text-anchor: start" transform="rotate(4.2,796.2,479.8)">N168</text>
    <text x="796.5" y="423.7" font-family="'CMUSansSerif-DemiCondensed'" style="fill: rgb(0,0,0); font-size: 13.0px; text-anchor: start" transform="rotate(355.0,796.5,423.7)">N165</text>
    <text x="573.2" y="125.1" font-family="'CMUSansSerif-DemiCondensed'" style="fill: rgb(0,0,0); font-size: 13.0px; text-anchor: start" transform="rotate(290.1,573.2,125.1)">N120</text>
    <text x="794.1" y="498.5" font-family="'CMUSansSerif-DemiCondensed'" style="fill: rgb(0,0,0); font-size: 13.0px; text-anchor: start" transform="rotate(7.3,794.1,498.5)">N169</text>
    <text x="791.7" y="386.5" font-family="'CMUSansSerif-DemiCondensed'" style="fill: rgb(0,0,0); font-size: 13.0px; text-anchor: start" transform="rotate(348.8,791.7,386.5)">N163</text>
    <text x="781.8" y="553.3" font-family="'CMUSansSerif-DemiCondensed'" style="fill: rgb(0,0,0); font-size: 13.0px; text-anchor: start" transform="rotate(16.6,781.8,553.3)">N172</text>
    <text x="786.9" y="535.2" font-family="'CMUSansSerif-DemiCondensed'" style="fill: rgb(0,0,0); font-size: 13.0px; text-anchor: start" transform="rotate(13.5,786.9,535.2)">N171</text>
    <text x="791.0" y="516.9" font-family="'CMUSansSerif-DemiCondensed'" style="fill: rgb(0,0,0); font-size: 13.0px; text-anchor: start" transform="rotate(10.4,791.0,516.9)">N170</text>
    <text x="463.4" y="102.8" font-family="'CMUSansSerif-DemiCondensed'" style="fill: rgb(0,0,0); font-size: 13.0px; text-anchor: start" transform="rotate(271.5,463.4,102.8)">N17</text>
    <text x="500.4" y="106.2" font-family="'CMUSansSerif-DemiCondensed'" style="fill: rgb(0,0,0); font-size: 13.0px; text-anchor: start" transform="rotate(277.7,500.4,106.2)">N74</text>
    <text x="482.1" y="104.0" font-family="'CMUSansSerif-DemiCondensed'" style="fill: rgb(0,0,0); font-size: 13.0px; text-anchor: start" transform="rotate(274.6,482.1,104.0)">N20</text>
    <text x="519.2" y="109.5" font-family="'CMUSansSerif-DemiCondensed'" style="fill: rgb(0,0,0); font-size: 13.0px; text-anchor: start" transform="rotate(280.8,519.2,109.5)">N96</text>
    <text x="743.8" y="635.6" font-family="'CMUSansSerif-DemiCondensed'" style="fill: rgb(0,0,0); font-size: 13.0px; text-anchor: start" transform="rotate(31.6,743.8,635.6)">C10</text>
    <text x="730.1" y="655.7" font-family="'CMUSansSerif-DemiCondensed'" style="fill: rgb(0,0,0); font-size: 13.0px; text-anchor: start" transform="rotate(35.6,730.1,655.7)">C11</text>
    <text x="120.1" y="341.0" font-family="'CMUSansSerif-DemiCondensed'" style="fill: rgb(0,0,0); font-size: 13.0px; text-anchor: end" transform="rotate(19.0,120.1,341.0)">C14</text>
    <text x="126.4" y="323.3" font-family="'CMUSansSerif-DemiCondensed'" style="fill: rgb(0,0,0); font-size: 13.0px; text-anchor: end" transform="rotate(22.1,126.4,323.3)">C15</text>
  </g>
  <script>function init(evt) {
    $(evt.target).bind('mouseover', doMouseOver);
    $(evt.target).bind('mouseup'  , doMouseUp);
    $(evt.target).bind('mousedown', doMouseDown);
}</script>
</svg>