<svg width="900px" height="900px" version="1.1" onload="init(evt)" xmlns="http://www.w3.org/2000/svg" xmlns:xlink="http://www.w3.org/1999/xlink">
  <g id="ideograms">
    <path d="M 450.000,197.625 A252.375,252.375 0.000 0,1 463.262,197.974 L 467.203,123.077 A327.375,327.375 0.000 0,0 450.000,122.625 Z " style="stroke: none;   fill: rgb(53,100,153); " class="N170"/>
    <text x="462.4" y="112.9" font-size="9.1px" font-family="'CMUBright-Roman'" style="text-anchor:start;fill:rgb(0,0,0)" transform="rotate(271.5,462.4,112.9)" class="N170"></text>
    <path d="M 463.490,197.986 A252.375,252.375 0.000 0,1 476.714,199.043 L 484.653,124.464 A327.375,327.375 0.000 0,0 467.499,123.093 Z " style="stroke: none;   fill: rgb(53,100,153); " class="N155"/>
    <text x="480.4" y="114.0" font-size="9.1px" font-family="'CMUBright-Roman'" style="text-anchor:start;fill:rgb(0,0,0)" transform="rotate(274.6,480.4,114.0)" class="N155"></text>
    <path d="M 476.941,199.067 A252.375,252.375 0.000 0,1 490.090,200.830 L 502.004,126.782 A327.375,327.375 0.000 0,0 484.948,124.496 Z " style="stroke: none;   fill: rgb(53,100,153); " class="N154"/>
    <text x="498.3" y="116.1" font-size="9.1px" font-family="'CMUBright-Roman'" style="text-anchor:start;fill:rgb(0,0,0)" transform="rotate(277.6,498.3,116.1)" class="N154"></text>
    <path d="M 490.316,200.866 A252.375,252.375 0.000 0,1 503.352,203.329 L 519.207,130.024 A327.375,327.375 0.000 0,0 502.297,126.829 Z " style="stroke: none;   fill: rgb(53,100,153); " class="N161"/>
    <text x="516.1" y="119.2" font-size="9.1px" font-family="'CMUBright-Roman'" style="text-anchor:start;fill:rgb(0,0,0)" transform="rotate(280.7,516.1,119.2)" class="N161"></text>
    <path d="M 503.575,203.377 A252.375,252.375 0.000 0,1 516.461,206.533 L 536.211,134.180 A327.375,327.375 0.000 0,0 519.496,130.086 Z " style="stroke: none;   fill: rgb(53,100,153); " class="N147"/>
    <text x="533.7" y="123.2" font-size="9.1px" font-family="'CMUBright-Roman'" style="text-anchor:start;fill:rgb(0,0,0)" transform="rotate(283.8,533.7,123.2)" class="N147"></text>
    <path d="M 516.681,206.593 A252.375,252.375 0.000 0,1 529.379,210.434 L 552.969,139.240 A327.375,327.375 0.000 0,0 536.497,134.259 Z " style="stroke: none;   fill: rgb(53,100,153); " class="N119"/>
    <text x="551.0" y="128.1" font-size="9.1px" font-family="'CMUBright-Roman'" style="text-anchor:start;fill:rgb(0,0,0)" transform="rotate(286.8,551.0,128.1)" class="N119"></text>
    <path d="M 529.596,210.506 A252.375,252.375 0.000 0,1 542.071,215.019 L 569.433,145.188 A327.375,327.375 0.000 0,0 553.250,139.333 Z " style="stroke: none;   fill: rgb(53,100,153); " class="N151"/>
    <text x="568.1" y="134.0" font-size="9.1px" font-family="'CMUBright-Roman'" style="text-anchor:start;fill:rgb(0,0,0)" transform="rotate(289.9,568.1,134.0)" class="N151"></text>
    <path d="M 542.284,215.103 A252.375,252.375 0.000 0,1 554.500,220.276 L 585.555,152.008 A327.375,327.375 0.000 0,0 569.709,145.296 Z " style="stroke: none;   fill: rgb(53,100,153); " class="N172"/>
    <text x="584.8" y="140.7" font-size="9.1px" font-family="'CMUBright-Roman'" style="text-anchor:start;fill:rgb(0,0,0)" transform="rotate(293.0,584.8,140.7)" class="N172"></text>
    <path d="M 554.708,220.371 A252.375,252.375 0.000 0,1 566.630,226.191 L 601.289,159.680 A327.375,327.375 0.000 0,0 585.825,152.131 Z " style="stroke: none;   fill: rgb(53,100,153); " class="N96"/>
    <text x="601.1" y="148.4" font-size="9.1px" font-family="'CMUBright-Roman'" style="text-anchor:start;fill:rgb(0,0,0)" transform="rotate(296.0,601.1,148.4)" class="N96"></text>
    <path d="M 566.832,226.296 A252.375,252.375 0.000 0,1 578.426,232.745 L 616.591,168.181 A327.375,327.375 0.000 0,0 601.552,159.817 Z " style="stroke: none;   fill: rgb(53,100,153); " class="N157"/>
    <text x="617.0" y="156.9" font-size="9.1px" font-family="'CMUBright-Roman'" style="text-anchor:start;fill:rgb(0,0,0)" transform="rotate(299.1,617.0,156.9)" class="N157"></text>
    <path d="M 578.623,232.861 A252.375,252.375 0.000 0,1 589.855,239.920 L 631.417,177.489 A327.375,327.375 0.000 0,0 616.846,168.332 Z " style="stroke: none;   fill: rgb(53,100,153); " class="N74"/>
    <text x="632.5" y="166.2" font-size="9.1px" font-family="'CMUBright-Roman'" style="text-anchor:start;fill:rgb(0,0,0)" transform="rotate(302.1,632.5,166.2)" class="N74"></text>
    <path d="M 590.045,240.047 A252.375,252.375 0.000 0,1 600.885,247.696 L 645.724,187.576 A327.375,327.375 0.000 0,0 631.664,177.653 Z " style="stroke: none;   fill: rgb(53,100,153); " class="N158"/>
    <text x="647.4" y="176.4" font-size="9.1px" font-family="'CMUBright-Roman'" style="text-anchor:start;fill:rgb(0,0,0)" transform="rotate(305.2,647.4,176.4)" class="N158"></text>
    <path d="M 601.068,247.833 A252.375,252.375 0.000 0,1 611.483,256.050 L 659.471,198.413 A327.375,327.375 0.000 0,0 645.961,187.753 Z " style="stroke: none;   fill: rgb(53,100,153); " class="N156"/>
    <text x="661.7" y="187.3" font-size="9.1px" font-family="'CMUBright-Roman'" style="text-anchor:start;fill:rgb(0,0,0)" transform="rotate(308.3,661.7,187.3)" class="N156"></text>
    <path d="M 611.658,256.196 A252.375,252.375 0.000 0,1 621.619,264.959 L 672.620,209.969 A327.375,327.375 0.000 0,0 659.699,198.602 Z " style="stroke: none;   fill: rgb(53,100,153); " class="N146"/>
    <text x="675.5" y="199.0" font-size="9.1px" font-family="'CMUBright-Roman'" style="text-anchor:start;fill:rgb(0,0,0)" transform="rotate(311.3,675.5,199.0)" class="N146"></text>
    <path d="M 621.786,265.114 A252.375,252.375 0.000 0,1 631.264,274.397 L 685.132,222.212 A327.375,327.375 0.000 0,0 672.837,210.171 Z " style="stroke: none;   fill: rgb(53,100,153); " class="N17"/>
    <text x="688.5" y="211.4" font-size="9.1px" font-family="'CMUBright-Roman'" style="text-anchor:start;fill:rgb(0,0,0)" transform="rotate(314.4,688.5,211.4)" class="N17"></text>
    <path d="M 631.423,274.561 A252.375,252.375 0.000 0,1 640.391,284.337 L 696.971,235.106 A327.375,327.375 0.000 0,0 685.338,222.425 Z " style="stroke: none;   fill: rgb(53,100,153); " class="N160"/>
    <text x="701.0" y="224.5" font-size="9.1px" font-family="'CMUBright-Roman'" style="text-anchor:start;fill:rgb(0,0,0)" transform="rotate(317.5,701.0,224.5)" class="N160"></text>
    <path d="M 640.541,284.509 A252.375,252.375 0.000 0,1 648.974,294.751 L 708.105,248.614 A327.375,327.375 0.000 0,0 697.166,235.329 Z " style="stroke: none;   fill: rgb(53,100,153); " class="N20"/>
    <text x="712.7" y="238.3" font-size="9.1px" font-family="'CMUBright-Roman'" style="text-anchor:start;fill:rgb(0,0,0)" transform="rotate(320.5,712.7,238.3)" class="N20"></text>
    <path d="M 649.115,294.931 A252.375,252.375 0.000 0,1 656.988,305.608 L 718.500,262.698 A327.375,327.375 0.000 0,0 708.287,248.848 Z " style="stroke: none;   fill: rgb(53,100,153); " class="N165"/>
    <text x="723.6" y="252.6" font-size="9.1px" font-family="'CMUBright-Roman'" style="text-anchor:start;fill:rgb(0,0,0)" transform="rotate(323.6,723.6,252.6)" class="N165"></text>
    <path d="M 657.119,305.796 A252.375,252.375 0.000 0,1 664.410,316.879 L 728.128,277.318 A327.375,327.375 0.000 0,0 718.670,262.941 Z " style="stroke: none;   fill: rgb(53,100,153); " class="N164"/>
    <text x="733.8" y="267.5" font-size="9.1px" font-family="'CMUBright-Roman'" style="text-anchor:start;fill:rgb(0,0,0)" transform="rotate(326.7,733.8,267.5)" class="N164"></text>
    <path d="M 664.531,317.073 A252.375,252.375 0.000 0,1 671.220,328.530 L 736.961,292.432 A327.375,327.375 0.000 0,0 728.284,277.570 Z " style="stroke: none;   fill: rgb(53,100,153); " class="N159"/>
    <text x="743.1" y="282.9" font-size="9.1px" font-family="'CMUBright-Roman'" style="text-anchor:start;fill:rgb(0,0,0)" transform="rotate(329.7,743.1,282.9)" class="N159"></text>
    <path d="M 671.329,328.730 A252.375,252.375 0.000 0,1 677.396,340.528 L 744.973,307.995 A327.375,327.375 0.000 0,0 737.103,292.691 Z " style="stroke: none;   fill: rgb(53,100,153); " class="N168"/>
    <text x="751.6" y="298.8" font-size="9.1px" font-family="'CMUBright-Roman'" style="text-anchor:start;fill:rgb(0,0,0)" transform="rotate(332.8,751.6,298.8)" class="N168"></text>
    <path d="M 677.495,340.734 A252.375,252.375 0.000 0,1 682.923,352.839 L 752.142,323.965 A327.375,327.375 0.000 0,0 745.101,308.263 Z " style="stroke: none;   fill: rgb(53,100,153); " class="N148"/>
    <text x="759.3" y="315.2" font-size="9.1px" font-family="'CMUBright-Roman'" style="text-anchor:start;fill:rgb(0,0,0)" transform="rotate(335.9,759.3,315.2)" class="N148"></text>
    <path d="M 683.010,353.050 A252.375,252.375 0.000 0,1 687.783,365.428 L 758.447,340.296 A327.375,327.375 0.000 0,0 752.256,324.239 Z " style="stroke: none;   fill: rgb(53,100,153); " class="N167"/>
    <text x="766.0" y="331.9" font-size="9.1px" font-family="'CMUBright-Roman'" style="text-anchor:start;fill:rgb(0,0,0)" transform="rotate(338.9,766.0,331.9)" class="N167"></text>
    <path d="M 687.860,365.644 A252.375,252.375 0.000 0,1 691.964,378.259 L 763.870,356.940 A327.375,327.375 0.000 0,0 758.546,340.575 Z " style="stroke: none;   fill: rgb(53,100,153); " class="N163"/>
    <text x="771.9" y="349.0" font-size="9.1px" font-family="'CMUBright-Roman'" style="text-anchor:start;fill:rgb(0,0,0)" transform="rotate(342.0,771.9,349.0)" class="N163"></text>
    <path d="M 692.029,378.478 A252.375,252.375 0.000 0,1 695.452,391.295 L 768.395,373.850 A327.375,327.375 0.000 0,0 763.954,357.224 Z " style="stroke: none;   fill: rgb(53,100,153); " class="N100"/>
    <text x="776.8" y="366.3" font-size="9.1px" font-family="'CMUBright-Roman'" style="text-anchor:start;fill:rgb(0,0,0)" transform="rotate(345.0,776.8,366.3)" class="N100"></text>
    <path d="M 695.506,391.518 A252.375,252.375 0.000 0,1 698.239,404.499 L 772.010,390.978 A327.375,327.375 0.000 0,0 768.464,374.138 Z " style="stroke: none;   fill: rgb(53,100,153); " class="N120"/>
    <text x="780.8" y="383.9" font-size="9.1px" font-family="'CMUBright-Roman'" style="text-anchor:start;fill:rgb(0,0,0)" transform="rotate(348.1,780.8,383.9)" class="N120"></text>
    <path d="M 698.281,404.724 A252.375,252.375 0.000 0,1 700.317,417.833 L 774.705,408.274 A327.375,327.375 0.000 0,0 772.064,391.269 Z " style="stroke: none;   fill: rgb(53,100,153); " class="N150"/>
    <text x="783.9" y="401.7" font-size="9.1px" font-family="'CMUBright-Roman'" style="text-anchor:start;fill:rgb(0,0,0)" transform="rotate(351.2,783.9,401.7)" class="N150"></text>
    <path d="M 700.346,418.060 A252.375,252.375 0.000 0,1 701.678,431.259 L 776.471,425.690 A327.375,327.375 0.000 0,0 774.743,408.568 Z " style="stroke: none;   fill: rgb(53,100,153); " class="N0"/>
    <text x="786.0" y="419.6" font-size="9.1px" font-family="'CMUBright-Roman'" style="text-anchor:start;fill:rgb(0,0,0)" transform="rotate(354.2,786.0,419.6)" class="N0"></text>
    <path d="M 701.695,431.487 A252.375,252.375 0.000 0,1 702.320,444.739 L 777.304,443.175 A327.375,327.375 0.000 0,0 776.493,425.986 Z " style="stroke: none;   fill: rgb(53,100,153); " class="N169"/>
    <text x="787.1" y="437.6" font-size="9.1px" font-family="'CMUBright-Roman'" style="text-anchor:start;fill:rgb(0,0,0)" transform="rotate(357.3,787.1,437.6)" class="N169"></text>
    <path d="M 702.325,444.967 A252.375,252.375 0.000 0,1 702.241,458.233 L 777.201,460.680 A327.375,327.375 0.000 0,0 777.310,443.472 Z " style="stroke: none;   fill: rgb(53,100,153); " class="N166"/>
    <text x="787.3" y="455.6" font-size="9.1px" font-family="'CMUBright-Roman'" style="text-anchor:start;fill:rgb(0,0,0)" transform="rotate(0.4,787.3,455.6)" class="N166"></text>
    <path d="M 702.233,458.462 A252.375,252.375 0.000 0,1 701.440,471.705 L 776.162,478.155 A327.375,327.375 0.000 0,0 777.191,460.976 Z " style="stroke: none;   fill: rgb(53,100,153); " class="N162"/>
    <text x="786.5" y="473.7" font-size="9.1px" font-family="'CMUBright-Roman'" style="text-anchor:start;fill:rgb(0,0,0)" transform="rotate(3.4,786.5,473.7)" class="N162"></text>
    <path d="M 701.420,471.932 A252.375,252.375 0.000 0,1 699.920,485.114 L 774.191,495.548 A327.375,327.375 0.000 0,0 776.136,478.450 Z " style="stroke: none;   fill: rgb(53,100,153); " class="N153"/>
    <text x="784.8" y="491.6" font-size="9.1px" font-family="'CMUBright-Roman'" style="text-anchor:start;fill:rgb(0,0,0)" transform="rotate(6.5,784.8,491.6)" class="N153"></text>
    <path d="M 699.888,485.340 A252.375,252.375 0.000 0,1 697.686,498.422 L 771.293,512.812 A327.375,327.375 0.000 0,0 774.150,495.842 Z " style="stroke: none;   fill: rgb(53,100,153); " class="N145"/>
    <text x="782.1" y="509.5" font-size="9.1px" font-family="'CMUBright-Roman'" style="text-anchor:start;fill:rgb(0,0,0)" transform="rotate(9.6,782.1,509.5)" class="N145"></text>
    <path d="M 697.642,498.646 A252.375,252.375 0.000 0,1 694.744,511.592 L 767.476,529.896 A327.375,327.375 0.000 0,0 771.236,513.103 Z " style="stroke: none;   fill: rgb(53,100,153); " class="N171"/>
    <text x="778.4" y="527.1" font-size="9.1px" font-family="'CMUBright-Roman'" style="text-anchor:start;fill:rgb(0,0,0)" transform="rotate(12.6,778.4,527.1)" class="N171"></text>
    <path d="M 694.688,511.814 A252.375,252.375 0.000 0,1 691.102,524.586 L 762.752,546.752 A327.375,327.375 0.000 0,0 767.404,530.183 Z " style="stroke: none;   fill: rgb(53,100,153); " class="N152"/>
    <text x="773.9" y="544.6" font-size="9.1px" font-family="'CMUBright-Roman'" style="text-anchor:start;fill:rgb(0,0,0)" transform="rotate(15.7,773.9,544.6)" class="N152"></text>
    <path d="M 691.034,524.805 A252.375,252.375 0.000 0,1 686.770,537.367 L 757.133,563.331 A327.375,327.375 0.000 0,0 762.664,547.035 Z " style="stroke: none;   fill: rgb(53,100,153); " class="N149"/>
    <text x="768.3" y="561.7" font-size="9.1px" font-family="'CMUBright-Roman'" style="text-anchor:start;fill:rgb(0,0,0)" transform="rotate(18.7,768.3,561.7)" class="N149"></text>
    <path d="M 696.187,541.095 A262.500,262.500 0.000 0,1 694.217,546.252 L 763.993,573.752 A337.500,337.500 0.000 0,0 766.526,567.122 Z " style="stroke: none;   fill: rgb(179,186,212); " class="C3"/>
    <text x="773.4" y="577.3" font-size="9.1px" font-family="'CMUBright-Roman'" style="text-anchor:start;fill:rgb(0,0,0)" transform="rotate(20.9,773.4,577.3)" class="C3"></text>
    <path d="M 694.130,546.472 A262.500,262.500 0.000 0,1 690.415,555.389 L 759.105,585.500 A337.500,337.500 0.000 0,0 763.881,574.036 Z " style="stroke: none;   fill: rgb(179,186,212); " class="C4"/>
    <text x="769.4" y="586.9" font-size="9.1px" font-family="'CMUBright-Roman'" style="text-anchor:start;fill:rgb(0,0,0)" transform="rotate(22.6,769.4,586.9)" class="C4"></text>
    <path d="M 690.320,555.607 A262.500,262.500 0.000 0,1 688.624,559.384 L 756.802,590.636 A337.500,337.500 0.000 0,0 758.982,585.780 Z " style="stroke: none;   fill: rgb(179,186,212); " class="C6"/>
    <text x="765.6" y="595.5" font-size="9.1px" font-family="'CMUBright-Roman'" style="text-anchor:start;fill:rgb(0,0,0)" transform="rotate(24.2,765.6,595.5)" class="C6"></text>
    <path d="M 688.525,559.599 A262.500,262.500 0.000 0,1 686.767,563.347 L 754.415,595.732 A337.500,337.500 0.000 0,0 756.675,590.913 Z " style="stroke: none;   fill: rgb(179,186,212); " class="C5"/>
    <text x="763.1" y="600.7" font-size="9.1px" font-family="'CMUBright-Roman'" style="text-anchor:start;fill:rgb(0,0,0)" transform="rotate(25.1,763.1,600.7)" class="C5"></text>
    <path d="M 686.664,563.562 A262.500,262.500 0.000 0,1 682.965,570.969 L 749.527,605.532 A337.500,337.500 0.000 0,0 754.283,596.008 Z " style="stroke: none;   fill: rgb(179,186,212); " class="C7"/>
    <text x="759.3" y="608.4" font-size="9.1px" font-family="'CMUBright-Roman'" style="text-anchor:start;fill:rgb(0,0,0)" transform="rotate(26.5,759.3,608.4)" class="C7"></text>
    <path d="M 682.856,571.180 A262.500,262.500 0.000 0,1 676.166,583.248 L 740.785,621.319 A337.500,337.500 0.000 0,0 749.386,605.802 Z " style="stroke: none;   fill: rgb(179,186,212); " class="C8"/>
    <text x="752.2" y="621.5" font-size="9.1px" font-family="'CMUBright-Roman'" style="text-anchor:start;fill:rgb(0,0,0)" transform="rotate(29.0,752.2,621.5)" class="C8"></text>
    <path d="M 676.046,583.453 A262.500,262.500 0.000 0,1 673.913,587.001 L 737.888,626.144 A337.500,337.500 0.000 0,0 740.630,621.582 Z " style="stroke: none;   fill: rgb(179,186,212); " class="C9"/>
    <text x="746.0" y="632.0" font-size="9.1px" font-family="'CMUBright-Roman'" style="text-anchor:start;fill:rgb(0,0,0)" transform="rotate(31.0,746.0,632.0)" class="C9"></text>
    <path d="M 665.157,581.911 A252.375,252.375 0.000 0,1 654.874,597.376 L 715.758,641.173 A327.375,327.375 0.000 0,0 729.097,621.113 Z " style="stroke: none;   fill: rgb(179,186,212); " class="C10"/>
    <text x="729.0" y="639.7" font-size="9.1px" font-family="'CMUBright-Roman'" style="text-anchor:start;fill:rgb(0,0,0)" transform="rotate(33.6,729.0,639.7)" class="C10"></text>
    <path d="M 654.741,597.561 A252.375,252.375 0.000 0,1 645.031,610.176 L 702.989,657.776 A327.375,327.375 0.000 0,0 715.585,641.413 Z " style="stroke: none;   fill: rgb(179,186,212); " class="C11"/>
    <text x="715.2" y="658.6" font-size="9.1px" font-family="'CMUBright-Roman'" style="text-anchor:start;fill:rgb(0,0,0)" transform="rotate(37.6,715.2,658.6)" class="C11"></text>
    <path d="M 644.886,610.352 A252.375,252.375 0.000 0,1 626.980,629.920 L 679.575,683.388 A327.375,327.375 0.000 0,0 702.801,658.005 Z " style="stroke: none;   fill: rgb(157,55,110); " class="E130"/>
    <text x="696.5" y="680.3" font-size="9.1px" font-family="'CMUBright-Roman'" style="text-anchor:start;fill:rgb(0,0,0)" transform="rotate(42.5,696.5,680.3)" class="E130"></text>
    <path d="M 626.817,630.080 A252.375,252.375 0.000 0,1 606.941,647.643 L 653.581,706.377 A327.375,327.375 0.000 0,0 679.363,683.595 Z " style="stroke: none;   fill: rgb(157,55,110); " class="E129"/>
    <text x="670.8" y="705.1" font-size="9.1px" font-family="'CMUBright-Roman'" style="text-anchor:start;fill:rgb(0,0,0)" transform="rotate(48.5,670.8,705.1)" class="E129"></text>
    <path d="M 606.762,647.785 A252.375,252.375 0.000 0,1 585.139,663.145 L 625.299,726.486 A327.375,327.375 0.000 0,0 653.348,706.562 Z " style="stroke: none;   fill: rgb(157,55,110); " class="E128"/>
    <text x="642.5" y="727.1" font-size="9.1px" font-family="'CMUBright-Roman'" style="text-anchor:start;fill:rgb(0,0,0)" transform="rotate(54.6,642.5,727.1)" class="E128"></text>
    <path d="M 584.946,663.267 A252.375,252.375 0.000 0,1 561.818,676.252 L 595.048,743.489 A327.375,327.375 0.000 0,0 625.049,726.645 Z " style="stroke: none;   fill: rgb(157,55,110); " class="E127"/>
    <text x="612.1" y="745.9" font-size="9.1px" font-family="'CMUBright-Roman'" style="text-anchor:start;fill:rgb(0,0,0)" transform="rotate(60.7,612.1,745.9)" class="E127"></text>
    <path d="M 561.613,676.353 A252.375,252.375 0.000 0,1 537.241,686.817 L 563.167,757.193 A327.375,327.375 0.000 0,0 594.782,743.620 Z " style="stroke: none;   fill: rgb(157,55,110); " class="E126"/>
    <text x="579.9" y="761.4" font-size="9.1px" font-family="'CMUBright-Roman'" style="text-anchor:start;fill:rgb(0,0,0)" transform="rotate(66.8,579.9,761.4)" class="E126"></text>
    <path d="M 537.026,686.896 A252.375,252.375 0.000 0,1 511.683,694.721 L 530.014,767.446 A327.375,327.375 0.000 0,0 562.888,757.296 Z " style="stroke: none;   fill: rgb(157,55,110); " class="E125"/>
    <text x="546.2" y="773.4" font-size="9.1px" font-family="'CMUBright-Roman'" style="text-anchor:start;fill:rgb(0,0,0)" transform="rotate(72.8,546.2,773.4)" class="E125"></text>
    <path d="M 511.462,694.777 A252.375,252.375 0.000 0,1 485.433,699.875 L 495.962,774.132 A327.375,327.375 0.000 0,0 529.727,767.519 Z " style="stroke: none;   fill: rgb(157,55,110); " class="E124"/>
    <text x="511.4" y="781.7" font-size="9.1px" font-family="'CMUBright-Roman'" style="text-anchor:start;fill:rgb(0,0,0)" transform="rotate(78.9,511.4,781.7)" class="E124"></text>
    <path d="M 485.206,699.907 A252.375,252.375 0.000 0,1 458.784,702.222 L 461.394,777.177 A327.375,327.375 0.000 0,0 495.669,774.174 Z " style="stroke: none;   fill: rgb(157,55,110); " class="E123"/>
    <text x="476.0" y="786.4" font-size="9.1px" font-family="'CMUBright-Roman'" style="text-anchor:start;fill:rgb(0,0,0)" transform="rotate(85.0,476.0,786.4)" class="E123"></text>
    <path d="M 458.555,702.230 A252.375,252.375 0.000 0,1 432.036,701.735 L 426.698,776.545 A327.375,327.375 0.000 0,0 461.098,777.187 Z " style="stroke: none;   fill: rgb(157,55,110); " class="E122"/>
    <text x="447.2" y="787.4" font-size="9.1px" font-family="'CMUBright-Roman'" style="text-anchor:end;fill:rgb(0,0,0)" transform="rotate(-88.9,447.2,787.4)" class="E122"></text>
    <path d="M 431.808,701.719 A252.375,252.375 0.000 0,1 405.491,698.419 L 392.264,772.244 A327.375,327.375 0.000 0,0 426.402,776.523 Z " style="stroke: none;   fill: rgb(157,55,110); " class="E121"/>
    <text x="411.5" y="785.2" font-size="9.1px" font-family="'CMUBright-Roman'" style="text-anchor:end;fill:rgb(0,0,0)" transform="rotate(-82.9,411.5,785.2)" class="E121"></text>
    <path d="M 405.266,698.379 A252.375,252.375 0.000 0,1 379.445,692.312 L 358.478,764.322 A327.375,327.375 0.000 0,0 391.972,772.191 Z " style="stroke: none;   fill: rgb(157,55,110); " class="E120"/>
    <text x="376.2" y="779.2" font-size="9.1px" font-family="'CMUBright-Roman'" style="text-anchor:end;fill:rgb(0,0,0)" transform="rotate(-76.8,376.2,779.2)" class="E120"></text>
    <path d="M 379.226,692.248 A252.375,252.375 0.000 0,1 354.193,683.483 L 325.721,752.868 A327.375,327.375 0.000 0,0 358.194,764.239 Z " style="stroke: none;   fill: rgb(157,55,110); " class="E119"/>
    <text x="341.8" y="769.6" font-size="9.1px" font-family="'CMUBright-Roman'" style="text-anchor:end;fill:rgb(0,0,0)" transform="rotate(-70.7,341.8,769.6)" class="E119"></text>
    <path d="M 353.981,683.396 A252.375,252.375 0.000 0,1 330.016,672.029 L 294.360,738.011 A327.375,327.375 0.000 0,0 325.447,752.755 Z " style="stroke: none;   fill: rgb(157,55,110); " class="E118"/>
    <text x="308.6" y="756.3" font-size="9.1px" font-family="'CMUBright-Roman'" style="text-anchor:end;fill:rgb(0,0,0)" transform="rotate(-64.6,308.6,756.3)" class="E118"></text>
    <path d="M 329.815,671.921 A252.375,252.375 0.000 0,1 307.188,658.082 L 264.748,719.919 A327.375,327.375 0.000 0,0 294.099,737.870 Z " style="stroke: none;   fill: rgb(157,55,110); " class="E117"/>
    <text x="277.0" y="739.6" font-size="9.1px" font-family="'CMUBright-Roman'" style="text-anchor:end;fill:rgb(0,0,0)" transform="rotate(-58.5,277.0,739.6)" class="E117"></text>
    <path d="M 307.000,657.952 A252.375,252.375 0.000 0,1 285.965,641.796 L 237.217,698.793 A327.375,327.375 0.000 0,0 264.504,719.751 Z " style="stroke: none;   fill: rgb(157,55,110); " class="E116"/>
    <text x="247.3" y="719.7" font-size="9.1px" font-family="'CMUBright-Roman'" style="text-anchor:end;fill:rgb(0,0,0)" transform="rotate(-52.5,247.3,719.7)" class="E116"></text>
    <path d="M 285.791,641.647 A252.375,252.375 0.000 0,1 266.585,623.355 L 212.078,674.872 A327.375,327.375 0.000 0,0 236.992,698.600 Z " style="stroke: none;   fill: rgb(157,55,110); " class="E115"/>
    <text x="219.9" y="696.7" font-size="9.1px" font-family="'CMUBright-Roman'" style="text-anchor:end;fill:rgb(0,0,0)" transform="rotate(-46.4,219.9,696.7)" class="E115"></text>
    <path d="M 266.428,623.189 A252.375,252.375 0.000 0,1 249.265,602.966 L 189.611,648.424 A327.375,327.375 0.000 0,0 211.874,674.657 Z " style="stroke: none;   fill: rgb(157,55,110); " class="E114"/>
    <text x="195.1" y="671.0" font-size="9.1px" font-family="'CMUBright-Roman'" style="text-anchor:end;fill:rgb(0,0,0)" transform="rotate(-40.3,195.1,671.0)" class="E114"></text>
    <path d="M 249.127,602.784 A252.375,252.375 0.000 0,1 234.201,580.859 L 170.071,619.747 A327.375,327.375 0.000 0,0 189.432,648.188 Z " style="stroke: none;   fill: rgb(157,55,110); " class="E113"/>
    <text x="173.1" y="642.7" font-size="9.1px" font-family="'CMUBright-Roman'" style="text-anchor:end;fill:rgb(0,0,0)" transform="rotate(-34.2,173.1,642.7)" class="E113"></text>
    <path d="M 234.083,580.663 A252.375,252.375 0.000 0,1 221.562,557.281 L 153.675,589.162 A327.375,327.375 0.000 0,0 169.917,619.493 Z " style="stroke: none;   fill: rgb(157,55,110); " class="E112"/>
    <text x="154.3" y="612.3" font-size="9.1px" font-family="'CMUBright-Roman'" style="text-anchor:end;fill:rgb(0,0,0)" transform="rotate(-28.2,154.3,612.3)" class="E112"></text>
    <path d="M 221.465,557.074 A252.375,252.375 0.000 0,1 211.489,532.498 L 140.610,557.014 A327.375,327.375 0.000 0,0 153.550,588.894 Z " style="stroke: none;   fill: rgb(157,55,110); " class="E111"/>
    <text x="138.7" y="580.1" font-size="9.1px" font-family="'CMUBright-Roman'" style="text-anchor:end;fill:rgb(0,0,0)" transform="rotate(-22.1,138.7,580.1)" class="E111"></text>
    <path d="M 211.415,532.282 A252.375,252.375 0.000 0,1 204.097,506.788 L 131.020,523.664 A327.375,327.375 0.000 0,0 140.513,556.734 Z " style="stroke: none;   fill: rgb(157,55,110); " class="E110"/>
    <text x="126.7" y="546.4" font-size="9.1px" font-family="'CMUBright-Roman'" style="text-anchor:end;fill:rgb(0,0,0)" transform="rotate(-16.0,126.7,546.4)" class="E110"></text>
    <path d="M 204.046,506.565 A252.375,252.375 0.000 0,1 199.467,480.439 L 125.015,489.485 A327.375,327.375 0.000 0,0 130.954,523.375 Z " style="stroke: none;   fill: rgb(157,55,110); " class="E109"/>
    <text x="118.3" y="511.7" font-size="9.1px" font-family="'CMUBright-Roman'" style="text-anchor:end;fill:rgb(0,0,0)" transform="rotate(-9.9,118.3,511.7)" class="E109"></text>
    <path d="M 199.440,480.213 A252.375,252.375 0.000 0,1 197.653,453.749 L 122.661,454.863 A327.375,327.375 0.000 0,0 124.979,489.191 Z " style="stroke: none;   fill: rgb(157,55,110); " class="E108"/>
    <text x="113.6" y="476.2" font-size="9.1px" font-family="'CMUBright-Roman'" style="text-anchor:end;fill:rgb(0,0,0)" transform="rotate(-3.9,113.6,476.2)" class="E108"></text>
    <path d="M 197.650,453.521 A252.375,252.375 0.000 0,1 198.674,427.017 L 123.985,420.187 A327.375,327.375 0.000 0,0 122.657,454.567 Z " style="stroke: none;   fill: rgb(157,55,110); " class="E107"/>
    <text x="112.8" y="440.5" font-size="9.1px" font-family="'CMUBright-Roman'" style="text-anchor:end;fill:rgb(0,0,0)" transform="rotate(2.2,112.8,440.5)" class="E107"></text>
    <path d="M 198.695,426.789 A252.375,252.375 0.000 0,1 202.518,400.543 L 128.973,385.845 A327.375,327.375 0.000 0,0 124.012,419.892 Z " style="stroke: none;   fill: rgb(157,55,110); " class="E106"/>
    <text x="115.7" y="404.8" font-size="9.1px" font-family="'CMUBright-Roman'" style="text-anchor:end;fill:rgb(0,0,0)" transform="rotate(8.3,115.7,404.8)" class="E106"></text>
    <path d="M 202.563,400.319 A252.375,252.375 0.000 0,1 209.144,374.624 L 137.567,352.224 A327.375,327.375 0.000 0,0 129.031,385.554 Z " style="stroke: none;   fill: rgb(157,55,110); " class="E105"/>
    <text x="122.3" y="369.7" font-size="9.1px" font-family="'CMUBright-Roman'" style="text-anchor:end;fill:rgb(0,0,0)" transform="rotate(14.4,122.3,369.7)" class="E105"></text>
    <path d="M 199.552,371.373 A262.500,262.500 0.000 0,1 200.823,367.433 L 129.630,343.843 A337.500,337.500 0.000 0,0 127.996,348.909 Z " style="stroke: none;   fill: rgb(179,186,212); " class="C13"/>
    <text x="118.2" y="346.6" font-size="9.1px" font-family="'CMUBright-Roman'" style="text-anchor:end;fill:rgb(0,0,0)" transform="rotate(17.9,118.2,346.6)" class="C13"></text>
    <path d="M 210.506,370.402 A252.375,252.375 0.000 0,1 214.065,360.402 L 143.950,333.776 A327.375,327.375 0.000 0,0 139.334,346.747 Z " style="stroke: none;   fill: rgb(179,186,212); " class="C14"/>
    <text x="131.0" y="340.2" font-size="9.1px" font-family="'CMUBright-Roman'" style="text-anchor:end;fill:rgb(0,0,0)" transform="rotate(19.6,131.0,340.2)" class="C14"></text>
    <path d="M 214.146,360.189 A252.375,252.375 0.000 0,1 220.277,345.498 L 152.009,314.443 A327.375,327.375 0.000 0,0 144.056,333.499 Z " style="stroke: none;   fill: rgb(179,186,212); " class="C15"/>
    <text x="137.3" y="323.3" font-size="9.1px" font-family="'CMUBright-Roman'" style="text-anchor:end;fill:rgb(0,0,0)" transform="rotate(22.7,137.3,323.3)" class="C15"></text>
    <path d="M 211.159,341.090 A262.500,262.500 0.000 0,1 214.713,333.611 L 147.488,300.357 A337.500,337.500 0.000 0,0 142.919,309.972 Z " style="stroke: none;   fill: rgb(179,186,212); " class="C16"/>
    <text x="134.6" y="304.0" font-size="9.1px" font-family="'CMUBright-Roman'" style="text-anchor:end;fill:rgb(0,0,0)" transform="rotate(25.4,134.6,304.0)" class="C16"></text>
    <path d="M 214.818,333.398 A262.500,262.500 0.000 0,1 217.322,328.479 L 150.843,293.759 A337.500,337.500 0.000 0,0 147.624,300.084 Z " style="stroke: none;   fill: rgb(179,186,212); " class="C17"/>
    <text x="138.7" y="295.5" font-size="9.1px" font-family="'CMUBright-Roman'" style="text-anchor:end;fill:rgb(0,0,0)" transform="rotate(27.0,138.7,295.5)" class="C17"></text>
    <path d="M 217.432,328.269 A262.500,262.500 0.000 0,1 219.381,324.616 L 153.490,288.792 A337.500,337.500 0.000 0,0 150.984,293.488 Z " style="stroke: none;   fill: rgb(179,186,212); " class="C18"/>
    <text x="141.8" y="289.5" font-size="9.1px" font-family="'CMUBright-Roman'" style="text-anchor:end;fill:rgb(0,0,0)" transform="rotate(28.1,141.8,289.5)" class="C18"></text>
    <path d="M 219.495,324.407 A262.500,262.500 0.000 0,1 237.942,295.282 L 177.354,251.077 A337.500,337.500 0.000 0,0 153.636,288.524 Z " style="stroke: none;   fill: rgb(179,186,212); " class="C19"/>
    <text x="154.6" y="267.0" font-size="9.1px" font-family="'CMUBright-Roman'" style="text-anchor:end;fill:rgb(0,0,0)" transform="rotate(32.3,154.6,267.0)" class="C19"></text>
    <path d="M 238.082,295.091 A262.500,262.500 0.000 0,1 250.944,278.878 L 194.071,229.986 A337.500,337.500 0.000 0,0 177.534,250.831 Z " style="stroke: none;   fill: rgb(179,186,212); " class="C20"/>
    <text x="175.6" y="236.8" font-size="9.1px" font-family="'CMUBright-Roman'" style="text-anchor:end;fill:rgb(0,0,0)" transform="rotate(38.4,175.6,236.8)" class="C20"></text>
    <path d="M 251.099,278.698 A262.500,262.500 0.000 0,1 261.332,267.488 L 207.427,215.342 A337.500,337.500 0.000 0,0 194.270,229.754 Z " style="stroke: none;   fill: rgb(179,186,212); " class="C21"/>
    <text x="191.0" y="218.3" font-size="9.1px" font-family="'CMUBright-Roman'" style="text-anchor:end;fill:rgb(0,0,0)" transform="rotate(42.4,191.0,218.3)" class="C21"></text>
    <path d="M 261.497,267.318 A262.500,262.500 0.000 0,1 265.380,263.394 L 212.631,210.078 A337.500,337.500 0.000 0,0 207.639,215.123 Z " style="stroke: none;   fill: rgb(179,186,212); " class="C22"/>
    <text x="200.6" y="208.1" font-size="9.1px" font-family="'CMUBright-Roman'" style="text-anchor:end;fill:rgb(0,0,0)" transform="rotate(44.7,200.6,208.1)" class="C22"></text>
    <path d="M 265.549,263.227 A262.500,262.500 0.000 0,1 285.094,245.765 L 237.977,187.412 A337.500,337.500 0.000 0,0 212.849,209.864 Z " style="stroke: none;   fill: rgb(179,186,212); " class="C23"/>
    <text x="215.9" y="193.2" font-size="9.1px" font-family="'CMUBright-Roman'" style="text-anchor:end;fill:rgb(0,0,0)" transform="rotate(48.2,215.9,193.2)" class="C23"></text>
    <path d="M 285.278,245.616 A262.500,262.500 0.000 0,1 287.436,243.895 L 240.990,185.008 A337.500,337.500 0.000 0,0 238.215,187.220 Z " style="stroke: none;   fill: rgb(179,186,212); " class="C25"/>
    <text x="230.6" y="180.5" font-size="9.1px" font-family="'CMUBright-Roman'" style="text-anchor:end;fill:rgb(0,0,0)" transform="rotate(51.4,230.6,180.5)" class="C25"></text>
    <path d="M 287.623,243.748 A262.500,262.500 0.000 0,1 294.208,238.729 L 249.697,178.366 A337.500,337.500 0.000 0,0 241.229,184.819 Z " style="stroke: none;   fill: rgb(179,186,212); " class="C24"/>
    <text x="236.6" y="175.7" font-size="9.1px" font-family="'CMUBright-Roman'" style="text-anchor:end;fill:rgb(0,0,0)" transform="rotate(52.7,236.6,175.7)" class="C24"></text>
    <path d="M 294.399,238.589 A262.500,262.500 0.000 0,1 297.753,236.161 L 254.254,175.064 A337.500,337.500 0.000 0,0 249.942,178.185 Z " style="stroke: none;   fill: rgb(179,186,212); " class="C27"/>
    <text x="243.4" y="170.6" font-size="9.1px" font-family="'CMUBright-Roman'" style="text-anchor:end;fill:rgb(0,0,0)" transform="rotate(54.1,243.4,170.6)" class="C27"></text>
    <path d="M 297.946,236.023 A262.500,262.500 0.000 0,1 339.664,211.815 L 308.139,143.762 A337.500,337.500 0.000 0,0 254.503,174.887 Z " style="stroke: none;   fill: rgb(179,186,212); " class="C26"/>
    <text x="272.6" y="151.2" font-size="9.1px" font-family="'CMUBright-Roman'" style="text-anchor:end;fill:rgb(0,0,0)" transform="rotate(59.9,272.6,151.2)" class="C26"></text>
    <path d="M 339.879,211.715 A262.500,262.500 0.000 0,1 446.765,187.520 L 445.841,112.526 A337.500,337.500 0.000 0,0 308.416,143.634 Z " style="stroke: none;   fill: rgb(179,186,212); " class="C2"/>
    <text x="369.9" y="111.9" font-size="9.1px" font-family="'CMUBright-Roman'" style="text-anchor:end;fill:rgb(0,0,0)" transform="rotate(77.2,369.9,111.9)" class="C2"></text>
    <path d="M 447.003,187.517 A262.500,262.500 0.000 0,1 449.763,187.500 L 449.695,112.500 A337.500,337.500 0.000 0,0 446.146,112.522 Z " style="stroke: none;   fill: rgb(179,186,212); " class="C1"/>
    <text x="444.4" y="102.5" font-size="9.1px" font-family="'CMUBright-Roman'" style="text-anchor:end;fill:rgb(0,0,0)" transform="rotate(89.6,444.4,102.5)" class="C1"></text>
  </g>
  <g id="E108">
    <path d="M 518.195,220.147 A 239.756,239.756 0.00 0,1 520.6,220.9 Q 477.5,439.6 654.4,575.3 A 239.756,239.756 0.00 0,1 644.6,590.0 Q 476.3,441.0 518.2,220.1 Z" style="stroke-width: 1.0;  stroke: rgb(180,180,180); fill: rgb(222,220,70);" opacity="0.5"/>
  </g>
  <g id="E108">
    <path d="M 493.268,214.180 A 239.756,239.756 0.00 0,1 495.7,214.6 Q 432.2,417.9 225.9,364.7 A 239.756,239.756 0.00 0,1 231.8,350.7 Q 432.5,416.5 493.3,214.2 Z" style="stroke-width: 1.0;  stroke: rgb(180,180,180); fill: rgb(222,220,70);" opacity="0.5"/>
    <path d="M 518.195,220.147 A 239.756,239.756 0.00 0,1 520.6,220.9 Q 476.5,441.1 644.5,590.2 A 239.756,239.756 0.00 0,1 635.3,602.2 Q 475.3,442.2 518.2,220.1 Z" style="stroke-width: 1.0;  stroke: rgb(180,180,180); fill: rgb(222,220,70);" opacity="0.5"/>
  </g>
  <g id="E108">
    <path d="M 493.268,214.180 A 239.756,239.756 0.00 0,1 495.7,214.6 Q 431.8,418.9 222.5,374.4 A 239.756,239.756 0.00 0,1 225.9,364.9 Q 431.9,417.9 493.3,214.2 Z" style="stroke-width: 1.0;  stroke: rgb(180,180,180); fill: rgb(222,220,70);" opacity="0.5"/>
  </g>
  <g id="E108">
    <path d="M 244.879,574.130 A 239.756,239.756 0.00 0,1 233.0,551.9 Q 431.4,436.4 480.6,212.2 A 239.756,239.756 0.00 0,1 483.1,212.5 Q 432.8,438.7 244.9,574.1 Z" style="stroke-width: 1.0;  stroke: rgb(180,180,180); fill: rgb(222,220,70);" opacity="0.5"/>
    <path d="M 335.825,660.825 A 239.756,239.756 0.00 0,1 314.3,647.7 Q 450.2,450.1 587.2,253.4 A 239.756,239.756 0.00 0,1 589.3,254.8 Q 452.5,451.6 335.8,660.8 Z" style="stroke-width: 1.0;  stroke: rgb(180,180,180); fill: rgb(222,220,70);" opacity="0.5"/>
    <path d="M 578.199,652.604 A 239.756,239.756 0.00 0,1 556.2,664.9 Q 481.9,460.4 662.6,339.2 A 239.756,239.756 0.00 0,1 663.8,341.5 Q 484.2,459.4 578.2,652.6 Z" style="stroke-width: 1.0;  stroke: rgb(180,180,180); fill: rgb(222,220,70);" opacity="0.5"/>
    <path d="M 635.141,602.334 A 239.756,239.756 0.00 0,1 618.1,620.9 Q 476.0,445.0 542.3,228.7 A 239.756,239.756 0.00 0,1 544.7,229.7 Q 478.0,443.2 635.1,602.3 Z" style="stroke-width: 1.0;  stroke: rgb(180,180,180); fill: rgb(222,220,70);" opacity="0.5"/>
    <path d="M 275.606,614.529 A 239.756,239.756 0.00 0,1 259.3,595.3 Q 442.5,443.5 565.4,239.9 A 239.756,239.756 0.00 0,1 567.6,241.1 Q 444.3,445.6 275.6,614.5 Z" style="stroke-width: 1.0;  stroke: rgb(180,180,180); fill: rgb(222,220,70);" opacity="0.5"/>
    <path d="M 232.892,551.720 A 239.756,239.756 0.00 0,1 223.4,528.4 Q 451.2,460.4 688.4,475.9 A 239.756,239.756 0.00 0,1 688.1,478.4 Q 452.1,463.0 232.9,551.7 Z" style="stroke-width: 1.0;  stroke: rgb(180,180,180); fill: rgb(222,220,70);" opacity="0.5"/>
    <path d="M 214.935,402.803 A 239.756,239.756 0.00 0,1 221.2,378.4 Q 443.8,425.6 616.9,277.8 A 239.756,239.756 0.00 0,1 618.7,279.6 Q 443.4,428.2 214.9,402.8 Z" style="stroke-width: 1.0;  stroke: rgb(180,180,180); fill: rgb(222,220,70);" opacity="0.5"/>
    <path d="M 211.968,478.702 A 239.756,239.756 0.00 0,1 210.3,453.6 Q 431.6,427.0 505.8,216.8 A 239.756,239.756 0.00 0,1 508.3,217.4 Q 432.0,429.6 212.0,478.7 Z" style="stroke-width: 1.0;  stroke: rgb(180,180,180); fill: rgb(143,147,64);" opacity="0.8"/>
    <path d="M 314.150,647.555 A 239.756,239.756 0.00 0,1 294.2,632.2 Q 451.1,451.0 616.9,277.8 A 239.756,239.756 0.00 0,1 618.7,279.6 Q 453.3,452.7 314.1,647.6 Z" style="stroke-width: 1.0;  stroke: rgb(180,180,180); fill: rgb(222,220,70);" opacity="0.5"/>
    <path d="M 259.170,595.145 A 239.756,239.756 0.00 0,1 245.0,574.3 Q 431.3,438.5 467.8,210.9 A 239.756,239.756 0.00 0,1 470.4,211.1 Q 433.0,440.6 259.2,595.1 Z" style="stroke-width: 1.0;  stroke: rgb(180,180,180); fill: rgb(222,220,70);" opacity="0.5"/>
    <path d="M 210.267,453.345 A 239.756,239.756 0.00 0,1 211.2,428.2 Q 441.9,429.7 607.4,269.2 A 239.756,239.756 0.00 0,1 609.3,270.8 Q 442.0,432.4 210.3,453.3 Z" style="stroke-width: 1.0;  stroke: rgb(180,180,180); fill: rgb(222,220,70);" opacity="0.5"/>
    <path d="M 617.977,621.076 A 239.756,239.756 0.00 0,1 599.1,637.8 Q 466.7,444.9 467.8,210.9 A 239.756,239.756 0.00 0,1 470.4,211.1 Q 468.8,443.2 618.0,621.1 Z" style="stroke-width: 1.0;  stroke: rgb(180,180,180); fill: rgb(222,220,70);" opacity="0.5"/>
    <path d="M 598.924,637.895 A 239.756,239.756 0.00 0,1 578.4,652.5 Q 486.8,469.0 689.4,437.4 A 239.756,239.756 0.00 0,1 689.5,440.0 Q 488.8,467.8 598.9,637.9 Z" style="stroke-width: 1.0;  stroke: rgb(180,180,180); fill: rgb(222,220,70);" opacity="0.5"/>
    <path d="M 216.343,503.737 A 239.756,239.756 0.00 0,1 212.0,478.9 Q 434.2,430.3 530.4,224.1 A 239.756,239.756 0.00 0,1 532.8,225.0 Q 434.9,432.9 216.3,503.7 Z" style="stroke-width: 1.0;  stroke: rgb(180,180,180); fill: rgb(222,220,70);" opacity="0.5"/>
    <path d="M 223.344,528.168 A 239.756,239.756 0.00 0,1 216.4,503.9 Q 443.3,438.2 616.9,277.8 A 239.756,239.756 0.00 0,1 618.7,279.6 Q 444.2,440.8 223.3,528.2 Z" style="stroke-width: 1.0;  stroke: rgb(180,180,180); fill: rgb(222,220,70);" opacity="0.5"/>
    <path d="M 532.675,675.051 A 239.756,239.756 0.00 0,1 508.6,682.5 Q 478.2,464.5 673.2,362.6 A 239.756,239.756 0.00 0,1 674.2,364.9 Q 480.7,464.0 532.7,675.1 Z" style="stroke-width: 1.0;  stroke: rgb(180,180,180); fill: rgb(222,220,70);" opacity="0.5"/>
    <path d="M 556.032,665.035 A 239.756,239.756 0.00 0,1 532.9,675.0 Q 475.0,455.3 616.9,277.8 A 239.756,239.756 0.00 0,1 618.7,279.6 Q 477.5,454.5 556.0,665.0 Z" style="stroke-width: 1.0;  stroke: rgb(180,180,180); fill: rgb(222,220,70);" opacity="0.5"/>
    <path d="M 294.002,632.065 A 239.756,239.756 0.00 0,1 275.8,614.7 Q 449.3,449.3 616.9,277.8 A 239.756,239.756 0.00 0,1 618.7,279.6 Q 451.3,451.2 294.0,632.1 Z" style="stroke-width: 1.0;  stroke: rgb(180,180,180); fill: rgb(222,220,70);" opacity="0.5"/>
    <path d="M 211.260,427.950 A 239.756,239.756 0.00 0,1 214.9,403.0 Q 433.3,422.3 518.2,220.1 A 239.756,239.756 0.00 0,1 520.6,220.9 Q 433.2,424.9 211.3,427.9 Z" style="stroke-width: 1.0;  stroke: rgb(180,180,180); fill: rgb(222,220,70);" opacity="0.5"/>
    <path d="M 407.503,685.960 A 239.756,239.756 0.00 0,1 383.0,680.2 Q 460.0,455.8 616.9,277.8 A 239.756,239.756 0.00 0,1 618.7,279.6 Q 462.6,456.6 407.5,686.0 Z" style="stroke-width: 1.0;  stroke: rgb(180,180,180); fill: rgb(222,220,70);" opacity="0.5"/>
    <path d="M 508.388,682.538 A 239.756,239.756 0.00 0,1 483.7,687.4 Q 470.1,456.5 616.9,277.8 A 239.756,239.756 0.00 0,1 618.7,279.6 Q 472.7,456.2 508.4,682.5 Z" style="stroke-width: 1.0;  stroke: rgb(180,180,180); fill: rgb(222,220,70);" opacity="0.5"/>
    <path d="M 382.765,680.136 A 239.756,239.756 0.00 0,1 359.0,671.8 Q 464.8,473.5 689.4,463.1 A 239.756,239.756 0.00 0,1 689.2,465.6 Q 467.2,474.6 382.8,680.1 Z" style="stroke-width: 1.0;  stroke: rgb(180,180,180); fill: rgb(222,220,70);" opacity="0.5"/>
    <path d="M 358.782,671.726 A 239.756,239.756 0.00 0,1 336.0,660.9 Q 459.2,458.9 656.4,328.0 A 239.756,239.756 0.00 0,1 657.7,330.2 Q 461.6,460.2 358.8,671.7 Z" style="stroke-width: 1.0;  stroke: rgb(180,180,180); fill: rgb(222,220,70);" opacity="0.5"/>
    <path d="M 483.446,687.412 A 239.756,239.756 0.00 0,1 458.3,689.6 Q 461.2,452.4 554.0,234.0 A 239.756,239.756 0.00 0,1 556.3,235.1 Q 464.0,452.3 483.4,687.4 Z" style="stroke-width: 1.0;  stroke: rgb(180,180,180); fill: rgb(222,220,70);" opacity="0.5"/>
    <path d="M 458.128,689.618 A 239.756,239.756 0.00 0,1 432.9,689.1 Q 468.3,460.6 649.6,317.2 A 239.756,239.756 0.00 0,1 651.0,319.3 Q 470.9,460.9 458.1,689.6 Z" style="stroke-width: 1.0;  stroke: rgb(180,180,180); fill: rgb(222,220,70);" opacity="0.5"/>
    <path d="M 432.718,689.133 A 239.756,239.756 0.00 0,1 407.7,686.0 Q 450.1,450.0 493.3,214.2 A 239.756,239.756 0.00 0,1 495.7,214.6 Q 452.8,450.4 432.7,689.1 Z" style="stroke-width: 1.0;  stroke: rgb(180,180,180); fill: rgb(222,220,70);" opacity="0.5"/>
  </g>
  <g id="E108">
    <path d="M 686.719,411.957 A 239.756,239.756 0.00 0,1 687.1,414.4 Q 496.5,454.0 677.4,525.9 A 239.756,239.756 0.00 0,1 676.6,528.3 Q 496.3,454.0 686.7,412.0 Z" style="stroke-width: 1.0;  stroke: rgb(180,180,180); fill: rgb(222,220,70);" opacity="0.5"/>
    <path d="M 673.248,362.573 A 239.756,239.756 0.00 0,1 674.2,364.9 Q 489.1,424.3 616.9,277.8 A 239.756,239.756 0.00 0,1 618.7,279.6 Q 489.2,424.2 673.2,362.6 Z" style="stroke-width: 1.0;  stroke: rgb(180,180,180); fill: rgb(222,220,70);" opacity="0.5"/>
    <path d="M 684.236,501.151 A 239.756,239.756 0.00 0,1 683.7,503.6 Q 497.3,454.1 689.4,437.4 A 239.756,239.756 0.00 0,1 689.5,440.0 Q 497.4,454.1 684.2,501.2 Z" style="stroke-width: 1.0;  stroke: rgb(180,180,180); fill: rgb(222,220,70);" opacity="0.5"/>
    <path d="M 530.384,224.121 A 239.756,239.756 0.00 0,1 532.8,225.0 Q 481.9,423.7 686.7,412.0 A 239.756,239.756 0.00 0,1 687.1,414.4 Q 481.7,423.9 530.4,224.1 Z" style="stroke-width: 1.0;  stroke: rgb(180,180,180); fill: rgb(222,220,70);" opacity="0.5"/>
    <path d="M 542.343,228.740 A 239.756,239.756 0.00 0,1 544.7,229.7 Q 461.3,404.1 467.8,210.9 A 239.756,239.756 0.00 0,1 470.4,211.1 Q 461.3,404.0 542.3,228.7 Z" style="stroke-width: 1.0;  stroke: rgb(180,180,180); fill: rgb(222,220,70);" opacity="0.5"/>
    <path d="M 493.268,214.180 A 239.756,239.756 0.00 0,1 495.7,214.6 Q 472.2,410.2 625.8,287.0 A 239.756,239.756 0.00 0,1 627.5,288.9 Q 472.1,410.3 493.3,214.2 Z" style="stroke-width: 1.0;  stroke: rgb(180,180,180); fill: rgb(222,220,70);" opacity="0.5"/>
    <path d="M 689.399,463.076 A 239.756,239.756 0.00 0,1 689.2,465.6 Q 497.8,449.0 688.4,424.7 A 239.756,239.756 0.00 0,1 688.7,427.2 Q 497.8,449.0 689.4,463.1 Z" style="stroke-width: 1.0;  stroke: rgb(180,180,180); fill: rgb(222,220,70);" opacity="0.5"/>
    <path d="M 642.215,306.694 A 239.756,239.756 0.00 0,1 643.7,308.7 Q 492.8,430.8 684.3,399.4 A 239.756,239.756 0.00 0,1 684.9,401.8 Q 492.7,430.9 642.2,306.7 Z" style="stroke-width: 1.0;  stroke: rgb(180,180,180); fill: rgb(222,220,70);" opacity="0.5"/>
    <path d="M 518.195,220.147 A 239.756,239.756 0.00 0,1 520.6,220.9 Q 469.7,406.7 576.5,246.3 A 239.756,239.756 0.00 0,1 578.6,247.7 Q 469.7,406.8 518.2,220.1 Z" style="stroke-width: 1.0;  stroke: rgb(180,180,180); fill: rgb(222,220,70);" opacity="0.5"/>
    <path d="M 576.502,246.333 A 239.756,239.756 0.00 0,1 578.6,247.7 Q 469.7,406.8 518.2,220.1 A 239.756,239.756 0.00 0,1 520.6,220.9 Q 469.7,406.7 576.5,246.3 Z" style="stroke-width: 1.0;  stroke: rgb(180,180,180); fill: rgb(143,147,64);" opacity="0.8"/>
    <path d="M 518.195,220.147 A 239.756,239.756 0.00 0,1 520.6,220.9 Q 469.7,406.7 576.5,246.3 A 239.756,239.756 0.00 0,1 578.6,247.7 Q 469.7,406.8 518.2,220.1 Z" style="stroke-width: 1.0;  stroke: rgb(180,180,180); fill: rgb(143,147,64);" opacity="0.8"/>
    <path d="M 686.636,488.557 A 239.756,239.756 0.00 0,1 686.2,491.0 Q 492.0,438.8 634.3,296.6 A 239.756,239.756 0.00 0,1 635.9,298.6 Q 492.3,438.7 686.6,488.6 Z" style="stroke-width: 1.0;  stroke: rgb(180,180,180); fill: rgb(222,220,70);" opacity="0.5"/>
    <path d="M 634.280,296.625 A 239.756,239.756 0.00 0,1 635.9,298.6 Q 492.3,438.7 686.6,488.6 A 239.756,239.756 0.00 0,1 686.2,491.0 Q 492.0,438.8 634.3,296.6 Z" style="stroke-width: 1.0;  stroke: rgb(180,180,180); fill: rgb(143,147,64);" opacity="0.8"/>
    <path d="M 686.636,488.557 A 239.756,239.756 0.00 0,1 686.2,491.0 Q 492.0,438.8 634.3,296.6 A 239.756,239.756 0.00 0,1 635.9,298.6 Q 492.3,438.7 686.6,488.6 Z" style="stroke-width: 1.0;  stroke: rgb(180,180,180); fill: rgb(143,147,64);" opacity="0.8"/>
    <path d="M 597.521,261.001 A 239.756,239.756 0.00 0,1 599.5,262.6 Q 468.0,407.5 480.6,212.2 A 239.756,239.756 0.00 0,1 483.1,212.5 Q 468.1,407.4 597.5,261.0 Z" style="stroke-width: 1.0;  stroke: rgb(180,180,180); fill: rgb(222,220,70);" opacity="0.5"/>
    <path d="M 662.639,339.240 A 239.756,239.756 0.00 0,1 663.8,341.5 Q 488.1,421.9 616.9,277.8 A 239.756,239.756 0.00 0,1 618.7,279.6 Q 488.1,421.9 662.6,339.2 Z" style="stroke-width: 1.0;  stroke: rgb(180,180,180); fill: rgb(222,220,70);" opacity="0.5"/>
    <path d="M 505.812,216.830 A 239.756,239.756 0.00 0,1 508.3,217.4 Q 471.6,408.7 607.4,269.2 A 239.756,239.756 0.00 0,1 609.3,270.8 Q 471.5,408.8 505.8,216.8 Z" style="stroke-width: 1.0;  stroke: rgb(180,180,180); fill: rgb(222,220,70);" opacity="0.5"/>
    <path d="M 607.413,269.157 A 239.756,239.756 0.00 0,1 609.3,270.8 Q 471.5,408.8 505.8,216.8 A 239.756,239.756 0.00 0,1 508.3,217.4 Q 471.6,408.7 607.4,269.2 Z" style="stroke-width: 1.0;  stroke: rgb(180,180,180); fill: rgb(143,147,64);" opacity="0.8"/>
    <path d="M 505.812,216.830 A 239.756,239.756 0.00 0,1 508.3,217.4 Q 471.6,408.7 607.4,269.2 A 239.756,239.756 0.00 0,1 609.3,270.8 Q 471.5,408.8 505.8,216.8 Z" style="stroke-width: 1.0;  stroke: rgb(180,180,180); fill: rgb(143,147,64);" opacity="0.8"/>
    <path d="M 677.437,525.864 A 239.756,239.756 0.00 0,1 676.6,528.3 Q 494.5,447.9 668.3,350.8 A 239.756,239.756 0.00 0,1 669.3,353.1 Q 494.7,447.9 677.4,525.9 Z" style="stroke-width: 1.0;  stroke: rgb(180,180,180); fill: rgb(222,220,70);" opacity="0.5"/>
    <path d="M 686.636,488.557 A 239.756,239.756 0.00 0,1 686.2,491.0 Q 480.4,431.1 518.2,220.1 A 239.756,239.756 0.00 0,1 520.6,220.9 Q 480.7,430.9 686.6,488.6 Z" style="stroke-width: 1.0;  stroke: rgb(180,180,180); fill: rgb(222,220,70);" opacity="0.5"/>
    <path d="M 518.195,220.147 A 239.756,239.756 0.00 0,1 520.6,220.9 Q 480.7,430.9 686.6,488.6 A 239.756,239.756 0.00 0,1 686.2,491.0 Q 480.4,431.1 518.2,220.1 Z" style="stroke-width: 1.0;  stroke: rgb(180,180,180); fill: rgb(143,147,64);" opacity="0.8"/>
    <path d="M 686.636,488.557 A 239.756,239.756 0.00 0,1 686.2,491.0 Q 480.4,431.1 518.2,220.1 A 239.756,239.756 0.00 0,1 520.6,220.9 Q 480.7,430.9 686.6,488.6 Z" style="stroke-width: 1.0;  stroke: rgb(180,180,180); fill: rgb(143,147,64);" opacity="0.8"/>
    <path d="M 681.167,513.598 A 239.756,239.756 0.00 0,1 680.5,516.0 Q 496.2,450.3 681.3,386.9 A 239.756,239.756 0.00 0,1 682.0,389.3 Q 496.3,450.3 681.2,513.6 Z" style="stroke-width: 1.0;  stroke: rgb(180,180,180); fill: rgb(222,220,70);" opacity="0.5"/>
    <path d="M 662.639,339.240 A 239.756,239.756 0.00 0,1 663.8,341.5 Q 490.6,424.8 642.2,306.7 A 239.756,239.756 0.00 0,1 643.7,308.7 Q 490.6,424.8 662.6,339.2 Z" style="stroke-width: 1.0;  stroke: rgb(180,180,180); fill: rgb(222,220,70);" opacity="0.5"/>
    <path d="M 518.195,220.147 A 239.756,239.756 0.00 0,1 520.6,220.9 Q 473.7,409.9 616.9,277.8 A 239.756,239.756 0.00 0,1 618.7,279.6 Q 473.7,410.0 518.2,220.1 Z" style="stroke-width: 1.0;  stroke: rgb(180,180,180); fill: rgb(222,220,70);" opacity="0.5"/>
    <path d="M 616.854,277.829 A 239.756,239.756 0.00 0,1 618.7,279.6 Q 473.7,410.0 518.2,220.1 A 239.756,239.756 0.00 0,1 520.6,220.9 Q 473.7,409.9 616.9,277.8 Z" style="stroke-width: 1.0;  stroke: rgb(180,180,180); fill: rgb(143,147,64);" opacity="0.8"/>
    <path d="M 518.195,220.147 A 239.756,239.756 0.00 0,1 520.6,220.9 Q 473.7,409.9 616.9,277.8 A 239.756,239.756 0.00 0,1 618.7,279.6 Q 473.7,410.0 518.2,220.1 Z" style="stroke-width: 1.0;  stroke: rgb(180,180,180); fill: rgb(143,147,64);" opacity="0.8"/>
    <path d="M 480.601,212.205 A 239.756,239.756 0.00 0,1 483.1,212.5 Q 477.1,428.8 688.4,475.9 A 239.756,239.756 0.00 0,1 688.1,478.4 Q 476.9,429.1 480.6,212.2 Z" style="stroke-width: 1.0;  stroke: rgb(180,180,180); fill: rgb(222,220,70);" opacity="0.5"/>
    <path d="M 565.435,239.862 A 239.756,239.756 0.00 0,1 567.6,241.1 Q 463.5,405.2 467.8,210.9 A 239.756,239.756 0.00 0,1 470.4,211.1 Q 463.6,405.1 565.4,239.9 Z" style="stroke-width: 1.0;  stroke: rgb(180,180,180); fill: rgb(222,220,70);" opacity="0.5"/>
    <path d="M 656.415,328.033 A 239.756,239.756 0.00 0,1 657.7,330.2 Q 484.5,418.4 587.2,253.4 A 239.756,239.756 0.00 0,1 589.3,254.8 Q 484.6,418.3 656.4,328.0 Z" style="stroke-width: 1.0;  stroke: rgb(180,180,180); fill: rgb(222,220,70);" opacity="0.5"/>
    <path d="M 689.427,437.445 A 239.756,239.756 0.00 0,1 689.5,440.0 Q 495.2,437.9 662.6,339.2 A 239.756,239.756 0.00 0,1 663.8,341.5 Q 495.3,437.9 689.4,437.4 Z" style="stroke-width: 1.0;  stroke: rgb(180,180,180); fill: rgb(222,220,70);" opacity="0.5"/>
    <path d="M 597.521,261.001 A 239.756,239.756 0.00 0,1 599.5,262.6 Q 466.7,407.3 467.8,210.9 A 239.756,239.756 0.00 0,1 470.4,211.1 Q 466.8,407.2 597.5,261.0 Z" style="stroke-width: 1.0;  stroke: rgb(180,180,180); fill: rgb(222,220,70);" opacity="0.5"/>
    <path d="M 642.215,306.694 A 239.756,239.756 0.00 0,1 643.7,308.7 Q 479.8,414.3 554.0,234.0 A 239.756,239.756 0.00 0,1 556.3,235.1 Q 479.9,414.2 642.2,306.7 Z" style="stroke-width: 1.0;  stroke: rgb(180,180,180); fill: rgb(222,220,70);" opacity="0.5"/>
    <path d="M 480.601,212.205 A 239.756,239.756 0.00 0,1 483.1,212.5 Q 476.4,432.6 681.2,513.6 A 239.756,239.756 0.00 0,1 680.5,516.0 Q 476.1,432.8 480.6,212.2 Z" style="stroke-width: 1.0;  stroke: rgb(180,180,180); fill: rgb(222,220,70);" opacity="0.5"/>
    <path d="M 689.427,437.445 A 239.756,239.756 0.00 0,1 689.5,440.0 Q 496.7,441.5 677.6,374.6 A 239.756,239.756 0.00 0,1 678.4,377.0 Q 496.8,441.4 689.4,437.4 Z" style="stroke-width: 1.0;  stroke: rgb(180,180,180); fill: rgb(222,220,70);" opacity="0.5"/>
    <path d="M 689.427,437.445 A 239.756,239.756 0.00 0,1 689.5,440.0 Q 493.9,435.7 649.6,317.2 A 239.756,239.756 0.00 0,1 651.0,319.3 Q 494.0,435.7 689.4,437.4 Z" style="stroke-width: 1.0;  stroke: rgb(180,180,180); fill: rgb(222,220,70);" opacity="0.5"/>
    <path d="M 677.602,374.631 A 239.756,239.756 0.00 0,1 678.4,377.0 Q 477.2,419.1 493.3,214.2 A 239.756,239.756 0.00 0,1 495.7,214.6 Q 477.3,418.9 677.6,374.6 Z" style="stroke-width: 1.0;  stroke: rgb(180,180,180); fill: rgb(222,220,70);" opacity="0.5"/>
    <path d="M 542.343,228.740 A 239.756,239.756 0.00 0,1 544.7,229.7 Q 482.9,433.1 684.2,501.2 A 239.756,239.756 0.00 0,1 683.7,503.6 Q 482.6,433.2 542.3,228.7 Z" style="stroke-width: 1.0;  stroke: rgb(180,180,180); fill: rgb(222,220,70);" opacity="0.5"/>
    <path d="M 689.399,463.076 A 239.756,239.756 0.00 0,1 689.2,465.6 Q 478.3,428.0 493.3,214.2 A 239.756,239.756 0.00 0,1 495.7,214.6 Q 478.5,427.8 689.4,463.1 Z" style="stroke-width: 1.0;  stroke: rgb(180,180,180); fill: rgb(222,220,70);" opacity="0.5"/>
    <path d="M 681.167,513.598 A 239.756,239.756 0.00 0,1 680.5,516.0 Q 489.7,439.4 616.9,277.8 A 239.756,239.756 0.00 0,1 618.7,279.6 Q 490.0,439.3 681.2,513.6 Z" style="stroke-width: 1.0;  stroke: rgb(180,180,180); fill: rgb(222,220,70);" opacity="0.5"/>
    <path d="M 505.812,216.830 A 239.756,239.756 0.00 0,1 508.3,217.4 Q 479.5,430.6 686.6,488.6 A 239.756,239.756 0.00 0,1 686.2,491.0 Q 479.2,430.8 505.8,216.8 Z" style="stroke-width: 1.0;  stroke: rgb(180,180,180); fill: rgb(222,220,70);" opacity="0.5"/>
    <path d="M 686.636,488.557 A 239.756,239.756 0.00 0,1 686.2,491.0 Q 479.2,430.8 505.8,216.8 A 239.756,239.756 0.00 0,1 508.3,217.4 Q 479.5,430.6 686.6,488.6 Z" style="stroke-width: 1.0;  stroke: rgb(180,180,180); fill: rgb(143,147,64);" opacity="0.8"/>
    <path d="M 505.812,216.830 A 239.756,239.756 0.00 0,1 508.3,217.4 Q 479.5,430.6 686.6,488.6 A 239.756,239.756 0.00 0,1 686.2,491.0 Q 479.2,430.8 505.8,216.8 Z" style="stroke-width: 1.0;  stroke: rgb(180,180,180); fill: rgb(143,147,64);" opacity="0.8"/>
    <path d="M 662.639,339.240 A 239.756,239.756 0.00 0,1 663.8,341.5 Q 493.7,430.4 673.2,362.6 A 239.756,239.756 0.00 0,1 674.2,364.9 Q 493.7,430.4 662.6,339.2 Z" style="stroke-width: 1.0;  stroke: rgb(180,180,180); fill: rgb(222,220,70);" opacity="0.5"/>
    <path d="M 493.268,214.180 A 239.756,239.756 0.00 0,1 495.7,214.6 Q 471.3,409.2 616.9,277.8 A 239.756,239.756 0.00 0,1 618.7,279.6 Q 471.2,409.4 493.3,214.2 Z" style="stroke-width: 1.0;  stroke: rgb(180,180,180); fill: rgb(222,220,70);" opacity="0.5"/>
    <path d="M 686.719,411.957 A 239.756,239.756 0.00 0,1 687.1,414.4 Q 479.3,423.1 505.8,216.8 A 239.756,239.756 0.00 0,1 508.3,217.4 Q 479.5,422.9 686.7,412.0 Z" style="stroke-width: 1.0;  stroke: rgb(180,180,180); fill: rgb(222,220,70);" opacity="0.5"/>
    <path d="M 684.236,501.151 A 239.756,239.756 0.00 0,1 683.7,503.6 Q 473.9,431.4 455.0,210.3 A 239.756,239.756 0.00 0,1 457.6,210.4 Q 474.2,431.2 684.2,501.2 Z" style="stroke-width: 1.0;  stroke: rgb(180,180,180); fill: rgb(222,220,70);" opacity="0.5"/>
    <path d="M 565.435,239.862 A 239.756,239.756 0.00 0,1 567.6,241.1 Q 476.5,410.2 597.5,261.0 A 239.756,239.756 0.00 0,1 599.5,262.6 Q 476.5,410.2 565.4,239.9 Z" style="stroke-width: 1.0;  stroke: rgb(180,180,180); fill: rgb(222,220,70);" opacity="0.5"/>
    <path d="M 656.415,328.033 A 239.756,239.756 0.00 0,1 657.7,330.2 Q 493.9,444.4 681.2,513.6 A 239.756,239.756 0.00 0,1 680.5,516.0 Q 493.7,444.4 656.4,328.0 Z" style="stroke-width: 1.0;  stroke: rgb(180,180,180); fill: rgb(222,220,70);" opacity="0.5"/>
    <path d="M 677.602,374.631 A 239.756,239.756 0.00 0,1 678.4,377.0 Q 496.3,437.6 684.3,399.4 A 239.756,239.756 0.00 0,1 684.9,401.8 Q 496.2,437.6 677.6,374.6 Z" style="stroke-width: 1.0;  stroke: rgb(180,180,180); fill: rgb(222,220,70);" opacity="0.5"/>
    <path d="M 689.399,463.076 A 239.756,239.756 0.00 0,1 689.2,465.6 Q 494.6,439.4 656.4,328.0 A 239.756,239.756 0.00 0,1 657.7,330.2 Q 494.7,439.3 689.4,463.1 Z" style="stroke-width: 1.0;  stroke: rgb(180,180,180); fill: rgb(222,220,70);" opacity="0.5"/>
    <path d="M 673.248,362.573 A 239.756,239.756 0.00 0,1 674.2,364.9 Q 496.4,441.5 689.8,450.3 A 239.756,239.756 0.00 0,1 689.7,452.8 Q 496.3,441.5 673.2,362.6 Z" style="stroke-width: 1.0;  stroke: rgb(180,180,180); fill: rgb(222,220,70);" opacity="0.5"/>
  </g>
  <g id="E108"/>
  <g id="plot0">
    <g id="plot0-axis"/>
    <text x="554.6" y="118.6" font-family="'CMUSansSerif-DemiCondensed'" style="fill: rgb(0,0,0); font-size: 13.0px; text-anchor: start" transform="rotate(286.8,554.6,118.6)">N119</text>
    <text x="682.7" y="191.9" font-family="'CMUSansSerif-DemiCondensed'" style="fill: rgb(0,0,0); font-size: 13.0px; text-anchor: start" transform="rotate(311.3,682.7,191.9)">N146</text>
    <text x="536.8" y="113.5" font-family="'CMUSansSerif-DemiCondensed'" style="fill: rgb(0,0,0); font-size: 13.0px; text-anchor: start" transform="rotate(283.8,536.8,113.5)">N147</text>
    <text x="792.0" y="511.9" font-family="'CMUSansSerif-DemiCondensed'" style="fill: rgb(0,0,0); font-size: 13.0px; text-anchor: start" transform="rotate(9.6,792.0,511.9)">N145</text>
    <text x="572.2" y="124.7" font-family="'CMUSansSerif-DemiCondensed'" style="fill: rgb(0,0,0); font-size: 13.0px; text-anchor: start" transform="rotate(289.9,572.2,124.7)">N151</text>
    <text x="794.0" y="400.9" font-family="'CMUSansSerif-DemiCondensed'" style="fill: rgb(0,0,0); font-size: 13.0px; text-anchor: start" transform="rotate(351.2,794.0,400.9)">N150</text>
    <text x="777.7" y="565.7" font-family="'CMUSansSerif-DemiCondensed'" style="fill: rgb(0,0,0); font-size: 13.0px; text-anchor: start" transform="rotate(18.7,777.7,565.7)">N149</text>
    <text x="768.8" y="311.7" font-family="'CMUSansSerif-DemiCondensed'" style="fill: rgb(0,0,0); font-size: 13.0px; text-anchor: start" transform="rotate(335.9,768.8,311.7)">N148</text>
    <text x="794.8" y="493.5" font-family="'CMUSansSerif-DemiCondensed'" style="fill: rgb(0,0,0); font-size: 13.0px; text-anchor: start" transform="rotate(6.5,794.8,493.5)">N153</text>
    <text x="500.4" y="106.2" font-family="'CMUSansSerif-DemiCondensed'" style="fill: rgb(0,0,0); font-size: 13.0px; text-anchor: start" transform="rotate(277.6,500.4,106.2)">N154</text>
    <text x="783.4" y="548.0" font-family="'CMUSansSerif-DemiCondensed'" style="fill: rgb(0,0,0); font-size: 13.0px; text-anchor: start" transform="rotate(15.7,783.4,548.0)">N152</text>
    <text x="786.8" y="364.4" font-family="'CMUSansSerif-DemiCondensed'" style="fill: rgb(0,0,0); font-size: 13.0px; text-anchor: start" transform="rotate(345.0,786.8,364.4)">N100</text>
    <text x="481.9" y="104.0" font-family="'CMUSansSerif-DemiCondensed'" style="fill: rgb(0,0,0); font-size: 13.0px; text-anchor: start" transform="rotate(274.6,481.9,104.0)">N155</text>
    <text x="622.6" y="148.4" font-family="'CMUSansSerif-DemiCondensed'" style="fill: rgb(0,0,0); font-size: 13.0px; text-anchor: start" transform="rotate(299.1,622.6,148.4)">N157</text>
    <text x="668.6" y="179.8" font-family="'CMUSansSerif-DemiCondensed'" style="fill: rgb(0,0,0); font-size: 13.0px; text-anchor: start" transform="rotate(308.3,668.6,179.8)">N156</text>
    <text x="653.8" y="168.5" font-family="'CMUSansSerif-DemiCondensed'" style="fill: rgb(0,0,0); font-size: 13.0px; text-anchor: start" transform="rotate(305.2,653.8,168.5)">N158</text>
    <text x="752.2" y="278.5" font-family="'CMUSansSerif-DemiCondensed'" style="fill: rgb(0,0,0); font-size: 13.0px; text-anchor: start" transform="rotate(329.7,752.2,278.5)">N159</text>
    <text x="796.6" y="475.0" font-family="'CMUSansSerif-DemiCondensed'" style="fill: rgb(0,0,0); font-size: 13.0px; text-anchor: start" transform="rotate(3.4,796.6,475.0)">N162</text>
    <text x="518.7" y="109.4" font-family="'CMUSansSerif-DemiCondensed'" style="fill: rgb(0,0,0); font-size: 13.0px; text-anchor: start" transform="rotate(280.7,518.7,109.4)">N161</text>
    <text x="708.9" y="218.2" font-family="'CMUSansSerif-DemiCondensed'" style="fill: rgb(0,0,0); font-size: 13.0px; text-anchor: start" transform="rotate(317.5,708.9,218.2)">N160</text>
    <text x="742.6" y="262.6" font-family="'CMUSansSerif-DemiCondensed'" style="fill: rgb(0,0,0); font-size: 13.0px; text-anchor: start" transform="rotate(326.7,742.6,262.6)">N164</text>
    <text x="775.7" y="328.9" font-family="'CMUSansSerif-DemiCondensed'" style="fill: rgb(0,0,0); font-size: 13.0px; text-anchor: start" transform="rotate(338.9,775.7,328.9)">N167</text>
    <text x="797.4" y="456.4" font-family="'CMUSansSerif-DemiCondensed'" style="fill: rgb(0,0,0); font-size: 13.0px; text-anchor: start" transform="rotate(0.4,797.4,456.4)">N166</text>
    <text x="760.9" y="294.9" font-family="'CMUSansSerif-DemiCondensed'" style="fill: rgb(0,0,0); font-size: 13.0px; text-anchor: start" transform="rotate(332.8,760.9,294.9)">N168</text>
    <text x="732.2" y="247.2" font-family="'CMUSansSerif-DemiCondensed'" style="fill: rgb(0,0,0); font-size: 13.0px; text-anchor: start" transform="rotate(323.6,732.2,247.2)">N165</text>
    <text x="790.9" y="382.5" font-family="'CMUSansSerif-DemiCondensed'" style="fill: rgb(0,0,0); font-size: 13.0px; text-anchor: start" transform="rotate(348.1,790.9,382.5)">N120</text>
    <text x="797.3" y="437.9" font-family="'CMUSansSerif-DemiCondensed'" style="fill: rgb(0,0,0); font-size: 13.0px; text-anchor: start" transform="rotate(357.3,797.3,437.9)">N169</text>
    <text x="781.7" y="346.5" font-family="'CMUSansSerif-DemiCondensed'" style="fill: rgb(0,0,0); font-size: 13.0px; text-anchor: start" transform="rotate(342.0,781.7,346.5)">N163</text>
    <text x="589.4" y="131.7" font-family="'CMUSansSerif-DemiCondensed'" style="fill: rgb(0,0,0); font-size: 13.0px; text-anchor: start" transform="rotate(293.0,589.4,131.7)">N172</text>
    <text x="788.2" y="530.0" font-family="'CMUSansSerif-DemiCondensed'" style="fill: rgb(0,0,0); font-size: 13.0px; text-anchor: start" transform="rotate(12.6,788.2,530.0)">N171</text>
    <text x="463.4" y="102.8" font-family="'CMUSansSerif-DemiCondensed'" style="fill: rgb(0,0,0); font-size: 13.0px; text-anchor: start" transform="rotate(271.5,463.4,102.8)">N170</text>
    <text x="696.1" y="204.7" font-family="'CMUSansSerif-DemiCondensed'" style="fill: rgb(0,0,0); font-size: 13.0px; text-anchor: start" transform="rotate(314.4,696.1,204.7)">N17</text>
    <text x="638.1" y="157.8" font-family="'CMUSansSerif-DemiCondensed'" style="fill: rgb(0,0,0); font-size: 13.0px; text-anchor: start" transform="rotate(302.1,638.1,157.8)">N74</text>
    <text x="720.9" y="232.4" font-family="'CMUSansSerif-DemiCondensed'" style="fill: rgb(0,0,0); font-size: 13.0px; text-anchor: start" transform="rotate(320.5,720.9,232.4)">N20</text>
    <text x="606.2" y="139.6" font-family="'CMUSansSerif-DemiCondensed'" style="fill: rgb(0,0,0); font-size: 13.0px; text-anchor: start" transform="rotate(296.0,606.2,139.6)">N96</text>
    <text x="737.0" y="645.9" font-family="'CMUSansSerif-DemiCondensed'" style="fill: rgb(0,0,0); font-size: 13.0px; text-anchor: start" transform="rotate(33.6,737.0,645.9)">C10</text>
    <text x="722.8" y="665.3" font-family="'CMUSansSerif-DemiCondensed'" style="fill: rgb(0,0,0); font-size: 13.0px; text-anchor: start" transform="rotate(37.6,722.8,665.3)">C11</text>
    <text x="121.2" y="337.5" font-family="'CMUSansSerif-DemiCondensed'" style="fill: rgb(0,0,0); font-size: 13.0px; text-anchor: end" transform="rotate(19.6,121.2,337.5)">C14</text>
    <text x="127.7" y="320.1" font-family="'CMUSansSerif-DemiCondensed'" style="fill: rgb(0,0,0); font-size: 13.0px; text-anchor: end" transform="rotate(22.7,127.7,320.1)">C15</text>
    <text x="796.1" y="419.3" font-family="'CMUSansSerif-DemiCondensed'" style="fill: rgb(0,0,0); font-size: 13.0px; text-anchor: start" transform="rotate(354.2,796.1,419.3)">N0</text>
  </g>
  <script>function init(evt) {
    $(evt.target).bind('mouseover', doMouseOver);
    $(evt.target).bind('mouseup'  , doMouseUp);
    $(evt.target).bind('mousedown', doMouseDown);
}</script>
</svg>