<svg width="900px" height="900px" version="1.1" onload="init(evt)" xmlns="http://www.w3.org/2000/svg" xmlns:xlink="http://www.w3.org/1999/xlink">
  <g id="ideograms">
    <path d="M 450.000,197.625 A252.375,252.375 0.000 0,1 466.523,198.166 L 471.433,123.327 A327.375,327.375 0.000 0,0 450.000,122.625 Z " style="stroke: none;   fill: rgb(53,100,153); " class="N186"/>
    <text x="464.5" y="112.9" font-size="9.1px" font-family="'CMUBright-Roman'" style="text-anchor:start;fill:rgb(0,0,0)" transform="rotate(271.9,464.5,112.9)" class="N186"></text>
    <path d="M 466.803,198.185 A252.375,252.375 0.000 0,1 483.252,199.825 L 493.134,125.479 A327.375,327.375 0.000 0,0 471.796,123.351 Z " style="stroke: none;   fill: rgb(53,100,153); " class="N309"/>
    <text x="487.0" y="114.7" font-size="9.1px" font-family="'CMUBright-Roman'" style="text-anchor:start;fill:rgb(0,0,0)" transform="rotate(275.7,487.0,114.7)" class="N309"></text>
    <path d="M 483.530,199.862 A252.375,252.375 0.000 0,1 499.835,202.594 L 514.644,129.071 A327.375,327.375 0.000 0,0 493.495,125.527 Z " style="stroke: none;   fill: rgb(53,100,153); " class="N7"/>
    <text x="509.2" y="117.9" font-size="9.1px" font-family="'CMUBright-Roman'" style="text-anchor:start;fill:rgb(0,0,0)" transform="rotate(279.5,509.2,117.9)" class="N7"></text>
    <path d="M 500.110,202.650 A252.375,252.375 0.000 0,1 516.196,206.461 L 535.868,134.087 A327.375,327.375 0.000 0,0 515.001,129.143 Z " style="stroke: none;   fill: rgb(53,100,153); " class="N195"/>
    <text x="531.2" y="122.5" font-size="9.1px" font-family="'CMUBright-Roman'" style="text-anchor:start;fill:rgb(0,0,0)" transform="rotate(283.3,531.2,122.5)" class="N195"></text>
    <path d="M 516.466,206.535 A252.375,252.375 0.000 0,1 532.263,211.408 L 556.710,140.505 A327.375,327.375 0.000 0,0 536.219,134.182 Z " style="stroke: none;   fill: rgb(53,100,153); " class="N316"/>
    <text x="552.8" y="128.7" font-size="9.1px" font-family="'CMUBright-Roman'" style="text-anchor:start;fill:rgb(0,0,0)" transform="rotate(287.1,552.8,128.7)" class="N316"></text>
    <path d="M 532.528,211.500 A252.375,252.375 0.000 0,1 547.965,217.415 L 577.079,148.296 A327.375,327.375 0.000 0,0 557.054,140.623 Z " style="stroke: none;   fill: rgb(53,100,153); " class="N149"/>
    <text x="574.0" y="136.2" font-size="9.1px" font-family="'CMUBright-Roman'" style="text-anchor:start;fill:rgb(0,0,0)" transform="rotate(291.0,574.0,136.2)" class="N149"></text>
    <path d="M 548.224,217.524 A252.375,252.375 0.000 0,1 563.233,224.453 L 596.883,157.426 A327.375,327.375 0.000 0,0 577.414,148.437 Z " style="stroke: none;   fill: rgb(53,100,153); " class="N313"/>
    <text x="594.6" y="145.2" font-size="9.1px" font-family="'CMUBright-Roman'" style="text-anchor:start;fill:rgb(0,0,0)" transform="rotate(294.8,594.6,145.2)" class="N313"></text>
    <path d="M 563.484,224.579 A252.375,252.375 0.000 0,1 577.998,232.492 L 616.036,167.854 A327.375,327.375 0.000 0,0 597.208,157.589 Z " style="stroke: none;   fill: rgb(53,100,153); " class="N314"/>
    <text x="614.6" y="155.5" font-size="9.1px" font-family="'CMUBright-Roman'" style="text-anchor:start;fill:rgb(0,0,0)" transform="rotate(298.6,614.6,155.5)" class="N314"></text>
    <path d="M 578.240,232.635 A252.375,252.375 0.000 0,1 592.195,241.497 L 634.453,179.534 A327.375,327.375 0.000 0,0 616.350,168.039 Z " style="stroke: none;   fill: rgb(53,100,153); " class="N155"/>
    <text x="633.8" y="167.1" font-size="9.1px" font-family="'CMUBright-Roman'" style="text-anchor:start;fill:rgb(0,0,0)" transform="rotate(302.4,633.8,167.1)" class="N155"></text>
    <path d="M 592.427,241.655 A252.375,252.375 0.000 0,1 605.762,251.426 L 652.050,192.415 A327.375,327.375 0.000 0,0 634.753,179.740 Z " style="stroke: none;   fill: rgb(53,100,153); " class="N310"/>
    <text x="652.2" y="180.0" font-size="9.1px" font-family="'CMUBright-Roman'" style="text-anchor:start;fill:rgb(0,0,0)" transform="rotate(306.2,652.2,180.0)" class="N310"></text>
    <path d="M 605.982,251.600 A252.375,252.375 0.000 0,1 618.636,262.237 L 668.751,206.438 A327.375,327.375 0.000 0,0 652.336,192.640 Z " style="stroke: none;   fill: rgb(53,100,153); " class="N318"/>
    <text x="669.8" y="194.0" font-size="9.1px" font-family="'CMUBright-Roman'" style="text-anchor:start;fill:rgb(0,0,0)" transform="rotate(310.1,669.8,194.0)" class="N318"></text>
    <path d="M 618.845,262.425 A252.375,252.375 0.000 0,1 630.763,273.881 L 684.482,221.543 A327.375,327.375 0.000 0,0 669.022,206.682 Z " style="stroke: none;   fill: rgb(53,100,153); " class="N17"/>
    <text x="686.3" y="209.2" font-size="9.1px" font-family="'CMUBright-Roman'" style="text-anchor:start;fill:rgb(0,0,0)" transform="rotate(313.9,686.3,209.2)" class="N17"></text>
    <path d="M 630.959,274.082 A252.375,252.375 0.000 0,1 642.088,286.307 L 699.172,237.661 A327.375,327.375 0.000 0,0 684.736,221.804 Z " style="stroke: none;   fill: rgb(53,100,153); " class="N315"/>
    <text x="701.8" y="225.5" font-size="9.1px" font-family="'CMUBright-Roman'" style="text-anchor:start;fill:rgb(0,0,0)" transform="rotate(317.7,701.8,225.5)" class="N315"></text>
    <path d="M 642.269,286.520 A252.375,252.375 0.000 0,1 652.560,299.459 L 712.756,254.721 A327.375,327.375 0.000 0,0 699.408,237.938 Z " style="stroke: none;   fill: rgb(53,100,153); " class="N319"/>
    <text x="716.2" y="242.7" font-size="9.1px" font-family="'CMUBright-Roman'" style="text-anchor:start;fill:rgb(0,0,0)" transform="rotate(321.5,716.2,242.7)" class="N319"></text>
    <path d="M 652.727,299.684 A252.375,252.375 0.000 0,1 662.133,313.279 L 725.174,272.648 A327.375,327.375 0.000 0,0 712.973,255.013 Z " style="stroke: none;   fill: rgb(53,100,153); " class="N320"/>
    <text x="729.4" y="260.9" font-size="9.1px" font-family="'CMUBright-Roman'" style="text-anchor:start;fill:rgb(0,0,0)" transform="rotate(325.3,729.4,260.9)" class="N320"></text>
    <path d="M 662.285,313.515 A252.375,252.375 0.000 0,1 670.765,327.705 L 736.371,291.362 A327.375,327.375 0.000 0,0 725.371,272.954 Z " style="stroke: none;   fill: rgb(53,100,153); " class="N312"/>
    <text x="741.4" y="280.0" font-size="9.1px" font-family="'CMUBright-Roman'" style="text-anchor:start;fill:rgb(0,0,0)" transform="rotate(329.1,741.4,280.0)" class="N312"></text>
    <path d="M 670.901,327.951 A252.375,252.375 0.000 0,1 678.417,342.675 L 746.297,310.780 A327.375,327.375 0.000 0,0 736.547,291.681 Z " style="stroke: none;   fill: rgb(53,100,153); " class="N196"/>
    <text x="752.1" y="299.7" font-size="9.1px" font-family="'CMUBright-Roman'" style="text-anchor:start;fill:rgb(0,0,0)" transform="rotate(333.0,752.1,299.7)" class="N196"></text>
    <path d="M 678.536,342.929 A252.375,252.375 0.000 0,1 685.056,358.120 L 754.909,330.816 A327.375,327.375 0.000 0,0 746.452,311.109 Z " style="stroke: none;   fill: rgb(53,100,153); " class="N187"/>
    <text x="761.4" y="320.2" font-size="9.1px" font-family="'CMUBright-Roman'" style="text-anchor:start;fill:rgb(0,0,0)" transform="rotate(336.8,761.4,320.2)" class="N187"></text>
    <path d="M 685.158,358.382 A252.375,252.375 0.000 0,1 690.651,373.974 L 762.167,351.380 A327.375,327.375 0.000 0,0 755.041,331.155 Z " style="stroke: none;   fill: rgb(53,100,153); " class="N148"/>
    <text x="769.3" y="341.2" font-size="9.1px" font-family="'CMUBright-Roman'" style="text-anchor:start;fill:rgb(0,0,0)" transform="rotate(340.6,769.3,341.2)" class="N148"></text>
    <path d="M 690.736,374.241 A252.375,252.375 0.000 0,1 695.179,390.164 L 768.041,372.382 A327.375,327.375 0.000 0,0 762.277,351.727 Z " style="stroke: none;   fill: rgb(53,100,153); " class="N161"/>
    <text x="775.9" y="362.7" font-size="9.1px" font-family="'CMUBright-Roman'" style="text-anchor:start;fill:rgb(0,0,0)" transform="rotate(344.4,775.9,362.7)" class="N161"></text>
    <path d="M 695.246,390.437 A252.375,252.375 0.000 0,1 698.619,406.620 L 772.503,393.729 A327.375,327.375 0.000 0,0 768.127,372.736 Z " style="stroke: none;   fill: rgb(53,100,153); " class="N160"/>
    <text x="781.0" y="384.6" font-size="9.1px" font-family="'CMUBright-Roman'" style="text-anchor:start;fill:rgb(0,0,0)" transform="rotate(348.2,781.0,384.6)" class="N160"></text>
    <path d="M 698.667,406.897 A252.375,252.375 0.000 0,1 700.955,423.269 L 775.533,415.325 A327.375,327.375 0.000 0,0 772.565,394.088 Z " style="stroke: none;   fill: rgb(53,100,153); " class="N311"/>
    <text x="784.6" y="406.8" font-size="9.1px" font-family="'CMUBright-Roman'" style="text-anchor:start;fill:rgb(0,0,0)" transform="rotate(352.0,784.6,406.8)" class="N311"></text>
    <path d="M 700.985,423.548 A252.375,252.375 0.000 0,1 702.178,440.036 L 777.120,437.076 A327.375,327.375 0.000 0,0 775.572,415.687 Z " style="stroke: none;   fill: rgb(53,100,153); " class="N170"/>
    <text x="786.7" y="429.1" font-size="9.1px" font-family="'CMUBright-Roman'" style="text-anchor:start;fill:rgb(0,0,0)" transform="rotate(355.9,786.7,429.1)" class="N170"></text>
    <path d="M 702.189,440.317 A252.375,252.375 0.000 0,1 702.282,456.848 L 777.254,458.883 A327.375,327.375 0.000 0,0 777.134,437.439 Z " style="stroke: none;   fill: rgb(53,100,153); " class="N197"/>
    <text x="787.4" y="451.6" font-size="9.1px" font-family="'CMUBright-Roman'" style="text-anchor:start;fill:rgb(0,0,0)" transform="rotate(359.7,787.4,451.6)" class="N197"></text>
    <path d="M 702.274,457.128 A252.375,252.375 0.000 0,1 701.266,473.629 L 775.937,480.651 A327.375,327.375 0.000 0,0 777.244,459.247 Z " style="stroke: none;   fill: rgb(53,100,153); " class="N317"/>
    <text x="786.5" y="474.1" font-size="9.1px" font-family="'CMUBright-Roman'" style="text-anchor:start;fill:rgb(0,0,0)" transform="rotate(3.5,786.5,474.1)" class="N317"></text>
    <path d="M 701.240,473.908 A252.375,252.375 0.000 0,1 699.136,490.305 L 773.173,502.283 A327.375,327.375 0.000 0,0 775.903,481.013 Z " style="stroke: none;   fill: rgb(53,100,153); " class="N198"/>
    <text x="784.2" y="496.4" font-size="9.1px" font-family="'CMUBright-Roman'" style="text-anchor:start;fill:rgb(0,0,0)" transform="rotate(7.3,784.2,496.4)" class="N198"></text>
    <path d="M 709.084,492.210 A262.500,262.500 0.000 0,1 707.889,498.985 L 781.572,512.980 A337.500,337.500 0.000 0,0 783.108,504.271 Z " style="stroke: none;   fill: rgb(179,186,212); " class="C3"/>
    <text x="791.6" y="513.8" font-size="9.1px" font-family="'CMUBright-Roman'" style="text-anchor:start;fill:rgb(0,0,0)" transform="rotate(10.0,791.6,513.8)" class="C3"></text>
    <path d="M 707.834,499.271 A262.500,262.500 0.000 0,1 705.305,511.040 L 778.249,528.480 A337.500,337.500 0.000 0,0 781.501,513.349 Z " style="stroke: none;   fill: rgb(179,186,212); " class="C4"/>
    <text x="789.0" y="526.5" font-size="9.1px" font-family="'CMUBright-Roman'" style="text-anchor:start;fill:rgb(0,0,0)" transform="rotate(12.1,789.0,526.5)" class="C4"></text>
    <path d="M 705.237,511.323 A262.500,262.500 0.000 0,1 703.982,516.328 L 776.548,535.278 A337.500,337.500 0.000 0,0 778.161,528.844 Z " style="stroke: none;   fill: rgb(179,186,212); " class="C6"/>
    <text x="786.2" y="537.9" font-size="9.1px" font-family="'CMUBright-Roman'" style="text-anchor:start;fill:rgb(0,0,0)" transform="rotate(14.1,786.2,537.9)" class="C6"></text>
    <path d="M 703.908,516.610 A262.500,262.500 0.000 0,1 702.550,521.587 L 774.707,542.040 A337.500,337.500 0.000 0,0 776.454,535.641 Z " style="stroke: none;   fill: rgb(179,186,212); " class="C5"/>
    <text x="784.3" y="544.8" font-size="9.1px" font-family="'CMUBright-Roman'" style="text-anchor:start;fill:rgb(0,0,0)" transform="rotate(15.3,784.3,544.8)" class="C5"></text>
    <path d="M 702.471,521.867 A262.500,262.500 0.000 0,1 699.451,531.734 L 770.723,555.086 A337.500,337.500 0.000 0,0 774.605,542.401 Z " style="stroke: none;   fill: rgb(179,186,212); " class="C7"/>
    <text x="781.2" y="555.0" font-size="9.1px" font-family="'CMUBright-Roman'" style="text-anchor:start;fill:rgb(0,0,0)" transform="rotate(17.0,781.2,555.0)" class="C7"></text>
    <path d="M 699.360,532.010 A262.500,262.500 0.000 0,1 693.456,548.160 L 763.015,576.205 A337.500,337.500 0.000 0,0 770.606,555.442 Z " style="stroke: none;   fill: rgb(179,186,212); " class="C8"/>
    <text x="775.2" y="572.6" font-size="9.1px" font-family="'CMUBright-Roman'" style="text-anchor:start;fill:rgb(0,0,0)" transform="rotate(20.1,775.2,572.6)" class="C8"></text>
    <path d="M 693.347,548.430 A262.500,262.500 0.000 0,1 691.366,553.194 L 760.327,582.678 A337.500,337.500 0.000 0,0 762.875,576.553 Z " style="stroke: none;   fill: rgb(179,186,212); " class="C9"/>
    <text x="769.5" y="586.7" font-size="9.1px" font-family="'CMUBright-Roman'" style="text-anchor:start;fill:rgb(0,0,0)" transform="rotate(22.6,769.5,586.7)" class="C9"></text>
    <path d="M 691.251,553.462 A262.500,262.500 0.000 0,1 680.760,575.123 L 746.692,610.873 A337.500,337.500 0.000 0,0 760.180,583.022 Z " style="stroke: none;   fill: rgb(179,186,212); " class="C10"/>
    <text x="761.2" y="604.6" font-size="9.1px" font-family="'CMUBright-Roman'" style="text-anchor:start;fill:rgb(0,0,0)" transform="rotate(25.8,761.2,604.6)" class="C10"></text>
    <path d="M 680.621,575.380 A262.500,262.500 0.000 0,1 670.062,593.105 L 732.937,633.992 A337.500,337.500 0.000 0,0 746.513,611.202 Z " style="stroke: none;   fill: rgb(179,186,212); " class="C11"/>
    <text x="746.7" y="630.8" font-size="9.1px" font-family="'CMUBright-Roman'" style="text-anchor:start;fill:rgb(0,0,0)" transform="rotate(30.8,746.7,630.8)" class="C11"></text>
    <path d="M 669.903,593.349 A262.500,262.500 0.000 0,1 642.420,628.552 L 697.398,679.566 A337.500,337.500 0.000 0,0 732.732,634.306 Z " style="stroke: none;   fill: rgb(179,186,212); " class="C12"/>
    <text x="721.7" y="666.6" font-size="9.1px" font-family="'CMUBright-Roman'" style="text-anchor:start;fill:rgb(0,0,0)" transform="rotate(38.0,721.7,666.6)" class="C12"></text>
    <path d="M 642.222,628.765 A262.500,262.500 0.000 0,1 638.671,632.508 L 692.578,684.654 A337.500,337.500 0.000 0,0 697.142,679.841 Z " style="stroke: none;   fill: rgb(179,186,212); " class="C13"/>
    <text x="699.7" y="691.7" font-size="9.1px" font-family="'CMUBright-Roman'" style="text-anchor:start;fill:rgb(0,0,0)" transform="rotate(43.5,699.7,691.7)" class="C13"></text>
    <path d="M 631.199,625.670 A252.375,252.375 0.000 0,1 621.747,634.922 L 672.787,689.876 A327.375,327.375 0.000 0,0 685.047,677.875 Z " style="stroke: none;   fill: rgb(179,186,212); " class="C14"/>
    <text x="683.5" y="693.5" font-size="9.1px" font-family="'CMUBright-Roman'" style="text-anchor:start;fill:rgb(0,0,0)" transform="rotate(45.6,683.5,693.5)" class="C14"></text>
    <path d="M 621.542,635.112 A252.375,252.375 0.000 0,1 606.474,648.013 L 652.974,706.858 A327.375,327.375 0.000 0,0 672.520,690.123 Z " style="stroke: none;   fill: rgb(179,186,212); " class="C15"/>
    <text x="666.7" y="708.5" font-size="9.1px" font-family="'CMUBright-Roman'" style="text-anchor:start;fill:rgb(0,0,0)" transform="rotate(49.4,666.7,708.5)" class="C15"></text>
    <path d="M 612.523,656.138 A262.500,262.500 0.000 0,1 604.296,662.365 L 648.380,723.041 A337.500,337.500 0.000 0,0 658.958,715.034 Z " style="stroke: none;   fill: rgb(179,186,212); " class="C16"/>
    <text x="656.9" y="729.2" font-size="9.1px" font-family="'CMUBright-Roman'" style="text-anchor:start;fill:rgb(0,0,0)" transform="rotate(52.9,656.9,729.2)" class="C16"></text>
    <path d="M 604.060,662.536 A262.500,262.500 0.000 0,1 598.438,666.500 L 640.849,728.358 A337.500,337.500 0.000 0,0 648.077,723.261 Z " style="stroke: none;   fill: rgb(179,186,212); " class="C17"/>
    <text x="647.4" y="736.0" font-size="9.1px" font-family="'CMUBright-Roman'" style="text-anchor:start;fill:rgb(0,0,0)" transform="rotate(54.8,647.4,736.0)" class="C17"></text>
    <path d="M 598.198,666.665 A262.500,262.500 0.000 0,1 593.911,669.536 L 635.028,732.260 A337.500,337.500 0.000 0,0 640.540,728.569 Z " style="stroke: none;   fill: rgb(179,186,212); " class="C18"/>
    <text x="640.4" y="740.7" font-size="9.1px" font-family="'CMUBright-Roman'" style="text-anchor:start;fill:rgb(0,0,0)" transform="rotate(56.2,640.4,740.7)" class="C18"></text>
    <path d="M 593.667,669.695 A262.500,262.500 0.000 0,1 555.921,690.181 L 586.185,758.804 A337.500,337.500 0.000 0,0 634.714,732.466 Z " style="stroke: none;   fill: rgb(179,186,212); " class="C19"/>
    <text x="612.7" y="757.1" font-size="9.1px" font-family="'CMUBright-Roman'" style="text-anchor:start;fill:rgb(0,0,0)" transform="rotate(61.5,612.7,757.1)" class="C19"></text>
    <path d="M 555.655,690.299 A262.500,262.500 0.000 0,1 531.568,699.505 L 554.873,770.793 A337.500,337.500 0.000 0,0 585.842,758.955 Z " style="stroke: none;   fill: rgb(179,186,212); " class="C20"/>
    <text x="570.8" y="775.8" font-size="9.1px" font-family="'CMUBright-Roman'" style="text-anchor:start;fill:rgb(0,0,0)" transform="rotate(69.1,570.8,775.8)" class="C20"></text>
    <path d="M 531.291,699.596 A262.500,262.500 0.000 0,1 513.108,704.801 L 531.139,777.602 A337.500,337.500 0.000 0,0 554.517,770.909 Z " style="stroke: none;   fill: rgb(179,186,212); " class="C21"/>
    <text x="542.3" y="785.0" font-size="9.1px" font-family="'CMUBright-Roman'" style="text-anchor:start;fill:rgb(0,0,0)" transform="rotate(74.0,542.3,785.0)" class="C21"></text>
    <path d="M 512.825,704.871 A262.500,262.500 0.000 0,1 506.125,706.430 L 522.161,779.695 A337.500,337.500 0.000 0,0 530.775,777.691 Z " style="stroke: none;   fill: rgb(179,186,212); " class="C22"/>
    <text x="525.3" y="789.2" font-size="9.1px" font-family="'CMUBright-Roman'" style="text-anchor:start;fill:rgb(0,0,0)" transform="rotate(76.9,525.3,789.2)" class="C22"></text>
    <path d="M 503.686,696.599 A252.375,252.375 0.000 0,1 471.007,701.499 L 477.249,776.239 A327.375,327.375 0.000 0,0 519.641,769.882 Z " style="stroke: none;   fill: rgb(157,55,110); " class="E268"/>
    <text x="496.6" y="784.1" font-size="9.1px" font-family="'CMUBright-Roman'" style="text-anchor:start;fill:rgb(0,0,0)" transform="rotate(81.5,496.6,784.1)" class="E268"></text>
    <path d="M 470.727,701.522 A252.375,252.375 0.000 0,1 437.686,702.074 L 434.027,776.985 A327.375,327.375 0.000 0,0 476.886,776.269 Z " style="stroke: none;   fill: rgb(157,55,110); " class="E267"/>
    <text x="452.1" y="787.4" font-size="9.1px" font-family="'CMUBright-Roman'" style="text-anchor:start;fill:rgb(0,0,0)" transform="rotate(89.0,452.1,787.4)" class="E267"></text>
    <path d="M 437.406,702.061 A252.375,252.375 0.000 0,1 404.581,698.254 L 391.084,772.030 A327.375,327.375 0.000 0,0 433.664,776.967 Z " style="stroke: none;   fill: rgb(157,55,110); " class="E266"/>
    <text x="414.6" y="785.5" font-size="9.1px" font-family="'CMUBright-Roman'" style="text-anchor:end;fill:rgb(0,0,0)" transform="rotate(-83.4,414.6,785.5)" class="E266"></text>
    <path d="M 404.305,698.204 A252.375,252.375 0.000 0,1 372.267,690.106 L 349.167,761.460 A327.375,327.375 0.000 0,0 390.726,771.964 Z " style="stroke: none;   fill: rgb(157,55,110); " class="E265"/>
    <text x="370.7" y="777.9" font-size="9.1px" font-family="'CMUBright-Roman'" style="text-anchor:end;fill:rgb(0,0,0)" transform="rotate(-75.8,370.7,777.9)" class="E265"></text>
    <path d="M 372.001,690.019 A252.375,252.375 0.000 0,1 341.309,677.771 L 309.009,745.459 A327.375,327.375 0.000 0,0 348.821,761.347 Z " style="stroke: none;   fill: rgb(157,55,110); " class="E264"/>
    <text x="328.2" y="764.6" font-size="9.1px" font-family="'CMUBright-Roman'" style="text-anchor:end;fill:rgb(0,0,0)" transform="rotate(-68.2,328.2,764.6)" class="E264"></text>
    <path d="M 341.056,677.650 A252.375,252.375 0.000 0,1 312.246,661.464 L 271.309,724.306 A327.375,327.375 0.000 0,0 308.681,745.302 Z " style="stroke: none;   fill: rgb(157,55,110); " class="E263"/>
    <text x="287.8" y="745.8" font-size="9.1px" font-family="'CMUBright-Roman'" style="text-anchor:end;fill:rgb(0,0,0)" transform="rotate(-60.7,287.8,745.8)" class="E263"></text>
    <path d="M 312.011,661.311 A252.375,252.375 0.000 0,1 285.585,641.470 L 236.725,698.371 A327.375,327.375 0.000 0,0 271.004,724.108 Z " style="stroke: none;   fill: rgb(157,55,110); " class="E262"/>
    <text x="250.2" y="721.9" font-size="9.1px" font-family="'CMUBright-Roman'" style="text-anchor:end;fill:rgb(0,0,0)" transform="rotate(-53.1,250.2,721.9)" class="E262"></text>
    <path d="M 285.373,641.288 A252.375,252.375 0.000 0,1 261.791,618.138 L 205.860,668.105 A327.375,327.375 0.000 0,0 236.449,698.134 Z " style="stroke: none;   fill: rgb(157,55,110); " class="E261"/>
    <text x="216.2" y="693.2" font-size="9.1px" font-family="'CMUBright-Roman'" style="text-anchor:end;fill:rgb(0,0,0)" transform="rotate(-45.5,216.2,693.2)" class="E261"></text>
    <path d="M 261.604,617.929 A252.375,252.375 0.000 0,1 241.278,591.874 L 179.251,634.036 A327.375,327.375 0.000 0,0 205.617,667.834 Z " style="stroke: none;   fill: rgb(157,55,110); " class="E260"/>
    <text x="186.2" y="660.3" font-size="9.1px" font-family="'CMUBright-Roman'" style="text-anchor:end;fill:rgb(0,0,0)" transform="rotate(-38.0,186.2,660.3)" class="E260"></text>
    <path d="M 241.121,591.642 A252.375,252.375 0.000 0,1 224.405,563.137 L 157.363,596.759 A327.375,327.375 0.000 0,0 179.047,633.735 Z " style="stroke: none;   fill: rgb(157,55,110); " class="E259"/>
    <text x="160.8" y="623.7" font-size="9.1px" font-family="'CMUBright-Roman'" style="text-anchor:end;fill:rgb(0,0,0)" transform="rotate(-30.4,160.8,623.7)" class="E259"></text>
    <path d="M 224.279,562.886 A252.375,252.375 0.000 0,1 211.465,532.427 L 140.578,556.922 A327.375,327.375 0.000 0,0 157.200,596.433 Z " style="stroke: none;   fill: rgb(157,55,110); " class="E258"/>
    <text x="140.4" y="584.0" font-size="9.1px" font-family="'CMUBright-Roman'" style="text-anchor:end;fill:rgb(0,0,0)" transform="rotate(-22.8,140.4,584.0)" class="E258"></text>
    <path d="M 211.373,532.161 A252.375,252.375 0.000 0,1 202.684,500.279 L 129.188,515.221 A327.375,327.375 0.000 0,0 140.459,556.578 Z " style="stroke: none;   fill: rgb(157,55,110); " class="E257"/>
    <text x="125.4" y="542.1" font-size="9.1px" font-family="'CMUBright-Roman'" style="text-anchor:end;fill:rgb(0,0,0)" transform="rotate(-15.2,125.4,542.1)" class="E257"></text>
    <path d="M 202.628,500.004 A252.375,252.375 0.000 0,1 198.216,467.255 L 123.391,472.383 A327.375,327.375 0.000 0,0 129.115,514.864 Z " style="stroke: none;   fill: rgb(157,55,110); " class="E256"/>
    <text x="116.1" y="498.5" font-size="9.1px" font-family="'CMUBright-Roman'" style="text-anchor:end;fill:rgb(0,0,0)" transform="rotate(-7.7,116.1,498.5)" class="E256"></text>
    <path d="M 198.197,466.975 A252.375,252.375 0.000 0,1 198.137,433.930 L 123.289,429.154 A327.375,327.375 0.000 0,0 123.366,472.020 Z " style="stroke: none;   fill: rgb(157,55,110); " class="E255"/>
    <text x="112.6" y="454.1" font-size="9.1px" font-family="'CMUBright-Roman'" style="text-anchor:end;fill:rgb(0,0,0)" transform="rotate(-0.1,112.6,454.1)" class="E255"></text>
    <path d="M 198.155,433.650 A252.375,252.375 0.000 0,1 202.450,400.885 L 128.884,386.290 A327.375,327.375 0.000 0,0 123.313,428.791 Z " style="stroke: none;   fill: rgb(157,55,110); " class="E254"/>
    <text x="115.0" y="409.6" font-size="9.1px" font-family="'CMUBright-Roman'" style="text-anchor:end;fill:rgb(0,0,0)" transform="rotate(7.5,115.0,409.6)" class="E254"></text>
    <path d="M 202.505,400.610 A252.375,252.375 0.000 0,1 211.080,368.697 L 140.078,344.535 A327.375,327.375 0.000 0,0 128.955,385.933 Z " style="stroke: none;   fill: rgb(157,55,110); " class="E253"/>
    <text x="123.3" y="365.8" font-size="9.1px" font-family="'CMUBright-Roman'" style="text-anchor:end;fill:rgb(0,0,0)" transform="rotate(15.0,123.3,365.8)" class="E253"></text>
    <path d="M 211.170,368.431 A252.375,252.375 0.000 0,1 223.875,337.926 L 156.676,304.620 A327.375,327.375 0.000 0,0 140.195,344.191 Z " style="stroke: none;   fill: rgb(157,55,110); " class="E252"/>
    <text x="137.2" y="323.5" font-size="9.1px" font-family="'CMUBright-Roman'" style="text-anchor:end;fill:rgb(0,0,0)" transform="rotate(22.6,137.2,323.5)" class="E252"></text>
    <path d="M 224.000,337.675 A252.375,252.375 0.000 0,1 240.613,309.109 L 178.388,267.240 A327.375,327.375 0.000 0,0 156.838,304.294 Z " style="stroke: none;   fill: rgb(157,55,110); " class="E251"/>
    <text x="156.6" y="283.4" font-size="9.1px" font-family="'CMUBright-Roman'" style="text-anchor:end;fill:rgb(0,0,0)" transform="rotate(30.2,156.6,283.4)" class="E251"></text>
    <path d="M 240.770,308.877 A252.375,252.375 0.000 0,1 261.002,282.749 L 204.836,233.046 A327.375,327.375 0.000 0,0 178.591,266.938 Z " style="stroke: none;   fill: rgb(157,55,110); " class="E250"/>
    <text x="181.1" y="246.2" font-size="9.1px" font-family="'CMUBright-Roman'" style="text-anchor:end;fill:rgb(0,0,0)" transform="rotate(37.8,181.1,246.2)" class="E250"></text>
    <path d="M 253.613,275.821 A262.500,262.500 0.000 0,1 255.912,273.263 L 200.458,222.766 A337.500,337.500 0.000 0,0 197.502,226.055 Z " style="stroke: none;   fill: rgb(179,186,212); " class="C25"/>
    <text x="189.2" y="220.3" font-size="9.1px" font-family="'CMUBright-Roman'" style="text-anchor:end;fill:rgb(0,0,0)" transform="rotate(41.9,189.2,220.3)" class="C25"></text>
    <path d="M 256.108,273.047 A262.500,262.500 0.000 0,1 263.212,265.564 L 209.844,212.868 A337.500,337.500 0.000 0,0 200.711,222.489 Z " style="stroke: none;   fill: rgb(179,186,212); " class="C24"/>
    <text x="195.6" y="213.3" font-size="9.1px" font-family="'CMUBright-Roman'" style="text-anchor:end;fill:rgb(0,0,0)" transform="rotate(43.5,195.6,213.3)" class="C24"></text>
    <path d="M 263.417,265.357 A262.500,262.500 0.000 0,1 267.082,261.726 L 214.820,207.933 A337.500,337.500 0.000 0,0 210.108,212.602 Z " style="stroke: none;   fill: rgb(179,186,212); " class="C27"/>
    <text x="202.9" y="205.6" font-size="9.1px" font-family="'CMUBright-Roman'" style="text-anchor:end;fill:rgb(0,0,0)" transform="rotate(45.3,202.9,205.6)" class="C27"></text>
    <path d="M 267.291,261.523 A262.500,262.500 0.000 0,1 314.914,224.926 L 276.318,160.620 A337.500,337.500 0.000 0,0 215.089,207.672 Z " style="stroke: none;   fill: rgb(179,186,212); " class="C26"/>
    <text x="235.5" y="176.6" font-size="9.1px" font-family="'CMUBright-Roman'" style="text-anchor:end;fill:rgb(0,0,0)" transform="rotate(52.5,235.5,176.6)" class="C26"></text>
    <path d="M 315.164,224.777 A262.500,262.500 0.000 0,1 445.978,187.531 L 444.828,112.540 A337.500,337.500 0.000 0,0 276.640,160.427 Z " style="stroke: none;   fill: rgb(179,186,212); " class="C2"/>
    <text x="351.5" y="116.8" font-size="9.1px" font-family="'CMUBright-Roman'" style="text-anchor:end;fill:rgb(0,0,0)" transform="rotate(74.1,351.5,116.8)" class="C2"></text>
    <path d="M 446.269,187.527 A262.500,262.500 0.000 0,1 449.708,187.500 L 449.625,112.500 A337.500,337.500 0.000 0,0 445.203,112.534 Z " style="stroke: none;   fill: rgb(179,186,212); " class="C1"/>
    <text x="443.8" y="102.6" font-size="9.1px" font-family="'CMUBright-Roman'" style="text-anchor:end;fill:rgb(0,0,0)" transform="rotate(89.6,443.8,102.6)" class="C1"></text>
  </g>
  <g id="E267">
    <path d="M 680.506,384.046 A 239.756,239.756 0.00 0,1 681.4,387.1 Q 489.4,461.3 613.0,625.9 A 239.756,239.756 0.00 0,1 598.7,638.1 Q 487.9,462.2 680.5,384.0 Z" style="stroke-width: 1.0;  stroke: rgb(180,180,180); fill: rgb(222,220,70);" opacity="0.5"/>
  </g>
  <g id="E267">
    <path d="M 680.506,384.046 A 239.756,239.756 0.00 0,1 681.4,387.1 Q 490.3,460.4 622.1,616.9 A 239.756,239.756 0.00 0,1 613.2,625.7 Q 489.4,461.0 680.5,384.0 Z" style="stroke-width: 1.0;  stroke: rgb(180,180,180); fill: rgb(222,220,70);" opacity="0.5"/>
  </g>
  <g id="E267">
    <path d="M 223.305,528.053 A 239.756,239.756 0.00 0,1 215.0,497.8 Q 450.5,454.5 689.7,447.1 A 239.756,239.756 0.00 0,1 689.8,450.2 Q 451.3,457.8 223.3,528.1 Z" style="stroke-width: 1.0;  stroke: rgb(180,180,180); fill: rgb(222,220,70);" opacity="0.5"/>
    <path d="M 214.880,403.080 A 239.756,239.756 0.00 0,1 223.0,372.8 Q 441.3,422.8 590.4,255.7 A 239.756,239.756 0.00 0,1 593.0,257.5 Q 440.8,426.1 214.9,403.1 Z" style="stroke-width: 1.0;  stroke: rgb(180,180,180); fill: rgb(222,220,70);" opacity="0.5"/>
    <path d="M 210.747,434.468 A 239.756,239.756 0.00 0,1 214.8,403.3 Q 439.2,425.0 577.2,246.8 A 239.756,239.756 0.00 0,1 579.8,248.5 Q 439.1,428.3 210.7,434.5 Z" style="stroke-width: 1.0;  stroke: rgb(180,180,180); fill: rgb(222,220,70);" opacity="0.5"/>
    <path d="M 251.231,315.933 A 239.756,239.756 0.00 0,1 270.5,291.1 Q 448.5,416.7 615.0,276.1 A 239.756,239.756 0.00 0,1 617.3,278.2 Q 446.9,419.4 251.2,315.9 Z" style="stroke-width: 1.0;  stroke: rgb(180,180,180); fill: rgb(222,220,70);" opacity="0.5"/>
    <path d="M 406.590,685.794 A 239.756,239.756 0.00 0,1 376.2,678.1 Q 459.1,455.4 615.0,276.1 A 239.756,239.756 0.00 0,1 617.3,278.2 Q 462.4,456.4 406.6,685.8 Z" style="stroke-width: 1.0;  stroke: rgb(180,180,180); fill: rgb(222,220,70);" opacity="0.5"/>
    <path d="M 214.997,497.504 A 239.756,239.756 0.00 0,1 210.8,466.4 Q 431.5,428.3 503.7,216.3 A 239.756,239.756 0.00 0,1 506.8,217.1 Q 432.2,431.5 215.0,497.5 Z" style="stroke-width: 1.0;  stroke: rgb(180,180,180); fill: rgb(222,220,70);" opacity="0.5"/>
    <path d="M 293.604,631.723 A 239.756,239.756 0.00 0,1 271.2,609.7 Q 435.9,442.3 488.1,213.3 A 239.756,239.756 0.00 0,1 491.2,213.8 Q 438.5,444.6 293.6,631.7 Z" style="stroke-width: 1.0;  stroke: rgb(180,180,180); fill: rgb(222,220,70);" opacity="0.5"/>
    <path d="M 501.002,684.269 A 239.756,239.756 0.00 0,1 470.0,688.9 Q 471.6,460.1 646.3,312.3 A 239.756,239.756 0.00 0,1 648.1,314.9 Q 474.9,459.9 501.0,684.3 Z" style="stroke-width: 1.0;  stroke: rgb(180,180,180); fill: rgb(222,220,70);" opacity="0.5"/>
    <path d="M 223.112,372.510 A 239.756,239.756 0.00 0,1 235.2,343.5 Q 450.5,429.8 669.7,354.0 A 239.756,239.756 0.00 0,1 670.9,356.9 Q 449.4,432.9 223.1,372.5 Z" style="stroke-width: 1.0;  stroke: rgb(180,180,180); fill: rgb(222,220,70);" opacity="0.5"/>
    <path d="M 210.787,466.126 A 239.756,239.756 0.00 0,1 210.7,434.7 Q 449.8,445.0 687.2,415.3 A 239.756,239.756 0.00 0,1 687.7,418.4 Q 449.8,448.4 210.8,466.1 Z" style="stroke-width: 1.0;  stroke: rgb(180,180,180); fill: rgb(222,220,70);" opacity="0.5"/>
    <path d="M 346.503,666.267 A 239.756,239.756 0.00 0,1 319.1,650.9 Q 460.9,471.4 689.4,463.0 A 239.756,239.756 0.00 0,1 689.2,466.2 Q 463.6,473.2 346.5,666.3 Z" style="stroke-width: 1.0;  stroke: rgb(180,180,180); fill: rgb(222,220,70);" opacity="0.5"/>
    <path d="M 235.300,343.291 A 239.756,239.756 0.00 0,1 251.1,316.2 Q 453.2,430.0 680.5,384.0 A 239.756,239.756 0.00 0,1 681.4,387.1 Q 451.7,433.0 235.3,343.3 Z" style="stroke-width: 1.0;  stroke: rgb(180,180,180); fill: rgb(222,220,70);" opacity="0.5"/>
    <path d="M 438.036,689.458 A 239.756,239.756 0.00 0,1 406.9,685.8 Q 468.7,467.0 680.5,384.0 A 239.756,239.756 0.00 0,1 681.4,387.1 Q 471.9,467.7 438.0,689.5 Z" style="stroke-width: 1.0;  stroke: rgb(180,180,180); fill: rgb(222,220,70);" opacity="0.5"/>
    <path d="M 271.024,609.533 A 239.756,239.756 0.00 0,1 251.7,584.8 Q 440.1,441.6 549.1,231.7 A 239.756,239.756 0.00 0,1 551.9,233.0 Q 442.3,444.3 271.0,609.5 Z" style="stroke-width: 1.0;  stroke: rgb(180,180,180); fill: rgb(222,220,70);" opacity="0.5"/>
    <path d="M 469.691,688.946 A 239.756,239.756 0.00 0,1 438.3,689.5 Q 467.5,458.9 636.7,299.5 A 239.756,239.756 0.00 0,1 638.6,302.0 Q 470.8,459.1 469.7,688.9 Z" style="stroke-width: 1.0;  stroke: rgb(180,180,180); fill: rgb(143,147,64);" opacity="0.8"/>
    <path d="M 235.565,557.242 A 239.756,239.756 0.00 0,1 223.4,528.3 Q 451.1,460.7 688.0,479.0 A 239.756,239.756 0.00 0,1 687.6,482.1 Q 452.3,463.9 235.6,557.2 Z" style="stroke-width: 1.0;  stroke: rgb(180,180,180); fill: rgb(222,220,70);" opacity="0.5"/>
    <path d="M 375.901,678.018 A 239.756,239.756 0.00 0,1 346.7,666.4 Q 455.0,453.2 603.1,265.5 A 239.756,239.756 0.00 0,1 605.5,267.5 Q 458.1,454.6 375.9,678.0 Z" style="stroke-width: 1.0;  stroke: rgb(180,180,180); fill: rgb(222,220,70);" opacity="0.5"/>
    <path d="M 251.565,584.560 A 239.756,239.756 0.00 0,1 235.7,557.5 Q 449.1,448.3 655.0,325.7 A 239.756,239.756 0.00 0,1 656.6,328.4 Q 450.8,451.3 251.6,584.6 Z" style="stroke-width: 1.0;  stroke: rgb(180,180,180); fill: rgb(222,220,70);" opacity="0.5"/>
    <path d="M 318.911,650.745 A 239.756,239.756 0.00 0,1 293.8,631.9 Q 447.1,447.9 577.2,246.8 A 239.756,239.756 0.00 0,1 579.8,248.5 Q 449.9,449.9 318.9,650.7 Z" style="stroke-width: 1.0;  stroke: rgb(180,180,180); fill: rgb(222,220,70);" opacity="0.5"/>
  </g>
  <g id="E267">
    <path d="M 549.068,231.669 A 239.756,239.756 0.00 0,1 551.9,233.0 Q 480.7,415.9 655.0,325.7 A 239.756,239.756 0.00 0,1 656.6,328.4 Q 480.6,416.0 549.1,231.7 Z" style="stroke-width: 1.0;  stroke: rgb(180,180,180); fill: rgb(222,220,70);" opacity="0.5"/>
    <path d="M 603.071,265.467 A 239.756,239.756 0.00 0,1 605.5,267.5 Q 483.2,415.5 626.2,287.4 A 239.756,239.756 0.00 0,1 628.3,289.8 Q 483.1,415.5 603.1,265.5 Z" style="stroke-width: 1.0;  stroke: rgb(180,180,180); fill: rgb(222,220,70);" opacity="0.5"/>
    <path d="M 626.231,287.440 A 239.756,239.756 0.00 0,1 628.3,289.8 Q 479.2,412.9 563.4,238.7 A 239.756,239.756 0.00 0,1 566.1,240.3 Q 479.2,412.8 626.2,287.4 Z" style="stroke-width: 1.0;  stroke: rgb(180,180,180); fill: rgb(222,220,70);" opacity="0.5"/>
    <path d="M 519.182,220.442 A 239.756,239.756 0.00 0,1 522.2,221.4 Q 469.9,406.8 577.2,246.8 A 239.756,239.756 0.00 0,1 579.8,248.5 Q 469.9,406.9 519.2,220.4 Z" style="stroke-width: 1.0;  stroke: rgb(180,180,180); fill: rgb(222,220,70);" opacity="0.5"/>
    <path d="M 603.071,265.467 A 239.756,239.756 0.00 0,1 605.5,267.5 Q 489.5,433.1 689.4,463.0 A 239.756,239.756 0.00 0,1 689.2,466.2 Q 489.2,433.2 603.1,265.5 Z" style="stroke-width: 1.0;  stroke: rgb(180,180,180); fill: rgb(222,220,70);" opacity="0.5"/>
    <path d="M 646.266,312.295 A 239.756,239.756 0.00 0,1 648.1,314.9 Q 488.5,421.4 636.7,299.5 A 239.756,239.756 0.00 0,1 638.6,302.0 Q 488.5,421.4 646.3,312.3 Z" style="stroke-width: 1.0;  stroke: rgb(180,180,180); fill: rgb(222,220,70);" opacity="0.5"/>
    <path d="M 626.231,287.440 A 239.756,239.756 0.00 0,1 628.3,289.8 Q 471.6,410.3 488.1,213.3 A 239.756,239.756 0.00 0,1 491.2,213.8 Q 471.7,410.1 626.2,287.4 Z" style="stroke-width: 1.0;  stroke: rgb(180,180,180); fill: rgb(222,220,70);" opacity="0.5"/>
    <path d="M 472.225,211.276 A 239.756,239.756 0.00 0,1 475.4,211.6 Q 461.0,403.7 534.3,225.6 A 239.756,239.756 0.00 0,1 537.2,226.7 Q 460.9,403.8 472.2,211.3 Z" style="stroke-width: 1.0;  stroke: rgb(180,180,180); fill: rgb(222,220,70);" opacity="0.5"/>
    <path d="M 689.738,447.082 A 239.756,239.756 0.00 0,1 689.8,450.2 Q 479.4,426.7 503.7,216.3 A 239.756,239.756 0.00 0,1 506.8,217.1 Q 479.7,426.4 689.7,447.1 Z" style="stroke-width: 1.0;  stroke: rgb(180,180,180); fill: rgb(222,220,70);" opacity="0.5"/>
    <path d="M 646.266,312.295 A 239.756,239.756 0.00 0,1 648.1,314.9 Q 470.4,412.5 456.3,210.3 A 239.756,239.756 0.00 0,1 459.4,210.4 Q 470.6,412.3 646.3,312.3 Z" style="stroke-width: 1.0;  stroke: rgb(180,180,180); fill: rgb(222,220,70);" opacity="0.5"/>
    <path d="M 680.506,384.046 A 239.756,239.756 0.00 0,1 681.4,387.1 Q 496.6,438.7 684.4,399.5 A 239.756,239.756 0.00 0,1 685.0,402.6 Q 496.6,438.7 680.5,384.0 Z" style="stroke-width: 1.0;  stroke: rgb(180,180,180); fill: rgb(222,220,70);" opacity="0.5"/>
    <path d="M 669.700,354.006 A 239.756,239.756 0.00 0,1 670.9,356.9 Q 472.7,416.7 456.3,210.3 A 239.756,239.756 0.00 0,1 459.4,210.4 Q 472.9,416.4 669.7,354.0 Z" style="stroke-width: 1.0;  stroke: rgb(180,180,180); fill: rgb(222,220,70);" opacity="0.5"/>
    <path d="M 689.738,447.082 A 239.756,239.756 0.00 0,1 689.8,450.2 Q 495.3,439.0 662.8,339.6 A 239.756,239.756 0.00 0,1 664.3,342.4 Q 495.4,438.9 689.7,447.1 Z" style="stroke-width: 1.0;  stroke: rgb(180,180,180); fill: rgb(222,220,70);" opacity="0.5"/>
    <path d="M 549.068,231.669 A 239.756,239.756 0.00 0,1 551.9,233.0 Q 483.9,424.8 687.2,415.3 A 239.756,239.756 0.00 0,1 687.7,418.4 Q 483.7,425.0 549.1,231.7 Z" style="stroke-width: 1.0;  stroke: rgb(180,180,180); fill: rgb(222,220,70);" opacity="0.5"/>
    <path d="M 680.506,384.046 A 239.756,239.756 0.00 0,1 681.4,387.1 Q 489.6,426.3 615.0,276.1 A 239.756,239.756 0.00 0,1 617.3,278.2 Q 489.8,426.2 680.5,384.0 Z" style="stroke-width: 1.0;  stroke: rgb(180,180,180); fill: rgb(222,220,70);" opacity="0.5"/>
    <path d="M 534.312,225.557 A 239.756,239.756 0.00 0,1 537.2,226.7 Q 481.3,419.6 675.6,368.8 A 239.756,239.756 0.00 0,1 676.6,371.8 Q 481.1,419.7 534.3,225.6 Z" style="stroke-width: 1.0;  stroke: rgb(180,180,180); fill: rgb(222,220,70);" opacity="0.5"/>
    <path d="M 472.225,211.276 A 239.756,239.756 0.00 0,1 475.4,211.6 Q 474.5,416.6 669.7,354.0 A 239.756,239.756 0.00 0,1 670.9,356.9 Q 474.3,416.8 472.2,211.3 Z" style="stroke-width: 1.0;  stroke: rgb(180,180,180); fill: rgb(222,220,70);" opacity="0.5"/>
    <path d="M 689.401,463.050 A 239.756,239.756 0.00 0,1 689.2,466.2 Q 480.8,428.7 519.2,220.4 A 239.756,239.756 0.00 0,1 522.2,221.4 Q 481.2,428.4 689.4,463.0 Z" style="stroke-width: 1.0;  stroke: rgb(180,180,180); fill: rgb(222,220,70);" opacity="0.5"/>
    <path d="M 687.225,415.256 A 239.756,239.756 0.00 0,1 687.7,418.4 Q 486.5,426.5 577.2,246.8 A 239.756,239.756 0.00 0,1 579.8,248.5 Q 486.7,426.4 687.2,415.3 Z" style="stroke-width: 1.0;  stroke: rgb(180,180,180); fill: rgb(222,220,70);" opacity="0.5"/>
    <path d="M 456.282,210.326 A 239.756,239.756 0.00 0,1 459.4,210.4 Q 474.8,424.2 689.0,431.1 A 239.756,239.756 0.00 0,1 689.2,434.3 Q 474.6,424.5 456.3,210.3 Z" style="stroke-width: 1.0;  stroke: rgb(180,180,180); fill: rgb(222,220,70);" opacity="0.5"/>
    <path d="M 590.446,255.686 A 239.756,239.756 0.00 0,1 593.0,257.5 Q 466.5,406.9 472.2,211.3 A 239.756,239.756 0.00 0,1 475.4,211.6 Q 466.6,406.7 590.4,255.7 Z" style="stroke-width: 1.0;  stroke: rgb(180,180,180); fill: rgb(222,220,70);" opacity="0.5"/>
    <path d="M 654.999,325.668 A 239.756,239.756 0.00 0,1 656.6,328.4 Q 494.6,437.5 689.7,447.1 A 239.756,239.756 0.00 0,1 689.8,450.2 Q 494.5,437.6 655.0,325.7 Z" style="stroke-width: 1.0;  stroke: rgb(180,180,180); fill: rgb(222,220,70);" opacity="0.5"/>
    <path d="M 456.282,210.326 A 239.756,239.756 0.00 0,1 459.4,210.4 Q 474.0,419.4 680.5,384.0 A 239.756,239.756 0.00 0,1 681.4,387.1 Q 473.8,419.7 456.3,210.3 Z" style="stroke-width: 1.0;  stroke: rgb(180,180,180); fill: rgb(222,220,70);" opacity="0.5"/>
    <path d="M 519.182,220.442 A 239.756,239.756 0.00 0,1 522.2,221.4 Q 469.9,406.8 577.2,246.8 A 239.756,239.756 0.00 0,1 579.8,248.5 Q 469.9,406.9 519.2,220.4 Z" style="stroke-width: 1.0;  stroke: rgb(180,180,180); fill: rgb(222,220,70);" opacity="0.5"/>
    <path d="M 654.999,325.668 A 239.756,239.756 0.00 0,1 656.6,328.4 Q 494.5,440.7 688.0,479.0 A 239.756,239.756 0.00 0,1 687.6,482.1 Q 494.3,440.8 655.0,325.7 Z" style="stroke-width: 1.0;  stroke: rgb(180,180,180); fill: rgb(222,220,70);" opacity="0.5"/>
  </g>
  <g id="E267"/>
  <g id="plot0">
    <g id="plot0-axis"/>
    <text x="785.8" y="360.7" font-family="'CMUSansSerif-DemiCondensed'" style="fill: rgb(0,0,0); font-size: 13.0px; text-anchor: start" transform="rotate(344.4,785.8,360.7)">N161</text>
    <text x="791.0" y="383.2" font-family="'CMUSansSerif-DemiCondensed'" style="fill: rgb(0,0,0); font-size: 13.0px; text-anchor: start" transform="rotate(348.2,791.0,383.2)">N160</text>
    <text x="771.0" y="316.9" font-family="'CMUSansSerif-DemiCondensed'" style="fill: rgb(0,0,0); font-size: 13.0px; text-anchor: start" transform="rotate(336.8,771.0,316.9)">N187</text>
    <text x="465.6" y="102.9" font-family="'CMUSansSerif-DemiCondensed'" style="fill: rgb(0,0,0); font-size: 13.0px; text-anchor: start" transform="rotate(271.9,465.6,102.9)">N186</text>
    <text x="796.9" y="429.1" font-family="'CMUSansSerif-DemiCondensed'" style="fill: rgb(0,0,0); font-size: 13.0px; text-anchor: start" transform="rotate(355.9,796.9,429.1)">N170</text>
    <text x="658.8" y="172.2" font-family="'CMUSansSerif-DemiCondensed'" style="fill: rgb(0,0,0); font-size: 13.0px; text-anchor: start" transform="rotate(306.2,658.8,172.2)">N310</text>
    <text x="488.7" y="104.7" font-family="'CMUSansSerif-DemiCondensed'" style="fill: rgb(0,0,0); font-size: 13.0px; text-anchor: start" transform="rotate(275.7,488.7,104.7)">N309</text>
    <text x="578.3" y="127.0" font-family="'CMUSansSerif-DemiCondensed'" style="fill: rgb(0,0,0); font-size: 13.0px; text-anchor: start" transform="rotate(291.0,578.3,127.0)">N149</text>
    <text x="779.1" y="338.5" font-family="'CMUSansSerif-DemiCondensed'" style="fill: rgb(0,0,0); font-size: 13.0px; text-anchor: start" transform="rotate(340.6,779.1,338.5)">N148</text>
    <text x="639.8" y="158.9" font-family="'CMUSansSerif-DemiCondensed'" style="fill: rgb(0,0,0); font-size: 13.0px; text-anchor: start" transform="rotate(302.4,639.8,158.9)">N155</text>
    <text x="794.7" y="406.1" font-family="'CMUSansSerif-DemiCondensed'" style="fill: rgb(0,0,0); font-size: 13.0px; text-anchor: start" transform="rotate(352.0,794.7,406.1)">N311</text>
    <text x="534.2" y="112.9" font-family="'CMUSansSerif-DemiCondensed'" style="fill: rgb(0,0,0); font-size: 13.0px; text-anchor: start" transform="rotate(283.3,534.2,112.9)">N195</text>
    <text x="797.5" y="452.3" font-family="'CMUSansSerif-DemiCondensed'" style="fill: rgb(0,0,0); font-size: 13.0px; text-anchor: start" transform="rotate(359.7,797.5,452.3)">N197</text>
    <text x="761.4" y="295.8" font-family="'CMUSansSerif-DemiCondensed'" style="fill: rgb(0,0,0); font-size: 13.0px; text-anchor: start" transform="rotate(333.0,761.4,295.8)">N196</text>
    <text x="794.1" y="498.4" font-family="'CMUSansSerif-DemiCondensed'" style="fill: rgb(0,0,0); font-size: 13.0px; text-anchor: start" transform="rotate(7.3,794.1,498.4)">N198</text>
    <text x="750.4" y="275.4" font-family="'CMUSansSerif-DemiCondensed'" style="fill: rgb(0,0,0); font-size: 13.0px; text-anchor: start" transform="rotate(329.1,750.4,275.4)">N312</text>
    <text x="599.5" y="136.3" font-family="'CMUSansSerif-DemiCondensed'" style="fill: rgb(0,0,0); font-size: 13.0px; text-anchor: start" transform="rotate(294.8,599.5,136.3)">N313</text>
    <text x="796.6" y="475.4" font-family="'CMUSansSerif-DemiCondensed'" style="fill: rgb(0,0,0); font-size: 13.0px; text-anchor: start" transform="rotate(3.5,796.6,475.4)">N317</text>
    <text x="556.5" y="119.2" font-family="'CMUSansSerif-DemiCondensed'" style="fill: rgb(0,0,0); font-size: 13.0px; text-anchor: start" transform="rotate(287.1,556.5,119.2)">N316</text>
    <text x="676.8" y="186.7" font-family="'CMUSansSerif-DemiCondensed'" style="fill: rgb(0,0,0); font-size: 13.0px; text-anchor: start" transform="rotate(310.1,676.8,186.7)">N318</text>
    <text x="709.8" y="219.2" font-family="'CMUSansSerif-DemiCondensed'" style="fill: rgb(0,0,0); font-size: 13.0px; text-anchor: start" transform="rotate(317.7,709.8,219.2)">N315</text>
    <text x="620.0" y="146.9" font-family="'CMUSansSerif-DemiCondensed'" style="fill: rgb(0,0,0); font-size: 13.0px; text-anchor: start" transform="rotate(298.6,620.0,146.9)">N314</text>
    <text x="724.6" y="237.0" font-family="'CMUSansSerif-DemiCondensed'" style="fill: rgb(0,0,0); font-size: 13.0px; text-anchor: start" transform="rotate(321.5,724.6,237.0)">N319</text>
    <text x="738.2" y="255.8" font-family="'CMUSansSerif-DemiCondensed'" style="fill: rgb(0,0,0); font-size: 13.0px; text-anchor: start" transform="rotate(325.3,738.2,255.8)">N320</text>
    <text x="693.9" y="202.4" font-family="'CMUSansSerif-DemiCondensed'" style="fill: rgb(0,0,0); font-size: 13.0px; text-anchor: start" transform="rotate(313.9,693.9,202.4)">N17</text>
    <text x="690.0" y="701.3" font-family="'CMUSansSerif-DemiCondensed'" style="fill: rgb(0,0,0); font-size: 13.0px; text-anchor: start" transform="rotate(45.6,690.0,701.3)">C14</text>
    <text x="672.8" y="716.7" font-family="'CMUSansSerif-DemiCondensed'" style="fill: rgb(0,0,0); font-size: 13.0px; text-anchor: start" transform="rotate(49.4,672.8,716.7)">C15</text>
    <text x="511.2" y="107.9" font-family="'CMUSansSerif-DemiCondensed'" style="fill: rgb(0,0,0); font-size: 13.0px; text-anchor: start" transform="rotate(279.5,511.2,107.9)">N7</text>
  </g>
  <script>function init(evt) {
    $(evt.target).bind('mouseover', doMouseOver);
    $(evt.target).bind('mouseup'  , doMouseUp);
    $(evt.target).bind('mousedown', doMouseDown);
}</script>
</svg>