<svg width="900px" height="900px" version="1.1" onload="init(evt)" xmlns="http://www.w3.org/2000/svg" xmlns:xlink="http://www.w3.org/1999/xlink">
  <g id="ideograms">
    <path d="M 450.000,197.625 A252.375,252.375 0.000 0,1 484.444,199.987 L 494.681,125.688 A327.375,327.375 0.000 0,0 450.000,122.625 Z " style="stroke: none;   fill: rgb(53,100,153); " class="N361"/>
    <text x="476.6" y="113.7" font-size="9.1px" font-family="'CMUBright-Roman'" style="text-anchor:start;fill:rgb(0,0,0)" transform="rotate(273.9,476.6,113.7)" class="N361"></text>
    <path d="M 485.009,200.065 A252.375,252.375 0.000 0,1 518.793,207.182 L 539.236,135.022 A327.375,327.375 0.000 0,0 495.413,125.790 Z " style="stroke: none;   fill: rgb(53,100,153); " class="N364"/>
    <text x="523.0" y="120.6" font-size="9.1px" font-family="'CMUBright-Roman'" style="text-anchor:start;fill:rgb(0,0,0)" transform="rotate(281.9,523.0,120.6)" class="N364"></text>
    <path d="M 519.341,207.338 A252.375,252.375 0.000 0,1 551.811,219.072 L 582.067,150.446 A327.375,327.375 0.000 0,0 539.947,135.224 Z " style="stroke: none;   fill: rgb(53,100,153); " class="N359"/>
    <text x="568.0" y="133.9" font-size="9.1px" font-family="'CMUBright-Roman'" style="text-anchor:start;fill:rgb(0,0,0)" transform="rotate(289.9,568.0,133.9)" class="N359"></text>
    <path d="M 552.332,219.303 A252.375,252.375 0.000 0,1 582.861,235.428 L 622.344,171.662 A327.375,327.375 0.000 0,0 582.743,150.745 Z " style="stroke: none;   fill: rgb(53,100,153); " class="N360"/>
    <text x="610.7" y="153.3" font-size="9.1px" font-family="'CMUBright-Roman'" style="text-anchor:start;fill:rgb(0,0,0)" transform="rotate(297.8,610.7,153.3)" class="N360"></text>
    <path d="M 583.345,235.728 A252.375,252.375 0.000 0,1 611.341,255.932 L 659.288,198.260 A327.375,327.375 0.000 0,0 622.972,172.052 Z " style="stroke: none;   fill: rgb(53,100,153); " class="N344"/>
    <text x="650.3" y="178.5" font-size="9.1px" font-family="'CMUBright-Roman'" style="text-anchor:start;fill:rgb(0,0,0)" transform="rotate(305.8,650.3,178.5)" class="N344"></text>
    <path d="M 611.779,256.297 A252.375,252.375 0.000 0,1 636.702,280.190 L 692.185,229.726 A327.375,327.375 0.000 0,0 659.856,198.733 Z " style="stroke: none;   fill: rgb(53,100,153); " class="N363"/>
    <text x="686.0" y="208.9" font-size="9.1px" font-family="'CMUBright-Roman'" style="text-anchor:start;fill:rgb(0,0,0)" transform="rotate(313.8,686.0,208.9)" class="N363"></text>
    <path d="M 637.085,280.612 A252.375,252.375 0.000 0,1 658.453,307.730 L 720.400,265.451 A327.375,327.375 0.000 0,0 692.682,230.273 Z " style="stroke: none;   fill: rgb(53,100,153); " class="N362"/>
    <text x="717.1" y="244.0" font-size="9.1px" font-family="'CMUBright-Roman'" style="text-anchor:start;fill:rgb(0,0,0)" transform="rotate(321.8,717.1,244.0)" class="N362"></text>
    <path d="M 667.149,302.513 A262.500,262.500 0.000 0,1 674.896,314.620 L 739.153,275.939 A337.500,337.500 0.000 0,0 729.192,260.373 Z " style="stroke: none;   fill: rgb(179,186,212); " class="C3"/>
    <text x="744.6" y="265.7" font-size="9.1px" font-family="'CMUBright-Roman'" style="text-anchor:start;fill:rgb(0,0,0)" transform="rotate(327.4,744.6,265.7)" class="C3"></text>
    <path d="M 675.201,315.127 A262.500,262.500 0.000 0,1 687.074,337.295 L 754.809,305.094 A337.500,337.500 0.000 0,0 739.544,276.592 Z " style="stroke: none;   fill: rgb(179,186,212); " class="C4"/>
    <text x="758.0" y="289.0" font-size="9.1px" font-family="'CMUBright-Roman'" style="text-anchor:start;fill:rgb(0,0,0)" transform="rotate(331.8,758.0,289.0)" class="C4"></text>
    <path d="M 687.327,337.830 A262.500,262.500 0.000 0,1 691.733,347.670 L 760.800,318.433 A337.500,337.500 0.000 0,0 755.135,305.782 Z " style="stroke: none;   fill: rgb(179,186,212); " class="C6"/>
    <text x="768.6" y="311.2" font-size="9.1px" font-family="'CMUBright-Roman'" style="text-anchor:start;fill:rgb(0,0,0)" transform="rotate(335.9,768.6,311.2)" class="C6"></text>
    <path d="M 691.963,348.215 A262.500,262.500 0.000 0,1 695.938,358.237 L 766.207,332.019 A337.500,337.500 0.000 0,0 761.095,319.134 Z " style="stroke: none;   fill: rgb(179,186,212); " class="C5"/>
    <text x="774.3" y="325.1" font-size="9.1px" font-family="'CMUBright-Roman'" style="text-anchor:start;fill:rgb(0,0,0)" transform="rotate(338.4,774.3,325.1)" class="C5"></text>
    <path d="M 696.145,358.792 A262.500,262.500 0.000 0,1 702.799,379.296 L 775.027,359.095 A337.500,337.500 0.000 0,0 766.472,332.732 Z " style="stroke: none;   fill: rgb(179,186,212); " class="C7"/>
    <text x="781.6" y="346.1" font-size="9.1px" font-family="'CMUBright-Roman'" style="text-anchor:start;fill:rgb(0,0,0)" transform="rotate(342.0,781.6,346.1)" class="C7"></text>
    <path d="M 702.958,379.866 A262.500,262.500 0.000 0,1 710.162,415.047 L 784.495,405.060 A337.500,337.500 0.000 0,0 775.231,359.828 Z " style="stroke: none;   fill: rgb(179,186,212); " class="C8"/>
    <text x="791.1" y="383.7" font-size="9.1px" font-family="'CMUBright-Roman'" style="text-anchor:start;fill:rgb(0,0,0)" transform="rotate(348.4,791.1,383.7)" class="C8"></text>
    <path d="M 710.241,415.634 A262.500,262.500 0.000 0,1 711.432,426.348 L 786.127,419.591 A337.500,337.500 0.000 0,0 784.595,405.815 Z " style="stroke: none;   fill: rgb(179,186,212); " class="C9"/>
    <text x="795.7" y="415.1" font-size="9.1px" font-family="'CMUBright-Roman'" style="text-anchor:start;fill:rgb(0,0,0)" transform="rotate(353.7,795.7,415.1)" class="C9"></text>
    <path d="M 711.485,426.938 A262.500,262.500 0.000 0,1 711.090,477.173 L 785.687,484.937 A337.500,337.500 0.000 0,0 786.195,420.349 Z " style="stroke: none;   fill: rgb(179,186,212); " class="C10"/>
    <text x="797.4" y="456.2" font-size="9.1px" font-family="'CMUBright-Roman'" style="text-anchor:start;fill:rgb(0,0,0)" transform="rotate(0.5,797.4,456.2)" class="C10"></text>
    <path d="M 711.028,477.762 A262.500,262.500 0.000 0,1 702.972,520.080 L 775.250,540.103 A337.500,337.500 0.000 0,0 785.607,485.694 Z " style="stroke: none;   fill: rgb(179,186,212); " class="C11"/>
    <text x="790.7" y="518.4" font-size="9.1px" font-family="'CMUBright-Roman'" style="text-anchor:start;fill:rgb(0,0,0)" transform="rotate(10.8,790.7,518.4)" class="C11"></text>
    <path d="M 702.814,520.650 A262.500,262.500 0.000 0,1 662.344,604.325 L 723.014,648.418 A337.500,337.500 0.000 0,0 775.046,540.836 Z " style="stroke: none;   fill: rgb(179,186,212); " class="C12"/>
    <text x="761.3" y="604.4" font-size="9.1px" font-family="'CMUBright-Roman'" style="text-anchor:start;fill:rgb(0,0,0)" transform="rotate(25.8,761.3,604.4)" class="C12"></text>
    <path d="M 661.995,604.804 A262.500,262.500 0.000 0,1 655.460,613.378 L 714.163,660.057 A337.500,337.500 0.000 0,0 722.566,649.033 Z " style="stroke: none;   fill: rgb(179,186,212); " class="C13"/>
    <text x="724.2" y="663.4" font-size="9.1px" font-family="'CMUBright-Roman'" style="text-anchor:start;fill:rgb(0,0,0)" transform="rotate(37.3,724.2,663.4)" class="C13"></text>
    <path d="M 655.091,613.841 A262.500,262.500 0.000 0,1 635.953,635.277 L 689.083,688.214 A337.500,337.500 0.000 0,0 713.689,660.653 Z " style="stroke: none;   fill: rgb(179,186,212); " class="C14"/>
    <text x="706.9" y="684.0" font-size="9.1px" font-family="'CMUBright-Roman'" style="text-anchor:start;fill:rgb(0,0,0)" transform="rotate(41.8,706.9,684.0)" class="C14"></text>
    <path d="M 635.535,635.696 A262.500,262.500 0.000 0,1 602.665,663.540 L 646.284,724.552 A337.500,337.500 0.000 0,0 688.545,688.752 Z " style="stroke: none;   fill: rgb(179,186,212); " class="C15"/>
    <text x="671.9" y="717.4" font-size="9.1px" font-family="'CMUBright-Roman'" style="text-anchor:start;fill:rgb(0,0,0)" transform="rotate(49.7,671.9,717.4)" class="C15"></text>
    <path d="M 602.183,663.884 A262.500,262.500 0.000 0,1 584.120,675.650 L 622.440,740.122 A337.500,337.500 0.000 0,0 645.664,724.994 Z " style="stroke: none;   fill: rgb(179,186,212); " class="C16"/>
    <text x="636.7" y="743.1" font-size="9.1px" font-family="'CMUBright-Roman'" style="text-anchor:start;fill:rgb(0,0,0)" transform="rotate(56.9,636.7,743.1)" class="C16"></text>
    <path d="M 583.611,675.952 A262.500,262.500 0.000 0,1 571.043,682.927 L 605.627,749.477 A337.500,337.500 0.000 0,0 621.786,740.510 Z " style="stroke: none;   fill: rgb(179,186,212); " class="C17"/>
    <text x="615.6" y="755.5" font-size="9.1px" font-family="'CMUBright-Roman'" style="text-anchor:start;fill:rgb(0,0,0)" transform="rotate(61.0,615.6,755.5)" class="C17"></text>
    <path d="M 570.517,683.199 A262.500,262.500 0.000 0,1 560.840,687.951 L 592.509,755.937 A337.500,337.500 0.000 0,0 604.951,749.827 Z " style="stroke: none;   fill: rgb(179,186,212); " class="C18"/>
    <text x="600.0" y="763.4" font-size="9.1px" font-family="'CMUBright-Roman'" style="text-anchor:start;fill:rgb(0,0,0)" transform="rotate(63.8,600.0,763.4)" class="C18"></text>
    <path d="M 560.303,688.200 A262.500,262.500 0.000 0,1 473.958,711.404 L 480.804,786.091 A337.500,337.500 0.000 0,0 591.818,756.258 Z " style="stroke: none;   fill: rgb(179,186,212); " class="C19"/>
    <text x="536.8" y="786.5" font-size="9.1px" font-family="'CMUBright-Roman'" style="text-anchor:start;fill:rgb(0,0,0)" transform="rotate(75.0,536.8,786.5)" class="C19"></text>
    <path d="M 473.369,711.458 A262.500,262.500 0.000 0,1 419.561,710.729 L 410.864,785.223 A337.500,337.500 0.000 0,0 480.046,786.160 Z " style="stroke: none;   fill: rgb(179,186,212); " class="C20"/>
    <text x="448.8" y="797.5" font-size="9.1px" font-family="'CMUBright-Roman'" style="text-anchor:end;fill:rgb(0,0,0)" transform="rotate(-89.2,448.8,797.5)" class="C20"></text>
    <path d="M 418.973,710.660 A262.500,262.500 0.000 0,1 380.217,703.054 L 360.279,775.356 A337.500,337.500 0.000 0,0 410.108,785.134 Z " style="stroke: none;   fill: rgb(179,186,212); " class="C21"/>
    <text x="386.5" y="791.7" font-size="9.1px" font-family="'CMUBright-Roman'" style="text-anchor:end;fill:rgb(0,0,0)" transform="rotate(-78.9,386.5,791.7)" class="C21"></text>
    <path d="M 379.646,702.896 A262.500,262.500 0.000 0,1 365.909,698.666 L 341.883,769.714 A337.500,337.500 0.000 0,0 359.545,775.153 Z " style="stroke: none;   fill: rgb(179,186,212); " class="C22"/>
    <text x="351.1" y="783.1" font-size="9.1px" font-family="'CMUBright-Roman'" style="text-anchor:end;fill:rgb(0,0,0)" transform="rotate(-72.9,351.1,783.1)" class="C22"></text>
    <path d="M 365.348,698.476 A262.500,262.500 0.000 0,1 304.288,668.344 L 262.656,730.728 A337.500,337.500 0.000 0,0 341.162,769.469 Z " style="stroke: none;   fill: rgb(179,186,212); " class="C23"/>
    <text x="299.4" y="763.2" font-size="9.1px" font-family="'CMUBright-Roman'" style="text-anchor:end;fill:rgb(0,0,0)" transform="rotate(-63.7,299.4,763.2)" class="C23"></text>
    <path d="M 303.796,668.015 A262.500,262.500 0.000 0,1 297.881,663.930 L 254.419,725.053 A337.500,337.500 0.000 0,0 262.023,730.305 Z " style="stroke: none;   fill: rgb(179,186,212); " class="C25"/>
    <text x="255.4" y="737.9" font-size="9.1px" font-family="'CMUBright-Roman'" style="text-anchor:end;fill:rgb(0,0,0)" transform="rotate(-55.4,255.4,737.9)" class="C25"></text>
    <path d="M 297.399,663.587 A262.500,262.500 0.000 0,1 280.388,650.345 L 231.928,707.587 A337.500,337.500 0.000 0,0 253.799,724.611 Z " style="stroke: none;   fill: rgb(179,186,212); " class="C24"/>
    <text x="239.3" y="726.4" font-size="9.1px" font-family="'CMUBright-Roman'" style="text-anchor:end;fill:rgb(0,0,0)" transform="rotate(-52.1,239.3,726.4)" class="C24"></text>
    <path d="M 286.497,642.249 A252.375,252.375 0.000 0,1 240.602,590.874 L 178.374,632.739 A327.375,327.375 0.000 0,0 237.907,699.381 Z " style="stroke: none;   fill: rgb(157,55,110); " class="E308"/>
    <text x="200.7" y="677.4" font-size="9.1px" font-family="'CMUBright-Roman'" style="text-anchor:end;fill:rgb(0,0,0)" transform="rotate(-41.8,200.7,677.4)" class="E308"></text>
    <path d="M 240.284,590.401 A252.375,252.375 0.000 0,1 210.132,528.462 L 138.848,551.779 A327.375,327.375 0.000 0,0 177.962,632.125 Z " style="stroke: none;   fill: rgb(157,55,110); " class="E307"/>
    <text x="148.2" y="600.8" font-size="9.1px" font-family="'CMUBright-Roman'" style="text-anchor:end;fill:rgb(0,0,0)" transform="rotate(-26.0,148.2,600.8)" class="E307"></text>
    <path d="M 209.955,527.920 A252.375,252.375 0.000 0,1 197.827,460.107 L 122.888,463.111 A327.375,327.375 0.000 0,0 138.619,551.076 Z " style="stroke: none;   fill: rgb(157,55,110); " class="E306"/>
    <text x="118.5" y="512.8" font-size="9.1px" font-family="'CMUBright-Roman'" style="text-anchor:end;fill:rgb(0,0,0)" transform="rotate(-10.1,118.5,512.8)" class="E306"></text>
    <path d="M 187.688,459.920 A262.500,262.500 0.000 0,1 212.657,337.863 L 144.845,305.824 A337.500,337.500 0.000 0,0 112.741,462.754 Z " style="stroke: none;   fill: rgb(179,186,212); " class="C26"/>
    <text x="108.9" y="383.8" font-size="9.1px" font-family="'CMUBright-Roman'" style="text-anchor:end;fill:rgb(0,0,0)" transform="rotate(11.6,108.9,383.8)" class="C26"></text>
    <path d="M 212.911,337.328 A262.500,262.500 0.000 0,1 441.630,187.633 L 439.238,112.672 A337.500,337.500 0.000 0,0 145.171,305.136 Z " style="stroke: none;   fill: rgb(179,186,212); " class="C2"/>
    <text x="256.8" y="161.2" font-size="9.1px" font-family="'CMUBright-Roman'" style="text-anchor:end;fill:rgb(0,0,0)" transform="rotate(56.8,256.8,161.2)" class="C2"></text>
    <path d="M 442.221,187.615 A262.500,262.500 0.000 0,1 449.408,187.501 L 449.239,112.501 A337.500,337.500 0.000 0,0 439.999,112.648 Z " style="stroke: none;   fill: rgb(179,186,212); " class="C1"/>
    <text x="441.0" y="102.6" font-size="9.1px" font-family="'CMUBright-Roman'" style="text-anchor:end;fill:rgb(0,0,0)" transform="rotate(89.1,441.0,102.6)" class="C1"></text>
  </g>
  <g id="E308">
    <path d="M 221.957,524.024 A 239.756,239.756 0.00 0,1 210.4,459.6 Q 439.8,431.3 587.6,253.7 A 239.756,239.756 0.00 0,1 593.0,257.5 Q 441.5,438.2 222.0,524.0 Z" style="stroke-width: 1.0;  stroke: rgb(180,180,180); fill: rgb(222,220,70);" opacity="0.5"/>
    <path d="M 294.672,632.637 A 239.756,239.756 0.00 0,1 251.1,583.8 Q 434.7,439.9 496.2,214.7 A 239.756,239.756 0.00 0,1 502.6,216.1 Q 439.7,444.9 294.7,632.6 Z" style="stroke-width: 1.0;  stroke: rgb(180,180,180); fill: rgb(143,147,64);" opacity="0.8"/>
    <path d="M 250.770,583.381 A 239.756,239.756 0.00 0,1 222.1,524.5 Q 428.5,433.5 463.1,210.6 A 239.756,239.756 0.00 0,1 469.7,211.1 Q 432.0,439.4 250.8,583.4 Z" style="stroke-width: 1.0;  stroke: rgb(180,180,180); fill: rgb(222,220,70);" opacity="0.5"/>
  </g>
  <g id="E308">
    <path d="M 559.066,236.487 A 239.756,239.756 0.00 0,1 564.9,239.6 Q 469.3,406.3 528.4,223.4 A 239.756,239.756 0.00 0,1 534.6,225.7 Q 469.4,406.2 559.1,236.5 Z" style="stroke-width: 1.0;  stroke: rgb(180,180,180); fill: rgb(143,147,64);" opacity="0.8"/>
    <path d="M 528.393,223.422 A 239.756,239.756 0.00 0,1 534.6,225.7 Q 469.4,406.2 559.1,236.5 A 239.756,239.756 0.00 0,1 564.9,239.6 Q 469.3,406.3 528.4,223.4 Z" style="stroke-width: 1.0;  stroke: rgb(180,180,180); fill: rgb(222,220,70);" opacity="0.5"/>
    <path d="M 559.066,236.487 A 239.756,239.756 0.00 0,1 564.9,239.6 Q 469.3,406.3 528.4,223.4 A 239.756,239.756 0.00 0,1 534.6,225.7 Q 469.4,406.2 559.1,236.5 Z" style="stroke-width: 1.0;  stroke: rgb(180,180,180); fill: rgb(222,220,70);" opacity="0.5"/>
    <path d="M 559.066,236.487 A 239.756,239.756 0.00 0,1 564.9,239.6 Q 475.3,409.3 587.6,253.7 A 239.756,239.756 0.00 0,1 593.0,257.5 Q 475.2,409.4 559.1,236.5 Z" style="stroke-width: 1.0;  stroke: rgb(180,180,180); fill: rgb(143,147,64);" opacity="0.8"/>
    <path d="M 587.630,253.681 A 239.756,239.756 0.00 0,1 593.0,257.5 Q 475.2,409.4 559.1,236.5 A 239.756,239.756 0.00 0,1 564.9,239.6 Q 475.3,409.3 587.6,253.7 Z" style="stroke-width: 1.0;  stroke: rgb(180,180,180); fill: rgb(222,220,70);" opacity="0.5"/>
    <path d="M 559.066,236.487 A 239.756,239.756 0.00 0,1 564.9,239.6 Q 475.3,409.3 587.6,253.7 A 239.756,239.756 0.00 0,1 593.0,257.5 Q 475.2,409.4 559.1,236.5 Z" style="stroke-width: 1.0;  stroke: rgb(180,180,180); fill: rgb(222,220,70);" opacity="0.5"/>
    <path d="M 613.532,274.671 A 239.756,239.756 0.00 0,1 618.3,279.2 Q 485.5,417.8 636.3,299.1 A 239.756,239.756 0.00 0,1 640.3,304.2 Q 485.4,417.9 613.5,274.7 Z" style="stroke-width: 1.0;  stroke: rgb(180,180,180); fill: rgb(143,147,64);" opacity="0.8"/>
    <path d="M 463.123,210.603 A 239.756,239.756 0.00 0,1 469.7,211.1 Q 462.9,404.8 559.1,236.5 A 239.756,239.756 0.00 0,1 564.9,239.6 Q 462.8,405.0 463.1,210.6 Z" style="stroke-width: 1.0;  stroke: rgb(180,180,180); fill: rgb(143,147,64);" opacity="0.8"/>
    <path d="M 559.066,236.487 A 239.756,239.756 0.00 0,1 564.9,239.6 Q 462.8,405.0 463.1,210.6 A 239.756,239.756 0.00 0,1 469.7,211.1 Q 462.9,404.8 559.1,236.5 Z" style="stroke-width: 1.0;  stroke: rgb(180,180,180); fill: rgb(222,220,70);" opacity="0.5"/>
    <path d="M 463.123,210.603 A 239.756,239.756 0.00 0,1 469.7,211.1 Q 462.9,404.8 559.1,236.5 A 239.756,239.756 0.00 0,1 564.9,239.6 Q 462.8,405.0 463.1,210.6 Z" style="stroke-width: 1.0;  stroke: rgb(180,180,180); fill: rgb(222,220,70);" opacity="0.5"/>
    <path d="M 613.532,274.671 A 239.756,239.756 0.00 0,1 618.3,279.2 Q 468.1,409.0 463.1,210.6 A 239.756,239.756 0.00 0,1 469.7,211.1 Q 468.3,408.6 613.5,274.7 Z" style="stroke-width: 1.0;  stroke: rgb(180,180,180); fill: rgb(143,147,64);" opacity="0.8"/>
    <path d="M 496.205,214.738 A 239.756,239.756 0.00 0,1 502.6,216.1 Q 471.6,409.1 613.5,274.7 A 239.756,239.756 0.00 0,1 618.3,279.2 Q 471.4,409.4 496.2,214.7 Z" style="stroke-width: 1.0;  stroke: rgb(180,180,180); fill: rgb(143,147,64);" opacity="0.8"/>
  </g>
  <g id="E308"/>
  <g id="plot0">
    <g id="plot0-axis"/>
    <text x="656.8" y="170.7" font-family="'CMUSansSerif-DemiCondensed'" style="fill: rgb(0,0,0); font-size: 13.0px; text-anchor: start" transform="rotate(305.8,656.8,170.7)">N344</text>
    <text x="478.0" y="103.6" font-family="'CMUSansSerif-DemiCondensed'" style="fill: rgb(0,0,0); font-size: 13.0px; text-anchor: start" transform="rotate(273.9,478.0,103.6)">N361</text>
    <text x="616.0" y="144.7" font-family="'CMUSansSerif-DemiCondensed'" style="fill: rgb(0,0,0); font-size: 13.0px; text-anchor: start" transform="rotate(297.8,616.0,144.7)">N360</text>
    <text x="572.1" y="124.6" font-family="'CMUSansSerif-DemiCondensed'" style="fill: rgb(0,0,0); font-size: 13.0px; text-anchor: start" transform="rotate(289.9,572.1,124.6)">N359</text>
    <text x="525.8" y="110.9" font-family="'CMUSansSerif-DemiCondensed'" style="fill: rgb(0,0,0); font-size: 13.0px; text-anchor: start" transform="rotate(281.9,525.8,110.9)">N364</text>
    <text x="693.5" y="202.1" font-family="'CMUSansSerif-DemiCondensed'" style="fill: rgb(0,0,0); font-size: 13.0px; text-anchor: start" transform="rotate(313.8,693.5,202.1)">N363</text>
    <text x="725.5" y="238.3" font-family="'CMUSansSerif-DemiCondensed'" style="fill: rgb(0,0,0); font-size: 13.0px; text-anchor: start" transform="rotate(321.8,725.5,238.3)">N362</text>
  </g>
  <script>function init(evt) {
    $(evt.target).bind('mouseover', doMouseOver);
    $(evt.target).bind('mouseup'  , doMouseUp);
    $(evt.target).bind('mousedown', doMouseDown);
}</script>
</svg>