<svg width="900px" height="900px" version="1.1" onload="init(evt)" xmlns="http://www.w3.org/2000/svg" xmlns:xlink="http://www.w3.org/1999/xlink">
  <g id="ideograms">
    <path d="M 450.000,197.625 A252.375,252.375 0.000 0,1 486.032,200.210 L 496.740,125.979 A327.375,327.375 0.000 0,0 450.000,122.625 Z " style="stroke: none;   fill: rgb(53,100,153); " class="N20"/>
    <text x="477.6" y="113.8" font-size="9.1px" font-family="'CMUBright-Roman'" style="text-anchor:start;fill:rgb(0,0,0)" transform="rotate(274.1,477.6,113.8)" class="N20"></text>
    <path d="M 486.620,200.296 A252.375,252.375 0.000 0,1 521.895,208.082 L 543.261,136.190 A327.375,327.375 0.000 0,0 497.503,126.090 Z " style="stroke: none;   fill: rgb(53,100,153); " class="N46"/>
    <text x="526.1" y="121.3" font-size="9.1px" font-family="'CMUBright-Roman'" style="text-anchor:start;fill:rgb(0,0,0)" transform="rotate(282.4,526.1,121.3)" class="N46"></text>
    <path d="M 522.465,208.252 A252.375,252.375 0.000 0,1 556.237,221.075 L 587.808,153.043 A327.375,327.375 0.000 0,0 544.000,136.410 Z " style="stroke: none;   fill: rgb(53,100,153); " class="N72"/>
    <text x="573.0" y="135.9" font-size="9.1px" font-family="'CMUBright-Roman'" style="text-anchor:start;fill:rgb(0,0,0)" transform="rotate(290.8,573.0,135.9)" class="N72"></text>
    <path d="M 556.776,221.326 A252.375,252.375 0.000 0,1 588.330,238.913 L 629.439,176.182 A327.375,327.375 0.000 0,0 588.507,153.369 Z " style="stroke: none;   fill: rgb(53,100,153); " class="N68"/>
    <text x="617.3" y="157.0" font-size="9.1px" font-family="'CMUBright-Roman'" style="text-anchor:start;fill:rgb(0,0,0)" transform="rotate(299.1,617.3,157.0)" class="N68"></text>
    <path d="M 588.827,239.239 A252.375,252.375 0.000 0,1 617.495,261.219 L 667.271,205.117 A327.375,327.375 0.000 0,0 630.083,176.606 Z " style="stroke: none;   fill: rgb(53,100,153); " class="N47"/>
    <text x="658.0" y="184.4" font-size="9.1px" font-family="'CMUBright-Roman'" style="text-anchor:start;fill:rgb(0,0,0)" transform="rotate(307.5,658.0,184.4)" class="N47"></text>
    <path d="M 624.677,254.056 A262.500,262.500 0.000 0,1 635.613,264.382 L 688.645,211.348 A337.500,337.500 0.000 0,0 674.585,198.072 Z " style="stroke: none;   fill: rgb(179,186,212); " class="C3"/>
    <text x="691.1" y="199.8" font-size="9.1px" font-family="'CMUBright-Roman'" style="text-anchor:start;fill:rgb(0,0,0)" transform="rotate(313.4,691.1,199.8)" class="C3"></text>
    <path d="M 636.049,264.819 A262.500,262.500 0.000 0,1 653.654,284.375 L 711.840,237.054 A337.500,337.500 0.000 0,0 689.206,211.910 Z " style="stroke: none;   fill: rgb(179,186,212); " class="C4"/>
    <text x="710.6" y="220.1" font-size="9.1px" font-family="'CMUBright-Roman'" style="text-anchor:start;fill:rgb(0,0,0)" transform="rotate(318.0,710.6,220.1)" class="C4"></text>
    <path d="M 654.043,284.855 A262.500,262.500 0.000 0,1 660.950,293.774 L 721.221,249.138 A337.500,337.500 0.000 0,0 712.341,237.671 Z " style="stroke: none;   fill: rgb(179,186,212); " class="C6"/>
    <text x="726.9" y="240.0" font-size="9.1px" font-family="'CMUBright-Roman'" style="text-anchor:start;fill:rgb(0,0,0)" transform="rotate(322.2,726.9,240.0)" class="C6"></text>
    <path d="M 661.317,294.271 A262.500,262.500 0.000 0,1 667.812,303.494 L 730.045,261.635 A337.500,337.500 0.000 0,0 721.693,249.777 Z " style="stroke: none;   fill: rgb(179,186,212); " class="C5"/>
    <text x="736.1" y="252.8" font-size="9.1px" font-family="'CMUBright-Roman'" style="text-anchor:start;fill:rgb(0,0,0)" transform="rotate(324.8,736.1,252.8)" class="C5"></text>
    <path d="M 668.157,304.007 A262.500,262.500 0.000 0,1 679.885,323.275 L 745.566,287.068 A337.500,337.500 0.000 0,0 730.487,262.295 Z " style="stroke: none;   fill: rgb(179,186,212); " class="C7"/>
    <text x="748.6" y="272.3" font-size="9.1px" font-family="'CMUBright-Roman'" style="text-anchor:start;fill:rgb(0,0,0)" transform="rotate(328.7,748.6,272.3)" class="C7"></text>
    <path d="M 680.182,323.816 A262.500,262.500 0.000 0,1 695.840,357.972 L 766.079,331.678 A337.500,337.500 0.000 0,0 745.949,287.764 Z " style="stroke: none;   fill: rgb(179,186,212); " class="C8"/>
    <text x="767.3" y="308.4" font-size="9.1px" font-family="'CMUBright-Roman'" style="text-anchor:start;fill:rgb(0,0,0)" transform="rotate(335.4,767.3,308.4)" class="C8"></text>
    <path d="M 686.565,362.078 A252.375,252.375 0.000 0,1 701.769,432.519 L 776.589,427.324 A327.375,327.375 0.000 0,0 756.866,335.950 Z " style="stroke: none;   fill: rgb(157,55,110); " class="E54"/>
    <text x="780.5" y="382.2" font-size="9.1px" font-family="'CMUBright-Roman'" style="text-anchor:start;fill:rgb(0,0,0)" transform="rotate(347.8,780.5,382.2)" class="E54"></text>
    <path d="M 701.809,433.112 A252.375,252.375 0.000 0,1 696.317,504.966 L 769.516,521.301 A327.375,327.375 0.000 0,0 776.641,428.094 Z " style="stroke: none;   fill: rgb(157,55,110); " class="E53"/>
    <text x="786.1" y="479.2" font-size="9.1px" font-family="'CMUBright-Roman'" style="text-anchor:start;fill:rgb(0,0,0)" transform="rotate(4.4,786.1,479.2)" class="E53"></text>
    <path d="M 696.186,505.546 A252.375,252.375 0.000 0,1 670.452,572.858 L 735.965,609.369 A327.375,327.375 0.000 0,0 769.347,522.053 Z " style="stroke: none;   fill: rgb(157,55,110); " class="E52"/>
    <text x="763.9" y="573.7" font-size="9.1px" font-family="'CMUBright-Roman'" style="text-anchor:start;fill:rgb(0,0,0)" transform="rotate(20.9,763.9,573.7)" class="E52"></text>
    <path d="M 678.995,578.327 A262.500,262.500 0.000 0,1 648.839,621.375 L 705.650,670.340 A337.500,337.500 0.000 0,0 744.422,614.992 Z " style="stroke: none;   fill: rgb(179,186,212); " class="C10"/>
    <text x="732.6" y="652.2" font-size="9.1px" font-family="'CMUBright-Roman'" style="text-anchor:start;fill:rgb(0,0,0)" transform="rotate(35.0,732.6,652.2)" class="C10"></text>
    <path d="M 648.435,621.843 A262.500,262.500 0.000 0,1 616.113,653.255 L 663.574,711.328 A337.500,337.500 0.000 0,0 705.131,670.940 Z " style="stroke: none;   fill: rgb(179,186,212); " class="C11"/>
    <text x="689.7" y="701.6" font-size="9.1px" font-family="'CMUBright-Roman'" style="text-anchor:start;fill:rgb(0,0,0)" transform="rotate(45.8,689.7,701.6)" class="C11"></text>
    <path d="M 615.635,653.645 A262.500,262.500 0.000 0,1 530.166,699.959 L 553.070,771.376 A337.500,337.500 0.000 0,0 662.959,711.830 Z " style="stroke: none;   fill: rgb(179,186,212); " class="C12"/>
    <text x="612.5" y="757.2" font-size="9.1px" font-family="'CMUBright-Roman'" style="text-anchor:start;fill:rgb(0,0,0)" transform="rotate(61.5,612.5,757.2)" class="C12"></text>
    <path d="M 529.577,700.147 A262.500,262.500 0.000 0,1 518.756,703.335 L 538.401,775.717 A337.500,337.500 0.000 0,0 552.314,771.618 Z " style="stroke: none;   fill: rgb(179,186,212); " class="C13"/>
    <text x="544.8" y="784.3" font-size="9.1px" font-family="'CMUBright-Roman'" style="text-anchor:start;fill:rgb(0,0,0)" transform="rotate(73.6,544.8,784.3)" class="C13"></text>
    <path d="M 518.160,703.496 A262.500,262.500 0.000 0,1 488.724,709.628 L 499.787,783.808 A337.500,337.500 0.000 0,0 537.634,775.924 Z " style="stroke: none;   fill: rgb(179,186,212); " class="C14"/>
    <text x="517.4" y="790.9" font-size="9.1px" font-family="'CMUBright-Roman'" style="text-anchor:start;fill:rgb(0,0,0)" transform="rotate(78.2,517.4,790.9)" class="C14"></text>
    <path d="M 488.113,709.718 A262.500,262.500 0.000 0,1 443.122,712.410 L 441.156,787.384 A337.500,337.500 0.000 0,0 499.002,783.924 Z " style="stroke: none;   fill: rgb(179,186,212); " class="C15"/>
    <text x="467.3" y="797.1" font-size="9.1px" font-family="'CMUBright-Roman'" style="text-anchor:start;fill:rgb(0,0,0)" transform="rotate(86.6,467.3,797.1)" class="C15"></text>
    <path d="M 442.504,712.393 A262.500,262.500 0.000 0,1 420.005,710.781 L 411.435,785.289 A337.500,337.500 0.000 0,0 440.363,787.362 Z " style="stroke: none;   fill: rgb(179,186,212); " class="C16"/>
    <text x="428.7" y="796.8" font-size="9.1px" font-family="'CMUBright-Roman'" style="text-anchor:end;fill:rgb(0,0,0)" transform="rotate(-85.9,428.7,796.8)" class="C16"></text>
    <path d="M 419.392,710.709 A262.500,262.500 0.000 0,1 404.510,708.528 L 391.513,782.394 A337.500,337.500 0.000 0,0 410.647,785.198 Z " style="stroke: none;   fill: rgb(179,186,212); " class="C17"/>
    <text x="403.1" y="794.3" font-size="9.1px" font-family="'CMUBright-Roman'" style="text-anchor:end;fill:rgb(0,0,0)" transform="rotate(-81.7,403.1,794.3)" class="C17"></text>
    <path d="M 403.902,708.421 A262.500,262.500 0.000 0,1 392.842,706.201 L 376.511,779.402 A337.500,337.500 0.000 0,0 390.732,782.255 Z " style="stroke: none;   fill: rgb(179,186,212); " class="C18"/>
    <text x="385.1" y="791.4" font-size="9.1px" font-family="'CMUBright-Roman'" style="text-anchor:end;fill:rgb(0,0,0)" transform="rotate(-78.7,385.1,791.4)" class="C18"></text>
    <path d="M 392.239,706.066 A262.500,262.500 0.000 0,1 306.142,669.570 L 265.040,732.305 A337.500,337.500 0.000 0,0 375.736,779.228 Z " style="stroke: none;   fill: rgb(179,186,212); " class="C19"/>
    <text x="317.6" y="771.3" font-size="9.1px" font-family="'CMUBright-Roman'" style="text-anchor:end;fill:rgb(0,0,0)" transform="rotate(-67.0,317.6,771.3)" class="C19"></text>
    <path d="M 305.626,669.231 A262.500,262.500 0.000 0,1 262.198,633.403 L 208.540,685.803 A337.500,337.500 0.000 0,0 264.376,731.869 Z " style="stroke: none;   fill: rgb(179,186,212); " class="C20"/>
    <text x="231.6" y="720.3" font-size="9.1px" font-family="'CMUBright-Roman'" style="text-anchor:end;fill:rgb(0,0,0)" transform="rotate(-50.5,231.6,720.3)" class="C20"></text>
    <path d="M 261.767,632.960 A262.500,262.500 0.000 0,1 235.386,601.153 L 174.068,644.339 A337.500,337.500 0.000 0,0 207.986,685.235 Z " style="stroke: none;   fill: rgb(179,186,212); " class="C21"/>
    <text x="184.8" y="674.5" font-size="9.1px" font-family="'CMUBright-Roman'" style="text-anchor:end;fill:rgb(0,0,0)" transform="rotate(-39.7,184.8,674.5)" class="C21"></text>
    <path d="M 235.031,600.647 A262.500,262.500 0.000 0,1 226.756,588.088 L 162.972,627.542 A337.500,337.500 0.000 0,0 173.612,643.690 Z " style="stroke: none;   fill: rgb(179,186,212); " class="C22"/>
    <text x="161.8" y="644.1" font-size="9.1px" font-family="'CMUBright-Roman'" style="text-anchor:end;fill:rgb(0,0,0)" transform="rotate(-33.4,161.8,644.1)" class="C22"></text>
    <path d="M 226.432,587.563 A262.500,262.500 0.000 0,1 197.680,522.393 L 125.588,543.076 A337.500,337.500 0.000 0,0 162.555,626.866 Z " style="stroke: none;   fill: rgb(179,186,212); " class="C23"/>
    <text x="133.5" y="593.5" font-size="9.1px" font-family="'CMUBright-Roman'" style="text-anchor:end;fill:rgb(0,0,0)" transform="rotate(-23.8,133.5,593.5)" class="C23"></text>
    <path d="M 197.510,521.799 A262.500,262.500 0.000 0,1 195.557,514.536 L 122.859,532.975 A337.500,337.500 0.000 0,0 125.370,542.313 Z " style="stroke: none;   fill: rgb(179,186,212); " class="C25"/>
    <text x="115.4" y="543.6" font-size="9.1px" font-family="'CMUBright-Roman'" style="text-anchor:end;fill:rgb(0,0,0)" transform="rotate(-15.1,115.4,543.6)" class="C25"></text>
    <path d="M 195.406,513.937 A262.500,262.500 0.000 0,1 190.857,491.844 L 116.816,503.799 A337.500,337.500 0.000 0,0 122.664,532.205 Z " style="stroke: none;   fill: rgb(179,186,212); " class="C24"/>
    <text x="110.4" y="523.5" font-size="9.1px" font-family="'CMUBright-Roman'" style="text-anchor:end;fill:rgb(0,0,0)" transform="rotate(-11.6,110.4,523.5)" class="C24"></text>
    <path d="M 190.759,491.234 A262.500,262.500 0.000 0,1 189.227,480.058 L 114.720,488.646 A337.500,337.500 0.000 0,0 116.690,503.015 Z " style="stroke: none;   fill: rgb(179,186,212); " class="C27"/>
    <text x="106.2" y="500.7" font-size="9.1px" font-family="'CMUBright-Roman'" style="text-anchor:end;fill:rgb(0,0,0)" transform="rotate(-7.8,106.2,500.7)" class="C27"></text>
    <path d="M 189.157,479.444 A262.500,262.500 0.000 0,1 207.112,350.442 L 137.716,321.997 A337.500,337.500 0.000 0,0 114.630,487.857 Z " style="stroke: none;   fill: rgb(179,186,212); " class="C26"/>
    <text x="105.4" y="405.6" font-size="9.1px" font-family="'CMUBright-Roman'" style="text-anchor:end;fill:rgb(0,0,0)" transform="rotate(7.9,105.4,405.6)" class="C26"></text>
    <path d="M 207.347,349.871 A262.500,262.500 0.000 0,1 441.245,187.646 L 438.744,112.688 A337.500,337.500 0.000 0,0 138.018,321.263 Z " style="stroke: none;   fill: rgb(179,186,212); " class="C2"/>
    <text x="249.1" y="166.5" font-size="9.1px" font-family="'CMUBright-Roman'" style="text-anchor:end;fill:rgb(0,0,0)" transform="rotate(55.3,249.1,166.5)" class="C2"></text>
    <path d="M 441.862,187.626 A262.500,262.500 0.000 0,1 449.382,187.501 L 449.206,112.501 A337.500,337.500 0.000 0,0 439.537,112.662 Z " style="stroke: none;   fill: rgb(179,186,212); " class="C1"/>
    <text x="440.7" y="102.6" font-size="9.1px" font-family="'CMUBright-Roman'" style="text-anchor:end;fill:rgb(0,0,0)" transform="rotate(89.0,440.7,102.6)" class="C1"></text>
  </g>
  <g id="E53">
    <path d="M 683.877,502.769 A 239.756,239.756 0.00 0,1 659.4,566.7 Q 475.8,438.2 498.3,215.2 A 239.756,239.756 0.00 0,1 505.0,216.6 Q 478.9,431.9 683.9,502.8 Z" style="stroke-width: 1.0;  stroke: rgb(180,180,180); fill: rgb(222,220,70);" opacity="0.5"/>
    <path d="M 674.737,366.474 A 239.756,239.756 0.00 0,1 689.2,433.4 Q 482.1,425.8 531.9,224.7 A 239.756,239.756 0.00 0,1 538.3,227.1 Q 481.3,419.4 674.7,366.5 Z" style="stroke-width: 1.0;  stroke: rgb(180,180,180); fill: rgb(222,220,70);" opacity="0.5"/>
    <path d="M 689.219,433.957 A 239.756,239.756 0.00 0,1 684.0,502.2 Q 484.8,434.1 563.7,238.9 A 239.756,239.756 0.00 0,1 569.7,242.3 Q 485.9,427.6 689.2,434.0 Z" style="stroke-width: 1.0;  stroke: rgb(180,180,180); fill: rgb(143,147,64);" opacity="0.8"/>
  </g>
  <g id="E53">
    <path d="M 593.137,257.659 A 239.756,239.756 0.00 0,1 598.6,261.8 Q 466.2,407.2 463.7,210.6 A 239.756,239.756 0.00 0,1 470.6,211.1 Q 466.4,406.9 593.1,257.7 Z" style="stroke-width: 1.0;  stroke: rgb(180,180,180); fill: rgb(222,220,70);" opacity="0.5"/>
    <path d="M 593.137,257.659 A 239.756,239.756 0.00 0,1 598.6,261.8 Q 469.7,407.7 498.3,215.2 A 239.756,239.756 0.00 0,1 505.0,216.6 Q 469.8,407.4 593.1,257.7 Z" style="stroke-width: 1.0;  stroke: rgb(180,180,180); fill: rgb(222,220,70);" opacity="0.5"/>
    <path d="M 531.882,224.659 A 239.756,239.756 0.00 0,1 538.3,227.1 Q 470.2,406.6 563.7,238.9 A 239.756,239.756 0.00 0,1 569.7,242.3 Q 470.2,406.7 531.9,224.7 Z" style="stroke-width: 1.0;  stroke: rgb(180,180,180); fill: rgb(222,220,70);" opacity="0.5"/>
    <path d="M 531.882,224.659 A 239.756,239.756 0.00 0,1 538.3,227.1 Q 473.1,408.5 593.1,257.7 A 239.756,239.756 0.00 0,1 598.6,261.8 Q 473.0,408.6 531.9,224.7 Z" style="stroke-width: 1.0;  stroke: rgb(180,180,180); fill: rgb(222,220,70);" opacity="0.5"/>
  </g>
  <g id="E53"/>
  <g id="plot0">
    <g id="plot0-axis"/>
    <text x="529.0" y="111.6" font-family="'CMUSansSerif-DemiCondensed'" style="fill: rgb(0,0,0); font-size: 13.0px; text-anchor: start" transform="rotate(282.4,529.0,111.6)">N46</text>
    <text x="622.9" y="148.5" font-family="'CMUSansSerif-DemiCondensed'" style="fill: rgb(0,0,0); font-size: 13.0px; text-anchor: start" transform="rotate(299.1,622.9,148.5)">N68</text>
    <text x="577.3" y="126.7" font-family="'CMUSansSerif-DemiCondensed'" style="fill: rgb(0,0,0); font-size: 13.0px; text-anchor: start" transform="rotate(290.8,577.3,126.7)">N72</text>
    <text x="664.5" y="176.6" font-family="'CMUSansSerif-DemiCondensed'" style="fill: rgb(0,0,0); font-size: 13.0px; text-anchor: start" transform="rotate(307.5,664.5,176.6)">N47</text>
    <text x="479.1" y="103.7" font-family="'CMUSansSerif-DemiCondensed'" style="fill: rgb(0,0,0); font-size: 13.0px; text-anchor: start" transform="rotate(274.1,479.1,103.7)">N20</text>
  </g>
  <script>function init(evt) {
    $(evt.target).bind('mouseover', doMouseOver);
    $(evt.target).bind('mouseup'  , doMouseUp);
    $(evt.target).bind('mousedown', doMouseDown);
}</script>
</svg>