<svg width="900px" height="900px" version="1.1" onload="init(evt)" xmlns="http://www.w3.org/2000/svg" xmlns:xlink="http://www.w3.org/1999/xlink">
  <g id="ideograms">
    <path d="M 450.000,197.625 A252.375,252.375 0.000 0,1 489.571,200.747 L 501.330,126.674 A327.375,327.375 0.000 0,0 450.000,122.625 Z " style="stroke: none;   fill: rgb(53,100,153); " class="N398"/>
    <text x="480.0" y="114.0" font-size="9.1px" font-family="'CMUBright-Roman'" style="text-anchor:start;fill:rgb(0,0,0)" transform="rotate(274.5,480.0,114.0)" class="N398"></text>
    <path d="M 490.214,200.849 A252.375,252.375 0.000 0,1 528.782,210.236 L 552.194,138.984 A327.375,327.375 0.000 0,0 502.165,126.808 Z " style="stroke: none;   fill: rgb(53,100,153); " class="N100"/>
    <text x="533.2" y="123.0" font-size="9.1px" font-family="'CMUBright-Roman'" style="text-anchor:start;fill:rgb(0,0,0)" transform="rotate(283.7,533.2,123.0)" class="N100"></text>
    <path d="M 529.400,210.441 A252.375,252.375 0.000 0,1 565.979,225.853 L 600.446,159.242 A327.375,327.375 0.000 0,0 552.996,139.249 Z " style="stroke: none;   fill: rgb(53,100,153); " class="N399"/>
    <text x="584.2" y="140.5" font-size="9.1px" font-family="'CMUBright-Roman'" style="text-anchor:start;fill:rgb(0,0,0)" transform="rotate(292.8,584.2,140.5)" class="N399"></text>
    <path d="M 571.234,217.173 A262.500,262.500 0.000 0,1 585.647,225.264 L 624.403,161.054 A337.500,337.500 0.000 0,0 605.872,150.650 Z " style="stroke: none;   fill: rgb(179,186,212); " class="C3"/>
    <text x="623.2" y="148.7" font-size="9.1px" font-family="'CMUBright-Roman'" style="text-anchor:start;fill:rgb(0,0,0)" transform="rotate(299.3,623.2,148.7)" class="C3"></text>
    <path d="M 586.226,225.614 A262.500,262.500 0.000 0,1 610.079,241.959 L 655.815,182.519 A337.500,337.500 0.000 0,0 625.147,161.504 Z " style="stroke: none;   fill: rgb(179,186,212); " class="C4"/>
    <text x="649.3" y="165.3" font-size="9.1px" font-family="'CMUBright-Roman'" style="text-anchor:start;fill:rgb(0,0,0)" transform="rotate(304.4,649.3,165.3)" class="C4"></text>
    <path d="M 610.614,242.372 A262.500,262.500 0.000 0,1 620.239,250.187 L 668.878,193.098 A337.500,337.500 0.000 0,0 656.504,183.050 Z " style="stroke: none;   fill: rgb(179,186,212); " class="C6"/>
    <text x="671.8" y="182.5" font-size="9.1px" font-family="'CMUBright-Roman'" style="text-anchor:start;fill:rgb(0,0,0)" transform="rotate(309.1,671.8,182.5)" class="C6"></text>
    <path d="M 620.753,250.627 A262.500,262.500 0.000 0,1 629.976,258.911 L 681.398,204.315 A337.500,337.500 0.000 0,0 669.540,193.663 Z " style="stroke: none;   fill: rgb(179,186,212); " class="C5"/>
    <text x="684.8" y="193.8" font-size="9.1px" font-family="'CMUBright-Roman'" style="text-anchor:start;fill:rgb(0,0,0)" transform="rotate(311.9,684.8,193.8)" class="C5"></text>
    <path d="M 630.468,259.376 A262.500,262.500 0.000 0,1 647.644,277.249 L 704.114,227.891 A337.500,337.500 0.000 0,0 682.030,204.912 Z " style="stroke: none;   fill: rgb(179,186,212); " class="C7"/>
    <text x="703.0" y="211.7" font-size="9.1px" font-family="'CMUBright-Roman'" style="text-anchor:start;fill:rgb(0,0,0)" transform="rotate(316.1,703.0,211.7)" class="C7"></text>
    <path d="M 648.089,277.759 A262.500,262.500 0.000 0,1 672.645,310.948 L 736.258,271.219 A337.500,337.500 0.000 0,0 704.686,228.547 Z " style="stroke: none;   fill: rgb(179,186,212); " class="C8"/>
    <text x="731.4" y="246.1" font-size="9.1px" font-family="'CMUBright-Roman'" style="text-anchor:start;fill:rgb(0,0,0)" transform="rotate(323.5,731.4,246.1)" class="C8"></text>
    <path d="M 673.003,311.523 A262.500,262.500 0.000 0,1 679.292,322.206 L 744.805,285.694 A337.500,337.500 0.000 0,0 736.718,271.958 Z " style="stroke: none;   fill: rgb(179,186,212); " class="C9"/>
    <text x="751.2" y="276.7" font-size="9.1px" font-family="'CMUBright-Roman'" style="text-anchor:start;fill:rgb(0,0,0)" transform="rotate(329.5,751.2,276.7)" class="C9"></text>
    <path d="M 679.621,322.798 A262.500,262.500 0.000 0,1 701.877,376.080 L 773.842,354.960 A337.500,337.500 0.000 0,0 745.227,286.454 Z " style="stroke: none;   fill: rgb(179,186,212); " class="C10"/>
    <text x="772.0" y="319.3" font-size="9.1px" font-family="'CMUBright-Roman'" style="text-anchor:start;fill:rgb(0,0,0)" transform="rotate(337.3,772.0,319.3)" class="C10"></text>
    <path d="M 702.067,376.729 A262.500,262.500 0.000 0,1 711.342,425.374 L 786.012,418.338 A337.500,337.500 0.000 0,0 774.086,355.795 Z " style="stroke: none;   fill: rgb(179,186,212); " class="C11"/>
    <text x="792.0" y="388.4" font-size="9.1px" font-family="'CMUBright-Roman'" style="text-anchor:start;fill:rgb(0,0,0)" transform="rotate(349.2,792.0,388.4)" class="C11"></text>
    <path d="M 711.405,426.047 A262.500,262.500 0.000 0,1 699.341,532.069 L 770.581,555.518 A337.500,337.500 0.000 0,0 786.092,419.204 Z " style="stroke: none;   fill: rgb(179,186,212); " class="C12"/>
    <text x="794.9" y="492.8" font-size="9.1px" font-family="'CMUBright-Roman'" style="text-anchor:start;fill:rgb(0,0,0)" transform="rotate(6.5,794.9,492.8)" class="C12"></text>
    <path d="M 699.128,532.712 A262.500,262.500 0.000 0,1 694.945,544.382 L 764.930,571.349 A337.500,337.500 0.000 0,0 770.308,556.344 Z " style="stroke: none;   fill: rgb(179,186,212); " class="C13"/>
    <text x="775.9" y="570.5" font-size="9.1px" font-family="'CMUBright-Roman'" style="text-anchor:start;fill:rgb(0,0,0)" transform="rotate(19.7,775.9,570.5)" class="C13"></text>
    <path d="M 694.701,545.013 A262.500,262.500 0.000 0,1 680.827,575.001 L 746.778,610.715 A337.500,337.500 0.000 0,0 764.616,572.160 Z " style="stroke: none;   fill: rgb(179,186,212); " class="C14"/>
    <text x="763.9" y="599.1" font-size="9.1px" font-family="'CMUBright-Roman'" style="text-anchor:start;fill:rgb(0,0,0)" transform="rotate(24.8,763.9,599.1)" class="C14"></text>
    <path d="M 680.504,575.595 A262.500,262.500 0.000 0,1 652.814,616.651 L 710.761,664.266 A337.500,337.500 0.000 0,0 746.362,611.480 Z " style="stroke: none;   fill: rgb(179,186,212); " class="C15"/>
    <text x="736.1" y="647.2" font-size="9.1px" font-family="'CMUBright-Roman'" style="text-anchor:start;fill:rgb(0,0,0)" transform="rotate(34.0,736.1,647.2)" class="C15"></text>
    <path d="M 652.384,617.174 A262.500,262.500 0.000 0,1 635.713,635.518 L 688.774,688.523 A337.500,337.500 0.000 0,0 710.208,664.937 Z " style="stroke: none;   fill: rgb(179,186,212); " class="C16"/>
    <text x="704.8" y="686.3" font-size="9.1px" font-family="'CMUBright-Roman'" style="text-anchor:start;fill:rgb(0,0,0)" transform="rotate(42.3,704.8,686.3)" class="C16"></text>
    <path d="M 635.234,635.996 A262.500,262.500 0.000 0,1 623.161,647.285 L 672.636,703.653 A337.500,337.500 0.000 0,0 688.158,689.138 Z " style="stroke: none;   fill: rgb(179,186,212); " class="C17"/>
    <text x="684.8" y="706.2" font-size="9.1px" font-family="'CMUBright-Roman'" style="text-anchor:start;fill:rgb(0,0,0)" transform="rotate(46.9,684.8,706.2)" class="C17"></text>
    <path d="M 622.652,647.731 A262.500,262.500 0.000 0,1 613.123,655.662 L 659.730,714.423 A337.500,337.500 0.000 0,0 671.981,704.226 Z " style="stroke: none;   fill: rgb(179,186,212); " class="C18"/>
    <text x="669.6" y="719.3" font-size="9.1px" font-family="'CMUBright-Roman'" style="text-anchor:start;fill:rgb(0,0,0)" transform="rotate(50.2,669.6,719.3)" class="C18"></text>
    <path d="M 612.593,656.082 A262.500,262.500 0.000 0,1 521.122,702.681 L 541.443,774.876 A337.500,337.500 0.000 0,0 659.048,714.963 Z " style="stroke: none;   fill: rgb(179,186,212); " class="C19"/>
    <text x="604.6" y="761.2" font-size="9.1px" font-family="'CMUBright-Roman'" style="text-anchor:start;fill:rgb(0,0,0)" transform="rotate(63.0,604.6,761.2)" class="C19"></text>
    <path d="M 520.471,702.864 A262.500,262.500 0.000 0,1 459.351,712.333 L 462.022,787.286 A337.500,337.500 0.000 0,0 540.605,775.111 Z " style="stroke: none;   fill: rgb(179,186,212); " class="C20"/>
    <text x="499.7" y="793.9" font-size="9.1px" font-family="'CMUBright-Roman'" style="text-anchor:start;fill:rgb(0,0,0)" transform="rotate(81.2,499.7,793.9)" class="C20"></text>
    <path d="M 458.674,712.357 A262.500,262.500 0.000 0,1 413.334,709.927 L 402.859,784.191 A337.500,337.500 0.000 0,0 461.153,787.316 Z " style="stroke: none;   fill: rgb(179,186,212); " class="C21"/>
    <text x="434.9" y="797.2" font-size="9.1px" font-family="'CMUBright-Roman'" style="text-anchor:end;fill:rgb(0,0,0)" transform="rotate(-86.9,434.9,797.2)" class="C21"></text>
    <path d="M 412.665,709.831 A262.500,262.500 0.000 0,1 396.386,706.966 L 381.068,780.385 A337.500,337.500 0.000 0,0 401.997,784.069 Z " style="stroke: none;   fill: rgb(179,186,212); " class="C22"/>
    <text x="393.2" y="792.8" font-size="9.1px" font-family="'CMUBright-Roman'" style="text-anchor:end;fill:rgb(0,0,0)" transform="rotate(-80.0,393.2,792.8)" class="C22"></text>
    <path d="M 395.724,706.827 A262.500,262.500 0.000 0,1 322.447,679.426 L 286.003,744.977 A337.500,337.500 0.000 0,0 380.216,780.207 Z " style="stroke: none;   fill: rgb(179,186,212); " class="C23"/>
    <text x="331.6" y="776.7" font-size="9.1px" font-family="'CMUBright-Roman'" style="text-anchor:end;fill:rgb(0,0,0)" transform="rotate(-69.5,331.6,776.7)" class="C23"></text>
    <path d="M 321.856,679.097 A262.500,262.500 0.000 0,1 314.707,674.949 L 276.051,739.220 A337.500,337.500 0.000 0,0 285.243,744.553 Z " style="stroke: none;   fill: rgb(179,186,212); " class="C25"/>
    <text x="278.6" y="752.3" font-size="9.1px" font-family="'CMUBright-Roman'" style="text-anchor:end;fill:rgb(0,0,0)" transform="rotate(-59.9,278.6,752.3)" class="C25"></text>
    <path d="M 314.127,674.599 A262.500,262.500 0.000 0,1 293.548,660.782 L 248.847,721.005 A337.500,337.500 0.000 0,0 275.306,738.770 Z " style="stroke: none;   fill: rgb(179,186,212); " class="C24"/>
    <text x="259.2" y="740.4" font-size="9.1px" font-family="'CMUBright-Roman'" style="text-anchor:end;fill:rgb(0,0,0)" transform="rotate(-56.1,259.2,740.4)" class="C24"></text>
    <path d="M 293.005,660.378 A262.500,262.500 0.000 0,1 283.247,652.730 L 235.603,710.653 A337.500,337.500 0.000 0,0 248.149,720.485 Z " style="stroke: none;   fill: rgb(179,186,212); " class="C27"/>
    <text x="238.4" y="725.7" font-size="9.1px" font-family="'CMUBright-Roman'" style="text-anchor:end;fill:rgb(0,0,0)" transform="rotate(-51.9,238.4,725.7)" class="C27"></text>
    <path d="M 282.725,652.300 A262.500,262.500 0.000 0,1 201.565,534.772 L 130.584,558.993 A337.500,337.500 0.000 0,0 234.932,710.100 Z " style="stroke: none;   fill: rgb(179,186,212); " class="C26"/>
    <text x="166.1" y="650.3" font-size="9.1px" font-family="'CMUBright-Roman'" style="text-anchor:end;fill:rgb(0,0,0)" transform="rotate(-34.6,166.1,650.3)" class="C26"></text>
    <path d="M 201.347,534.131 A262.500,262.500 0.000 0,1 293.761,239.060 L 249.121,178.792 A337.500,337.500 0.000 0,0 130.304,558.169 Z " style="stroke: none;   fill: rgb(179,186,212); " class="C2"/>
    <text x="117.4" y="349.5" font-size="9.1px" font-family="'CMUBright-Roman'" style="text-anchor:end;fill:rgb(0,0,0)" transform="rotate(17.4,117.4,349.5)" class="C2"></text>
    <path d="M 300.310,246.810 A252.375,252.375 0.000 0,1 370.600,210.441 L 347.004,139.249 A327.375,327.375 0.000 0,0 255.826,186.427 Z " style="stroke: none;   fill: rgb(157,55,110); " class="E326"/>
    <text x="291.9" y="152.0" font-size="9.1px" font-family="'CMUBright-Roman'" style="text-anchor:end;fill:rgb(0,0,0)" transform="rotate(62.6,291.9,152.0)" class="E326"></text>
    <path d="M 371.218,210.236 A252.375,252.375 0.000 0,1 449.349,197.626 L 449.155,122.626 A327.375,327.375 0.000 0,0 347.806,138.984 Z " style="stroke: none;   fill: rgb(157,55,110); " class="E325"/>
    <text x="392.8" y="117.5" font-size="9.1px" font-family="'CMUBright-Roman'" style="text-anchor:end;fill:rgb(0,0,0)" transform="rotate(80.8,392.8,117.5)" class="E325"></text>
  </g>
  <g id="E326">
    <path d="M 375.157,222.225 A 239.756,239.756 0.00 0,1 449.4,210.2 Q 451.4,402.1 465.1,210.7 A 239.756,239.756 0.00 0,1 472.6,211.3 Q 444.8,403.4 375.2,222.2 Z" style="stroke-width: 1.0;  stroke: rgb(180,180,180); fill: rgb(222,220,70);" opacity="0.5"/>
    <path d="M 307.795,256.970 A 239.756,239.756 0.00 0,1 374.6,222.4 Q 451.4,405.0 539.6,227.6 A 239.756,239.756 0.00 0,1 546.6,230.5 Q 445.4,408.8 307.8,257.0 Z" style="stroke-width: 1.0;  stroke: rgb(180,180,180); fill: rgb(143,147,64);" opacity="0.8"/>
  </g>
  <g id="E326">
    <path d="M 539.604,227.617 A 239.756,239.756 0.00 0,1 546.6,230.5 Q 465.0,404.7 503.0,216.2 A 239.756,239.756 0.00 0,1 510.4,218.0 Q 465.0,404.6 539.6,227.6 Z" style="stroke-width: 1.0;  stroke: rgb(180,180,180); fill: rgb(143,147,64);" opacity="0.8"/>
    <path d="M 539.604,227.617 A 239.756,239.756 0.00 0,1 546.6,230.5 Q 461.2,404.1 465.1,210.7 A 239.756,239.756 0.00 0,1 472.6,211.3 Q 461.2,403.9 539.6,227.6 Z" style="stroke-width: 1.0;  stroke: rgb(180,180,180); fill: rgb(143,147,64);" opacity="0.8"/>
  </g>
  <g id="E326"/>
  <g id="plot0">
    <g id="plot0-axis"/>
    <text x="481.5" y="103.9" font-family="'CMUSansSerif-DemiCondensed'" style="fill: rgb(0,0,0); font-size: 13.0px; text-anchor: start" transform="rotate(274.5,481.5,103.9)">N398</text>
    <text x="588.8" y="131.4" font-family="'CMUSansSerif-DemiCondensed'" style="fill: rgb(0,0,0); font-size: 13.0px; text-anchor: start" transform="rotate(292.8,588.8,131.4)">N399</text>
    <text x="536.3" y="113.4" font-family="'CMUSansSerif-DemiCondensed'" style="fill: rgb(0,0,0); font-size: 13.0px; text-anchor: start" transform="rotate(283.7,536.3,113.4)">N100</text>
  </g>
  <script>function init(evt) {
    $(evt.target).bind('mouseover', doMouseOver);
    $(evt.target).bind('mouseup'  , doMouseUp);
    $(evt.target).bind('mousedown', doMouseDown);
}</script>
</svg>