<svg width="900px" height="900px" version="1.1" onload="init(evt)" xmlns="http://www.w3.org/2000/svg" xmlns:xlink="http://www.w3.org/1999/xlink">
  <g id="ideograms">
    <path d="M 450.000,197.625 A252.375,252.375 0.000 0,1 479.474,199.352 L 488.233,124.865 A327.375,327.375 0.000 0,0 450.000,122.625 Z " style="stroke: none;   fill: rgb(53,100,153); " class="N197"/>
    <text x="473.2" y="113.4" font-size="9.1px" font-family="'CMUBright-Roman'" style="text-anchor:start;fill:rgb(0,0,0)" transform="rotate(273.4,473.2,113.4)" class="N197"></text>
    <path d="M 479.959,199.410 A252.375,252.375 0.000 0,1 509.020,204.623 L 526.559,131.703 A327.375,327.375 0.000 0,0 488.863,124.940 Z " style="stroke: none;   fill: rgb(53,100,153); " class="N17"/>
    <text x="513.0" y="118.6" font-size="9.1px" font-family="'CMUBright-Roman'" style="text-anchor:start;fill:rgb(0,0,0)" transform="rotate(280.2,513.0,118.6)" class="N17"></text>
    <path d="M 509.495,204.738 A252.375,252.375 0.000 0,1 537.731,213.364 L 563.803,143.042 A327.375,327.375 0.000 0,0 527.176,131.852 Z " style="stroke: none;   fill: rgb(53,100,153); " class="N196"/>
    <text x="551.9" y="128.4" font-size="9.1px" font-family="'CMUBright-Roman'" style="text-anchor:start;fill:rgb(0,0,0)" transform="rotate(287.0,551.9,128.4)" class="N196"></text>
    <path d="M 538.189,213.535 A252.375,252.375 0.000 0,1 565.202,225.452 L 599.437,158.722 A327.375,327.375 0.000 0,0 564.397,143.263 Z " style="stroke: none;   fill: rgb(53,100,153); " class="N199"/>
    <text x="589.4" y="142.8" font-size="9.1px" font-family="'CMUBright-Roman'" style="text-anchor:start;fill:rgb(0,0,0)" transform="rotate(293.8,589.4,142.8)" class="N199"></text>
    <path d="M 565.636,225.676 A252.375,252.375 0.000 0,1 591.043,240.716 L 632.958,178.521 A327.375,327.375 0.000 0,0 600.001,159.012 Z " style="stroke: none;   fill: rgb(53,100,153); " class="N198"/>
    <text x="624.9" y="161.5" font-size="9.1px" font-family="'CMUBright-Roman'" style="text-anchor:start;fill:rgb(0,0,0)" transform="rotate(300.6,624.9,161.5)" class="N198"></text>
    <path d="M 591.448,240.989 A252.375,252.375 0.000 0,1 614.890,258.939 L 663.891,202.160 A327.375,327.375 0.000 0,0 633.483,178.876 Z " style="stroke: none;   fill: rgb(53,100,153); " class="N167"/>
    <text x="657.9" y="184.3" font-size="9.1px" font-family="'CMUBright-Roman'" style="text-anchor:start;fill:rgb(0,0,0)" transform="rotate(307.4,657.9,184.3)" class="N167"></text>
    <path d="M 615.260,259.258 A252.375,252.375 0.000 0,1 636.405,279.864 L 691.800,229.303 A327.375,327.375 0.000 0,0 664.371,202.574 Z " style="stroke: none;   fill: rgb(53,100,153); " class="N166"/>
    <text x="687.9" y="210.8" font-size="9.1px" font-family="'CMUBright-Roman'" style="text-anchor:start;fill:rgb(0,0,0)" transform="rotate(314.3,687.9,210.8)" class="N166"></text>
    <path d="M 636.734,280.225 A252.375,252.375 0.000 0,1 655.284,303.195 L 716.289,259.568 A327.375,327.375 0.000 0,0 692.227,229.772 Z " style="stroke: none;   fill: rgb(53,100,153); " class="N200"/>
    <text x="714.7" y="240.8" font-size="9.1px" font-family="'CMUBright-Roman'" style="text-anchor:start;fill:rgb(0,0,0)" transform="rotate(321.1,714.7,240.8)" class="N200"></text>
    <path d="M 655.567,303.593 A252.375,252.375 0.000 0,1 671.259,328.602 L 737.012,292.525 A327.375,327.375 0.000 0,0 716.657,260.084 Z " style="stroke: none;   fill: rgb(53,100,153); " class="N195"/>
    <text x="737.6" y="273.7" font-size="9.1px" font-family="'CMUBright-Roman'" style="text-anchor:start;fill:rgb(0,0,0)" transform="rotate(327.9,737.6,273.7)" class="N195"></text>
    <path d="M 680.380,324.177 A262.500,262.500 0.000 0,1 686.017,335.098 L 753.450,302.269 A337.500,337.500 0.000 0,0 746.203,288.228 Z " style="stroke: none;   fill: rgb(179,186,212); " class="C3"/>
    <text x="760.4" y="293.7" font-size="9.1px" font-family="'CMUBright-Roman'" style="text-anchor:start;fill:rgb(0,0,0)" transform="rotate(332.7,760.4,293.7)" class="C3"></text>
    <path d="M 686.238,335.555 A262.500,262.500 0.000 0,1 694.813,355.274 L 764.759,328.210 A337.500,337.500 0.000 0,0 753.735,302.856 Z " style="stroke: none;   fill: rgb(179,186,212); " class="C4"/>
    <text x="770.1" y="314.6" font-size="9.1px" font-family="'CMUBright-Roman'" style="text-anchor:start;fill:rgb(0,0,0)" transform="rotate(336.5,770.1,314.6)" class="C4"></text>
    <path d="M 694.995,355.748 A262.500,262.500 0.000 0,1 698.154,364.407 L 769.055,339.952 A337.500,337.500 0.000 0,0 764.994,328.819 Z " style="stroke: none;   fill: rgb(179,186,212); " class="C6"/>
    <text x="777.7" y="334.2" font-size="9.1px" font-family="'CMUBright-Roman'" style="text-anchor:start;fill:rgb(0,0,0)" transform="rotate(340.0,777.7,334.2)" class="C6"></text>
    <path d="M 698.319,364.888 A262.500,262.500 0.000 0,1 701.154,373.658 L 772.912,351.846 A337.500,337.500 0.000 0,0 769.267,340.570 Z " style="stroke: none;   fill: rgb(179,186,212); " class="C5"/>
    <text x="781.7" y="346.5" font-size="9.1px" font-family="'CMUBright-Roman'" style="text-anchor:start;fill:rgb(0,0,0)" transform="rotate(342.1,781.7,346.5)" class="C5"></text>
    <path d="M 701.301,374.144 A262.500,262.500 0.000 0,1 706.005,391.966 L 779.149,375.385 A337.500,337.500 0.000 0,0 773.101,352.471 Z " style="stroke: none;   fill: rgb(179,186,212); " class="C7"/>
    <text x="786.9" y="364.7" font-size="9.1px" font-family="'CMUBright-Roman'" style="text-anchor:start;fill:rgb(0,0,0)" transform="rotate(345.2,786.9,364.7)" class="C7"></text>
    <path d="M 706.116,392.461 A262.500,262.500 0.000 0,1 711.083,422.766 L 785.679,414.985 A337.500,337.500 0.000 0,0 779.292,376.022 Z " style="stroke: none;   fill: rgb(179,186,212); " class="C8"/>
    <text x="793.5" y="397.2" font-size="9.1px" font-family="'CMUBright-Roman'" style="text-anchor:start;fill:rgb(0,0,0)" transform="rotate(350.7,793.5,397.2)" class="C8"></text>
    <path d="M 711.136,423.271 A262.500,262.500 0.000 0,1 711.913,432.456 L 786.745,427.443 A337.500,337.500 0.000 0,0 785.746,415.634 Z " style="stroke: none;   fill: rgb(179,186,212); " class="C9"/>
    <text x="796.5" y="424.2" font-size="9.1px" font-family="'CMUBright-Roman'" style="text-anchor:start;fill:rgb(0,0,0)" transform="rotate(355.2,796.5,424.2)" class="C9"></text>
    <path d="M 711.947,432.963 A262.500,262.500 0.000 0,1 711.217,475.925 L 785.850,483.333 A337.500,337.500 0.000 0,0 786.788,428.095 Z " style="stroke: none;   fill: rgb(179,186,212); " class="C10"/>
    <text x="797.4" y="459.4" font-size="9.1px" font-family="'CMUBright-Roman'" style="text-anchor:start;fill:rgb(0,0,0)" transform="rotate(1.0,797.4,459.4)" class="C10"></text>
    <path d="M 711.166,476.431 A262.500,262.500 0.000 0,1 704.893,512.734 L 777.720,530.659 A337.500,337.500 0.000 0,0 785.785,483.982 Z " style="stroke: none;   fill: rgb(179,186,212); " class="C11"/>
    <text x="791.8" y="512.6" font-size="9.1px" font-family="'CMUBright-Roman'" style="text-anchor:start;fill:rgb(0,0,0)" transform="rotate(9.8,791.8,512.6)" class="C11"></text>
    <path d="M 704.772,513.227 A262.500,262.500 0.000 0,1 674.117,586.667 L 738.150,625.715 A337.500,337.500 0.000 0,0 777.563,531.292 Z " style="stroke: none;   fill: rgb(179,186,212); " class="C12"/>
    <text x="769.3" y="587.1" font-size="9.1px" font-family="'CMUBright-Roman'" style="text-anchor:start;fill:rgb(0,0,0)" transform="rotate(22.7,769.3,587.1)" class="C12"></text>
    <path d="M 673.852,587.101 A262.500,262.500 0.000 0,1 668.900,594.875 L 731.443,636.268 A337.500,337.500 0.000 0,0 737.810,626.272 Z " style="stroke: none;   fill: rgb(179,186,212); " class="C13"/>
    <text x="741.2" y="639.6" font-size="9.1px" font-family="'CMUBright-Roman'" style="text-anchor:start;fill:rgb(0,0,0)" transform="rotate(32.5,741.2,639.6)" class="C13"></text>
    <path d="M 668.620,595.298 A262.500,262.500 0.000 0,1 654.076,615.104 L 712.383,662.277 A337.500,337.500 0.000 0,0 731.083,636.812 Z " style="stroke: none;   fill: rgb(179,186,212); " class="C14"/>
    <text x="728.0" y="658.5" font-size="9.1px" font-family="'CMUBright-Roman'" style="text-anchor:start;fill:rgb(0,0,0)" transform="rotate(36.3,728.0,658.5)" class="C14"></text>
    <path d="M 653.756,615.499 A262.500,262.500 0.000 0,1 628.579,642.395 L 679.601,697.365 A337.500,337.500 0.000 0,0 711.972,662.784 Z " style="stroke: none;   fill: rgb(179,186,212); " class="C15"/>
    <text x="701.3" y="690.0" font-size="9.1px" font-family="'CMUBright-Roman'" style="text-anchor:start;fill:rgb(0,0,0)" transform="rotate(43.1,701.3,690.0)" class="C15"></text>
    <path d="M 621.333,635.306 A252.375,252.375 0.000 0,1 573.673,669.996 L 610.425,735.374 A327.375,327.375 0.000 0,0 672.249,690.374 Z " style="stroke: none;   fill: rgb(157,55,110); " class="E163"/>
    <text x="645.7" y="724.8" font-size="9.1px" font-family="'CMUBright-Roman'" style="text-anchor:start;fill:rgb(0,0,0)" transform="rotate(54.0,645.7,724.8)" class="E163"></text>
    <path d="M 573.247,670.235 A252.375,252.375 0.000 0,1 518.796,692.817 L 539.240,764.977 A327.375,327.375 0.000 0,0 609.873,735.684 Z " style="stroke: none;   fill: rgb(157,55,110); " class="E162"/>
    <text x="576.0" y="763.0" font-size="9.1px" font-family="'CMUBright-Roman'" style="text-anchor:start;fill:rgb(0,0,0)" transform="rotate(67.5,576.0,763.0)" class="E162"></text>
    <path d="M 518.325,692.950 A252.375,252.375 0.000 0,1 460.103,702.173 L 463.106,777.113 A327.375,327.375 0.000 0,0 538.630,765.149 Z " style="stroke: none;   fill: rgb(157,55,110); " class="E161"/>
    <text x="499.3" y="783.8" font-size="9.1px" font-family="'CMUBright-Roman'" style="text-anchor:start;fill:rgb(0,0,0)" transform="rotate(81.0,499.3,783.8)" class="E161"></text>
    <path d="M 459.615,702.192 A252.375,252.375 0.000 0,1 400.850,697.543 L 386.244,771.107 A327.375,327.375 0.000 0,0 462.472,777.137 Z " style="stroke: none;   fill: rgb(157,55,110); " class="E160"/>
    <text x="426.9" y="786.6" font-size="9.1px" font-family="'CMUBright-Roman'" style="text-anchor:end;fill:rgb(0,0,0)" transform="rotate(-85.5,426.9,786.6)" class="E160"></text>
    <path d="M 400.371,697.447 A252.375,252.375 0.000 0,1 344.323,679.185 L 312.919,747.293 A327.375,327.375 0.000 0,0 385.623,770.983 Z " style="stroke: none;   fill: rgb(157,55,110); " class="E159"/>
    <text x="348.8" y="771.8" font-size="9.1px" font-family="'CMUBright-Roman'" style="text-anchor:end;fill:rgb(0,0,0)" transform="rotate(-72.0,348.8,771.8)" class="E159"></text>
    <path d="M 343.880,678.980 A252.375,252.375 0.000 0,1 293.657,648.116 L 247.196,706.992 A327.375,327.375 0.000 0,0 312.343,747.027 Z " style="stroke: none;   fill: rgb(157,55,110); " class="E158"/>
    <text x="276.4" y="739.3" font-size="9.1px" font-family="'CMUBright-Roman'" style="text-anchor:end;fill:rgb(0,0,0)" transform="rotate(-58.4,276.4,739.3)" class="E158"></text>
    <path d="M 286.986,655.749 A262.500,262.500 0.000 0,1 277.535,647.894 L 228.259,704.435 A337.500,337.500 0.000 0,0 240.411,714.535 Z " style="stroke: none;   fill: rgb(179,186,212); " class="C17"/>
    <text x="230.6" y="719.5" font-size="9.1px" font-family="'CMUBright-Roman'" style="text-anchor:end;fill:rgb(0,0,0)" transform="rotate(-50.3,230.6,719.5)" class="C17"></text>
    <path d="M 277.152,647.560 A262.500,262.500 0.000 0,1 270.323,641.370 L 218.986,696.047 A337.500,337.500 0.000 0,0 227.767,704.006 Z " style="stroke: none;   fill: rgb(179,186,212); " class="C18"/>
    <text x="219.2" y="709.8" font-size="9.1px" font-family="'CMUBright-Roman'" style="text-anchor:end;fill:rgb(0,0,0)" transform="rotate(-47.8,219.2,709.8)" class="C18"></text>
    <path d="M 269.953,641.022 A262.500,262.500 0.000 0,1 222.502,580.962 L 157.503,618.379 A337.500,337.500 0.000 0,0 218.511,695.599 Z " style="stroke: none;   fill: rgb(179,186,212); " class="C19"/>
    <text x="179.5" y="668.2" font-size="9.1px" font-family="'CMUBright-Roman'" style="text-anchor:end;fill:rgb(0,0,0)" transform="rotate(-38.3,179.5,668.2)" class="C19"></text>
    <path d="M 222.249,580.521 A262.500,262.500 0.000 0,1 202.951,538.731 L 132.366,564.083 A337.500,337.500 0.000 0,0 157.178,617.813 Z " style="stroke: none;   fill: rgb(179,186,212); " class="C20"/>
    <text x="136.0" y="598.9" font-size="9.1px" font-family="'CMUBright-Roman'" style="text-anchor:end;fill:rgb(0,0,0)" transform="rotate(-24.8,136.0,598.9)" class="C20"></text>
    <path d="M 202.780,538.253 A262.500,262.500 0.000 0,1 193.495,505.779 L 120.207,521.715 A337.500,337.500 0.000 0,0 132.146,563.468 Z " style="stroke: none;   fill: rgb(179,186,212); " class="C21"/>
    <text x="116.9" y="548.9" font-size="9.1px" font-family="'CMUBright-Roman'" style="text-anchor:end;fill:rgb(0,0,0)" transform="rotate(-16.0,116.9,548.9)" class="C21"></text>
    <path d="M 193.387,505.282 A262.500,262.500 0.000 0,1 191.081,493.211 L 117.104,505.557 A337.500,337.500 0.000 0,0 120.069,521.077 Z " style="stroke: none;   fill: rgb(179,186,212); " class="C22"/>
    <text x="109.3" y="518.6" font-size="9.1px" font-family="'CMUBright-Roman'" style="text-anchor:end;fill:rgb(0,0,0)" transform="rotate(-10.8,109.3,518.6)" class="C22"></text>
    <path d="M 200.988,491.063 A252.375,252.375 0.000 0,1 198.064,435.126 L 123.194,430.706 A327.375,327.375 0.000 0,0 126.987,503.266 Z " style="stroke: none;   fill: rgb(179,186,212); " class="C23"/>
    <text x="113.3" y="471.1" font-size="9.1px" font-family="'CMUBright-Roman'" style="text-anchor:end;fill:rgb(0,0,0)" transform="rotate(-3.0,113.3,471.1)" class="C23"></text>
    <path d="M 187.987,434.023 A262.500,262.500 0.000 0,1 188.432,427.894 L 113.699,421.578 A337.500,337.500 0.000 0,0 113.126,429.458 Z " style="stroke: none;   fill: rgb(179,186,212); " class="C25"/>
    <text x="103.2" y="428.3" font-size="9.1px" font-family="'CMUBright-Roman'" style="text-anchor:end;fill:rgb(0,0,0)" transform="rotate(4.2,103.2,428.3)" class="C25"></text>
    <path d="M 188.476,427.388 A262.500,262.500 0.000 0,1 190.707,409.091 L 116.624,397.403 A337.500,337.500 0.000 0,0 113.755,420.927 Z " style="stroke: none;   fill: rgb(179,186,212); " class="C24"/>
    <text x="104.6" y="411.4" font-size="9.1px" font-family="'CMUBright-Roman'" style="text-anchor:end;fill:rgb(0,0,0)" transform="rotate(7.0,104.6,411.4)" class="C24"></text>
    <path d="M 190.787,408.590 A262.500,262.500 0.000 0,1 192.401,399.514 L 118.801,385.090 A337.500,337.500 0.000 0,0 116.726,396.758 Z " style="stroke: none;   fill: rgb(179,186,212); " class="C27"/>
    <text x="107.3" y="392.6" font-size="9.1px" font-family="'CMUBright-Roman'" style="text-anchor:end;fill:rgb(0,0,0)" transform="rotate(10.1,107.3,392.6)" class="C27"></text>
    <path d="M 192.499,399.016 A262.500,262.500 0.000 0,1 234.116,300.667 L 172.435,258.000 A337.500,337.500 0.000 0,0 118.927,384.450 Z " style="stroke: none;   fill: rgb(179,186,212); " class="C26"/>
    <text x="128.6" y="317.8" font-size="9.1px" font-family="'CMUBright-Roman'" style="text-anchor:end;fill:rgb(0,0,0)" transform="rotate(22.9,128.6,317.8)" class="C26"></text>
    <path d="M 234.405,300.249 A262.500,262.500 0.000 0,1 442.840,187.598 L 440.794,112.626 A337.500,337.500 0.000 0,0 172.807,257.464 Z " style="stroke: none;   fill: rgb(179,186,212); " class="C2"/>
    <text x="281.7" y="146.0" font-size="9.1px" font-family="'CMUBright-Roman'" style="text-anchor:end;fill:rgb(0,0,0)" transform="rotate(61.6,281.7,146.0)" class="C2"></text>
    <path d="M 443.348,187.584 A262.500,262.500 0.000 0,1 449.492,187.500 L 449.347,112.501 A337.500,337.500 0.000 0,0 441.447,112.608 Z " style="stroke: none;   fill: rgb(179,186,212); " class="C1"/>
    <text x="441.8" y="102.6" font-size="9.1px" font-family="'CMUBright-Roman'" style="text-anchor:end;fill:rgb(0,0,0)" transform="rotate(89.2,441.8,102.6)" class="C1"></text>
  </g>
  <g id="E161">
    <path d="M 461.222,210.507 A 239.756,239.756 0.00 0,1 466.8,210.8 Q 428.0,430.0 213.4,489.0 A 239.756,239.756 0.00 0,1 210.7,435.9 Q 427.2,424.6 461.2,210.5 Z" style="stroke-width: 1.0;  stroke: rgb(180,180,180); fill: rgb(222,220,70);" opacity="0.5"/>
  </g>
  <g id="E161">
    <path d="M 612.766,626.041 A 239.756,239.756 0.00 0,1 567.5,659.0 Q 480.2,455.6 634.8,297.2 A 239.756,239.756 0.00 0,1 638.3,301.6 Q 485.1,452.8 612.8,626.0 Z" style="stroke-width: 1.0;  stroke: rgb(180,180,180); fill: rgb(222,220,70);" opacity="0.5"/>
    <path d="M 349.186,667.531 A 239.756,239.756 0.00 0,1 301.5,638.2 Q 455.3,455.8 651.6,320.2 A 239.756,239.756 0.00 0,1 654.6,325.0 Q 460.4,459.2 349.2,667.5 Z" style="stroke-width: 1.0;  stroke: rgb(180,180,180); fill: rgb(222,220,70);" opacity="0.5"/>
    <path d="M 402.853,685.075 A 239.756,239.756 0.00 0,1 349.6,667.7 Q 441.1,447.8 461.2,210.5 A 239.756,239.756 0.00 0,1 466.8,210.8 Q 447.0,449.6 402.9,685.1 Z" style="stroke-width: 1.0;  stroke: rgb(180,180,180); fill: rgb(222,220,70);" opacity="0.5"/>
    <path d="M 514.909,680.803 A 239.756,239.756 0.00 0,1 459.6,689.6 Q 460.4,451.9 544.2,229.5 A 239.756,239.756 0.00 0,1 549.3,231.8 Q 466.4,451.3 514.9,680.8 Z" style="stroke-width: 1.0;  stroke: rgb(180,180,180); fill: rgb(143,147,64);" opacity="0.8"/>
    <path d="M 459.134,689.582 A 239.756,239.756 0.00 0,1 403.3,685.2 Q 457.3,452.7 569.7,242.3 A 239.756,239.756 0.00 0,1 574.5,245.1 Q 463.4,453.5 459.1,689.6 Z" style="stroke-width: 1.0;  stroke: rgb(180,180,180); fill: rgb(222,220,70);" opacity="0.5"/>
    <path d="M 567.084,659.223 A 239.756,239.756 0.00 0,1 515.4,680.7 Q 460.5,449.4 489.6,213.5 A 239.756,239.756 0.00 0,1 495.1,214.5 Q 466.2,447.4 567.1,659.2 Z" style="stroke-width: 1.0;  stroke: rgb(180,180,180); fill: rgb(222,220,70);" opacity="0.5"/>
  </g>
  <g id="E161">
    <path d="M 461.222,210.507 A 239.756,239.756 0.00 0,1 466.8,210.8 Q 471.8,413.1 651.6,320.2 A 239.756,239.756 0.00 0,1 654.6,325.0 Q 471.6,413.5 461.2,210.5 Z" style="stroke-width: 1.0;  stroke: rgb(180,180,180); fill: rgb(143,147,64);" opacity="0.8"/>
    <path d="M 651.585,320.206 A 239.756,239.756 0.00 0,1 654.6,325.0 Q 471.6,413.5 461.2,210.5 A 239.756,239.756 0.00 0,1 466.8,210.8 Q 471.8,413.1 651.6,320.2 Z" style="stroke-width: 1.0;  stroke: rgb(180,180,180); fill: rgb(222,220,70);" opacity="0.5"/>
    <path d="M 461.222,210.507 A 239.756,239.756 0.00 0,1 466.8,210.8 Q 471.8,413.1 651.6,320.2 A 239.756,239.756 0.00 0,1 654.6,325.0 Q 471.6,413.5 461.2,210.5 Z" style="stroke-width: 1.0;  stroke: rgb(180,180,180); fill: rgb(222,220,70);" opacity="0.5"/>
    <path d="M 544.202,229.526 A 239.756,239.756 0.00 0,1 549.3,231.8 Q 471.9,407.4 569.7,242.3 A 239.756,239.756 0.00 0,1 574.5,245.1 Q 471.9,407.5 544.2,229.5 Z" style="stroke-width: 1.0;  stroke: rgb(180,180,180); fill: rgb(143,147,64);" opacity="0.8"/>
    <path d="M 593.522,257.947 A 239.756,239.756 0.00 0,1 598.0,261.4 Q 468.8,407.5 489.6,213.5 A 239.756,239.756 0.00 0,1 495.1,214.5 Q 468.9,407.2 593.5,257.9 Z" style="stroke-width: 1.0;  stroke: rgb(180,180,180); fill: rgb(222,220,70);" opacity="0.5"/>
    <path d="M 593.522,257.947 A 239.756,239.756 0.00 0,1 598.0,261.4 Q 481.3,413.8 615.3,276.3 A 239.756,239.756 0.00 0,1 619.3,280.3 Q 481.3,413.8 593.5,257.9 Z" style="stroke-width: 1.0;  stroke: rgb(180,180,180); fill: rgb(222,220,70);" opacity="0.5"/>
    <path d="M 634.752,297.193 A 239.756,239.756 0.00 0,1 638.3,301.6 Q 483.2,416.0 593.5,257.9 A 239.756,239.756 0.00 0,1 598.0,261.4 Q 483.3,415.9 634.8,297.2 Z" style="stroke-width: 1.0;  stroke: rgb(180,180,180); fill: rgb(222,220,70);" opacity="0.5"/>
    <path d="M 544.202,229.526 A 239.756,239.756 0.00 0,1 549.3,231.8 Q 461.1,404.2 461.2,210.5 A 239.756,239.756 0.00 0,1 466.8,210.8 Q 461.1,404.0 544.2,229.5 Z" style="stroke-width: 1.0;  stroke: rgb(180,180,180); fill: rgb(143,147,64);" opacity="0.8"/>
    <path d="M 461.222,210.507 A 239.756,239.756 0.00 0,1 466.8,210.8 Q 458.4,403.1 517.4,219.9 A 239.756,239.756 0.00 0,1 522.7,221.5 Q 458.4,403.2 461.2,210.5 Z" style="stroke-width: 1.0;  stroke: rgb(180,180,180); fill: rgb(143,147,64);" opacity="0.8"/>
    <path d="M 517.364,219.902 A 239.756,239.756 0.00 0,1 522.7,221.5 Q 458.4,403.2 461.2,210.5 A 239.756,239.756 0.00 0,1 466.8,210.8 Q 458.4,403.1 517.4,219.9 Z" style="stroke-width: 1.0;  stroke: rgb(180,180,180); fill: rgb(222,220,70);" opacity="0.5"/>
    <path d="M 461.222,210.507 A 239.756,239.756 0.00 0,1 466.8,210.8 Q 458.4,403.1 517.4,219.9 A 239.756,239.756 0.00 0,1 522.7,221.5 Q 458.4,403.2 461.2,210.5 Z" style="stroke-width: 1.0;  stroke: rgb(180,180,180); fill: rgb(222,220,70);" opacity="0.5"/>
  </g>
  <g id="E161"/>
  <g id="plot0">
    <g id="plot0-axis"/>
    <text x="746.6" y="268.9" font-family="'CMUSansSerif-DemiCondensed'" style="fill: rgb(0,0,0); font-size: 13.0px; text-anchor: start" transform="rotate(327.9,746.6,268.9)">N195</text>
    <text x="474.5" y="103.4" font-family="'CMUSansSerif-DemiCondensed'" style="fill: rgb(0,0,0); font-size: 13.0px; text-anchor: start" transform="rotate(273.4,474.5,103.4)">N197</text>
    <text x="555.6" y="118.9" font-family="'CMUSansSerif-DemiCondensed'" style="fill: rgb(0,0,0); font-size: 13.0px; text-anchor: start" transform="rotate(287.0,555.6,118.9)">N196</text>
    <text x="630.6" y="153.1" font-family="'CMUSansSerif-DemiCondensed'" style="fill: rgb(0,0,0); font-size: 13.0px; text-anchor: start" transform="rotate(300.6,630.6,153.1)">N198</text>
    <text x="594.1" y="133.8" font-family="'CMUSansSerif-DemiCondensed'" style="fill: rgb(0,0,0); font-size: 13.0px; text-anchor: start" transform="rotate(293.8,594.1,133.8)">N199</text>
    <text x="723.0" y="235.0" font-family="'CMUSansSerif-DemiCondensed'" style="fill: rgb(0,0,0); font-size: 13.0px; text-anchor: start" transform="rotate(321.1,723.0,235.0)">N200</text>
    <text x="664.6" y="176.7" font-family="'CMUSansSerif-DemiCondensed'" style="fill: rgb(0,0,0); font-size: 13.0px; text-anchor: start" transform="rotate(307.4,664.6,176.7)">N167</text>
    <text x="695.5" y="204.1" font-family="'CMUSansSerif-DemiCondensed'" style="fill: rgb(0,0,0); font-size: 13.0px; text-anchor: start" transform="rotate(314.3,695.5,204.1)">N166</text>
    <text x="515.5" y="108.7" font-family="'CMUSansSerif-DemiCondensed'" style="fill: rgb(0,0,0); font-size: 13.0px; text-anchor: start" transform="rotate(280.2,515.5,108.7)">N17</text>
    <text x="103.2" y="472.4" font-family="'CMUSansSerif-DemiCondensed'" style="fill: rgb(0,0,0); font-size: 13.0px; text-anchor: end" transform="rotate(357.0,103.2,472.4)">C23</text>
  </g>
  <script>function init(evt) {
    $(evt.target).bind('mouseover', doMouseOver);
    $(evt.target).bind('mouseup'  , doMouseUp);
    $(evt.target).bind('mousedown', doMouseDown);
}</script>
</svg>