<svg width="900px" height="900px" version="1.1" onload="init(evt)" xmlns="http://www.w3.org/2000/svg" xmlns:xlink="http://www.w3.org/1999/xlink">
  <g id="ideograms">
    <path d="M 450.000,197.625 A252.375,252.375 0.000 0,1 478.928,199.288 L 487.525,124.783 A327.375,327.375 0.000 0,0 450.000,122.625 Z " style="stroke: none;   fill: rgb(53,100,153); " class="N7"/>
    <text x="472.9" y="113.4" font-size="9.1px" font-family="'CMUBright-Roman'" style="text-anchor:start;fill:rgb(0,0,0)" transform="rotate(273.3,472.9,113.4)" class="N7"></text>
    <path d="M 479.405,199.344 A252.375,252.375 0.000 0,1 507.943,204.367 L 525.162,131.370 A327.375,327.375 0.000 0,0 488.144,124.855 Z " style="stroke: none;   fill: rgb(53,100,153); " class="N327"/>
    <text x="511.9" y="118.4" font-size="9.1px" font-family="'CMUBright-Roman'" style="text-anchor:start;fill:rgb(0,0,0)" transform="rotate(280.0,511.9,118.4)" class="N327"></text>
    <path d="M 508.410,204.477 A252.375,252.375 0.000 0,1 536.168,212.791 L 561.775,142.298 A327.375,327.375 0.000 0,0 525.768,131.514 Z " style="stroke: none;   fill: rgb(53,100,153); " class="N322"/>
    <text x="550.1" y="127.8" font-size="9.1px" font-family="'CMUBright-Roman'" style="text-anchor:start;fill:rgb(0,0,0)" transform="rotate(286.7,550.1,127.8)" class="N322"></text>
    <path d="M 536.619,212.955 A252.375,252.375 0.000 0,1 563.219,224.446 L 596.865,157.417 A327.375,327.375 0.000 0,0 562.360,142.511 Z " style="stroke: none;   fill: rgb(53,100,153); " class="N6"/>
    <text x="587.0" y="141.7" font-size="9.1px" font-family="'CMUBright-Roman'" style="text-anchor:start;fill:rgb(0,0,0)" transform="rotate(293.4,587.0,141.7)" class="N6"></text>
    <path d="M 563.648,224.662 A252.375,252.375 0.000 0,1 588.728,239.174 L 629.955,176.521 A327.375,327.375 0.000 0,0 597.422,157.697 Z " style="stroke: none;   fill: rgb(53,100,153); " class="N96"/>
    <text x="622.0" y="159.8" font-size="9.1px" font-family="'CMUBright-Roman'" style="text-anchor:start;fill:rgb(0,0,0)" transform="rotate(300.1,622.0,159.8)" class="N96"></text>
    <path d="M 589.129,239.438 A252.375,252.375 0.000 0,1 612.347,256.774 L 660.593,199.351 A327.375,327.375 0.000 0,0 630.475,176.864 Z " style="stroke: none;   fill: rgb(53,100,153); " class="N275"/>
    <text x="654.6" y="181.8" font-size="9.1px" font-family="'CMUBright-Roman'" style="text-anchor:start;fill:rgb(0,0,0)" transform="rotate(306.7,654.6,181.8)" class="N275"></text>
    <path d="M 612.715,257.083 A252.375,252.375 0.000 0,1 633.755,277.005 L 688.363,225.595 A327.375,327.375 0.000 0,0 661.070,199.752 Z " style="stroke: none;   fill: rgb(53,100,153); " class="N11"/>
    <text x="684.5" y="207.4" font-size="9.1px" font-family="'CMUBright-Roman'" style="text-anchor:start;fill:rgb(0,0,0)" transform="rotate(313.4,684.5,207.4)" class="N11"></text>
    <path d="M 634.084,277.355 A252.375,252.375 0.000 0,1 652.660,299.594 L 712.886,254.896 A327.375,327.375 0.000 0,0 688.790,226.049 Z " style="stroke: none;   fill: rgb(53,100,153); " class="N326"/>
    <text x="711.2" y="236.4" font-size="9.1px" font-family="'CMUBright-Roman'" style="text-anchor:start;fill:rgb(0,0,0)" transform="rotate(320.1,711.2,236.4)" class="N326"></text>
    <path d="M 652.946,299.980 A252.375,252.375 0.000 0,1 668.804,324.231 L 733.828,286.855 A327.375,327.375 0.000 0,0 713.257,255.397 Z " style="stroke: none;   fill: rgb(53,100,153); " class="N323"/>
    <text x="734.3" y="268.3" font-size="9.1px" font-family="'CMUBright-Roman'" style="text-anchor:start;fill:rgb(0,0,0)" transform="rotate(326.8,734.3,268.3)" class="N323"></text>
    <path d="M 669.043,324.648 A252.375,252.375 0.000 0,1 681.968,350.581 L 750.903,321.036 A327.375,327.375 0.000 0,0 734.138,287.396 Z " style="stroke: none;   fill: rgb(53,100,153); " class="N274"/>
    <text x="753.5" y="302.7" font-size="9.1px" font-family="'CMUBright-Roman'" style="text-anchor:start;fill:rgb(0,0,0)" transform="rotate(333.5,753.5,302.7)" class="N274"></text>
    <path d="M 691.470,347.052 A262.500,262.500 0.000 0,1 695.944,358.253 L 766.214,332.039 A337.500,337.500 0.000 0,0 760.462,317.638 Z " style="stroke: none;   fill: rgb(179,186,212); " class="C3"/>
    <text x="774.0" y="324.4" font-size="9.1px" font-family="'CMUBright-Roman'" style="text-anchor:start;fill:rgb(0,0,0)" transform="rotate(338.2,774.0,324.4)" class="C3"></text>
    <path d="M 696.118,358.720 A262.500,262.500 0.000 0,1 702.655,378.785 L 774.842,358.438 A337.500,337.500 0.000 0,0 766.438,332.640 Z " style="stroke: none;   fill: rgb(179,186,212); " class="C4"/>
    <text x="781.5" y="345.7" font-size="9.1px" font-family="'CMUBright-Roman'" style="text-anchor:start;fill:rgb(0,0,0)" transform="rotate(342.0,781.5,345.7)" class="C4"></text>
    <path d="M 702.790,379.266 A262.500,262.500 0.000 0,1 705.077,388.018 L 777.957,370.308 A337.500,337.500 0.000 0,0 775.016,359.056 Z " style="stroke: none;   fill: rgb(179,186,212); " class="C6"/>
    <text x="787.1" y="365.5" font-size="9.1px" font-family="'CMUBright-Roman'" style="text-anchor:start;fill:rgb(0,0,0)" transform="rotate(345.4,787.1,365.5)" class="C6"></text>
    <path d="M 705.195,388.503 A262.500,262.500 0.000 0,1 707.162,397.332 L 780.637,382.284 A337.500,337.500 0.000 0,0 778.107,370.932 Z " style="stroke: none;   fill: rgb(179,186,212); " class="C5"/>
    <text x="789.9" y="377.8" font-size="9.1px" font-family="'CMUBright-Roman'" style="text-anchor:start;fill:rgb(0,0,0)" transform="rotate(347.4,789.9,377.8)" class="C5"></text>
    <path d="M 707.262,397.821 A262.500,262.500 0.000 0,1 710.245,415.663 L 784.600,405.853 A337.500,337.500 0.000 0,0 780.765,382.913 Z " style="stroke: none;   fill: rgb(179,186,212); " class="C7"/>
    <text x="793.3" y="396.2" font-size="9.1px" font-family="'CMUBright-Roman'" style="text-anchor:start;fill:rgb(0,0,0)" transform="rotate(350.5,793.3,396.2)" class="C7"></text>
    <path d="M 710.309,416.158 A262.500,262.500 0.000 0,1 712.473,446.219 L 787.465,445.138 A337.500,337.500 0.000 0,0 784.683,406.489 Z " style="stroke: none;   fill: rgb(179,186,212); " class="C8"/>
    <text x="796.8" y="428.5" font-size="9.1px" font-family="'CMUBright-Roman'" style="text-anchor:start;fill:rgb(0,0,0)" transform="rotate(355.9,796.8,428.5)" class="C8"></text>
    <path d="M 712.479,446.718 A262.500,262.500 0.000 0,1 712.437,455.764 L 787.419,457.410 A337.500,337.500 0.000 0,0 787.474,445.780 Z " style="stroke: none;   fill: rgb(179,186,212); " class="C9"/>
    <text x="797.5" y="455.1" font-size="9.1px" font-family="'CMUBright-Roman'" style="text-anchor:start;fill:rgb(0,0,0)" transform="rotate(0.3,797.5,455.1)" class="C9"></text>
    <path d="M 712.425,456.262 A262.500,262.500 0.000 0,1 708.036,498.205 L 781.760,511.978 A337.500,337.500 0.000 0,0 787.404,458.052 Z " style="stroke: none;   fill: rgb(179,186,212); " class="C10"/>
    <text x="795.2" y="489.6" font-size="9.1px" font-family="'CMUBright-Roman'" style="text-anchor:start;fill:rgb(0,0,0)" transform="rotate(6.0,795.2,489.6)" class="C10"></text>
    <path d="M 707.944,498.695 A262.500,262.500 0.000 0,1 698.805,533.679 L 769.893,557.587 A337.500,337.500 0.000 0,0 781.642,512.608 Z " style="stroke: none;   fill: rgb(179,186,212); " class="C11"/>
    <text x="785.3" y="541.2" font-size="9.1px" font-family="'CMUBright-Roman'" style="text-anchor:start;fill:rgb(0,0,0)" transform="rotate(14.6,785.3,541.2)" class="C11"></text>
    <path d="M 698.646,534.152 A262.500,262.500 0.000 0,1 662.875,603.592 L 723.697,647.475 A337.500,337.500 0.000 0,0 769.688,558.195 Z " style="stroke: none;   fill: rgb(179,186,212); " class="C12"/>
    <text x="757.3" y="612.2" font-size="9.1px" font-family="'CMUBright-Roman'" style="text-anchor:start;fill:rgb(0,0,0)" transform="rotate(27.3,757.3,612.2)" class="C12"></text>
    <path d="M 662.583,603.996 A262.500,262.500 0.000 0,1 657.151,611.229 L 716.336,657.295 A337.500,337.500 0.000 0,0 723.321,647.995 Z " style="stroke: none;   fill: rgb(179,186,212); " class="C13"/>
    <text x="725.7" y="661.5" font-size="9.1px" font-family="'CMUBright-Roman'" style="text-anchor:start;fill:rgb(0,0,0)" transform="rotate(36.9,725.7,661.5)" class="C13"></text>
    <path d="M 656.844,611.623 A262.500,262.500 0.000 0,1 641.138,629.923 L 695.749,681.330 A337.500,337.500 0.000 0,0 715.942,657.801 Z " style="stroke: none;   fill: rgb(179,186,212); " class="C14"/>
    <text x="711.4" y="679.0" font-size="9.1px" font-family="'CMUBright-Roman'" style="text-anchor:start;fill:rgb(0,0,0)" transform="rotate(40.6,711.4,679.0)" class="C14"></text>
    <path d="M 640.796,630.286 A262.500,262.500 0.000 0,1 614.212,654.794 L 661.130,713.307 A337.500,337.500 0.000 0,0 695.309,681.797 Z " style="stroke: none;   fill: rgb(179,186,212); " class="C15"/>
    <text x="683.0" y="707.9" font-size="9.1px" font-family="'CMUBright-Roman'" style="text-anchor:start;fill:rgb(0,0,0)" transform="rotate(47.3,683.0,707.9)" class="C15"></text>
    <path d="M 613.822,655.106 A262.500,262.500 0.000 0,1 599.308,665.902 L 641.967,727.588 A337.500,337.500 0.000 0,0 660.629,713.708 Z " style="stroke: none;   fill: rgb(179,186,212); " class="C16"/>
    <text x="654.6" y="730.9" font-size="9.1px" font-family="'CMUBright-Roman'" style="text-anchor:start;fill:rgb(0,0,0)" transform="rotate(53.4,654.6,730.9)" class="C16"></text>
    <path d="M 598.897,666.185 A262.500,262.500 0.000 0,1 588.809,672.796 L 628.469,736.452 A337.500,337.500 0.000 0,0 641.439,727.952 Z " style="stroke: none;   fill: rgb(179,186,212); " class="C17"/>
    <text x="637.5" y="742.5" font-size="9.1px" font-family="'CMUBright-Roman'" style="text-anchor:start;fill:rgb(0,0,0)" transform="rotate(56.8,637.5,742.5)" class="C17"></text>
    <path d="M 588.386,673.060 A262.500,262.500 0.000 0,1 580.618,677.696 L 617.937,742.752 A337.500,337.500 0.000 0,0 627.924,736.791 Z " style="stroke: none;   fill: rgb(179,186,212); " class="C18"/>
    <text x="625.1" y="750.2" font-size="9.1px" font-family="'CMUBright-Roman'" style="text-anchor:start;fill:rgb(0,0,0)" transform="rotate(59.2,625.1,750.2)" class="C18"></text>
    <path d="M 580.184,677.944 A262.500,262.500 0.000 0,1 510.286,705.484 L 527.510,778.479 A337.500,337.500 0.000 0,0 617.380,743.070 Z " style="stroke: none;   fill: rgb(179,186,212); " class="C19"/>
    <text x="574.1" y="774.6" font-size="9.1px" font-family="'CMUBright-Roman'" style="text-anchor:start;fill:rgb(0,0,0)" transform="rotate(68.5,574.1,774.6)" class="C19"></text>
    <path d="M 509.800,705.598 A262.500,262.500 0.000 0,1 465.089,712.066 L 469.400,786.942 A337.500,337.500 0.000 0,0 526.886,778.626 Z " style="stroke: none;   fill: rgb(179,186,212); " class="C20"/>
    <text x="496.3" y="794.4" font-size="9.1px" font-family="'CMUBright-Roman'" style="text-anchor:start;fill:rgb(0,0,0)" transform="rotate(81.8,496.3,794.4)" class="C20"></text>
    <path d="M 464.591,712.094 A262.500,262.500 0.000 0,1 431.443,711.843 L 426.141,786.656 A337.500,337.500 0.000 0,0 468.759,786.978 Z " style="stroke: none;   fill: rgb(179,186,212); " class="C21"/>
    <text x="450.9" y="797.5" font-size="9.1px" font-family="'CMUBright-Roman'" style="text-anchor:end;fill:rgb(0,0,0)" transform="rotate(-89.6,450.9,797.5)" class="C21"></text>
    <path d="M 430.945,711.808 A262.500,262.500 0.000 0,1 418.940,710.656 L 410.065,785.129 A337.500,337.500 0.000 0,0 425.501,786.610 Z " style="stroke: none;   fill: rgb(179,186,212); " class="C22"/>
    <text x="420.3" y="796.2" font-size="9.1px" font-family="'CMUBright-Roman'" style="text-anchor:end;fill:rgb(0,0,0)" transform="rotate(-84.5,420.3,796.2)" class="C22"></text>
    <path d="M 418.444,710.596 A262.500,262.500 0.000 0,1 362.764,697.581 L 337.840,768.318 A337.500,337.500 0.000 0,0 409.428,785.052 Z " style="stroke: none;   fill: rgb(179,186,212); " class="C23"/>
    <text x="374.3" y="789.2" font-size="9.1px" font-family="'CMUBright-Roman'" style="text-anchor:end;fill:rgb(0,0,0)" transform="rotate(-76.8,374.3,789.2)" class="C23"></text>
    <path d="M 362.294,697.414 A262.500,262.500 0.000 0,1 356.633,695.334 L 329.957,765.430 A337.500,337.500 0.000 0,0 337.235,768.104 Z " style="stroke: none;   fill: rgb(179,186,212); " class="C25"/>
    <text x="333.4" y="777.4" font-size="9.1px" font-family="'CMUBright-Roman'" style="text-anchor:end;fill:rgb(0,0,0)" transform="rotate(-69.8,333.4,777.4)" class="C25"></text>
    <path d="M 359.786,685.700 A252.375,252.375 0.000 0,1 308.479,658.962 L 266.423,721.060 A327.375,327.375 0.000 0,0 332.977,755.745 Z " style="stroke: none;   fill: rgb(157,55,110); " class="E277"/>
    <text x="297.2" y="750.8" font-size="9.1px" font-family="'CMUBright-Roman'" style="text-anchor:end;fill:rgb(0,0,0)" transform="rotate(-62.5,297.2,750.8)" class="E277"></text>
    <path d="M 308.082,658.692 A252.375,252.375 0.000 0,1 264.284,620.888 L 209.094,671.672 A327.375,327.375 0.000 0,0 265.907,720.711 Z " style="stroke: none;   fill: rgb(157,55,110); " class="E276"/>
    <text x="232.2" y="707.7" font-size="9.1px" font-family="'CMUBright-Roman'" style="text-anchor:end;fill:rgb(0,0,0)" transform="rotate(-49.2,232.2,707.7)" class="E276"></text>
    <path d="M 263.959,620.535 A252.375,252.375 0.000 0,1 230.011,573.685 L 164.636,610.442 A327.375,327.375 0.000 0,0 208.673,671.214 Z " style="stroke: none;   fill: rgb(157,55,110); " class="E275"/>
    <text x="178.9" y="650.8" font-size="9.1px" font-family="'CMUBright-Roman'" style="text-anchor:end;fill:rgb(0,0,0)" transform="rotate(-35.9,178.9,650.8)" class="E275"></text>
    <path d="M 229.776,573.266 A252.375,252.375 0.000 0,1 207.491,519.874 L 135.423,540.640 A327.375,327.375 0.000 0,0 164.331,609.898 Z " style="stroke: none;   fill: rgb(157,55,110); " class="E272"/>
    <text x="140.0" y="583.2" font-size="9.1px" font-family="'CMUBright-Roman'" style="text-anchor:end;fill:rgb(0,0,0)" transform="rotate(-22.7,140.0,583.2)" class="E272"></text>
    <path d="M 207.358,519.413 A252.375,252.375 0.000 0,1 197.926,462.331 L 123.016,465.995 A327.375,327.375 0.000 0,0 135.251,540.041 Z " style="stroke: none;   fill: rgb(157,55,110); " class="E271"/>
    <text x="117.7" y="508.4" font-size="9.1px" font-family="'CMUBright-Roman'" style="text-anchor:end;fill:rgb(0,0,0)" transform="rotate(-9.4,117.7,508.4)" class="E271"></text>
    <path d="M 197.903,461.851 A252.375,252.375 0.000 0,1 201.829,404.128 L 128.078,390.496 A327.375,327.375 0.000 0,0 122.986,465.373 Z " style="stroke: none;   fill: rgb(157,55,110); " class="E270"/>
    <text x="113.2" y="430.6" font-size="9.1px" font-family="'CMUBright-Roman'" style="text-anchor:end;fill:rgb(0,0,0)" transform="rotate(3.9,113.2,430.6)" class="E270"></text>
    <path d="M 191.964,401.796 A262.500,262.500 0.000 0,1 193.778,392.934 L 120.572,376.630 A337.500,337.500 0.000 0,0 118.239,388.024 Z " style="stroke: none;   fill: rgb(179,186,212); " class="C27"/>
    <text x="108.9" y="383.7" font-size="9.1px" font-family="'CMUBright-Roman'" style="text-anchor:end;fill:rgb(0,0,0)" transform="rotate(11.6,108.9,383.7)" class="C27"></text>
    <path d="M 193.887,392.447 A262.500,262.500 0.000 0,1 236.832,296.814 L 175.927,253.047 A337.500,337.500 0.000 0,0 120.712,376.003 Z " style="stroke: none;   fill: rgb(179,186,212); " class="C26"/>
    <text x="131.6" y="310.8" font-size="9.1px" font-family="'CMUBright-Roman'" style="text-anchor:end;fill:rgb(0,0,0)" transform="rotate(24.2,131.6,310.8)" class="C26"></text>
    <path d="M 237.124,296.409 A262.500,262.500 0.000 0,1 442.972,187.594 L 440.964,112.621 A337.500,337.500 0.000 0,0 176.302,252.526 Z " style="stroke: none;   fill: rgb(179,186,212); " class="C2"/>
    <text x="284.5" y="144.4" font-size="9.1px" font-family="'CMUBright-Roman'" style="text-anchor:end;fill:rgb(0,0,0)" transform="rotate(62.1,284.5,144.4)" class="C2"></text>
    <path d="M 443.471,187.581 A262.500,262.500 0.000 0,1 449.501,187.500 L 449.358,112.501 A337.500,337.500 0.000 0,0 441.605,112.604 Z " style="stroke: none;   fill: rgb(179,186,212); " class="C1"/>
    <text x="441.8" y="102.6" font-size="9.1px" font-family="'CMUBright-Roman'" style="text-anchor:end;fill:rgb(0,0,0)" transform="rotate(89.2,441.8,102.6)" class="C1"></text>
  </g>
  <g id="E275">
    <path d="M 315.178,648.257 A 239.756,239.756 0.00 0,1 273.6,612.3 Q 436.2,442.6 488.8,213.4 A 239.756,239.756 0.00 0,1 494.3,214.4 Q 440.9,446.3 315.2,648.3 Z" style="stroke-width: 1.0;  stroke: rgb(180,180,180); fill: rgb(222,220,70);" opacity="0.5"/>
    <path d="M 210.508,461.258 A 239.756,239.756 0.00 0,1 214.2,406.4 Q 438.2,424.8 567.7,241.1 A 239.756,239.756 0.00 0,1 572.5,243.9 Q 438.3,430.5 210.5,461.3 Z" style="stroke-width: 1.0;  stroke: rgb(180,180,180); fill: rgb(222,220,70);" opacity="0.5"/>
    <path d="M 273.261,612.008 A 239.756,239.756 0.00 0,1 241.0,567.5 Q 447.3,446.2 632.2,294.2 A 239.756,239.756 0.00 0,1 635.8,298.4 Q 450.9,451.0 273.3,612.0 Z" style="stroke-width: 1.0;  stroke: rgb(180,180,180); fill: rgb(143,147,64);" opacity="0.8"/>
    <path d="M 219.490,515.942 A 239.756,239.756 0.00 0,1 210.5,461.7 Q 427.2,427.2 461.0,210.5 A 239.756,239.756 0.00 0,1 466.5,210.8 Q 428.6,432.7 219.5,515.9 Z" style="stroke-width: 1.0;  stroke: rgb(180,180,180); fill: rgb(222,220,70);" opacity="0.5"/>
    <path d="M 240.787,567.103 A 239.756,239.756 0.00 0,1 219.6,516.4 Q 441.1,437.3 591.2,256.2 A 239.756,239.756 0.00 0,1 595.6,259.5 Q 443.6,442.7 240.8,567.1 Z" style="stroke-width: 1.0;  stroke: rgb(180,180,180); fill: rgb(222,220,70);" opacity="0.5"/>
    <path d="M 364.297,673.915 A 239.756,239.756 0.00 0,1 315.6,648.5 Q 445.8,447.7 542.5,228.8 A 239.756,239.756 0.00 0,1 547.6,231.0 Q 451.2,450.5 364.3,673.9 Z" style="stroke-width: 1.0;  stroke: rgb(180,180,180); fill: rgb(222,220,70);" opacity="0.5"/>
  </g>
  <g id="E275">
    <path d="M 649.142,316.487 A 239.756,239.756 0.00 0,1 652.2,321.1 Q 482.0,416.2 567.7,241.1 A 239.756,239.756 0.00 0,1 572.5,243.9 Q 482.2,416.0 649.1,316.5 Z" style="stroke-width: 1.0;  stroke: rgb(180,180,180); fill: rgb(222,220,70);" opacity="0.5"/>
    <path d="M 649.142,316.487 A 239.756,239.756 0.00 0,1 652.2,321.1 Q 476.8,414.1 516.1,219.5 A 239.756,239.756 0.00 0,1 521.4,221.1 Q 477.1,413.8 649.1,316.5 Z" style="stroke-width: 1.0;  stroke: rgb(180,180,180); fill: rgb(222,220,70);" opacity="0.5"/>
    <path d="M 488.843,213.411 A 239.756,239.756 0.00 0,1 494.3,214.4 Q 474.3,413.1 649.1,316.5 A 239.756,239.756 0.00 0,1 652.2,321.1 Q 474.1,413.5 488.8,213.4 Z" style="stroke-width: 1.0;  stroke: rgb(180,180,180); fill: rgb(222,220,70);" opacity="0.5"/>
    <path d="M 488.843,213.411 A 239.756,239.756 0.00 0,1 494.3,214.4 Q 472.6,410.9 632.2,294.2 A 239.756,239.756 0.00 0,1 635.8,298.4 Q 472.5,411.2 488.8,213.4 Z" style="stroke-width: 1.0;  stroke: rgb(180,180,180); fill: rgb(222,220,70);" opacity="0.5"/>
    <path d="M 663.341,340.599 A 239.756,239.756 0.00 0,1 665.8,345.5 Q 472.7,415.6 461.0,210.5 A 239.756,239.756 0.00 0,1 466.5,210.8 Q 473.0,415.1 663.3,340.6 Z" style="stroke-width: 1.0;  stroke: rgb(180,180,180); fill: rgb(222,220,70);" opacity="0.5"/>
    <path d="M 663.341,340.599 A 239.756,239.756 0.00 0,1 665.8,345.5 Q 487.9,422.0 612.8,274.0 A 239.756,239.756 0.00 0,1 616.8,277.8 Q 488.0,421.8 663.3,340.6 Z" style="stroke-width: 1.0;  stroke: rgb(180,180,180); fill: rgb(222,220,70);" opacity="0.5"/>
    <path d="M 488.843,213.411 A 239.756,239.756 0.00 0,1 494.3,214.4 Q 468.5,407.1 591.2,256.2 A 239.756,239.756 0.00 0,1 595.6,259.5 Q 468.4,407.3 488.8,213.4 Z" style="stroke-width: 1.0;  stroke: rgb(180,180,180); fill: rgb(222,220,70);" opacity="0.5"/>
    <path d="M 591.221,256.249 A 239.756,239.756 0.00 0,1 595.6,259.5 Q 485.9,420.0 663.3,340.6 A 239.756,239.756 0.00 0,1 665.8,345.5 Q 485.7,420.2 591.2,256.2 Z" style="stroke-width: 1.0;  stroke: rgb(180,180,180); fill: rgb(222,220,70);" opacity="0.5"/>
  </g>
  <g id="E275"/>
  <g id="plot0">
    <g id="plot0-axis"/>
    <text x="661.3" y="174.1" font-family="'CMUSansSerif-DemiCondensed'" style="fill: rgb(0,0,0); font-size: 13.0px; text-anchor: start" transform="rotate(306.7,661.3,174.1)">N275</text>
    <text x="762.9" y="298.8" font-family="'CMUSansSerif-DemiCondensed'" style="fill: rgb(0,0,0); font-size: 13.0px; text-anchor: start" transform="rotate(333.5,762.9,298.8)">N274</text>
    <text x="719.4" y="230.5" font-family="'CMUSansSerif-DemiCondensed'" style="fill: rgb(0,0,0); font-size: 13.0px; text-anchor: start" transform="rotate(320.1,719.4,230.5)">N326</text>
    <text x="514.4" y="108.5" font-family="'CMUSansSerif-DemiCondensed'" style="fill: rgb(0,0,0); font-size: 13.0px; text-anchor: start" transform="rotate(280.0,514.4,108.5)">N327</text>
    <text x="743.1" y="263.4" font-family="'CMUSansSerif-DemiCondensed'" style="fill: rgb(0,0,0); font-size: 13.0px; text-anchor: start" transform="rotate(326.8,743.1,263.4)">N323</text>
    <text x="553.7" y="118.3" font-family="'CMUSansSerif-DemiCondensed'" style="fill: rgb(0,0,0); font-size: 13.0px; text-anchor: start" transform="rotate(286.7,553.7,118.3)">N322</text>
    <text x="627.7" y="151.4" font-family="'CMUSansSerif-DemiCondensed'" style="fill: rgb(0,0,0); font-size: 13.0px; text-anchor: start" transform="rotate(300.1,627.7,151.4)">N96</text>
    <text x="692.0" y="200.6" font-family="'CMUSansSerif-DemiCondensed'" style="fill: rgb(0,0,0); font-size: 13.0px; text-anchor: start" transform="rotate(313.4,692.0,200.6)">N11</text>
    <text x="473.8" y="103.3" font-family="'CMUSansSerif-DemiCondensed'" style="fill: rgb(0,0,0); font-size: 13.0px; text-anchor: start" transform="rotate(273.3,473.8,103.3)">N7</text>
    <text x="591.7" y="132.7" font-family="'CMUSansSerif-DemiCondensed'" style="fill: rgb(0,0,0); font-size: 13.0px; text-anchor: start" transform="rotate(293.4,591.7,132.7)">N6</text>
  </g>
  <script>function init(evt) {
    $(evt.target).bind('mouseover', doMouseOver);
    $(evt.target).bind('mouseup'  , doMouseUp);
    $(evt.target).bind('mousedown', doMouseDown);
}</script>
</svg>