<svg width="900px" height="900px" version="1.1" onload="init(evt)" xmlns="http://www.w3.org/2000/svg" xmlns:xlink="http://www.w3.org/1999/xlink">
  <g id="ideograms">
    <path d="M 450.000,197.625 A252.375,252.375 0.000 0,1 481.097,199.548 L 490.339,125.120 A327.375,327.375 0.000 0,0 450.000,122.625 Z " style="stroke: none;   fill: rgb(53,100,153); " class="N8"/>
    <text x="474.3" y="113.5" font-size="9.1px" font-family="'CMUBright-Roman'" style="text-anchor:start;fill:rgb(0,0,0)" transform="rotate(273.5,474.3,113.5)" class="N8"></text>
    <path d="M 481.610,199.612 A252.375,252.375 0.000 0,1 512.222,205.415 L 530.713,132.731 A327.375,327.375 0.000 0,0 491.004,125.203 Z " style="stroke: none;   fill: rgb(53,100,153); " class="N7"/>
    <text x="516.3" y="119.2" font-size="9.1px" font-family="'CMUBright-Roman'" style="text-anchor:start;fill:rgb(0,0,0)" transform="rotate(280.7,516.3,119.2)" class="N7"></text>
    <path d="M 512.722,205.543 A252.375,252.375 0.000 0,1 542.366,215.135 L 569.815,145.338 A327.375,327.375 0.000 0,0 531.362,132.896 Z " style="stroke: none;   fill: rgb(53,100,153); " class="N12"/>
    <text x="557.2" y="130.1" font-size="9.1px" font-family="'CMUBright-Roman'" style="text-anchor:start;fill:rgb(0,0,0)" transform="rotate(287.9,557.2,130.1)" class="N12"></text>
    <path d="M 542.847,215.324 A252.375,252.375 0.000 0,1 571.056,228.553 L 607.031,162.744 A327.375,327.375 0.000 0,0 570.438,145.584 Z " style="stroke: none;   fill: rgb(53,100,153); " class="N9"/>
    <text x="596.4" y="146.0" font-size="9.1px" font-family="'CMUBright-Roman'" style="text-anchor:start;fill:rgb(0,0,0)" transform="rotate(295.1,596.4,146.0)" class="N9"></text>
    <path d="M 571.509,228.801 A252.375,252.375 0.000 0,1 597.839,245.459 L 641.773,184.675 A327.375,327.375 0.000 0,0 607.618,163.066 Z " style="stroke: none;   fill: rgb(53,100,153); " class="N6"/>
    <text x="633.3" y="166.8" font-size="9.1px" font-family="'CMUBright-Roman'" style="text-anchor:start;fill:rgb(0,0,0)" transform="rotate(302.3,633.3,166.8)" class="N6"></text>
    <path d="M 598.257,245.762 A252.375,252.375 0.000 0,1 622.293,265.587 L 673.495,210.784 A327.375,327.375 0.000 0,0 642.316,185.068 Z " style="stroke: none;   fill: rgb(53,100,153); " class="N13"/>
    <text x="667.4" y="192.0" font-size="9.1px" font-family="'CMUBright-Roman'" style="text-anchor:start;fill:rgb(0,0,0)" transform="rotate(309.5,667.4,192.0)" class="N13"></text>
    <path d="M 622.670,265.940 A252.375,252.375 0.000 0,1 644.034,288.619 L 701.697,240.660 A327.375,327.375 0.000 0,0 673.984,211.242 Z " style="stroke: none;   fill: rgb(53,100,153); " class="N15"/>
    <text x="698.0" y="221.2" font-size="9.1px" font-family="'CMUBright-Roman'" style="text-anchor:start;fill:rgb(0,0,0)" transform="rotate(316.7,698.0,221.2)" class="N15"></text>
    <path d="M 644.364,289.016 A252.375,252.375 0.000 0,1 662.719,314.193 L 725.935,273.834 A327.375,327.375 0.000 0,0 702.125,241.176 Z " style="stroke: none;   fill: rgb(53,100,153); " class="N10"/>
    <text x="724.7" y="254.1" font-size="9.1px" font-family="'CMUBright-Roman'" style="text-anchor:start;fill:rgb(0,0,0)" transform="rotate(323.9,724.7,254.1)" class="N10"></text>
    <path d="M 662.997,314.628 A252.375,252.375 0.000 0,1 678.054,341.905 L 745.827,309.782 A327.375,327.375 0.000 0,0 726.295,274.399 Z " style="stroke: none;   fill: rgb(53,100,153); " class="N14"/>
    <text x="747.0" y="290.0" font-size="9.1px" font-family="'CMUBright-Roman'" style="text-anchor:start;fill:rgb(0,0,0)" transform="rotate(331.1,747.0,290.0)" class="N14"></text>
    <path d="M 678.275,342.372 A252.375,252.375 0.000 0,1 689.797,371.320 L 761.059,347.939 A327.375,327.375 0.000 0,0 746.113,310.388 Z " style="stroke: none;   fill: rgb(53,100,153); " class="N11"/>
    <text x="764.7" y="328.5" font-size="9.1px" font-family="'CMUBright-Roman'" style="text-anchor:start;fill:rgb(0,0,0)" transform="rotate(338.3,764.7,328.5)" class="N11"></text>
    <path d="M 689.958,371.811 A252.375,252.375 0.000 0,1 701.793,432.870 L 776.620,427.779 A327.375,327.375 0.000 0,0 761.268,348.576 Z " style="stroke: none;   fill: rgb(157,55,110); " class="E7"/>
    <text x="781.9" y="389.2" font-size="9.1px" font-family="'CMUBright-Roman'" style="text-anchor:start;fill:rgb(0,0,0)" transform="rotate(349.0,781.9,389.2)" class="E7"></text>
    <path d="M 701.828,433.385 A252.375,252.375 0.000 0,1 698.244,495.477 L 772.016,508.992 A327.375,327.375 0.000 0,0 776.665,428.448 Z " style="stroke: none;   fill: rgb(157,55,110); " class="E6"/>
    <text x="786.6" y="472.9" font-size="9.1px" font-family="'CMUBright-Roman'" style="text-anchor:start;fill:rgb(0,0,0)" transform="rotate(3.3,786.6,472.9)" class="E6"></text>
    <path d="M 698.150,495.985 A252.375,252.375 0.000 0,1 679.369,555.276 L 747.532,586.562 A327.375,327.375 0.000 0,0 771.895,509.651 Z " style="stroke: none;   fill: rgb(157,55,110); " class="E5"/>
    <text x="770.6" y="555.2" font-size="9.1px" font-family="'CMUBright-Roman'" style="text-anchor:start;fill:rgb(0,0,0)" transform="rotate(17.6,770.6,555.2)" class="E5"></text>
    <path d="M 679.153,555.746 A252.375,252.375 0.000 0,1 646.333,608.576 L 704.679,655.701 A327.375,327.375 0.000 0,0 747.252,587.171 Z " style="stroke: none;   fill: rgb(157,55,110); " class="E4"/>
    <text x="734.7" y="631.0" font-size="9.1px" font-family="'CMUBright-Roman'" style="text-anchor:start;fill:rgb(0,0,0)" transform="rotate(31.8,734.7,631.0)" class="E4"></text>
    <path d="M 653.872,615.356 A262.500,262.500 0.000 0,1 638.829,632.345 L 692.780,684.444 A337.500,337.500 0.000 0,0 712.121,662.600 Z " style="stroke: none;   fill: rgb(179,186,212); " class="C4"/>
    <text x="707.8" y="683.0" font-size="9.1px" font-family="'CMUBright-Roman'" style="text-anchor:start;fill:rgb(0,0,0)" transform="rotate(41.5,707.8,683.0)" class="C4"></text>
    <path d="M 638.456,632.731 A262.500,262.500 0.000 0,1 631.556,639.588 L 683.429,693.756 A337.500,337.500 0.000 0,0 692.300,684.940 Z " style="stroke: none;   fill: rgb(179,186,212); " class="C6"/>
    <text x="692.5" y="698.9" font-size="9.1px" font-family="'CMUBright-Roman'" style="text-anchor:start;fill:rgb(0,0,0)" transform="rotate(45.2,692.5,698.9)" class="C6"></text>
    <path d="M 631.168,639.959 A262.500,262.500 0.000 0,1 624.005,646.541 L 673.721,702.696 A337.500,337.500 0.000 0,0 682.930,694.233 Z " style="stroke: none;   fill: rgb(179,186,212); " class="C5"/>
    <text x="682.5" y="708.2" font-size="9.1px" font-family="'CMUBright-Roman'" style="text-anchor:start;fill:rgb(0,0,0)" transform="rotate(47.4,682.5,708.2)" class="C5"></text>
    <path d="M 623.603,646.897 A262.500,262.500 0.000 0,1 608.546,659.212 L 653.844,718.986 A337.500,337.500 0.000 0,0 673.204,703.153 Z " style="stroke: none;   fill: rgb(179,186,212); " class="C7"/>
    <text x="667.3" y="721.2" font-size="9.1px" font-family="'CMUBright-Roman'" style="text-anchor:start;fill:rgb(0,0,0)" transform="rotate(50.7,667.3,721.2)" class="C7"></text>
    <path d="M 608.118,659.535 A262.500,262.500 0.000 0,1 581.094,677.422 L 618.549,742.399 A337.500,337.500 0.000 0,0 653.294,719.403 Z " style="stroke: none;   fill: rgb(179,186,212); " class="C8"/>
    <text x="638.9" y="741.7" font-size="9.1px" font-family="'CMUBright-Roman'" style="text-anchor:start;fill:rgb(0,0,0)" transform="rotate(56.5,638.9,741.7)" class="C8"></text>
    <path d="M 580.629,677.689 A262.500,262.500 0.000 0,1 572.103,682.373 L 606.989,748.765 A337.500,337.500 0.000 0,0 617.951,742.743 Z " style="stroke: none;   fill: rgb(179,186,212); " class="C9"/>
    <text x="614.2" y="756.2" font-size="9.1px" font-family="'CMUBright-Roman'" style="text-anchor:start;fill:rgb(0,0,0)" transform="rotate(61.2,614.2,756.2)" class="C9"></text>
    <path d="M 571.627,682.622 A262.500,262.500 0.000 0,1 529.782,700.082 L 552.577,771.534 A337.500,337.500 0.000 0,0 606.378,749.086 Z " style="stroke: none;   fill: rgb(179,186,212); " class="C10"/>
    <text x="580.6" y="772.0" font-size="9.1px" font-family="'CMUBright-Roman'" style="text-anchor:start;fill:rgb(0,0,0)" transform="rotate(67.4,580.6,772.0)" class="C10"></text>
    <path d="M 529.271,700.245 A262.500,262.500 0.000 0,1 491.441,709.208 L 503.281,783.268 A337.500,337.500 0.000 0,0 551.919,771.743 Z " style="stroke: none;   fill: rgb(179,186,212); " class="C11"/>
    <text x="526.7" y="788.9" font-size="9.1px" font-family="'CMUBright-Roman'" style="text-anchor:start;fill:rgb(0,0,0)" transform="rotate(76.7,526.7,788.9)" class="C11"></text>
    <path d="M 490.911,709.292 A262.500,262.500 0.000 0,1 406.962,708.948 L 394.665,782.933 A337.500,337.500 0.000 0,0 502.599,783.376 Z " style="stroke: none;   fill: rgb(179,186,212); " class="C12"/>
    <text x="452.1" y="797.5" font-size="9.1px" font-family="'CMUBright-Roman'" style="text-anchor:end;fill:rgb(0,0,0)" transform="rotate(-89.8,452.1,797.5)" class="C12"></text>
    <path d="M 406.432,708.859 A262.500,262.500 0.000 0,1 396.871,707.067 L 381.691,780.515 A337.500,337.500 0.000 0,0 393.985,782.819 Z " style="stroke: none;   fill: rgb(179,186,212); " class="C13"/>
    <text x="389.4" y="792.2" font-size="9.1px" font-family="'CMUBright-Roman'" style="text-anchor:end;fill:rgb(0,0,0)" transform="rotate(-79.4,389.4,792.2)" class="C13"></text>
    <path d="M 396.346,706.958 A262.500,262.500 0.000 0,1 371.254,700.410 L 348.756,771.956 A337.500,337.500 0.000 0,0 381.016,780.375 Z " style="stroke: none;   fill: rgb(179,186,212); " class="C14"/>
    <text x="365.6" y="787.1" font-size="9.1px" font-family="'CMUBright-Roman'" style="text-anchor:end;fill:rgb(0,0,0)" transform="rotate(-75.4,365.6,787.1)" class="C14"></text>
    <path d="M 370.743,700.249 A262.500,262.500 0.000 0,1 334.651,685.798 L 301.694,753.169 A337.500,337.500 0.000 0,0 348.098,771.749 Z " style="stroke: none;   fill: rgb(179,186,212); " class="C15"/>
    <text x="324.1" y="773.9" font-size="9.1px" font-family="'CMUBright-Roman'" style="text-anchor:end;fill:rgb(0,0,0)" transform="rotate(-68.2,324.1,773.9)" class="C15"></text>
    <path d="M 334.169,685.562 A262.500,262.500 0.000 0,1 317.043,676.338 L 279.055,741.005 A337.500,337.500 0.000 0,0 301.074,752.865 Z " style="stroke: none;   fill: rgb(179,186,212); " class="C16"/>
    <text x="288.3" y="757.6" font-size="9.1px" font-family="'CMUBright-Roman'" style="text-anchor:end;fill:rgb(0,0,0)" transform="rotate(-61.7,288.3,757.6)" class="C16"></text>
    <path d="M 316.581,676.065 A262.500,262.500 0.000 0,1 305.577,669.199 L 264.314,731.828 A337.500,337.500 0.000 0,0 278.461,740.655 Z " style="stroke: none;   fill: rgb(179,186,212); " class="C17"/>
    <text x="269.0" y="746.7" font-size="9.1px" font-family="'CMUBright-Roman'" style="text-anchor:end;fill:rgb(0,0,0)" transform="rotate(-58.0,269.0,746.7)" class="C17"></text>
    <path d="M 305.130,668.904 A262.500,262.500 0.000 0,1 297.118,663.386 L 253.438,724.353 A337.500,337.500 0.000 0,0 263.738,731.448 Z " style="stroke: none;   fill: rgb(179,186,212); " class="C18"/>
    <text x="255.8" y="738.2" font-size="9.1px" font-family="'CMUBright-Roman'" style="text-anchor:end;fill:rgb(0,0,0)" transform="rotate(-55.4,255.8,738.2)" class="C18"></text>
    <path d="M 296.682,663.073 A262.500,262.500 0.000 0,1 239.173,606.391 L 178.937,651.075 A337.500,337.500 0.000 0,0 252.877,723.951 Z " style="stroke: none;   fill: rgb(179,186,212); " class="C19"/>
    <text x="208.6" y="699.9" font-size="9.1px" font-family="'CMUBright-Roman'" style="text-anchor:end;fill:rgb(0,0,0)" transform="rotate(-45.4,208.6,699.9)" class="C19"></text>
    <path d="M 238.854,605.960 A262.500,262.500 0.000 0,1 213.734,564.388 L 146.230,597.071 A337.500,337.500 0.000 0,0 178.526,650.520 Z " style="stroke: none;   fill: rgb(179,186,212); " class="C20"/>
    <text x="154.4" y="632.7" font-size="9.1px" font-family="'CMUBright-Roman'" style="text-anchor:end;fill:rgb(0,0,0)" transform="rotate(-31.1,154.4,632.7)" class="C20"></text>
    <path d="M 213.501,563.905 A262.500,262.500 0.000 0,1 200.250,530.817 L 128.893,553.907 A337.500,337.500 0.000 0,0 145.930,596.449 Z " style="stroke: none;   fill: rgb(179,186,212); " class="C21"/>
    <text x="128.7" y="582.4" font-size="9.1px" font-family="'CMUBright-Roman'" style="text-anchor:end;fill:rgb(0,0,0)" transform="rotate(-21.8,128.7,582.4)" class="C21"></text>
    <path d="M 200.086,530.306 A262.500,262.500 0.000 0,1 196.424,517.864 L 123.974,537.253 A337.500,337.500 0.000 0,0 128.681,553.251 Z " style="stroke: none;   fill: rgb(179,186,212); " class="C22"/>
    <text x="117.6" y="551.5" font-size="9.1px" font-family="'CMUBright-Roman'" style="text-anchor:end;fill:rgb(0,0,0)" transform="rotate(-16.4,117.6,551.5)" class="C22"></text>
    <path d="M 196.286,517.345 A262.500,262.500 0.000 0,1 187.580,456.494 L 112.603,458.349 A337.500,337.500 0.000 0,0 123.796,536.587 Z " style="stroke: none;   fill: rgb(179,186,212); " class="C23"/>
    <text x="106.5" y="502.7" font-size="9.1px" font-family="'CMUBright-Roman'" style="text-anchor:end;fill:rgb(0,0,0)" transform="rotate(-8.1,106.5,502.7)" class="C23"></text>
    <path d="M 187.568,455.957 A262.500,262.500 0.000 0,1 187.501,449.472 L 112.501,449.322 A337.500,337.500 0.000 0,0 112.587,457.660 Z " style="stroke: none;   fill: rgb(179,186,212); " class="C25"/>
    <text x="102.6" y="457.1" font-size="9.1px" font-family="'CMUBright-Roman'" style="text-anchor:end;fill:rgb(0,0,0)" transform="rotate(-0.6,102.6,457.1)" class="C25"></text>
    <path d="M 187.502,448.936 A262.500,262.500 0.000 0,1 188.302,429.500 L 113.531,423.643 A337.500,337.500 0.000 0,0 112.503,448.632 Z " style="stroke: none;   fill: rgb(179,186,212); " class="C24"/>
    <text x="102.7" y="439.2" font-size="9.1px" font-family="'CMUBright-Roman'" style="text-anchor:end;fill:rgb(0,0,0)" transform="rotate(2.4,102.7,439.2)" class="C24"></text>
    <path d="M 188.344,428.965 A262.500,262.500 0.000 0,1 189.303,419.285 L 114.818,410.509 A337.500,337.500 0.000 0,0 113.585,422.955 Z " style="stroke: none;   fill: rgb(179,186,212); " class="C27"/>
    <text x="103.9" y="419.2" font-size="9.1px" font-family="'CMUBright-Roman'" style="text-anchor:end;fill:rgb(0,0,0)" transform="rotate(5.7,103.9,419.2)" class="C27"></text>
    <path d="M 189.367,418.752 A262.500,262.500 0.000 0,1 226.445,312.417 L 162.572,273.107 A337.500,337.500 0.000 0,0 114.900,409.824 Z " style="stroke: none;   fill: rgb(179,186,212); " class="C26"/>
    <text x="120.7" y="338.9" font-size="9.1px" font-family="'CMUBright-Roman'" style="text-anchor:end;fill:rgb(0,0,0)" transform="rotate(19.2,120.7,338.9)" class="C26"></text>
    <path d="M 226.726,311.960 A262.500,262.500 0.000 0,1 442.442,187.609 L 440.283,112.640 A337.500,337.500 0.000 0,0 162.934,272.520 Z " style="stroke: none;   fill: rgb(179,186,212); " class="C2"/>
    <text x="273.4" y="150.7" font-size="9.1px" font-family="'CMUBright-Roman'" style="text-anchor:end;fill:rgb(0,0,0)" transform="rotate(60.0,273.4,150.7)" class="C2"></text>
    <path d="M 442.979,187.594 A262.500,262.500 0.000 0,1 449.463,187.501 L 449.310,112.501 A337.500,337.500 0.000 0,0 440.972,112.621 Z " style="stroke: none;   fill: rgb(179,186,212); " class="C1"/>
    <text x="441.5" y="102.6" font-size="9.1px" font-family="'CMUBright-Roman'" style="text-anchor:end;fill:rgb(0,0,0)" transform="rotate(89.2,441.5,102.6)" class="C1"></text>
  </g>
  <g id="E6">
    <path d="M 685.743,493.686 A 239.756,239.756 0.00 0,1 667.9,550.0 Q 476.0,436.4 491.7,213.9 A 239.756,239.756 0.00 0,1 497.6,215.0 Q 478.3,430.9 685.7,493.7 Z" style="stroke-width: 1.0;  stroke: rgb(180,180,180); fill: rgb(222,220,70);" opacity="0.5"/>
    <path d="M 677.960,375.721 A 239.756,239.756 0.00 0,1 689.2,433.7 Q 491.2,431.7 622.5,283.5 A 239.756,239.756 0.00 0,1 626.5,287.8 Q 490.4,426.3 678.0,375.7 Z" style="stroke-width: 1.0;  stroke: rgb(180,180,180); fill: rgb(222,220,70);" opacity="0.5"/>
    <path d="M 689.236,434.216 A 239.756,239.756 0.00 0,1 685.8,493.2 Q 492.8,440.0 642.0,306.4 A 239.756,239.756 0.00 0,1 645.5,311.2 Q 493.5,434.5 689.2,434.2 Z" style="stroke-width: 1.0;  stroke: rgb(180,180,180); fill: rgb(143,147,64);" opacity="0.8"/>
    <path d="M 667.695,550.458 A 239.756,239.756 0.00 0,1 636.5,600.6 Q 481.2,444.6 575.7,245.8 A 239.756,239.756 0.00 0,1 580.7,249.0 Q 484.8,439.9 667.7,550.5 Z" style="stroke-width: 1.0;  stroke: rgb(180,180,180); fill: rgb(222,220,70);" opacity="0.5"/>
  </g>
  <g id="E6">
    <path d="M 641.975,306.373 A 239.756,239.756 0.00 0,1 645.5,311.2 Q 479.5,414.3 549.1,231.7 A 239.756,239.756 0.00 0,1 554.5,234.2 Q 479.6,414.1 642.0,306.4 Z" style="stroke-width: 1.0;  stroke: rgb(180,180,180); fill: rgb(222,220,70);" opacity="0.5"/>
    <path d="M 549.108,231.687 A 239.756,239.756 0.00 0,1 554.5,234.2 Q 479.6,414.1 642.0,306.4 A 239.756,239.756 0.00 0,1 645.5,311.2 Q 479.5,414.3 549.1,231.7 Z" style="stroke-width: 1.0;  stroke: rgb(180,180,180); fill: rgb(143,147,64);" opacity="0.8"/>
    <path d="M 641.975,306.373 A 239.756,239.756 0.00 0,1 645.5,311.2 Q 479.5,414.3 549.1,231.7 A 239.756,239.756 0.00 0,1 554.5,234.2 Q 479.6,414.1 642.0,306.4 Z" style="stroke-width: 1.0;  stroke: rgb(180,180,180); fill: rgb(143,147,64);" opacity="0.8"/>
    <path d="M 549.108,231.687 A 239.756,239.756 0.00 0,1 554.5,234.2 Q 464.6,404.8 491.7,213.9 A 239.756,239.756 0.00 0,1 497.6,215.0 Q 464.7,404.7 549.1,231.7 Z" style="stroke-width: 1.0;  stroke: rgb(180,180,180); fill: rgb(222,220,70);" opacity="0.5"/>
    <path d="M 491.742,213.905 A 239.756,239.756 0.00 0,1 497.6,215.0 Q 464.7,404.7 549.1,231.7 A 239.756,239.756 0.00 0,1 554.5,234.2 Q 464.6,404.8 491.7,213.9 Z" style="stroke-width: 1.0;  stroke: rgb(180,180,180); fill: rgb(143,147,64);" opacity="0.8"/>
    <path d="M 549.108,231.687 A 239.756,239.756 0.00 0,1 554.5,234.2 Q 464.6,404.8 491.7,213.9 A 239.756,239.756 0.00 0,1 497.6,215.0 Q 464.7,404.7 549.1,231.7 Z" style="stroke-width: 1.0;  stroke: rgb(180,180,180); fill: rgb(143,147,64);" opacity="0.8"/>
    <path d="M 658.452,331.548 A 239.756,239.756 0.00 0,1 661.3,336.7 Q 486.2,420.0 600.3,263.2 A 239.756,239.756 0.00 0,1 604.8,266.9 Q 486.3,419.8 658.5,331.5 Z" style="stroke-width: 1.0;  stroke: rgb(180,180,180); fill: rgb(222,220,70);" opacity="0.5"/>
    <path d="M 622.473,283.459 A 239.756,239.756 0.00 0,1 626.5,287.8 Q 488.5,421.9 658.5,331.5 A 239.756,239.756 0.00 0,1 661.3,336.7 Q 488.4,422.0 622.5,283.5 Z" style="stroke-width: 1.0;  stroke: rgb(180,180,180); fill: rgb(222,220,70);" opacity="0.5"/>
    <path d="M 520.984,220.993 A 239.756,239.756 0.00 0,1 526.6,222.8 Q 470.2,406.9 575.7,245.8 A 239.756,239.756 0.00 0,1 580.7,249.0 Q 470.2,407.0 521.0,221.0 Z" style="stroke-width: 1.0;  stroke: rgb(180,180,180); fill: rgb(222,220,70);" opacity="0.5"/>
    <path d="M 520.984,220.993 A 239.756,239.756 0.00 0,1 526.6,222.8 Q 479.8,418.1 671.6,358.6 A 239.756,239.756 0.00 0,1 673.8,364.1 Q 479.5,418.5 521.0,221.0 Z" style="stroke-width: 1.0;  stroke: rgb(180,180,180); fill: rgb(222,220,70);" opacity="0.5"/>
    <path d="M 622.473,283.459 A 239.756,239.756 0.00 0,1 626.5,287.8 Q 474.8,410.9 521.0,221.0 A 239.756,239.756 0.00 0,1 526.6,222.8 Q 474.9,410.6 622.5,283.5 Z" style="stroke-width: 1.0;  stroke: rgb(180,180,180); fill: rgb(222,220,70);" opacity="0.5"/>
    <path d="M 658.452,331.548 A 239.756,239.756 0.00 0,1 661.3,336.7 Q 490.3,424.3 642.0,306.4 A 239.756,239.756 0.00 0,1 645.5,311.2 Q 490.4,424.3 658.5,331.5 Z" style="stroke-width: 1.0;  stroke: rgb(180,180,180); fill: rgb(222,220,70);" opacity="0.5"/>
    <path d="M 549.108,231.687 A 239.756,239.756 0.00 0,1 554.5,234.2 Q 461.6,404.5 461.8,210.5 A 239.756,239.756 0.00 0,1 467.8,210.9 Q 461.7,404.3 549.1,231.7 Z" style="stroke-width: 1.0;  stroke: rgb(180,180,180); fill: rgb(222,220,70);" opacity="0.5"/>
    <path d="M 461.842,210.536 A 239.756,239.756 0.00 0,1 467.8,210.9 Q 461.7,404.3 549.1,231.7 A 239.756,239.756 0.00 0,1 554.5,234.2 Q 461.6,404.5 461.8,210.5 Z" style="stroke-width: 1.0;  stroke: rgb(180,180,180); fill: rgb(143,147,64);" opacity="0.8"/>
    <path d="M 549.108,231.687 A 239.756,239.756 0.00 0,1 554.5,234.2 Q 461.6,404.5 461.8,210.5 A 239.756,239.756 0.00 0,1 467.8,210.9 Q 461.7,404.3 549.1,231.7 Z" style="stroke-width: 1.0;  stroke: rgb(180,180,180); fill: rgb(143,147,64);" opacity="0.8"/>
  </g>
  <g id="E6"/>
  <g id="plot0">
    <g id="plot0-axis"/>
    <text x="733.3" y="248.7" font-family="'CMUSansSerif-DemiCondensed'" style="fill: rgb(0,0,0); font-size: 13.0px; text-anchor: start" transform="rotate(323.9,733.3,248.7)">N10</text>
    <text x="705.8" y="214.8" font-family="'CMUSansSerif-DemiCondensed'" style="fill: rgb(0,0,0); font-size: 13.0px; text-anchor: start" transform="rotate(316.7,705.8,214.8)">N15</text>
    <text x="561.0" y="120.7" font-family="'CMUSansSerif-DemiCondensed'" style="fill: rgb(0,0,0); font-size: 13.0px; text-anchor: start" transform="rotate(287.9,561.0,120.7)">N12</text>
    <text x="774.4" y="325.4" font-family="'CMUSansSerif-DemiCondensed'" style="fill: rgb(0,0,0); font-size: 13.0px; text-anchor: start" transform="rotate(338.3,774.4,325.4)">N11</text>
    <text x="756.2" y="285.8" font-family="'CMUSansSerif-DemiCondensed'" style="fill: rgb(0,0,0); font-size: 13.0px; text-anchor: start" transform="rotate(331.1,756.2,285.8)">N14</text>
    <text x="674.4" y="184.6" font-family="'CMUSansSerif-DemiCondensed'" style="fill: rgb(0,0,0); font-size: 13.0px; text-anchor: start" transform="rotate(309.5,674.4,184.6)">N13</text>
    <text x="639.4" y="158.6" font-family="'CMUSansSerif-DemiCondensed'" style="fill: rgb(0,0,0); font-size: 13.0px; text-anchor: start" transform="rotate(302.3,639.4,158.6)">N6</text>
    <text x="518.5" y="109.3" font-family="'CMUSansSerif-DemiCondensed'" style="fill: rgb(0,0,0); font-size: 13.0px; text-anchor: start" transform="rotate(280.7,518.5,109.3)">N7</text>
    <text x="601.4" y="137.2" font-family="'CMUSansSerif-DemiCondensed'" style="fill: rgb(0,0,0); font-size: 13.0px; text-anchor: start" transform="rotate(295.1,601.4,137.2)">N9</text>
    <text x="475.7" y="103.4" font-family="'CMUSansSerif-DemiCondensed'" style="fill: rgb(0,0,0); font-size: 13.0px; text-anchor: start" transform="rotate(273.5,475.7,103.4)">N8</text>
  </g>
  <script>function init(evt) {
    $(evt.target).bind('mouseover', doMouseOver);
    $(evt.target).bind('mouseup'  , doMouseUp);
    $(evt.target).bind('mousedown', doMouseDown);
}</script>
</svg>