<svg width="900px" height="900px" version="1.1" onload="init(evt)" xmlns="http://www.w3.org/2000/svg" xmlns:xlink="http://www.w3.org/1999/xlink">
  <g id="ideograms">
    <path d="M 450.000,197.625 A252.375,252.375 0.000 0,1 476.987,199.072 L 485.006,124.502 A327.375,327.375 0.000 0,0 450.000,122.625 Z " style="stroke: none;   fill: rgb(53,100,153); " class="N22"/>
    <text x="471.6" y="113.3" font-size="9.1px" font-family="'CMUBright-Roman'" style="text-anchor:start;fill:rgb(0,0,0)" transform="rotate(273.1,471.6,113.3)" class="N22"></text>
    <path d="M 477.433,199.120 A252.375,252.375 0.000 0,1 504.103,203.492 L 520.181,130.236 A327.375,327.375 0.000 0,0 485.586,124.565 Z " style="stroke: none;   fill: rgb(53,100,153); " class="N18"/>
    <text x="508.0" y="117.7" font-size="9.1px" font-family="'CMUBright-Roman'" style="text-anchor:start;fill:rgb(0,0,0)" transform="rotate(279.3,508.0,117.7)" class="N18"></text>
    <path d="M 504.541,203.589 A252.375,252.375 0.000 0,1 530.577,210.834 L 554.523,139.759 A327.375,327.375 0.000 0,0 520.750,130.361 Z " style="stroke: none;   fill: rgb(53,100,153); " class="N20"/>
    <text x="543.8" y="125.9" font-size="9.1px" font-family="'CMUBright-Roman'" style="text-anchor:start;fill:rgb(0,0,0)" transform="rotate(285.5,543.8,125.9)" class="N20"></text>
    <path d="M 531.003,210.978 A252.375,252.375 0.000 0,1 556.097,221.010 L 587.627,152.959 A327.375,327.375 0.000 0,0 555.075,139.946 Z " style="stroke: none;   fill: rgb(53,100,153); " class="N27"/>
    <text x="578.5" y="138.0" font-size="9.1px" font-family="'CMUBright-Roman'" style="text-anchor:start;fill:rgb(0,0,0)" transform="rotate(291.8,578.5,138.0)" class="N27"></text>
    <path d="M 556.505,221.199 A252.375,252.375 0.000 0,1 580.360,233.900 L 619.100,169.680 A327.375,327.375 0.000 0,0 588.156,153.205 Z " style="stroke: none;   fill: rgb(53,100,153); " class="N19"/>
    <text x="611.6" y="153.9" font-size="9.1px" font-family="'CMUBright-Roman'" style="text-anchor:start;fill:rgb(0,0,0)" transform="rotate(298.0,611.6,153.9)" class="N19"></text>
    <path d="M 580.745,234.132 A252.375,252.375 0.000 0,1 603.078,249.350 L 648.569,189.722 A327.375,327.375 0.000 0,0 619.599,169.981 Z " style="stroke: none;   fill: rgb(53,100,153); " class="N24"/>
    <text x="642.9" y="173.2" font-size="9.1px" font-family="'CMUBright-Roman'" style="text-anchor:start;fill:rgb(0,0,0)" transform="rotate(304.3,642.9,173.2)" class="N24"></text>
    <path d="M 603.435,249.623 A252.375,252.375 0.000 0,1 623.981,267.179 L 675.685,212.849 A327.375,327.375 0.000 0,0 649.032,190.076 Z " style="stroke: none;   fill: rgb(53,100,153); " class="N17"/>
    <text x="671.8" y="195.8" font-size="9.1px" font-family="'CMUBright-Roman'" style="text-anchor:start;fill:rgb(0,0,0)" transform="rotate(310.5,671.8,195.8)" class="N17"></text>
    <path d="M 624.307,267.489 A252.375,252.375 0.000 0,1 642.823,287.174 L 700.126,238.786 A327.375,327.375 0.000 0,0 676.107,213.251 Z " style="stroke: none;   fill: rgb(53,100,153); " class="N21"/>
    <text x="698.1" y="221.4" font-size="9.1px" font-family="'CMUBright-Roman'" style="text-anchor:start;fill:rgb(0,0,0)" transform="rotate(316.8,698.1,221.4)" class="N21"></text>
    <path d="M 643.113,287.517 A252.375,252.375 0.000 0,1 659.380,309.099 L 721.603,267.226 A327.375,327.375 0.000 0,0 700.501,239.231 Z " style="stroke: none;   fill: rgb(53,100,153); " class="N25"/>
    <text x="721.5" y="249.7" font-size="9.1px" font-family="'CMUBright-Roman'" style="text-anchor:start;fill:rgb(0,0,0)" transform="rotate(323.0,721.5,249.7)" class="N25"></text>
    <path d="M 659.630,309.472 A252.375,252.375 0.000 0,1 673.455,332.693 L 739.861,297.832 A327.375,327.375 0.000 0,0 721.928,267.710 Z " style="stroke: none;   fill: rgb(53,100,153); " class="N26"/>
    <text x="741.7" y="280.4" font-size="9.1px" font-family="'CMUBright-Roman'" style="text-anchor:start;fill:rgb(0,0,0)" transform="rotate(329.2,741.7,280.4)" class="N26"></text>
    <path d="M 673.664,333.091 A252.375,252.375 0.000 0,1 684.882,357.678 L 754.684,330.242 A327.375,327.375 0.000 0,0 740.131,298.349 Z " style="stroke: none;   fill: rgb(53,100,153); " class="N11"/>
    <text x="758.4" y="313.1" font-size="9.1px" font-family="'CMUBright-Roman'" style="text-anchor:start;fill:rgb(0,0,0)" transform="rotate(335.5,758.4,313.1)" class="N11"></text>
    <path d="M 685.046,358.096 A252.375,252.375 0.000 0,1 693.526,383.757 L 765.896,364.071 A327.375,327.375 0.000 0,0 754.897,330.785 Z " style="stroke: none;   fill: rgb(53,100,153); " class="N23"/>
    <text x="771.4" y="347.5" font-size="9.1px" font-family="'CMUBright-Roman'" style="text-anchor:start;fill:rgb(0,0,0)" transform="rotate(341.7,771.4,347.5)" class="N23"></text>
    <path d="M 703.418,381.550 A262.500,262.500 0.000 0,1 706.118,392.470 L 779.295,376.033 A337.500,337.500 0.000 0,0 775.824,361.993 Z " style="stroke: none;   fill: rgb(179,186,212); " class="C3"/>
    <text x="788.2" y="370.0" font-size="9.1px" font-family="'CMUBright-Roman'" style="text-anchor:start;fill:rgb(0,0,0)" transform="rotate(346.1,788.2,370.0)" class="C3"></text>
    <path d="M 696.337,395.127 A252.375,252.375 0.000 0,1 702.372,448.761 L 777.371,448.393 A327.375,327.375 0.000 0,0 769.543,378.820 Z " style="stroke: none;   fill: rgb(157,55,110); " class="E15"/>
    <text x="785.6" y="415.8" font-size="9.1px" font-family="'CMUBright-Roman'" style="text-anchor:start;fill:rgb(0,0,0)" transform="rotate(353.6,785.6,415.8)" class="E15"></text>
    <path d="M 702.374,449.211 A252.375,252.375 0.000 0,1 696.770,502.892 L 770.105,518.610 A327.375,327.375 0.000 0,0 777.373,448.976 Z " style="stroke: none;   fill: rgb(157,55,110); " class="E14"/>
    <text x="785.2" y="488.5" font-size="9.1px" font-family="'CMUBright-Roman'" style="text-anchor:start;fill:rgb(0,0,0)" transform="rotate(6.0,785.2,488.5)" class="E14"></text>
    <path d="M 696.676,503.331 A252.375,252.375 0.000 0,1 679.695,554.563 L 747.955,585.637 A327.375,327.375 0.000 0,0 769.982,519.180 Z " style="stroke: none;   fill: rgb(157,55,110); " class="E13"/>
    <text x="769.1" y="559.5" font-size="9.1px" font-family="'CMUBright-Roman'" style="text-anchor:start;fill:rgb(0,0,0)" transform="rotate(18.3,769.1,559.5)" class="E13"></text>
    <path d="M 679.508,554.972 A252.375,252.375 0.000 0,1 651.939,601.373 L 711.951,646.358 A327.375,327.375 0.000 0,0 747.713,586.168 Z " style="stroke: none;   fill: rgb(157,55,110); " class="E12"/>
    <text x="738.2" y="625.3" font-size="9.1px" font-family="'CMUBright-Roman'" style="text-anchor:start;fill:rgb(0,0,0)" transform="rotate(30.7,738.2,625.3)" class="E12"></text>
    <path d="M 651.669,601.732 A252.375,252.375 0.000 0,1 614.794,641.144 L 663.767,697.948 A327.375,327.375 0.000 0,0 711.601,646.824 Z " style="stroke: none;   fill: rgb(157,55,110); " class="E11"/>
    <text x="694.0" y="683.0" font-size="9.1px" font-family="'CMUBright-Roman'" style="text-anchor:start;fill:rgb(0,0,0)" transform="rotate(43.1,694.0,683.0)" class="E11"></text>
    <path d="M 614.453,641.437 A252.375,252.375 0.000 0,1 569.986,672.028 L 605.644,738.009 A327.375,327.375 0.000 0,0 663.325,698.328 Z " style="stroke: none;   fill: rgb(157,55,110); " class="E10"/>
    <text x="638.3" y="729.9" font-size="9.1px" font-family="'CMUBright-Roman'" style="text-anchor:start;fill:rgb(0,0,0)" transform="rotate(55.5,638.3,729.9)" class="E10"></text>
    <path d="M 569.591,672.241 A252.375,252.375 0.000 0,1 519.600,692.588 L 540.284,764.680 A327.375,327.375 0.000 0,0 605.131,738.286 Z " style="stroke: none;   fill: rgb(157,55,110); " class="E9"/>
    <text x="573.9" y="763.8" font-size="9.1px" font-family="'CMUBright-Roman'" style="text-anchor:start;fill:rgb(0,0,0)" transform="rotate(67.9,573.9,763.8)" class="E9"></text>
    <path d="M 521.943,702.449 A262.500,262.500 0.000 0,1 513.793,704.630 L 532.020,777.382 A337.500,337.500 0.000 0,0 542.498,774.577 Z " style="stroke: none;   fill: rgb(179,186,212); " class="C6"/>
    <text x="536.5" y="786.6" font-size="9.1px" font-family="'CMUBright-Roman'" style="text-anchor:start;fill:rgb(0,0,0)" transform="rotate(75.0,536.5,786.6)" class="C6"></text>
    <path d="M 513.340,704.743 A262.500,262.500 0.000 0,1 505.122,706.647 L 520.871,779.975 A337.500,337.500 0.000 0,0 531.438,777.527 Z " style="stroke: none;   fill: rgb(179,186,212); " class="C5"/>
    <text x="525.0" y="789.3" font-size="9.1px" font-family="'CMUBright-Roman'" style="text-anchor:start;fill:rgb(0,0,0)" transform="rotate(77.0,525.0,789.3)" class="C5"></text>
    <path d="M 504.665,706.745 A262.500,262.500 0.000 0,1 488.060,709.726 L 498.934,783.934 A337.500,337.500 0.000 0,0 520.284,780.101 Z " style="stroke: none;   fill: rgb(179,186,212); " class="C7"/>
    <text x="508.0" y="792.6" font-size="9.1px" font-family="'CMUBright-Roman'" style="text-anchor:start;fill:rgb(0,0,0)" transform="rotate(79.8,508.0,792.6)" class="C7"></text>
    <path d="M 487.598,709.794 A262.500,262.500 0.000 0,1 459.602,712.324 L 462.346,787.274 A337.500,337.500 0.000 0,0 498.340,784.020 Z " style="stroke: none;   fill: rgb(179,186,212); " class="C8"/>
    <text x="477.8" y="796.4" font-size="9.1px" font-family="'CMUBright-Roman'" style="text-anchor:start;fill:rgb(0,0,0)" transform="rotate(84.8,477.8,796.4)" class="C8"></text>
    <path d="M 459.136,712.341 A262.500,262.500 0.000 0,1 450.701,712.499 L 450.901,787.499 A337.500,337.500 0.000 0,0 461.746,787.296 Z " style="stroke: none;   fill: rgb(179,186,212); " class="C9"/>
    <text x="453.0" y="797.5" font-size="9.1px" font-family="'CMUBright-Roman'" style="text-anchor:start;fill:rgb(0,0,0)" transform="rotate(88.9,453.0,797.5)" class="C9"></text>
    <path d="M 450.234,712.500 A262.500,262.500 0.000 0,1 411.007,709.588 L 399.866,783.756 A337.500,337.500 0.000 0,0 450.301,787.500 Z " style="stroke: none;   fill: rgb(179,186,212); " class="C10"/>
    <text x="427.8" y="796.8" font-size="9.1px" font-family="'CMUBright-Roman'" style="text-anchor:end;fill:rgb(0,0,0)" transform="rotate(-85.8,427.8,796.8)" class="C10"></text>
    <path d="M 410.545,709.518 A262.500,262.500 0.000 0,1 377.598,702.318 L 356.912,774.409 A337.500,337.500 0.000 0,0 399.272,783.666 Z " style="stroke: none;   fill: rgb(179,186,212); " class="C11"/>
    <text x="379.2" y="790.2" font-size="9.1px" font-family="'CMUBright-Roman'" style="text-anchor:end;fill:rgb(0,0,0)" transform="rotate(-77.7,379.2,790.2)" class="C11"></text>
    <path d="M 377.150,702.189 A262.500,262.500 0.000 0,1 310.615,672.437 L 270.791,735.990 A337.500,337.500 0.000 0,0 356.335,774.242 Z " style="stroke: none;   fill: rgb(179,186,212); " class="C12"/>
    <text x="311.3" y="768.6" font-size="9.1px" font-family="'CMUBright-Roman'" style="text-anchor:end;fill:rgb(0,0,0)" transform="rotate(-65.9,311.3,768.6)" class="C12"></text>
    <path d="M 310.220,672.189 A262.500,262.500 0.000 0,1 303.152,667.582 L 261.196,729.748 A337.500,337.500 0.000 0,0 270.283,735.671 Z " style="stroke: none;   fill: rgb(179,186,212); " class="C13"/>
    <text x="263.2" y="743.0" font-size="9.1px" font-family="'CMUBright-Roman'" style="text-anchor:end;fill:rgb(0,0,0)" transform="rotate(-56.9,263.2,743.0)" class="C13"></text>
    <path d="M 302.765,667.321 A262.500,262.500 0.000 0,1 284.702,653.919 L 237.475,712.182 A337.500,337.500 0.000 0,0 260.698,729.412 Z " style="stroke: none;   fill: rgb(179,186,212); " class="C14"/>
    <text x="245.8" y="731.1" font-size="9.1px" font-family="'CMUBright-Roman'" style="text-anchor:end;fill:rgb(0,0,0)" transform="rotate(-53.4,245.8,731.1)" class="C14"></text>
    <path d="M 284.340,653.625 A262.500,262.500 0.000 0,1 259.601,630.705 L 205.201,682.335 A337.500,337.500 0.000 0,0 237.009,711.803 Z " style="stroke: none;   fill: rgb(179,186,212); " class="C15"/>
    <text x="216.4" y="707.3" font-size="9.1px" font-family="'CMUBright-Roman'" style="text-anchor:end;fill:rgb(0,0,0)" transform="rotate(-47.2,216.4,707.3)" class="C15"></text>
    <path d="M 259.280,630.366 A262.500,262.500 0.000 0,1 248.088,617.743 L 190.398,665.669 A337.500,337.500 0.000 0,0 204.788,681.900 Z " style="stroke: none;   fill: rgb(179,186,212); " class="C16"/>
    <text x="192.3" y="683.1" font-size="9.1px" font-family="'CMUBright-Roman'" style="text-anchor:end;fill:rgb(0,0,0)" transform="rotate(-41.6,192.3,683.1)" class="C16"></text>
    <path d="M 247.790,617.383 A262.500,262.500 0.000 0,1 240.804,608.567 L 181.034,653.872 A337.500,337.500 0.000 0,0 190.015,665.207 Z " style="stroke: none;   fill: rgb(179,186,212); " class="C17"/>
    <text x="179.8" y="668.5" font-size="9.1px" font-family="'CMUBright-Roman'" style="text-anchor:end;fill:rgb(0,0,0)" transform="rotate(-38.4,179.8,668.5)" class="C17"></text>
    <path d="M 240.523,608.194 A262.500,262.500 0.000 0,1 235.547,601.381 L 174.275,644.633 A337.500,337.500 0.000 0,0 180.672,653.393 Z " style="stroke: none;   fill: rgb(179,186,212); " class="C18"/>
    <text x="171.4" y="657.8" font-size="9.1px" font-family="'CMUBright-Roman'" style="text-anchor:end;fill:rgb(0,0,0)" transform="rotate(-36.1,171.4,657.8)" class="C18"></text>
    <path d="M 235.278,601.000 A262.500,262.500 0.000 0,1 202.973,538.790 L 132.393,564.159 A337.500,337.500 0.000 0,0 173.929,644.142 Z " style="stroke: none;   fill: rgb(179,186,212); " class="C19"/>
    <text x="143.2" y="613.3" font-size="9.1px" font-family="'CMUBright-Roman'" style="text-anchor:end;fill:rgb(0,0,0)" transform="rotate(-27.4,143.2,613.3)" class="C19"></text>
    <path d="M 202.815,538.351 A262.500,262.500 0.000 0,1 191.863,497.660 L 118.109,511.277 A337.500,337.500 0.000 0,0 132.191,563.594 Z " style="stroke: none;   fill: rgb(179,186,212); " class="C20"/>
    <text x="115.4" y="543.7" font-size="9.1px" font-family="'CMUBright-Roman'" style="text-anchor:end;fill:rgb(0,0,0)" transform="rotate(-15.1,115.4,543.7)" class="C20"></text>
    <path d="M 191.779,497.201 A262.500,262.500 0.000 0,1 188.020,466.513 L 113.168,471.231 A337.500,337.500 0.000 0,0 118.001,510.687 Z " style="stroke: none;   fill: rgb(179,186,212); " class="C21"/>
    <text x="105.5" y="495.7" font-size="9.1px" font-family="'CMUBright-Roman'" style="text-anchor:end;fill:rgb(0,0,0)" transform="rotate(-7.0,105.5,495.7)" class="C21"></text>
    <path d="M 187.991,466.047 A262.500,262.500 0.000 0,1 187.544,454.807 L 112.557,456.181 A337.500,337.500 0.000 0,0 113.131,470.632 Z " style="stroke: none;   fill: rgb(179,186,212); " class="C22"/>
    <text x="102.9" y="467.3" font-size="9.1px" font-family="'CMUBright-Roman'" style="text-anchor:end;fill:rgb(0,0,0)" transform="rotate(-2.3,102.9,467.3)" class="C22"></text>
    <path d="M 187.536,454.341 A262.500,262.500 0.000 0,1 192.077,401.193 L 118.385,387.248 A337.500,337.500 0.000 0,0 112.546,455.581 Z " style="stroke: none;   fill: rgb(179,186,212); " class="C23"/>
    <text x="103.5" y="423.9" font-size="9.1px" font-family="'CMUBright-Roman'" style="text-anchor:end;fill:rgb(0,0,0)" transform="rotate(4.9,103.5,423.9)" class="C23"></text>
    <path d="M 192.164,400.734 A262.500,262.500 0.000 0,1 193.279,395.221 L 119.930,379.570 A337.500,337.500 0.000 0,0 118.497,386.659 Z " style="stroke: none;   fill: rgb(179,186,212); " class="C25"/>
    <text x="108.7" y="384.6" font-size="9.1px" font-family="'CMUBright-Roman'" style="text-anchor:end;fill:rgb(0,0,0)" transform="rotate(11.4,108.7,384.6)" class="C25"></text>
    <path d="M 193.377,394.765 A262.500,262.500 0.000 0,1 197.455,378.394 L 125.299,357.936 A337.500,337.500 0.000 0,0 120.056,378.984 Z " style="stroke: none;   fill: rgb(179,186,212); " class="C24"/>
    <text x="112.0" y="369.4" font-size="9.1px" font-family="'CMUBright-Roman'" style="text-anchor:end;fill:rgb(0,0,0)" transform="rotate(14.0,112.0,369.4)" class="C24"></text>
    <path d="M 197.583,377.945 A262.500,262.500 0.000 0,1 200.029,369.871 L 128.608,346.977 A337.500,337.500 0.000 0,0 125.464,357.358 Z " style="stroke: none;   fill: rgb(179,186,212); " class="C27"/>
    <text x="116.4" y="352.6" font-size="9.1px" font-family="'CMUBright-Roman'" style="text-anchor:end;fill:rgb(0,0,0)" transform="rotate(16.9,116.4,352.6)" class="C27"></text>
    <path d="M 200.172,369.427 A262.500,262.500 0.000 0,1 247.040,283.526 L 189.051,235.962 A337.500,337.500 0.000 0,0 128.792,346.406 Z " style="stroke: none;   fill: rgb(179,186,212); " class="C26"/>
    <text x="143.3" y="286.6" font-size="9.1px" font-family="'CMUBright-Roman'" style="text-anchor:end;fill:rgb(0,0,0)" transform="rotate(28.6,143.3,286.6)" class="C26"></text>
    <path d="M 247.336,283.166 A262.500,262.500 0.000 0,1 443.442,187.582 L 441.569,112.605 A337.500,337.500 0.000 0,0 189.432,235.499 Z " style="stroke: none;   fill: rgb(179,186,212); " class="C2"/>
    <text x="294.6" y="139.2" font-size="9.1px" font-family="'CMUBright-Roman'" style="text-anchor:end;fill:rgb(0,0,0)" transform="rotate(64.0,294.6,139.2)" class="C2"></text>
    <path d="M 443.909,187.571 A262.500,262.500 0.000 0,1 449.533,187.500 L 449.400,112.501 A337.500,337.500 0.000 0,0 442.169,112.591 Z " style="stroke: none;   fill: rgb(179,186,212); " class="C1"/>
    <text x="442.2" y="102.6" font-size="9.1px" font-family="'CMUBright-Roman'" style="text-anchor:end;fill:rgb(0,0,0)" transform="rotate(89.3,442.2,102.6)" class="C1"></text>
  </g>
  <g id="E9">
    <path d="M 689.755,449.250 A 239.756,239.756 0.00 0,1 684.4,500.2 Q 493.9,442.5 654.7,325.2 A 239.756,239.756 0.00 0,1 657.3,329.6 Q 494.7,437.9 689.8,449.3 Z" style="stroke-width: 1.0;  stroke: rgb(180,180,180); fill: rgb(222,220,70);" opacity="0.5"/>
    <path d="M 668.033,549.724 A 239.756,239.756 0.00 0,1 641.8,593.8 Q 491.9,456.6 676.8,372.3 A 239.756,239.756 0.00 0,1 678.4,377.2 Q 494.6,452.7 668.0,549.7 Z" style="stroke-width: 1.0;  stroke: rgb(180,180,180); fill: rgb(222,220,70);" opacity="0.5"/>
    <path d="M 563.611,661.129 A 239.756,239.756 0.00 0,1 516.1,680.5 Q 472.0,454.7 603.8,266.1 A 239.756,239.756 0.00 0,1 607.7,269.4 Q 477.1,453.1 563.6,661.1 Z" style="stroke-width: 1.0;  stroke: rgb(180,180,180); fill: rgb(143,147,64);" opacity="0.8"/>
    <path d="M 641.586,594.146 A 239.756,239.756 0.00 0,1 606.6,631.6 Q 466.7,444.2 460.3,210.5 A 239.756,239.756 0.00 0,1 465.4,210.7 Q 470.7,440.5 641.6,594.1 Z" style="stroke-width: 1.0;  stroke: rgb(180,180,180); fill: rgb(222,220,70);" opacity="0.5"/>
    <path d="M 684.020,397.870 A 239.756,239.756 0.00 0,1 689.8,448.8 Q 482.6,427.5 536.6,226.4 A 239.756,239.756 0.00 0,1 541.4,228.3 Q 482.5,422.6 684.0,397.9 Z" style="stroke-width: 1.0;  stroke: rgb(180,180,180); fill: rgb(222,220,70);" opacity="0.5"/>
    <path d="M 606.231,631.865 A 239.756,239.756 0.00 0,1 564.0,660.9 Q 476.8,452.7 603.8,266.1 A 239.756,239.756 0.00 0,1 607.7,269.4 Q 481.4,450.1 606.2,631.9 Z" style="stroke-width: 1.0;  stroke: rgb(180,180,180); fill: rgb(222,220,70);" opacity="0.5"/>
    <path d="M 684.342,500.665 A 239.756,239.756 0.00 0,1 668.2,549.3 Q 485.1,440.0 582.9,250.4 A 239.756,239.756 0.00 0,1 587.1,253.3 Q 487.1,435.4 684.3,500.7 Z" style="stroke-width: 1.0;  stroke: rgb(180,180,180); fill: rgb(222,220,70);" opacity="0.5"/>
  </g>
  <g id="E9">
    <path d="M 582.879,250.435 A 239.756,239.756 0.00 0,1 587.1,253.3 Q 486.4,422.6 676.8,372.3 A 239.756,239.756 0.00 0,1 678.4,377.2 Q 486.1,422.8 582.9,250.4 Z" style="stroke-width: 1.0;  stroke: rgb(180,180,180); fill: rgb(222,220,70);" opacity="0.5"/>
    <path d="M 676.830,372.338 A 239.756,239.756 0.00 0,1 678.4,377.2 Q 473.9,418.8 460.3,210.5 A 239.756,239.756 0.00 0,1 465.4,210.7 Q 474.2,418.3 676.8,372.3 Z" style="stroke-width: 1.0;  stroke: rgb(180,180,180); fill: rgb(222,220,70);" opacity="0.5"/>
    <path d="M 676.830,372.338 A 239.756,239.756 0.00 0,1 678.4,377.2 Q 490.1,426.1 622.9,283.9 A 239.756,239.756 0.00 0,1 626.4,287.6 Q 490.3,426.0 676.8,372.3 Z" style="stroke-width: 1.0;  stroke: rgb(180,180,180); fill: rgb(222,220,70);" opacity="0.5"/>
    <path d="M 654.685,325.152 A 239.756,239.756 0.00 0,1 657.3,329.6 Q 489.7,423.3 639.9,303.6 A 239.756,239.756 0.00 0,1 643.0,307.7 Q 489.8,423.3 654.7,325.2 Z" style="stroke-width: 1.0;  stroke: rgb(180,180,180); fill: rgb(222,220,70);" opacity="0.5"/>
    <path d="M 622.867,283.868 A 239.756,239.756 0.00 0,1 626.4,287.6 Q 483.0,415.4 603.8,266.1 A 239.756,239.756 0.00 0,1 607.7,269.4 Q 483.1,415.3 622.9,283.9 Z" style="stroke-width: 1.0;  stroke: rgb(180,180,180); fill: rgb(222,220,70);" opacity="0.5"/>
    <path d="M 560.399,237.173 A 239.756,239.756 0.00 0,1 564.9,239.6 Q 476.9,410.6 603.8,266.1 A 239.756,239.756 0.00 0,1 607.7,269.4 Q 476.8,410.7 560.4,237.2 Z" style="stroke-width: 1.0;  stroke: rgb(180,180,180); fill: rgb(222,220,70);" opacity="0.5"/>
    <path d="M 536.610,226.434 A 239.756,239.756 0.00 0,1 541.4,228.3 Q 470.2,406.6 560.4,237.2 A 239.756,239.756 0.00 0,1 564.9,239.6 Q 470.2,406.6 536.6,226.4 Z" style="stroke-width: 1.0;  stroke: rgb(180,180,180); fill: rgb(222,220,70);" opacity="0.5"/>
    <path d="M 536.610,226.434 A 239.756,239.756 0.00 0,1 541.4,228.3 Q 479.6,415.3 654.7,325.2 A 239.756,239.756 0.00 0,1 657.3,329.6 Q 479.4,415.6 536.6,226.4 Z" style="stroke-width: 1.0;  stroke: rgb(180,180,180); fill: rgb(222,220,70);" opacity="0.5"/>
    <path d="M 639.902,303.643 A 239.756,239.756 0.00 0,1 643.0,307.7 Q 482.6,415.8 582.9,250.4 A 239.756,239.756 0.00 0,1 587.1,253.3 Q 482.7,415.7 639.9,303.6 Z" style="stroke-width: 1.0;  stroke: rgb(180,180,180); fill: rgb(222,220,70);" opacity="0.5"/>
    <path d="M 560.399,237.173 A 239.756,239.756 0.00 0,1 564.9,239.6 Q 465.1,405.3 486.2,213.0 A 239.756,239.756 0.00 0,1 491.3,213.8 Q 465.2,405.1 560.4,237.2 Z" style="stroke-width: 1.0;  stroke: rgb(180,180,180); fill: rgb(222,220,70);" opacity="0.5"/>
    <path d="M 622.867,283.868 A 239.756,239.756 0.00 0,1 626.4,287.6 Q 473.8,410.6 511.8,218.3 A 239.756,239.756 0.00 0,1 516.7,219.7 Q 474.0,410.4 622.9,283.9 Z" style="stroke-width: 1.0;  stroke: rgb(180,180,180); fill: rgb(222,220,70);" opacity="0.5"/>
    <path d="M 639.902,303.643 A 239.756,239.756 0.00 0,1 643.0,307.7 Q 491.0,425.6 667.0,348.1 A 239.756,239.756 0.00 0,1 669.2,352.8 Q 490.9,425.6 639.9,303.6 Z" style="stroke-width: 1.0;  stroke: rgb(180,180,180); fill: rgb(222,220,70);" opacity="0.5"/>
  </g>
  <g id="E9"/>
  <g id="plot0">
    <g id="plot0-axis"/>
    <text x="678.9" y="188.6" font-family="'CMUSansSerif-DemiCondensed'" style="fill: rgb(0,0,0); font-size: 13.0px; text-anchor: start" transform="rotate(310.5,678.9,188.6)">N17</text>
    <text x="472.8" y="103.3" font-family="'CMUSansSerif-DemiCondensed'" style="fill: rgb(0,0,0); font-size: 13.0px; text-anchor: start" transform="rotate(273.1,472.8,103.3)">N22</text>
    <text x="781.3" y="345.0" font-family="'CMUSansSerif-DemiCondensed'" style="fill: rgb(0,0,0); font-size: 13.0px; text-anchor: start" transform="rotate(341.7,781.3,345.0)">N23</text>
    <text x="706.0" y="215.0" font-family="'CMUSansSerif-DemiCondensed'" style="fill: rgb(0,0,0); font-size: 13.0px; text-anchor: start" transform="rotate(316.8,706.0,215.0)">N21</text>
    <text x="547.2" y="116.4" font-family="'CMUSansSerif-DemiCondensed'" style="fill: rgb(0,0,0); font-size: 13.0px; text-anchor: start" transform="rotate(285.5,547.2,116.4)">N20</text>
    <text x="649.2" y="165.2" font-family="'CMUSansSerif-DemiCondensed'" style="fill: rgb(0,0,0); font-size: 13.0px; text-anchor: start" transform="rotate(304.3,649.2,165.2)">N24</text>
    <text x="750.7" y="275.9" font-family="'CMUSansSerif-DemiCondensed'" style="fill: rgb(0,0,0); font-size: 13.0px; text-anchor: start" transform="rotate(329.2,750.7,275.9)">N26</text>
    <text x="730.0" y="244.2" font-family="'CMUSansSerif-DemiCondensed'" style="fill: rgb(0,0,0); font-size: 13.0px; text-anchor: start" transform="rotate(323.0,730.0,244.2)">N25</text>
    <text x="767.9" y="309.6" font-family="'CMUSansSerif-DemiCondensed'" style="fill: rgb(0,0,0); font-size: 13.0px; text-anchor: start" transform="rotate(335.5,767.9,309.6)">N11</text>
    <text x="582.9" y="128.9" font-family="'CMUSansSerif-DemiCondensed'" style="fill: rgb(0,0,0); font-size: 13.0px; text-anchor: start" transform="rotate(291.8,582.9,128.9)">N27</text>
    <text x="617.0" y="145.3" font-family="'CMUSansSerif-DemiCondensed'" style="fill: rgb(0,0,0); font-size: 13.0px; text-anchor: start" transform="rotate(298.0,617.0,145.3)">N19</text>
    <text x="510.4" y="107.8" font-family="'CMUSansSerif-DemiCondensed'" style="fill: rgb(0,0,0); font-size: 13.0px; text-anchor: start" transform="rotate(279.3,510.4,107.8)">N18</text>
  </g>
  <script>function init(evt) {
    $(evt.target).bind('mouseover', doMouseOver);
    $(evt.target).bind('mouseup'  , doMouseUp);
    $(evt.target).bind('mousedown', doMouseDown);
}</script>
</svg>