<svg width="900px" height="900px" version="1.1" onload="init(evt)" xmlns="http://www.w3.org/2000/svg" xmlns:xlink="http://www.w3.org/1999/xlink">
  <g id="ideograms">
    <path d="M 450.000,197.625 A252.375,252.375 0.000 0,1 474.204,198.788 L 481.396,124.134 A327.375,327.375 0.000 0,0 450.000,122.625 Z " style="stroke: none;   fill: rgb(53,100,153); " class="N60"/>
    <text x="469.7" y="113.2" font-size="9.1px" font-family="'CMUBright-Roman'" style="text-anchor:start;fill:rgb(0,0,0)" transform="rotate(272.8,469.7,113.2)" class="N60"></text>
    <path d="M 474.605,198.827 A252.375,252.375 0.000 0,1 498.580,202.345 L 513.017,128.747 A327.375,327.375 0.000 0,0 481.917,124.185 Z " style="stroke: none;   fill: rgb(53,100,153); " class="N62"/>
    <text x="502.4" y="116.7" font-size="9.1px" font-family="'CMUBright-Roman'" style="text-anchor:start;fill:rgb(0,0,0)" transform="rotate(278.3,502.4,116.7)" class="N62"></text>
    <path d="M 498.976,202.423 A252.375,252.375 0.000 0,1 522.494,208.261 L 544.037,136.422 A327.375,327.375 0.000 0,0 513.530,128.849 Z " style="stroke: none;   fill: rgb(53,100,153); " class="N66"/>
    <text x="534.7" y="123.4" font-size="9.1px" font-family="'CMUBright-Roman'" style="text-anchor:start;fill:rgb(0,0,0)" transform="rotate(283.9,534.7,123.4)" class="N66"></text>
    <path d="M 522.880,208.377 A252.375,252.375 0.000 0,1 545.717,216.480 L 574.161,147.084 A327.375,327.375 0.000 0,0 544.538,136.572 Z " style="stroke: none;   fill: rgb(53,100,153); " class="N20"/>
    <text x="566.1" y="133.2" font-size="9.1px" font-family="'CMUBright-Roman'" style="text-anchor:start;fill:rgb(0,0,0)" transform="rotate(289.5,566.1,133.2)" class="N20"></text>
    <path d="M 546.090,216.634 A252.375,252.375 0.000 0,1 568.028,226.925 L 603.103,160.632 A327.375,327.375 0.000 0,0 574.645,147.282 Z " style="stroke: none;   fill: rgb(53,100,153); " class="N65"/>
    <text x="596.4" y="146.1" font-size="9.1px" font-family="'CMUBright-Roman'" style="text-anchor:start;fill:rgb(0,0,0)" transform="rotate(295.1,596.4,146.1)" class="N65"></text>
    <path d="M 568.384,227.114 A252.375,252.375 0.000 0,1 589.214,239.494 L 630.585,176.937 A327.375,327.375 0.000 0,0 603.565,160.877 Z " style="stroke: none;   fill: rgb(53,100,153); " class="N63"/>
    <text x="625.4" y="161.8" font-size="9.1px" font-family="'CMUBright-Roman'" style="text-anchor:start;fill:rgb(0,0,0)" transform="rotate(300.7,625.4,161.8)" class="N63"></text>
    <path d="M 589.550,239.717 A252.375,252.375 0.000 0,1 609.074,254.070 L 656.347,195.844 A327.375,327.375 0.000 0,0 631.021,177.226 Z " style="stroke: none;   fill: rgb(53,100,153); " class="N70"/>
    <text x="652.6" y="180.3" font-size="9.1px" font-family="'CMUBright-Roman'" style="text-anchor:start;fill:rgb(0,0,0)" transform="rotate(306.3,652.6,180.3)" class="N70"></text>
    <path d="M 609.387,254.324 A252.375,252.375 0.000 0,1 627.418,270.512 L 680.143,217.172 A327.375,327.375 0.000 0,0 656.753,196.174 Z " style="stroke: none;   fill: rgb(53,100,153); " class="N61"/>
    <text x="678.0" y="201.3" font-size="9.1px" font-family="'CMUBright-Roman'" style="text-anchor:start;fill:rgb(0,0,0)" transform="rotate(311.9,678.0,201.3)" class="N61"></text>
    <path d="M 627.705,270.796 A252.375,252.375 0.000 0,1 644.072,288.664 L 701.746,240.719 A327.375,327.375 0.000 0,0 680.515,217.541 Z " style="stroke: none;   fill: rgb(53,100,153); " class="N17"/>
    <text x="701.1" y="224.7" font-size="9.1px" font-family="'CMUBright-Roman'" style="text-anchor:start;fill:rgb(0,0,0)" transform="rotate(317.5,701.1,224.7)" class="N17"></text>
    <path d="M 644.330,288.975 A252.375,252.375 0.000 0,1 658.877,308.354 L 720.950,266.260 A327.375,327.375 0.000 0,0 702.080,241.122 Z " style="stroke: none;   fill: rgb(53,100,153); " class="N64"/>
    <text x="721.9" y="250.3" font-size="9.1px" font-family="'CMUBright-Roman'" style="text-anchor:start;fill:rgb(0,0,0)" transform="rotate(323.1,721.9,250.3)" class="N64"></text>
    <path d="M 659.103,308.688 A252.375,252.375 0.000 0,1 671.692,329.393 L 737.573,293.552 A327.375,327.375 0.000 0,0 721.244,266.694 Z " style="stroke: none;   fill: rgb(53,100,153); " class="N68"/>
    <text x="740.1" y="277.7" font-size="9.1px" font-family="'CMUBright-Roman'" style="text-anchor:start;fill:rgb(0,0,0)" transform="rotate(328.7,740.1,277.7)" class="N68"></text>
    <path d="M 671.884,329.748 A252.375,252.375 0.000 0,1 682.394,351.582 L 751.456,322.334 A327.375,327.375 0.000 0,0 737.823,294.012 Z " style="stroke: none;   fill: rgb(53,100,153); " class="N67"/>
    <text x="755.5" y="306.8" font-size="9.1px" font-family="'CMUBright-Roman'" style="text-anchor:start;fill:rgb(0,0,0)" transform="rotate(334.3,755.5,306.8)" class="N67"></text>
    <path d="M 682.551,351.953 A252.375,252.375 0.000 0,1 690.882,374.708 L 762.467,352.332 A327.375,327.375 0.000 0,0 751.660,322.816 Z " style="stroke: none;   fill: rgb(53,100,153); " class="N69"/>
    <text x="768.0" y="337.3" font-size="9.1px" font-family="'CMUBright-Roman'" style="text-anchor:start;fill:rgb(0,0,0)" transform="rotate(339.9,768.0,337.3)" class="N69"></text>
    <path d="M 700.671,372.088 A262.500,262.500 0.000 0,1 703.479,381.774 L 775.901,362.280 A337.500,337.500 0.000 0,0 772.291,349.827 Z " style="stroke: none;   fill: rgb(179,186,212); " class="C3"/>
    <text x="784.7" y="356.6" font-size="9.1px" font-family="'CMUBright-Roman'" style="text-anchor:start;fill:rgb(0,0,0)" transform="rotate(343.8,784.7,356.6)" class="C3"></text>
    <path d="M 703.587,382.178 A262.500,262.500 0.000 0,1 707.571,399.369 L 781.163,384.903 A337.500,337.500 0.000 0,0 776.041,362.801 Z " style="stroke: none;   fill: rgb(179,186,212); " class="C4"/>
    <text x="789.3" y="375.0" font-size="9.1px" font-family="'CMUBright-Roman'" style="text-anchor:start;fill:rgb(0,0,0)" transform="rotate(347.0,789.3,375.0)" class="C4"></text>
    <path d="M 707.651,399.780 A262.500,262.500 0.000 0,1 708.991,407.224 L 782.989,395.003 A337.500,337.500 0.000 0,0 781.266,385.432 Z " style="stroke: none;   fill: rgb(179,186,212); " class="C6"/>
    <text x="792.6" y="391.9" font-size="9.1px" font-family="'CMUBright-Roman'" style="text-anchor:start;fill:rgb(0,0,0)" transform="rotate(349.8,792.6,391.9)" class="C6"></text>
    <path d="M 709.059,407.638 A262.500,262.500 0.000 0,1 710.172,415.120 L 784.507,405.154 A337.500,337.500 0.000 0,0 783.076,395.535 Z " style="stroke: none;   fill: rgb(179,186,212); " class="C5"/>
    <text x="794.2" y="402.3" font-size="9.1px" font-family="'CMUBright-Roman'" style="text-anchor:start;fill:rgb(0,0,0)" transform="rotate(351.5,794.2,402.3)" class="C5"></text>
    <path d="M 710.228,415.535 A262.500,262.500 0.000 0,1 711.781,430.581 L 786.575,425.033 A337.500,337.500 0.000 0,0 784.578,405.688 Z " style="stroke: none;   fill: rgb(179,186,212); " class="C7"/>
    <text x="796.0" y="417.8" font-size="9.1px" font-family="'CMUBright-Roman'" style="text-anchor:start;fill:rgb(0,0,0)" transform="rotate(354.1,796.0,417.8)" class="C7"></text>
    <path d="M 701.713,431.732 A252.375,252.375 0.000 0,1 700.571,480.126 L 775.034,489.078 A327.375,327.375 0.000 0,0 776.516,426.303 Z " style="stroke: none;   fill: rgb(157,55,110); " class="E50"/>
    <text x="787.2" y="461.5" font-size="9.1px" font-family="'CMUBright-Roman'" style="text-anchor:start;fill:rgb(0,0,0)" transform="rotate(1.4,787.2,461.5)" class="E50"></text>
    <path d="M 700.522,480.526 A252.375,252.375 0.000 0,1 690.086,527.795 L 761.433,550.914 A327.375,327.375 0.000 0,0 774.971,489.598 Z " style="stroke: none;   fill: rgb(157,55,110); " class="E49"/>
    <text x="778.7" y="526.2" font-size="9.1px" font-family="'CMUBright-Roman'" style="text-anchor:start;fill:rgb(0,0,0)" transform="rotate(12.5,778.7,526.2)" class="E49"></text>
    <path d="M 689.961,528.179 A252.375,252.375 0.000 0,1 670.621,572.555 L 736.184,608.975 A327.375,327.375 0.000 0,0 761.272,551.412 Z " style="stroke: none;   fill: rgb(157,55,110); " class="E48"/>
    <text x="757.9" y="588.0" font-size="9.1px" font-family="'CMUBright-Roman'" style="text-anchor:start;fill:rgb(0,0,0)" transform="rotate(23.5,757.9,588.0)" class="E48"></text>
    <path d="M 670.424,572.907 A252.375,252.375 0.000 0,1 642.904,612.730 L 700.231,661.090 A327.375,327.375 0.000 0,0 735.930,609.432 Z " style="stroke: none;   fill: rgb(157,55,110); " class="E47"/>
    <text x="725.5" y="644.7" font-size="9.1px" font-family="'CMUBright-Roman'" style="text-anchor:start;fill:rgb(0,0,0)" transform="rotate(34.6,725.5,644.7)" class="E47"></text>
    <path d="M 642.644,613.039 A252.375,252.375 0.000 0,1 607.972,646.820 L 654.918,705.310 A327.375,327.375 0.000 0,0 699.893,661.490 Z " style="stroke: none;   fill: rgb(157,55,110); " class="E46"/>
    <text x="682.9" y="694.1" font-size="9.1px" font-family="'CMUBright-Roman'" style="text-anchor:start;fill:rgb(0,0,0)" transform="rotate(45.7,682.9,694.1)" class="E46"></text>
    <path d="M 607.657,647.072 A252.375,252.375 0.000 0,1 567.132,673.547 L 601.941,739.980 A327.375,327.375 0.000 0,0 654.509,705.637 Z " style="stroke: none;   fill: rgb(157,55,110); " class="E45"/>
    <text x="631.6" y="734.3" font-size="9.1px" font-family="'CMUBright-Roman'" style="text-anchor:start;fill:rgb(0,0,0)" transform="rotate(56.8,631.6,734.3)" class="E45"></text>
    <path d="M 566.774,673.734 A252.375,252.375 0.000 0,1 521.910,691.913 L 543.280,763.804 A327.375,327.375 0.000 0,0 601.477,740.223 Z " style="stroke: none;   fill: rgb(157,55,110); " class="E44"/>
    <text x="573.5" y="764.0" font-size="9.1px" font-family="'CMUBright-Roman'" style="text-anchor:start;fill:rgb(0,0,0)" transform="rotate(67.9,573.5,764.0)" class="E44"></text>
    <path d="M 521.523,692.028 A252.375,252.375 0.000 0,1 473.999,701.231 L 481.131,775.891 A327.375,327.375 0.000 0,0 542.779,763.953 Z " style="stroke: none;   fill: rgb(157,55,110); " class="E43"/>
    <text x="510.7" y="781.9" font-size="9.1px" font-family="'CMUBright-Roman'" style="text-anchor:start;fill:rgb(0,0,0)" transform="rotate(79.0,510.7,781.9)" class="E43"></text>
    <path d="M 473.597,701.269 A252.375,252.375 0.000 0,1 425.190,701.153 L 417.817,775.789 A327.375,327.375 0.000 0,0 480.610,775.941 Z " style="stroke: none;   fill: rgb(157,55,110); " class="E42"/>
    <text x="452.7" y="787.4" font-size="9.1px" font-family="'CMUBright-Roman'" style="text-anchor:end;fill:rgb(0,0,0)" transform="rotate(-89.9,452.7,787.4)" class="E42"></text>
    <path d="M 424.789,701.113 A252.375,252.375 0.000 0,1 377.310,691.680 L 355.708,763.502 A327.375,327.375 0.000 0,0 417.297,775.737 Z " style="stroke: none;   fill: rgb(157,55,110); " class="E41"/>
    <text x="387.7" y="781.6" font-size="9.1px" font-family="'CMUBright-Roman'" style="text-anchor:end;fill:rgb(0,0,0)" transform="rotate(-78.8,387.7,781.6)" class="E41"></text>
    <path d="M 373.992,701.255 A262.500,262.500 0.000 0,1 366.784,698.961 L 343.008,770.092 A337.500,337.500 0.000 0,0 352.275,773.042 Z " style="stroke: none;   fill: rgb(179,186,212); " class="C9"/>
    <text x="347.9" y="782.2" font-size="9.1px" font-family="'CMUBright-Roman'" style="text-anchor:end;fill:rgb(0,0,0)" transform="rotate(-72.3,347.9,782.2)" class="C9"></text>
    <path d="M 366.387,698.827 A262.500,262.500 0.000 0,1 333.782,685.371 L 300.577,752.620 A337.500,337.500 0.000 0,0 342.497,769.921 Z " style="stroke: none;   fill: rgb(179,186,212); " class="C10"/>
    <text x="320.7" y="772.5" font-size="9.1px" font-family="'CMUBright-Roman'" style="text-anchor:end;fill:rgb(0,0,0)" transform="rotate(-67.6,320.7,772.5)" class="C10"></text>
    <path d="M 333.406,685.185 A262.500,262.500 0.000 0,1 307.132,670.216 L 266.313,733.135 A337.500,337.500 0.000 0,0 300.094,752.381 Z " style="stroke: none;   fill: rgb(179,186,212); " class="C11"/>
    <text x="281.0" y="753.7" font-size="9.1px" font-family="'CMUBright-Roman'" style="text-anchor:end;fill:rgb(0,0,0)" transform="rotate(-60.3,281.0,753.7)" class="C11"></text>
    <path d="M 306.781,669.987 A262.500,262.500 0.000 0,1 256.855,627.767 L 201.670,678.558 A337.500,337.500 0.000 0,0 265.861,732.841 Z " style="stroke: none;   fill: rgb(179,186,212); " class="C12"/>
    <text x="228.3" y="717.6" font-size="9.1px" font-family="'CMUBright-Roman'" style="text-anchor:end;fill:rgb(0,0,0)" transform="rotate(-49.8,228.3,717.6)" class="C12"></text>
    <path d="M 256.571,627.459 A262.500,262.500 0.000 0,1 251.539,621.812 L 194.835,670.901 A337.500,337.500 0.000 0,0 201.306,678.161 Z " style="stroke: none;   fill: rgb(179,186,212); " class="C13"/>
    <text x="192.9" y="683.8" font-size="9.1px" font-family="'CMUBright-Roman'" style="text-anchor:end;fill:rgb(0,0,0)" transform="rotate(-41.7,192.9,683.8)" class="C13"></text>
    <path d="M 251.265,621.495 A262.500,262.500 0.000 0,1 238.686,605.733 L 178.311,650.228 A337.500,337.500 0.000 0,0 194.483,670.493 Z " style="stroke: none;   fill: rgb(179,186,212); " class="C14"/>
    <text x="180.6" y="669.5" font-size="9.1px" font-family="'CMUBright-Roman'" style="text-anchor:end;fill:rgb(0,0,0)" transform="rotate(-38.6,180.6,669.5)" class="C14"></text>
    <path d="M 238.438,605.395 A262.500,262.500 0.000 0,1 221.970,580.033 L 156.819,617.185 A337.500,337.500 0.000 0,0 177.991,649.794 Z " style="stroke: none;   fill: rgb(179,186,212); " class="C15"/>
    <text x="160.5" y="642.2" font-size="9.1px" font-family="'CMUBright-Roman'" style="text-anchor:end;fill:rgb(0,0,0)" transform="rotate(-33.0,160.5,642.2)" class="C15"></text>
    <path d="M 221.763,579.669 A262.500,262.500 0.000 0,1 214.673,566.307 L 147.437,599.538 A337.500,337.500 0.000 0,0 156.552,616.717 Z " style="stroke: none;   fill: rgb(179,186,212); " class="C16"/>
    <text x="144.7" y="616.0" font-size="9.1px" font-family="'CMUBright-Roman'" style="text-anchor:end;fill:rgb(0,0,0)" transform="rotate(-28.0,144.7,616.0)" class="C16"></text>
    <path d="M 214.487,565.931 A262.500,262.500 0.000 0,1 210.208,556.800 L 141.696,587.314 A337.500,337.500 0.000 0,0 147.198,599.055 Z " style="stroke: none;   fill: rgb(179,186,212); " class="C17"/>
    <text x="136.8" y="600.6" font-size="9.1px" font-family="'CMUBright-Roman'" style="text-anchor:end;fill:rgb(0,0,0)" transform="rotate(-25.1,136.8,600.6)" class="C17"></text>
    <path d="M 210.038,556.416 A262.500,262.500 0.000 0,1 207.072,549.459 L 137.663,577.875 A337.500,337.500 0.000 0,0 141.477,586.821 Z " style="stroke: none;   fill: rgb(179,186,212); " class="C18"/>
    <text x="131.7" y="589.5" font-size="9.1px" font-family="'CMUBright-Roman'" style="text-anchor:end;fill:rgb(0,0,0)" transform="rotate(-23.1,131.7,589.5)" class="C18"></text>
    <path d="M 206.913,549.071 A262.500,262.500 0.000 0,1 190.326,488.416 L 116.134,499.391 A337.500,337.500 0.000 0,0 137.460,577.377 Z " style="stroke: none;   fill: rgb(179,186,212); " class="C19"/>
    <text x="115.7" y="545.0" font-size="9.1px" font-family="'CMUBright-Roman'" style="text-anchor:end;fill:rgb(0,0,0)" transform="rotate(-15.3,115.7,545.0)" class="C19"></text>
    <path d="M 190.265,488.001 A262.500,262.500 0.000 0,1 187.500,450.315 L 112.500,450.405 A337.500,337.500 0.000 0,0 116.055,498.858 Z " style="stroke: none;   fill: rgb(179,186,212); " class="C20"/>
    <text x="103.7" y="478.9" font-size="9.1px" font-family="'CMUBright-Roman'" style="text-anchor:end;fill:rgb(0,0,0)" transform="rotate(-4.2,103.7,478.9)" class="C20"></text>
    <path d="M 187.500,449.896 A262.500,262.500 0.000 0,1 188.975,422.213 L 114.396,414.274 A337.500,337.500 0.000 0,0 112.500,449.866 Z " style="stroke: none;   fill: rgb(179,186,212); " class="C21"/>
    <text x="102.8" y="435.0" font-size="9.1px" font-family="'CMUBright-Roman'" style="text-anchor:end;fill:rgb(0,0,0)" transform="rotate(3.0,102.8,435.0)" class="C21"></text>
    <path d="M 189.020,421.796 A262.500,262.500 0.000 0,1 190.295,411.792 L 116.094,400.876 A337.500,337.500 0.000 0,0 114.454,413.738 Z " style="stroke: none;   fill: rgb(179,186,212); " class="C22"/>
    <text x="104.9" y="409.5" font-size="9.1px" font-family="'CMUBright-Roman'" style="text-anchor:end;fill:rgb(0,0,0)" transform="rotate(7.3,104.9,409.5)" class="C22"></text>
    <path d="M 190.357,411.378 A262.500,262.500 0.000 0,1 201.678,364.898 L 130.729,340.583 A337.500,337.500 0.000 0,0 116.173,400.343 Z " style="stroke: none;   fill: rgb(179,186,212); " class="C23"/>
    <text x="111.6" y="371.2" font-size="9.1px" font-family="'CMUBright-Roman'" style="text-anchor:end;fill:rgb(0,0,0)" transform="rotate(13.7,111.6,371.2)" class="C23"></text>
    <path d="M 201.814,364.501 A262.500,262.500 0.000 0,1 203.502,359.750 L 133.074,333.964 A337.500,337.500 0.000 0,0 130.904,340.073 Z " style="stroke: none;   fill: rgb(179,186,212); " class="C25"/>
    <text x="121.4" y="337.0" font-size="9.1px" font-family="'CMUBright-Roman'" style="text-anchor:end;fill:rgb(0,0,0)" transform="rotate(19.6,121.4,337.0)" class="C25"></text>
    <path d="M 203.647,359.356 A262.500,262.500 0.000 0,1 209.277,345.317 L 140.499,315.407 A337.500,337.500 0.000 0,0 133.260,333.458 Z " style="stroke: none;   fill: rgb(179,186,212); " class="C24"/>
    <text x="126.2" y="323.9" font-size="9.1px" font-family="'CMUBright-Roman'" style="text-anchor:end;fill:rgb(0,0,0)" transform="rotate(21.9,126.2,323.9)" class="C24"></text>
    <path d="M 209.444,344.933 A262.500,262.500 0.000 0,1 212.571,338.046 L 144.734,306.059 A337.500,337.500 0.000 0,0 140.714,314.913 Z " style="stroke: none;   fill: rgb(179,186,212); " class="C27"/>
    <text x="132.2" y="309.5" font-size="9.1px" font-family="'CMUBright-Roman'" style="text-anchor:end;fill:rgb(0,0,0)" transform="rotate(24.4,132.2,309.5)" class="C27"></text>
    <path d="M 212.750,337.667 A262.500,262.500 0.000 0,1 263.088,265.690 L 209.684,213.030 A337.500,337.500 0.000 0,0 144.965,305.571 Z " style="stroke: none;   fill: rgb(179,186,212); " class="C26"/>
    <text x="163.2" y="253.7" font-size="9.1px" font-family="'CMUBright-Roman'" style="text-anchor:end;fill:rgb(0,0,0)" transform="rotate(35.0,163.2,253.7)" class="C26"></text>
    <path d="M 263.382,265.392 A262.500,262.500 0.000 0,1 444.119,187.566 L 442.439,112.585 A337.500,337.500 0.000 0,0 210.063,212.647 Z " style="stroke: none;   fill: rgb(179,186,212); " class="C2"/>
    <text x="309.4" y="132.2" font-size="9.1px" font-family="'CMUBright-Roman'" style="text-anchor:end;fill:rgb(0,0,0)" transform="rotate(66.7,309.4,132.2)" class="C2"></text>
    <path d="M 444.538,187.557 A262.500,262.500 0.000 0,1 449.581,187.500 L 449.461,112.500 A337.500,337.500 0.000 0,0 442.978,112.573 Z " style="stroke: none;   fill: rgb(179,186,212); " class="C1"/>
    <text x="442.6" y="102.6" font-size="9.1px" font-family="'CMUBright-Roman'" style="text-anchor:end;fill:rgb(0,0,0)" transform="rotate(89.4,442.6,102.6)" class="C1"></text>
  </g>
  <g id="E49">
    <path d="M 426.049,688.557 A 239.756,239.756 0.00 0,1 380.9,679.6 Q 460.6,456.6 625.2,286.4 A 239.756,239.756 0.00 0,1 628.3,289.8 Q 465.4,457.8 426.0,688.6 Z" style="stroke-width: 1.0;  stroke: rgb(180,180,180); fill: rgb(222,220,70);" opacity="0.5"/>
    <path d="M 472.418,688.706 A 239.756,239.756 0.00 0,1 426.4,688.6 Q 463.5,455.9 608.4,270.1 A 239.756,239.756 0.00 0,1 611.9,273.1 Q 468.4,456.2 472.4,688.7 Z" style="stroke-width: 1.0;  stroke: rgb(180,180,180); fill: rgb(222,220,70);" opacity="0.5"/>
    <path d="M 677.963,524.270 A 239.756,239.756 0.00 0,1 659.6,566.4 Q 493.4,453.2 674.3,365.4 A 239.756,239.756 0.00 0,1 675.9,369.7 Q 495.4,449.4 678.0,524.3 Z" style="stroke-width: 1.0;  stroke: rgb(180,180,180); fill: rgb(222,220,70);" opacity="0.5"/>
    <path d="M 599.774,637.218 A 239.756,239.756 0.00 0,1 561.3,662.4 Q 478.7,454.9 625.2,286.4 A 239.756,239.756 0.00 0,1 628.3,289.8 Q 482.8,452.7 599.8,637.2 Z" style="stroke-width: 1.0;  stroke: rgb(180,180,180); fill: rgb(222,220,70);" opacity="0.5"/>
    <path d="M 560.935,662.547 A 239.756,239.756 0.00 0,1 518.3,679.8 Q 468.9,452.3 570.5,242.7 A 239.756,239.756 0.00 0,1 574.5,245.1 Q 473.5,450.8 560.9,662.5 Z" style="stroke-width: 1.0;  stroke: rgb(180,180,180); fill: rgb(222,220,70);" opacity="0.5"/>
    <path d="M 633.011,604.887 A 239.756,239.756 0.00 0,1 600.1,637.0 Q 470.6,445.4 505.5,216.8 A 239.756,239.756 0.00 0,1 510.0,217.9 Q 474.3,442.3 633.0,604.9 Z" style="stroke-width: 1.0;  stroke: rgb(180,180,180); fill: rgb(222,220,70);" opacity="0.5"/>
    <path d="M 687.996,479.000 A 239.756,239.756 0.00 0,1 678.1,523.9 Q 484.9,436.7 570.5,242.7 A 239.756,239.756 0.00 0,1 574.5,245.1 Q 486.2,432.4 688.0,479.0 Z" style="stroke-width: 1.0;  stroke: rgb(180,180,180); fill: rgb(143,147,64);" opacity="0.8"/>
    <path d="M 517.947,679.927 A 239.756,239.756 0.00 0,1 472.8,688.7 Q 455.5,450.1 482.5,212.5 A 239.756,239.756 0.00 0,1 487.1,213.1 Q 460.5,449.3 517.9,679.9 Z" style="stroke-width: 1.0;  stroke: rgb(180,180,180); fill: rgb(222,220,70);" opacity="0.5"/>
    <path d="M 659.403,566.762 A 239.756,239.756 0.00 0,1 633.3,604.6 Q 488.7,452.8 653.7,323.5 A 239.756,239.756 0.00 0,1 656.1,327.4 Q 491.5,449.4 659.4,566.8 Z" style="stroke-width: 1.0;  stroke: rgb(180,180,180); fill: rgb(222,220,70);" opacity="0.5"/>
    <path d="M 689.127,432.645 A 239.756,239.756 0.00 0,1 688.0,478.6 Q 487.8,433.4 590.1,255.5 A 239.756,239.756 0.00 0,1 593.9,258.2 Q 488.3,429.1 689.1,432.6 Z" style="stroke-width: 1.0;  stroke: rgb(180,180,180); fill: rgb(222,220,70);" opacity="0.5"/>
  </g>
  <g id="E49">
    <path d="M 590.148,255.471 A 239.756,239.756 0.00 0,1 593.9,258.2 Q 476.4,410.1 570.5,242.7 A 239.756,239.756 0.00 0,1 574.5,245.1 Q 476.5,410.1 590.1,255.5 Z" style="stroke-width: 1.0;  stroke: rgb(180,180,180); fill: rgb(222,220,70);" opacity="0.5"/>
    <path d="M 549.734,231.972 A 239.756,239.756 0.00 0,1 553.9,233.9 Q 477.9,412.0 625.2,286.4 A 239.756,239.756 0.00 0,1 628.3,289.8 Q 477.8,412.2 549.7,232.0 Z" style="stroke-width: 1.0;  stroke: rgb(180,180,180); fill: rgb(222,220,70);" opacity="0.5"/>
    <path d="M 549.734,231.972 A 239.756,239.756 0.00 0,1 553.9,233.9 Q 479.4,413.8 640.4,304.2 A 239.756,239.756 0.00 0,1 643.1,307.9 Q 479.3,414.0 549.7,232.0 Z" style="stroke-width: 1.0;  stroke: rgb(180,180,180); fill: rgb(222,220,70);" opacity="0.5"/>
    <path d="M 482.523,212.460 A 239.756,239.756 0.00 0,1 487.1,213.1 Q 469.6,408.3 608.4,270.1 A 239.756,239.756 0.00 0,1 611.9,273.1 Q 469.4,408.6 482.5,212.5 Z" style="stroke-width: 1.0;  stroke: rgb(180,180,180); fill: rgb(222,220,70);" opacity="0.5"/>
    <path d="M 505.527,216.762 A 239.756,239.756 0.00 0,1 510.0,217.9 Q 466.0,405.0 549.7,232.0 A 239.756,239.756 0.00 0,1 553.9,233.9 Q 465.9,405.1 505.5,216.8 Z" style="stroke-width: 1.0;  stroke: rgb(180,180,180); fill: rgb(222,220,70);" opacity="0.5"/>
    <path d="M 674.338,365.410 A 239.756,239.756 0.00 0,1 675.9,369.7 Q 494.1,431.4 665.0,343.9 A 239.756,239.756 0.00 0,1 667.0,348.1 Q 494.1,431.4 674.3,365.4 Z" style="stroke-width: 1.0;  stroke: rgb(180,180,180); fill: rgb(222,220,70);" opacity="0.5"/>
    <path d="M 665.022,343.941 A 239.756,239.756 0.00 0,1 667.0,348.1 Q 477.3,416.5 505.5,216.8 A 239.756,239.756 0.00 0,1 510.0,217.9 Q 477.5,416.2 665.0,343.9 Z" style="stroke-width: 1.0;  stroke: rgb(180,180,180); fill: rgb(222,220,70);" opacity="0.5"/>
    <path d="M 674.338,365.410 A 239.756,239.756 0.00 0,1 675.9,369.7 Q 493.0,429.3 653.7,323.5 A 239.756,239.756 0.00 0,1 656.1,327.4 Q 493.0,429.3 674.3,365.4 Z" style="stroke-width: 1.0;  stroke: rgb(180,180,180); fill: rgb(222,220,70);" opacity="0.5"/>
    <path d="M 608.446,270.061 A 239.756,239.756 0.00 0,1 611.9,273.1 Q 483.7,416.0 625.2,286.4 A 239.756,239.756 0.00 0,1 628.3,289.8 Q 483.7,416.0 608.4,270.1 Z" style="stroke-width: 1.0;  stroke: rgb(180,180,180); fill: rgb(222,220,70);" opacity="0.5"/>
    <path d="M 608.446,270.061 A 239.756,239.756 0.00 0,1 611.9,273.1 Q 467.1,408.4 459.2,210.4 A 239.756,239.756 0.00 0,1 463.8,210.6 Q 467.2,408.1 608.4,270.1 Z" style="stroke-width: 1.0;  stroke: rgb(180,180,180); fill: rgb(222,220,70);" opacity="0.5"/>
    <path d="M 590.148,255.471 A 239.756,239.756 0.00 0,1 593.9,258.2 Q 486.8,422.4 674.3,365.4 A 239.756,239.756 0.00 0,1 675.9,369.7 Q 486.6,422.5 590.1,255.5 Z" style="stroke-width: 1.0;  stroke: rgb(180,180,180); fill: rgb(222,220,70);" opacity="0.5"/>
    <path d="M 665.022,343.941 A 239.756,239.756 0.00 0,1 667.0,348.1 Q 479.5,417.1 528.0,223.3 A 239.756,239.756 0.00 0,1 532.3,224.8 Q 479.7,416.9 665.0,343.9 Z" style="stroke-width: 1.0;  stroke: rgb(180,180,180); fill: rgb(222,220,70);" opacity="0.5"/>
  </g>
  <g id="E49"/>
  <g id="plot0">
    <g id="plot0-axis"/>
    <text x="709.1" y="218.4" font-family="'CMUSansSerif-DemiCondensed'" style="fill: rgb(0,0,0); font-size: 13.0px; text-anchor: start" transform="rotate(317.5,709.1,218.4)">N17</text>
    <text x="685.3" y="194.3" font-family="'CMUSansSerif-DemiCondensed'" style="fill: rgb(0,0,0); font-size: 13.0px; text-anchor: start" transform="rotate(311.9,685.3,194.3)">N61</text>
    <text x="470.9" y="103.1" font-family="'CMUSansSerif-DemiCondensed'" style="fill: rgb(0,0,0); font-size: 13.0px; text-anchor: start" transform="rotate(272.8,470.9,103.1)">N60</text>
    <text x="504.6" y="106.8" font-family="'CMUSansSerif-DemiCondensed'" style="fill: rgb(0,0,0); font-size: 13.0px; text-anchor: start" transform="rotate(278.3,504.6,106.8)">N62</text>
    <text x="631.2" y="153.5" font-family="'CMUSansSerif-DemiCondensed'" style="fill: rgb(0,0,0); font-size: 13.0px; text-anchor: start" transform="rotate(300.7,631.2,153.5)">N63</text>
    <text x="537.8" y="113.8" font-family="'CMUSansSerif-DemiCondensed'" style="fill: rgb(0,0,0); font-size: 13.0px; text-anchor: start" transform="rotate(283.9,537.8,113.8)">N66</text>
    <text x="601.4" y="137.2" font-family="'CMUSansSerif-DemiCondensed'" style="fill: rgb(0,0,0); font-size: 13.0px; text-anchor: start" transform="rotate(295.1,601.4,137.2)">N65</text>
    <text x="730.4" y="244.8" font-family="'CMUSansSerif-DemiCondensed'" style="fill: rgb(0,0,0); font-size: 13.0px; text-anchor: start" transform="rotate(323.1,730.4,244.8)">N64</text>
    <text x="749.1" y="273.1" font-family="'CMUSansSerif-DemiCondensed'" style="fill: rgb(0,0,0); font-size: 13.0px; text-anchor: start" transform="rotate(328.7,749.1,273.1)">N68</text>
    <text x="777.7" y="334.5" font-family="'CMUSansSerif-DemiCondensed'" style="fill: rgb(0,0,0); font-size: 13.0px; text-anchor: start" transform="rotate(339.9,777.7,334.5)">N69</text>
    <text x="764.9" y="303.1" font-family="'CMUSansSerif-DemiCondensed'" style="fill: rgb(0,0,0); font-size: 13.0px; text-anchor: start" transform="rotate(334.3,764.9,303.1)">N67</text>
    <text x="570.2" y="123.9" font-family="'CMUSansSerif-DemiCondensed'" style="fill: rgb(0,0,0); font-size: 13.0px; text-anchor: start" transform="rotate(289.5,570.2,123.9)">N20</text>
    <text x="659.2" y="172.5" font-family="'CMUSansSerif-DemiCondensed'" style="fill: rgb(0,0,0); font-size: 13.0px; text-anchor: start" transform="rotate(306.3,659.2,172.5)">N70</text>
  </g>
  <script>function init(evt) {
    $(evt.target).bind('mouseover', doMouseOver);
    $(evt.target).bind('mouseup'  , doMouseUp);
    $(evt.target).bind('mousedown', doMouseDown);
}</script>
</svg>