<svg width="900px" height="900px" version="1.1" onload="init(evt)" xmlns="http://www.w3.org/2000/svg" xmlns:xlink="http://www.w3.org/1999/xlink">
  <g id="ideograms">
    <path d="M 450.000,197.625 A252.375,252.375 0.000 0,1 485.220,200.095 L 495.687,125.829 A327.375,327.375 0.000 0,0 450.000,122.625 Z " style="stroke: none;   fill: rgb(53,100,153); " class="N119"/>
    <text x="477.1" y="113.7" font-size="9.1px" font-family="'CMUBright-Roman'" style="text-anchor:start;fill:rgb(0,0,0)" transform="rotate(274.0,477.1,113.7)" class="N119"></text>
    <path d="M 485.796,200.177 A252.375,252.375 0.000 0,1 520.310,207.617 L 541.205,135.586 A327.375,327.375 0.000 0,0 496.434,125.935 Z " style="stroke: none;   fill: rgb(53,100,153); " class="N74"/>
    <text x="524.5" y="121.0" font-size="9.1px" font-family="'CMUBright-Roman'" style="text-anchor:start;fill:rgb(0,0,0)" transform="rotate(282.2,524.5,121.0)" class="N74"></text>
    <path d="M 520.869,207.780 A252.375,252.375 0.000 0,1 553.979,220.040 L 584.879,151.701 A327.375,327.375 0.000 0,0 541.930,135.797 Z " style="stroke: none;   fill: rgb(53,100,153); " class="N205"/>
    <text x="570.4" y="134.9" font-size="9.1px" font-family="'CMUBright-Roman'" style="text-anchor:start;fill:rgb(0,0,0)" transform="rotate(290.3,570.4,134.9)" class="N205"></text>
    <path d="M 554.509,220.280 A252.375,252.375 0.000 0,1 585.545,237.113 L 625.825,173.848 A327.375,327.375 0.000 0,0 585.566,152.013 Z " style="stroke: none;   fill: rgb(53,100,153); " class="N207"/>
    <text x="613.9" y="155.1" font-size="9.1px" font-family="'CMUBright-Roman'" style="text-anchor:start;fill:rgb(0,0,0)" transform="rotate(298.5,613.9,155.1)" class="N207"></text>
    <path d="M 586.035,237.426 A252.375,252.375 0.000 0,1 614.370,258.491 L 663.217,201.579 A327.375,327.375 0.000 0,0 626.462,174.254 Z " style="stroke: none;   fill: rgb(53,100,153); " class="N17"/>
    <text x="654.1" y="181.4" font-size="9.1px" font-family="'CMUBright-Roman'" style="text-anchor:start;fill:rgb(0,0,0)" transform="rotate(306.6,654.1,181.4)" class="N17"></text>
    <path d="M 614.811,258.870 A252.375,252.375 0.000 0,1 639.871,283.741 L 696.297,234.333 A327.375,327.375 0.000 0,0 663.789,202.071 Z " style="stroke: none;   fill: rgb(53,100,153); " class="N206"/>
    <text x="690.1" y="213.0" font-size="9.1px" font-family="'CMUBright-Roman'" style="text-anchor:start;fill:rgb(0,0,0)" transform="rotate(314.8,690.1,213.0)" class="N206"></text>
    <path d="M 647.887,277.527 A262.500,262.500 0.000 0,1 657.231,288.874 L 716.440,242.838 A337.500,337.500 0.000 0,0 704.426,228.249 Z " style="stroke: none;   fill: rgb(179,186,212); " class="C3"/>
    <text x="720.5" y="231.8" font-size="9.1px" font-family="'CMUBright-Roman'" style="text-anchor:start;fill:rgb(0,0,0)" transform="rotate(320.5,720.5,231.8)" class="C3"></text>
    <path d="M 657.602,289.352 A262.500,262.500 0.000 0,1 672.325,310.437 L 735.846,270.562 A337.500,337.500 0.000 0,0 716.916,243.452 Z " style="stroke: none;   fill: rgb(179,186,212); " class="C4"/>
    <text x="736.9" y="253.9" font-size="9.1px" font-family="'CMUBright-Roman'" style="text-anchor:start;fill:rgb(0,0,0)" transform="rotate(325.1,736.9,253.9)" class="C4"></text>
    <path d="M 672.646,310.949 A262.500,262.500 0.000 0,1 678.288,320.421 L 743.514,283.399 A337.500,337.500 0.000 0,0 736.259,271.221 Z " style="stroke: none;   fill: rgb(179,186,212); " class="C6"/>
    <text x="750.3" y="275.2" font-size="9.1px" font-family="'CMUBright-Roman'" style="text-anchor:start;fill:rgb(0,0,0)" transform="rotate(329.2,750.3,275.2)" class="C6"></text>
    <path d="M 678.586,320.947 A262.500,262.500 0.000 0,1 683.804,330.660 L 750.605,296.563 A337.500,337.500 0.000 0,0 743.897,284.075 Z " style="stroke: none;   fill: rgb(179,186,212); " class="C5"/>
    <text x="757.8" y="288.6" font-size="9.1px" font-family="'CMUBright-Roman'" style="text-anchor:start;fill:rgb(0,0,0)" transform="rotate(331.8,757.8,288.6)" class="C5"></text>
    <path d="M 684.078,331.199 A262.500,262.500 0.000 0,1 693.221,351.259 L 762.713,323.047 A337.500,337.500 0.000 0,0 750.957,297.255 Z " style="stroke: none;   fill: rgb(179,186,212); " class="C7"/>
    <text x="767.6" y="309.1" font-size="9.1px" font-family="'CMUBright-Roman'" style="text-anchor:start;fill:rgb(0,0,0)" transform="rotate(335.5,767.6,309.1)" class="C7"></text>
    <path d="M 693.448,351.819 A262.500,262.500 0.000 0,1 704.767,386.755 L 777.558,368.684 A337.500,337.500 0.000 0,0 763.004,323.768 Z " style="stroke: none;   fill: rgb(179,186,212); " class="C8"/>
    <text x="781.6" y="346.2" font-size="9.1px" font-family="'CMUBright-Roman'" style="text-anchor:start;fill:rgb(0,0,0)" transform="rotate(342.0,781.6,346.2)" class="C8"></text>
    <path d="M 704.912,387.341 A262.500,262.500 0.000 0,1 707.318,398.101 L 780.838,383.273 A337.500,337.500 0.000 0,0 777.744,369.439 Z " style="stroke: none;   fill: rgb(179,186,212); " class="C9"/>
    <text x="789.9" y="377.6" font-size="9.1px" font-family="'CMUBright-Roman'" style="text-anchor:start;fill:rgb(0,0,0)" transform="rotate(347.4,789.9,377.6)" class="C9"></text>
    <path d="M 697.507,400.673 A252.375,252.375 0.000 0,1 702.375,449.823 L 777.375,449.770 A327.375,327.375 0.000 0,0 771.061,386.014 Z " style="stroke: none;   fill: rgb(179,186,212); " class="C10"/>
    <text x="786.1" y="420.2" font-size="9.1px" font-family="'CMUBright-Roman'" style="text-anchor:start;fill:rgb(0,0,0)" transform="rotate(354.3,786.1,420.2)" class="C10"></text>
    <path d="M 702.375,450.404 A252.375,252.375 0.000 0,1 698.753,492.602 L 772.677,505.262 A327.375,327.375 0.000 0,0 777.375,450.524 Z " style="stroke: none;   fill: rgb(179,186,212); " class="C11"/>
    <text x="785.8" y="482.3" font-size="9.1px" font-family="'CMUBright-Roman'" style="text-anchor:start;fill:rgb(0,0,0)" transform="rotate(4.9,785.8,482.3)" class="C11"></text>
    <path d="M 708.630,494.907 A262.500,262.500 0.000 0,1 675.693,584.048 L 740.177,622.348 A337.500,337.500 0.000 0,0 782.525,507.737 Z " style="stroke: none;   fill: rgb(179,186,212); " class="C12"/>
    <text x="774.7" y="573.7" font-size="9.1px" font-family="'CMUBright-Roman'" style="text-anchor:start;fill:rgb(0,0,0)" transform="rotate(20.3,774.7,573.7)" class="C12"></text>
    <path d="M 675.384,584.568 A262.500,262.500 0.000 0,1 669.534,593.913 L 732.258,635.031 A337.500,337.500 0.000 0,0 739.779,623.015 Z " style="stroke: none;   fill: rgb(179,186,212); " class="C13"/>
    <text x="742.7" y="637.3" font-size="9.1px" font-family="'CMUBright-Roman'" style="text-anchor:start;fill:rgb(0,0,0)" transform="rotate(32.0,742.7,637.3)" class="C13"></text>
    <path d="M 669.202,594.418 A262.500,262.500 0.000 0,1 651.686,618.015 L 709.311,666.019 A337.500,337.500 0.000 0,0 731.831,635.681 Z " style="stroke: none;   fill: rgb(179,186,212); " class="C14"/>
    <text x="726.9" y="659.9" font-size="9.1px" font-family="'CMUBright-Roman'" style="text-anchor:start;fill:rgb(0,0,0)" transform="rotate(36.6,726.9,659.9)" class="C14"></text>
    <path d="M 651.299,618.479 A262.500,262.500 0.000 0,1 620.290,649.769 L 668.944,706.846 A337.500,337.500 0.000 0,0 708.812,666.616 Z " style="stroke: none;   fill: rgb(179,186,212); " class="C15"/>
    <text x="694.4" y="697.1" font-size="9.1px" font-family="'CMUBright-Roman'" style="text-anchor:start;fill:rgb(0,0,0)" transform="rotate(44.7,694.4,697.1)" class="C15"></text>
    <path d="M 619.829,650.160 A262.500,262.500 0.000 0,1 602.435,663.705 L 645.988,724.763 A337.500,337.500 0.000 0,0 668.352,707.349 Z " style="stroke: none;   fill: rgb(179,186,212); " class="C16"/>
    <text x="660.7" y="726.3" font-size="9.1px" font-family="'CMUBright-Roman'" style="text-anchor:start;fill:rgb(0,0,0)" transform="rotate(52.1,660.7,726.3)" class="C16"></text>
    <path d="M 601.943,664.055 A262.500,262.500 0.000 0,1 589.723,672.225 L 629.643,735.718 A337.500,337.500 0.000 0,0 645.355,725.214 Z " style="stroke: none;   fill: rgb(179,186,212); " class="C17"/>
    <text x="640.2" y="740.8" font-size="9.1px" font-family="'CMUBright-Roman'" style="text-anchor:start;fill:rgb(0,0,0)" transform="rotate(56.2,640.2,740.8)" class="C17"></text>
    <path d="M 583.841,663.962 A252.375,252.375 0.000 0,1 519.493,692.619 L 540.144,764.720 A327.375,327.375 0.000 0,0 623.615,727.547 Z " style="stroke: none;   fill: rgb(157,55,110); " class="E172"/>
    <text x="584.0" y="759.6" font-size="9.1px" font-family="'CMUBright-Roman'" style="text-anchor:start;fill:rgb(0,0,0)" transform="rotate(66.0,584.0,759.6)" class="E172"></text>
    <path d="M 518.933,692.778 A252.375,252.375 0.000 0,1 449.149,702.374 L 448.896,777.373 A327.375,327.375 0.000 0,0 539.419,764.927 Z " style="stroke: none;   fill: rgb(157,55,110); " class="E171"/>
    <text x="492.5" y="784.7" font-size="9.1px" font-family="'CMUBright-Roman'" style="text-anchor:start;fill:rgb(0,0,0)" transform="rotate(82.2,492.5,784.7)" class="E171"></text>
    <path d="M 448.567,702.371 A252.375,252.375 0.000 0,1 378.873,692.145 L 357.736,764.105 A327.375,327.375 0.000 0,0 448.142,777.370 Z " style="stroke: none;   fill: rgb(157,55,110); " class="E170"/>
    <text x="404.5" y="784.3" font-size="9.1px" font-family="'CMUBright-Roman'" style="text-anchor:end;fill:rgb(0,0,0)" transform="rotate(-81.7,404.5,784.3)" class="E170"></text>
    <path d="M 375.439,701.688 A262.500,262.500 0.000 0,1 293.649,660.857 L 248.978,721.102 A337.500,337.500 0.000 0,0 354.136,773.599 Z " style="stroke: none;   fill: rgb(179,186,212); " class="C19"/>
    <text x="297.9" y="762.5" font-size="9.1px" font-family="'CMUBright-Roman'" style="text-anchor:end;fill:rgb(0,0,0)" transform="rotate(-63.5,297.9,762.5)" class="C19"></text>
    <path d="M 293.164,660.497 A262.500,262.500 0.000 0,1 252.726,623.175 L 196.363,672.653 A337.500,337.500 0.000 0,0 248.354,720.638 Z " style="stroke: none;   fill: rgb(179,186,212); " class="C20"/>
    <text x="216.9" y="707.7" font-size="9.1px" font-family="'CMUBright-Roman'" style="text-anchor:end;fill:rgb(0,0,0)" transform="rotate(-47.3,216.9,707.7)" class="C20"></text>
    <path d="M 252.328,622.720 A262.500,262.500 0.000 0,1 228.172,590.351 L 164.792,630.452 A337.500,337.500 0.000 0,0 195.851,672.068 Z " style="stroke: none;   fill: rgb(179,186,212); " class="C21"/>
    <text x="173.6" y="660.6" font-size="9.1px" font-family="'CMUBright-Roman'" style="text-anchor:end;fill:rgb(0,0,0)" transform="rotate(-36.7,173.6,660.6)" class="C21"></text>
    <path d="M 227.849,589.840 A262.500,262.500 0.000 0,1 220.370,577.186 L 154.761,613.524 A337.500,337.500 0.000 0,0 164.377,629.794 Z " style="stroke: none;   fill: rgb(179,186,212); " class="C22"/>
    <text x="152.6" y="629.8" font-size="9.1px" font-family="'CMUBright-Roman'" style="text-anchor:end;fill:rgb(0,0,0)" transform="rotate(-30.6,152.6,629.8)" class="C22"></text>
    <path d="M 220.077,576.657 A262.500,262.500 0.000 0,1 194.868,511.755 L 121.973,529.400 A337.500,337.500 0.000 0,0 154.385,612.844 Z " style="stroke: none;   fill: rgb(179,186,212); " class="C23"/>
    <text x="127.4" y="579.1" font-size="9.1px" font-family="'CMUBright-Roman'" style="text-anchor:end;fill:rgb(0,0,0)" transform="rotate(-21.2,127.4,579.1)" class="C23"></text>
    <path d="M 194.726,511.168 A262.500,262.500 0.000 0,1 193.114,503.996 L 119.717,519.424 A337.500,337.500 0.000 0,0 121.791,528.644 Z " style="stroke: none;   fill: rgb(179,186,212); " class="C25"/>
    <text x="111.8" y="529.6" font-size="9.1px" font-family="'CMUBright-Roman'" style="text-anchor:end;fill:rgb(0,0,0)" transform="rotate(-12.7,111.8,529.6)" class="C25"></text>
    <path d="M 192.990,503.404 A262.500,262.500 0.000 0,1 189.415,481.651 L 114.962,490.694 A337.500,337.500 0.000 0,0 119.558,518.663 Z " style="stroke: none;   fill: rgb(179,186,212); " class="C24"/>
    <text x="107.7" y="509.8" font-size="9.1px" font-family="'CMUBright-Roman'" style="text-anchor:end;fill:rgb(0,0,0)" transform="rotate(-9.3,107.7,509.8)" class="C24"></text>
    <path d="M 189.343,481.050 A262.500,262.500 0.000 0,1 188.269,470.078 L 113.489,475.814 A337.500,337.500 0.000 0,0 114.869,489.922 Z " style="stroke: none;   fill: rgb(179,186,212); " class="C27"/>
    <text x="104.5" y="487.3" font-size="9.1px" font-family="'CMUBright-Roman'" style="text-anchor:end;fill:rgb(0,0,0)" transform="rotate(-5.6,104.5,487.3)" class="C27"></text>
    <path d="M 188.223,469.475 A262.500,262.500 0.000 0,1 209.865,343.974 L 141.255,313.681 A337.500,337.500 0.000 0,0 113.430,475.039 Z " style="stroke: none;   fill: rgb(179,186,212); " class="C26"/>
    <text x="107.0" y="394.4" font-size="9.1px" font-family="'CMUBright-Roman'" style="text-anchor:end;fill:rgb(0,0,0)" transform="rotate(9.8,107.0,394.4)" class="C26"></text>
    <path d="M 210.110,343.421 A262.500,262.500 0.000 0,1 441.442,187.640 L 438.996,112.679 A337.500,337.500 0.000 0,0 141.570,312.970 Z " style="stroke: none;   fill: rgb(179,186,212); " class="C2"/>
    <text x="253.0" y="163.7" font-size="9.1px" font-family="'CMUBright-Roman'" style="text-anchor:end;fill:rgb(0,0,0)" transform="rotate(56.0,253.0,163.7)" class="C2"></text>
    <path d="M 442.046,187.621 A262.500,262.500 0.000 0,1 449.395,187.501 L 449.223,112.501 A337.500,337.500 0.000 0,0 439.773,112.655 Z " style="stroke: none;   fill: rgb(179,186,212); " class="C1"/>
    <text x="440.8" y="102.6" font-size="9.1px" font-family="'CMUBright-Roman'" style="text-anchor:end;fill:rgb(0,0,0)" transform="rotate(89.1,440.8,102.6)" class="C1"></text>
  </g>
  <g id="E171">
    <path d="M 463.421,210.620 A 239.756,239.756 0.00 0,1 470.1,211.1 Q 475.5,421.4 685.1,403.1 A 239.756,239.756 0.00 0,1 689.8,449.8 Q 475.3,426.0 463.4,210.6 Z" style="stroke-width: 1.0;  stroke: rgb(180,180,180); fill: rgb(222,220,70);" opacity="0.5"/>
  </g>
  <g id="E171">
    <path d="M 463.421,210.620 A 239.756,239.756 0.00 0,1 470.1,211.1 Q 476.0,426.1 689.8,450.4 A 239.756,239.756 0.00 0,1 686.3,490.5 Q 475.0,430.1 463.4,210.6 Z" style="stroke-width: 1.0;  stroke: rgb(180,180,180); fill: rgb(222,220,70);" opacity="0.5"/>
  </g>
  <g id="E171">
    <path d="M 448.639,689.752 A 239.756,239.756 0.00 0,1 382.4,680.0 Q 457.3,453.6 590.3,255.6 A 239.756,239.756 0.00 0,1 595.7,259.6 Q 464.4,454.9 448.6,689.8 Z" style="stroke-width: 1.0;  stroke: rgb(180,180,180); fill: rgb(222,220,70);" opacity="0.5"/>
    <path d="M 577.149,653.264 A 239.756,239.756 0.00 0,1 516.0,680.5 Q 467.7,451.8 561.3,237.7 A 239.756,239.756 0.00 0,1 567.2,240.9 Q 474.4,449.4 577.1,653.3 Z" style="stroke-width: 1.0;  stroke: rgb(180,180,180); fill: rgb(222,220,70);" opacity="0.5"/>
    <path d="M 515.487,680.639 A 239.756,239.756 0.00 0,1 449.2,689.8 Q 451.3,450.0 463.4,210.6 A 239.756,239.756 0.00 0,1 470.1,211.1 Q 458.6,449.2 515.5,680.6 Z" style="stroke-width: 1.0;  stroke: rgb(180,180,180); fill: rgb(143,147,64);" opacity="0.8"/>
  </g>
  <g id="E171">
    <path d="M 463.421,210.620 A 239.756,239.756 0.00 0,1 470.1,211.1 Q 466.0,406.7 590.3,255.6 A 239.756,239.756 0.00 0,1 595.7,259.6 Q 465.9,407.0 463.4,210.6 Z" style="stroke-width: 1.0;  stroke: rgb(180,180,180); fill: rgb(222,220,70);" opacity="0.5"/>
    <path d="M 590.335,255.606 A 239.756,239.756 0.00 0,1 595.7,259.6 Q 465.9,407.0 463.4,210.6 A 239.756,239.756 0.00 0,1 470.1,211.1 Q 466.0,406.7 590.3,255.6 Z" style="stroke-width: 1.0;  stroke: rgb(180,180,180); fill: rgb(143,147,64);" opacity="0.8"/>
    <path d="M 463.421,210.620 A 239.756,239.756 0.00 0,1 470.1,211.1 Q 466.0,406.7 590.3,255.6 A 239.756,239.756 0.00 0,1 595.7,259.6 Q 465.9,407.0 463.4,210.6 Z" style="stroke-width: 1.0;  stroke: rgb(180,180,180); fill: rgb(143,147,64);" opacity="0.8"/>
    <path d="M 463.421,210.620 A 239.756,239.756 0.00 0,1 470.1,211.1 Q 456.7,402.6 497.2,214.9 A 239.756,239.756 0.00 0,1 503.8,216.4 Q 456.7,402.7 463.4,210.6 Z" style="stroke-width: 1.0;  stroke: rgb(180,180,180); fill: rgb(222,220,70);" opacity="0.5"/>
    <path d="M 497.238,214.943 A 239.756,239.756 0.00 0,1 503.8,216.4 Q 456.7,402.7 463.4,210.6 A 239.756,239.756 0.00 0,1 470.1,211.1 Q 456.7,402.6 497.2,214.9 Z" style="stroke-width: 1.0;  stroke: rgb(180,180,180); fill: rgb(143,147,64);" opacity="0.8"/>
    <path d="M 463.421,210.620 A 239.756,239.756 0.00 0,1 470.1,211.1 Q 456.7,402.6 497.2,214.9 A 239.756,239.756 0.00 0,1 503.8,216.4 Q 456.7,402.7 463.4,210.6 Z" style="stroke-width: 1.0;  stroke: rgb(180,180,180); fill: rgb(143,147,64);" opacity="0.8"/>
    <path d="M 616.489,277.476 A 239.756,239.756 0.00 0,1 621.3,282.2 Q 468.5,409.3 463.4,210.6 A 239.756,239.756 0.00 0,1 470.1,211.1 Q 468.7,408.9 616.5,277.5 Z" style="stroke-width: 1.0;  stroke: rgb(180,180,180); fill: rgb(222,220,70);" opacity="0.5"/>
    <path d="M 616.489,277.476 A 239.756,239.756 0.00 0,1 621.3,282.2 Q 475.1,410.6 530.1,224.0 A 239.756,239.756 0.00 0,1 536.4,226.4 Q 475.3,410.4 616.5,277.5 Z" style="stroke-width: 1.0;  stroke: rgb(180,180,180); fill: rgb(222,220,70);" opacity="0.5"/>
    <path d="M 561.343,237.666 A 239.756,239.756 0.00 0,1 567.2,240.9 Q 478.4,411.8 616.5,277.5 A 239.756,239.756 0.00 0,1 621.3,282.2 Q 478.3,412.0 561.3,237.7 Z" style="stroke-width: 1.0;  stroke: rgb(180,180,180); fill: rgb(222,220,70);" opacity="0.5"/>
  </g>
  <g id="E171"/>
  <g id="plot0">
    <g id="plot0-axis"/>
    <text x="478.5" y="103.7" font-family="'CMUSansSerif-DemiCondensed'" style="fill: rgb(0,0,0); font-size: 13.0px; text-anchor: start" transform="rotate(274.0,478.5,103.7)">N119</text>
    <text x="619.4" y="146.6" font-family="'CMUSansSerif-DemiCondensed'" style="fill: rgb(0,0,0); font-size: 13.0px; text-anchor: start" transform="rotate(298.5,619.4,146.6)">N207</text>
    <text x="697.8" y="206.3" font-family="'CMUSansSerif-DemiCondensed'" style="fill: rgb(0,0,0); font-size: 13.0px; text-anchor: start" transform="rotate(314.8,697.8,206.3)">N206</text>
    <text x="574.6" y="125.6" font-family="'CMUSansSerif-DemiCondensed'" style="fill: rgb(0,0,0); font-size: 13.0px; text-anchor: start" transform="rotate(290.3,574.6,125.6)">N205</text>
    <text x="660.7" y="173.7" font-family="'CMUSansSerif-DemiCondensed'" style="fill: rgb(0,0,0); font-size: 13.0px; text-anchor: start" transform="rotate(306.6,660.7,173.7)">N17</text>
    <text x="527.0" y="111.1" font-family="'CMUSansSerif-DemiCondensed'" style="fill: rgb(0,0,0); font-size: 13.0px; text-anchor: start" transform="rotate(282.2,527.0,111.1)">N74</text>
    <text x="796.2" y="420.0" font-family="'CMUSansSerif-DemiCondensed'" style="fill: rgb(0,0,0); font-size: 13.0px; text-anchor: start" transform="rotate(354.3,796.2,420.0)">C10</text>
    <text x="795.8" y="483.9" font-family="'CMUSansSerif-DemiCondensed'" style="fill: rgb(0,0,0); font-size: 13.0px; text-anchor: start" transform="rotate(4.9,795.8,483.9)">C11</text>
  </g>
  <script>function init(evt) {
    $(evt.target).bind('mouseover', doMouseOver);
    $(evt.target).bind('mouseup'  , doMouseUp);
    $(evt.target).bind('mousedown', doMouseDown);
}</script>
</svg>