<svg width="900px" height="900px" version="1.1" onload="init(evt)" xmlns="http://www.w3.org/2000/svg" xmlns:xlink="http://www.w3.org/1999/xlink">
  <g id="ideograms">
    <path d="M 450.000,197.625 A252.375,252.375 0.000 0,1 479.474,199.352 L 488.233,124.865 A327.375,327.375 0.000 0,0 450.000,122.625 Z " style="stroke: none;   fill: rgb(53,100,153); " class="N57"/>
    <text x="473.2" y="113.4" font-size="9.1px" font-family="'CMUBright-Roman'" style="text-anchor:start;fill:rgb(0,0,0)" transform="rotate(273.4,473.2,113.4)" class="N57"></text>
    <path d="M 479.959,199.410 A252.375,252.375 0.000 0,1 509.020,204.623 L 526.559,131.703 A327.375,327.375 0.000 0,0 488.863,124.940 Z " style="stroke: none;   fill: rgb(53,100,153); " class="N53"/>
    <text x="513.0" y="118.6" font-size="9.1px" font-family="'CMUBright-Roman'" style="text-anchor:start;fill:rgb(0,0,0)" transform="rotate(280.2,513.0,118.6)" class="N53"></text>
    <path d="M 509.495,204.738 A252.375,252.375 0.000 0,1 537.731,213.364 L 563.803,143.042 A327.375,327.375 0.000 0,0 527.176,131.852 Z " style="stroke: none;   fill: rgb(53,100,153); " class="N17"/>
    <text x="551.9" y="128.4" font-size="9.1px" font-family="'CMUBright-Roman'" style="text-anchor:start;fill:rgb(0,0,0)" transform="rotate(287.0,551.9,128.4)" class="N17"></text>
    <path d="M 538.189,213.535 A252.375,252.375 0.000 0,1 565.202,225.452 L 599.437,158.722 A327.375,327.375 0.000 0,0 564.397,143.263 Z " style="stroke: none;   fill: rgb(53,100,153); " class="N56"/>
    <text x="589.4" y="142.8" font-size="9.1px" font-family="'CMUBright-Roman'" style="text-anchor:start;fill:rgb(0,0,0)" transform="rotate(293.8,589.4,142.8)" class="N56"></text>
    <path d="M 565.636,225.676 A252.375,252.375 0.000 0,1 591.043,240.716 L 632.958,178.521 A327.375,327.375 0.000 0,0 600.001,159.012 Z " style="stroke: none;   fill: rgb(53,100,153); " class="N54"/>
    <text x="624.9" y="161.5" font-size="9.1px" font-family="'CMUBright-Roman'" style="text-anchor:start;fill:rgb(0,0,0)" transform="rotate(300.6,624.9,161.5)" class="N54"></text>
    <path d="M 591.448,240.989 A252.375,252.375 0.000 0,1 614.890,258.939 L 663.891,202.160 A327.375,327.375 0.000 0,0 633.483,178.876 Z " style="stroke: none;   fill: rgb(53,100,153); " class="N58"/>
    <text x="657.9" y="184.3" font-size="9.1px" font-family="'CMUBright-Roman'" style="text-anchor:start;fill:rgb(0,0,0)" transform="rotate(307.4,657.9,184.3)" class="N58"></text>
    <path d="M 615.260,259.258 A252.375,252.375 0.000 0,1 636.405,279.864 L 691.800,229.303 A327.375,327.375 0.000 0,0 664.371,202.574 Z " style="stroke: none;   fill: rgb(53,100,153); " class="N11"/>
    <text x="687.9" y="210.8" font-size="9.1px" font-family="'CMUBright-Roman'" style="text-anchor:start;fill:rgb(0,0,0)" transform="rotate(314.3,687.9,210.8)" class="N11"></text>
    <path d="M 636.734,280.225 A252.375,252.375 0.000 0,1 655.284,303.195 L 716.289,259.568 A327.375,327.375 0.000 0,0 692.227,229.772 Z " style="stroke: none;   fill: rgb(53,100,153); " class="N55"/>
    <text x="714.7" y="240.8" font-size="9.1px" font-family="'CMUBright-Roman'" style="text-anchor:start;fill:rgb(0,0,0)" transform="rotate(321.1,714.7,240.8)" class="N55"></text>
    <path d="M 655.567,303.593 A252.375,252.375 0.000 0,1 671.259,328.602 L 737.012,292.525 A327.375,327.375 0.000 0,0 716.657,260.084 Z " style="stroke: none;   fill: rgb(53,100,153); " class="N52"/>
    <text x="737.6" y="273.7" font-size="9.1px" font-family="'CMUBright-Roman'" style="text-anchor:start;fill:rgb(0,0,0)" transform="rotate(327.9,737.6,273.7)" class="N52"></text>
    <path d="M 680.380,324.177 A262.500,262.500 0.000 0,1 686.017,335.098 L 753.450,302.269 A337.500,337.500 0.000 0,0 746.203,288.228 Z " style="stroke: none;   fill: rgb(179,186,212); " class="C3"/>
    <text x="760.4" y="293.7" font-size="9.1px" font-family="'CMUBright-Roman'" style="text-anchor:start;fill:rgb(0,0,0)" transform="rotate(332.7,760.4,293.7)" class="C3"></text>
    <path d="M 686.238,335.555 A262.500,262.500 0.000 0,1 694.813,355.274 L 764.759,328.210 A337.500,337.500 0.000 0,0 753.735,302.856 Z " style="stroke: none;   fill: rgb(179,186,212); " class="C4"/>
    <text x="770.1" y="314.6" font-size="9.1px" font-family="'CMUBright-Roman'" style="text-anchor:start;fill:rgb(0,0,0)" transform="rotate(336.5,770.1,314.6)" class="C4"></text>
    <path d="M 694.995,355.748 A262.500,262.500 0.000 0,1 698.154,364.407 L 769.055,339.952 A337.500,337.500 0.000 0,0 764.994,328.819 Z " style="stroke: none;   fill: rgb(179,186,212); " class="C6"/>
    <text x="777.7" y="334.2" font-size="9.1px" font-family="'CMUBright-Roman'" style="text-anchor:start;fill:rgb(0,0,0)" transform="rotate(340.0,777.7,334.2)" class="C6"></text>
    <path d="M 698.319,364.888 A262.500,262.500 0.000 0,1 701.154,373.658 L 772.912,351.846 A337.500,337.500 0.000 0,0 769.267,340.570 Z " style="stroke: none;   fill: rgb(179,186,212); " class="C5"/>
    <text x="781.7" y="346.5" font-size="9.1px" font-family="'CMUBright-Roman'" style="text-anchor:start;fill:rgb(0,0,0)" transform="rotate(342.1,781.7,346.5)" class="C5"></text>
    <path d="M 691.608,377.070 A252.375,252.375 0.000 0,1 701.935,435.106 L 776.804,430.680 A327.375,327.375 0.000 0,0 763.408,355.397 Z " style="stroke: none;   fill: rgb(157,55,110); " class="E39"/>
    <text x="782.8" y="394.3" font-size="9.1px" font-family="'CMUBright-Roman'" style="text-anchor:start;fill:rgb(0,0,0)" transform="rotate(349.9,782.8,394.3)" class="E39"></text>
    <path d="M 701.964,435.594 A252.375,252.375 0.000 0,1 698.432,494.436 L 772.260,507.642 A327.375,327.375 0.000 0,0 776.841,431.313 Z " style="stroke: none;   fill: rgb(157,55,110); " class="E38"/>
    <text x="786.5" y="473.7" font-size="9.1px" font-family="'CMUBright-Roman'" style="text-anchor:start;fill:rgb(0,0,0)" transform="rotate(3.4,786.5,473.7)" class="E38"></text>
    <path d="M 698.346,494.917 A252.375,252.375 0.000 0,1 681.152,551.302 L 749.844,581.407 A327.375,327.375 0.000 0,0 772.148,508.266 Z " style="stroke: none;   fill: rgb(157,55,110); " class="E37"/>
    <text x="771.7" y="551.7" font-size="9.1px" font-family="'CMUBright-Roman'" style="text-anchor:start;fill:rgb(0,0,0)" transform="rotate(17.0,771.7,551.7)" class="E37"></text>
    <path d="M 680.955,551.750 A252.375,252.375 0.000 0,1 651.052,602.550 L 710.799,647.884 A327.375,327.375 0.000 0,0 749.589,581.987 Z " style="stroke: none;   fill: rgb(157,55,110); " class="E36"/>
    <text x="739.0" y="624.2" font-size="9.1px" font-family="'CMUBright-Roman'" style="text-anchor:start;fill:rgb(0,0,0)" transform="rotate(30.5,739.0,624.2)" class="E36"></text>
    <path d="M 650.756,602.939 A252.375,252.375 0.000 0,1 609.802,645.337 L 657.291,703.387 A327.375,327.375 0.000 0,0 710.416,648.389 Z " style="stroke: none;   fill: rgb(157,55,110); " class="E35"/>
    <text x="690.2" y="686.9" font-size="9.1px" font-family="'CMUBright-Roman'" style="text-anchor:start;fill:rgb(0,0,0)" transform="rotate(44.0,690.2,686.9)" class="E35"></text>
    <path d="M 609.423,645.646 A252.375,252.375 0.000 0,1 559.689,677.291 L 592.286,744.837 A327.375,327.375 0.000 0,0 656.800,703.788 Z " style="stroke: none;   fill: rgb(157,55,110); " class="E34"/>
    <text x="628.2" y="736.5" font-size="9.1px" font-family="'CMUBright-Roman'" style="text-anchor:start;fill:rgb(0,0,0)" transform="rotate(57.5,628.2,736.5)" class="E34"></text>
    <path d="M 563.632,686.631 A262.500,262.500 0.000 0,1 535.219,698.282 L 559.567,769.220 A337.500,337.500 0.000 0,0 596.098,754.239 Z " style="stroke: none;   fill: rgb(179,186,212); " class="C8"/>
    <text x="578.6" y="772.8" font-size="9.1px" font-family="'CMUBright-Roman'" style="text-anchor:start;fill:rgb(0,0,0)" transform="rotate(67.7,578.6,772.8)" class="C8"></text>
    <path d="M 534.739,698.446 A262.500,262.500 0.000 0,1 525.964,701.268 L 547.667,773.059 A337.500,337.500 0.000 0,0 558.950,769.431 Z " style="stroke: none;   fill: rgb(179,186,212); " class="C9"/>
    <text x="553.0" y="781.9" font-size="9.1px" font-family="'CMUBright-Roman'" style="text-anchor:start;fill:rgb(0,0,0)" transform="rotate(72.2,553.0,781.9)" class="C9"></text>
    <path d="M 525.477,701.415 A262.500,262.500 0.000 0,1 483.450,710.360 L 493.007,784.749 A337.500,337.500 0.000 0,0 547.042,773.248 Z " style="stroke: none;   fill: rgb(179,186,212); " class="C10"/>
    <text x="518.9" y="790.6" font-size="9.1px" font-family="'CMUBright-Roman'" style="text-anchor:start;fill:rgb(0,0,0)" transform="rotate(78.0,518.9,790.6)" class="C10"></text>
    <path d="M 482.946,710.424 A262.500,262.500 0.000 0,1 446.161,712.472 L 445.065,787.464 A337.500,337.500 0.000 0,0 492.359,784.831 Z " style="stroke: none;   fill: rgb(179,186,212); " class="C11"/>
    <text x="465.8" y="797.1" font-size="9.1px" font-family="'CMUBright-Roman'" style="text-anchor:start;fill:rgb(0,0,0)" transform="rotate(86.8,465.8,797.1)" class="C11"></text>
    <path d="M 445.654,712.464 A262.500,262.500 0.000 0,1 367.203,699.100 L 343.546,770.272 A337.500,337.500 0.000 0,0 444.412,787.454 Z " style="stroke: none;   fill: rgb(179,186,212); " class="C12"/>
    <text x="395.1" y="793.1" font-size="9.1px" font-family="'CMUBright-Roman'" style="text-anchor:end;fill:rgb(0,0,0)" transform="rotate(-80.3,395.1,793.1)" class="C12"></text>
    <path d="M 366.721,698.939 A262.500,262.500 0.000 0,1 358.032,695.862 L 331.756,766.108 A337.500,337.500 0.000 0,0 342.927,770.065 Z " style="stroke: none;   fill: rgb(179,186,212); " class="C13"/>
    <text x="337.3" y="778.7" font-size="9.1px" font-family="'CMUBright-Roman'" style="text-anchor:end;fill:rgb(0,0,0)" transform="rotate(-70.5,337.3,778.7)" class="C13"></text>
    <path d="M 357.557,695.684 A262.500,262.500 0.000 0,1 334.989,685.963 L 302.129,753.381 A337.500,337.500 0.000 0,0 331.145,765.879 Z " style="stroke: none;   fill: rgb(179,186,212); " class="C14"/>
    <text x="315.8" y="770.5" font-size="9.1px" font-family="'CMUBright-Roman'" style="text-anchor:end;fill:rgb(0,0,0)" transform="rotate(-66.7,315.8,770.5)" class="C14"></text>
    <path d="M 334.533,685.740 A262.500,262.500 0.000 0,1 302.666,667.253 L 260.570,729.325 A337.500,337.500 0.000 0,0 301.542,753.095 Z " style="stroke: none;   fill: rgb(179,186,212); " class="C15"/>
    <text x="278.7" y="752.3" font-size="9.1px" font-family="'CMUBright-Roman'" style="text-anchor:end;fill:rgb(0,0,0)" transform="rotate(-59.9,278.7,752.3)" class="C15"></text>
    <path d="M 302.246,666.968 A262.500,262.500 0.000 0,1 287.384,656.064 L 240.923,714.939 A337.500,337.500 0.000 0,0 260.030,728.958 Z " style="stroke: none;   fill: rgb(179,186,212); " class="C16"/>
    <text x="247.3" y="732.2" font-size="9.1px" font-family="'CMUBright-Roman'" style="text-anchor:end;fill:rgb(0,0,0)" transform="rotate(-53.7,247.3,732.2)" class="C16"></text>
    <path d="M 286.986,655.749 A262.500,262.500 0.000 0,1 277.535,647.894 L 228.259,704.435 A337.500,337.500 0.000 0,0 240.411,714.535 Z " style="stroke: none;   fill: rgb(179,186,212); " class="C17"/>
    <text x="230.6" y="719.5" font-size="9.1px" font-family="'CMUBright-Roman'" style="text-anchor:end;fill:rgb(0,0,0)" transform="rotate(-50.3,230.6,719.5)" class="C17"></text>
    <path d="M 277.152,647.560 A262.500,262.500 0.000 0,1 270.323,641.370 L 218.986,696.047 A337.500,337.500 0.000 0,0 227.767,704.006 Z " style="stroke: none;   fill: rgb(179,186,212); " class="C18"/>
    <text x="219.2" y="709.8" font-size="9.1px" font-family="'CMUBright-Roman'" style="text-anchor:end;fill:rgb(0,0,0)" transform="rotate(-47.8,219.2,709.8)" class="C18"></text>
    <path d="M 269.953,641.022 A262.500,262.500 0.000 0,1 222.502,580.962 L 157.503,618.379 A337.500,337.500 0.000 0,0 218.511,695.599 Z " style="stroke: none;   fill: rgb(179,186,212); " class="C19"/>
    <text x="179.5" y="668.2" font-size="9.1px" font-family="'CMUBright-Roman'" style="text-anchor:end;fill:rgb(0,0,0)" transform="rotate(-38.3,179.5,668.2)" class="C19"></text>
    <path d="M 222.249,580.521 A262.500,262.500 0.000 0,1 202.951,538.731 L 132.366,564.083 A337.500,337.500 0.000 0,0 157.178,617.813 Z " style="stroke: none;   fill: rgb(179,186,212); " class="C20"/>
    <text x="136.0" y="598.9" font-size="9.1px" font-family="'CMUBright-Roman'" style="text-anchor:end;fill:rgb(0,0,0)" transform="rotate(-24.8,136.0,598.9)" class="C20"></text>
    <path d="M 202.780,538.253 A262.500,262.500 0.000 0,1 193.495,505.779 L 120.207,521.715 A337.500,337.500 0.000 0,0 132.146,563.468 Z " style="stroke: none;   fill: rgb(179,186,212); " class="C21"/>
    <text x="116.9" y="548.9" font-size="9.1px" font-family="'CMUBright-Roman'" style="text-anchor:end;fill:rgb(0,0,0)" transform="rotate(-16.0,116.9,548.9)" class="C21"></text>
    <path d="M 193.387,505.282 A262.500,262.500 0.000 0,1 191.081,493.211 L 117.104,505.557 A337.500,337.500 0.000 0,0 120.069,521.077 Z " style="stroke: none;   fill: rgb(179,186,212); " class="C22"/>
    <text x="109.3" y="518.6" font-size="9.1px" font-family="'CMUBright-Roman'" style="text-anchor:end;fill:rgb(0,0,0)" transform="rotate(-10.8,109.3,518.6)" class="C22"></text>
    <path d="M 190.998,492.710 A262.500,262.500 0.000 0,1 187.956,434.529 L 113.087,430.109 A337.500,337.500 0.000 0,0 116.997,504.913 Z " style="stroke: none;   fill: rgb(179,186,212); " class="C23"/>
    <text x="103.2" y="471.6" font-size="9.1px" font-family="'CMUBright-Roman'" style="text-anchor:end;fill:rgb(0,0,0)" transform="rotate(-3.0,103.2,471.6)" class="C23"></text>
    <path d="M 187.987,434.023 A262.500,262.500 0.000 0,1 188.432,427.894 L 113.699,421.578 A337.500,337.500 0.000 0,0 113.126,429.458 Z " style="stroke: none;   fill: rgb(179,186,212); " class="C25"/>
    <text x="103.2" y="428.3" font-size="9.1px" font-family="'CMUBright-Roman'" style="text-anchor:end;fill:rgb(0,0,0)" transform="rotate(4.2,103.2,428.3)" class="C25"></text>
    <path d="M 188.476,427.388 A262.500,262.500 0.000 0,1 190.707,409.091 L 116.624,397.403 A337.500,337.500 0.000 0,0 113.755,420.927 Z " style="stroke: none;   fill: rgb(179,186,212); " class="C24"/>
    <text x="104.6" y="411.4" font-size="9.1px" font-family="'CMUBright-Roman'" style="text-anchor:end;fill:rgb(0,0,0)" transform="rotate(7.0,104.6,411.4)" class="C24"></text>
    <path d="M 190.787,408.590 A262.500,262.500 0.000 0,1 192.401,399.514 L 118.801,385.090 A337.500,337.500 0.000 0,0 116.726,396.758 Z " style="stroke: none;   fill: rgb(179,186,212); " class="C27"/>
    <text x="107.3" y="392.6" font-size="9.1px" font-family="'CMUBright-Roman'" style="text-anchor:end;fill:rgb(0,0,0)" transform="rotate(10.1,107.3,392.6)" class="C27"></text>
    <path d="M 192.499,399.016 A262.500,262.500 0.000 0,1 234.116,300.667 L 172.435,258.000 A337.500,337.500 0.000 0,0 118.927,384.450 Z " style="stroke: none;   fill: rgb(179,186,212); " class="C26"/>
    <text x="128.6" y="317.8" font-size="9.1px" font-family="'CMUBright-Roman'" style="text-anchor:end;fill:rgb(0,0,0)" transform="rotate(22.9,128.6,317.8)" class="C26"></text>
    <path d="M 234.405,300.249 A262.500,262.500 0.000 0,1 442.840,187.598 L 440.794,112.626 A337.500,337.500 0.000 0,0 172.807,257.464 Z " style="stroke: none;   fill: rgb(179,186,212); " class="C2"/>
    <text x="281.7" y="146.0" font-size="9.1px" font-family="'CMUBright-Roman'" style="text-anchor:end;fill:rgb(0,0,0)" transform="rotate(61.6,281.7,146.0)" class="C2"></text>
    <path d="M 443.348,187.584 A262.500,262.500 0.000 0,1 449.492,187.500 L 449.347,112.501 A337.500,337.500 0.000 0,0 441.447,112.608 Z " style="stroke: none;   fill: rgb(179,186,212); " class="C1"/>
    <text x="441.8" y="102.6" font-size="9.1px" font-family="'CMUBright-Roman'" style="text-anchor:end;fill:rgb(0,0,0)" transform="rotate(89.2,441.8,102.6)" class="C1"></text>
  </g>
  <g id="E39">
    <path d="M 601.452,635.864 A 239.756,239.756 0.00 0,1 554.2,665.9 Q 467.2,448.6 517.4,219.9 A 239.756,239.756 0.00 0,1 522.7,221.5 Q 472.4,445.7 601.5,635.9 Z" style="stroke-width: 1.0;  stroke: rgb(180,180,180); fill: rgb(222,220,70);" opacity="0.5"/>
    <path d="M 640.718,595.292 A 239.756,239.756 0.00 0,1 601.8,635.6 Q 469.1,444.9 489.6,213.5 A 239.756,239.756 0.00 0,1 495.1,214.5 Q 473.6,441.0 640.7,595.3 Z" style="stroke-width: 1.0;  stroke: rgb(180,180,180); fill: rgb(222,220,70);" opacity="0.5"/>
    <path d="M 669.407,546.662 A 239.756,239.756 0.00 0,1 641.0,594.9 Q 475.8,441.5 517.4,219.9 A 239.756,239.756 0.00 0,1 522.7,221.5 Q 479.2,436.8 669.4,546.7 Z" style="stroke-width: 1.0;  stroke: rgb(180,180,180); fill: rgb(222,220,70);" opacity="0.5"/>
    <path d="M 689.365,436.315 A 239.756,239.756 0.00 0,1 686.0,492.2 Q 474.7,430.3 461.2,210.5 A 239.756,239.756 0.00 0,1 466.8,210.8 Q 475.6,424.7 689.4,436.3 Z" style="stroke-width: 1.0;  stroke: rgb(180,180,180); fill: rgb(222,220,70);" opacity="0.5"/>
    <path d="M 679.527,380.717 A 239.756,239.756 0.00 0,1 689.3,435.9 Q 488.3,429.4 593.5,257.9 A 239.756,239.756 0.00 0,1 598.0,261.4 Q 487.8,424.2 679.5,380.7 Z" style="stroke-width: 1.0;  stroke: rgb(180,180,180); fill: rgb(143,147,64);" opacity="0.8"/>
    <path d="M 685.928,492.672 A 239.756,239.756 0.00 0,1 669.6,546.2 Q 478.7,436.6 517.4,219.9 A 239.756,239.756 0.00 0,1 522.7,221.5 Q 480.9,431.4 685.9,492.7 Z" style="stroke-width: 1.0;  stroke: rgb(180,180,180); fill: rgb(222,220,70);" opacity="0.5"/>
  </g>
  <g id="E39">
    <path d="M 593.522,257.947 A 239.756,239.756 0.00 0,1 598.0,261.4 Q 483.3,415.9 634.8,297.2 A 239.756,239.756 0.00 0,1 638.3,301.6 Q 483.2,416.0 593.5,257.9 Z" style="stroke-width: 1.0;  stroke: rgb(180,180,180); fill: rgb(143,147,64);" opacity="0.8"/>
    <path d="M 544.202,229.526 A 239.756,239.756 0.00 0,1 549.3,231.8 Q 466.7,405.2 517.4,219.9 A 239.756,239.756 0.00 0,1 522.7,221.5 Q 466.7,405.1 544.2,229.5 Z" style="stroke-width: 1.0;  stroke: rgb(180,180,180); fill: rgb(143,147,64);" opacity="0.8"/>
    <path d="M 517.364,219.902 A 239.756,239.756 0.00 0,1 522.7,221.5 Q 466.7,405.1 544.2,229.5 A 239.756,239.756 0.00 0,1 549.3,231.8 Q 466.7,405.2 517.4,219.9 Z" style="stroke-width: 1.0;  stroke: rgb(180,180,180); fill: rgb(222,220,70);" opacity="0.5"/>
    <path d="M 544.202,229.526 A 239.756,239.756 0.00 0,1 549.3,231.8 Q 466.7,405.2 517.4,219.9 A 239.756,239.756 0.00 0,1 522.7,221.5 Q 466.7,405.1 544.2,229.5 Z" style="stroke-width: 1.0;  stroke: rgb(180,180,180); fill: rgb(222,220,70);" opacity="0.5"/>
    <path d="M 489.572,213.532 A 239.756,239.756 0.00 0,1 495.1,214.5 Q 474.7,413.5 651.6,320.2 A 239.756,239.756 0.00 0,1 654.6,325.0 Q 474.4,413.8 489.6,213.5 Z" style="stroke-width: 1.0;  stroke: rgb(180,180,180); fill: rgb(143,147,64);" opacity="0.8"/>
    <path d="M 651.585,320.206 A 239.756,239.756 0.00 0,1 654.6,325.0 Q 474.4,413.8 489.6,213.5 A 239.756,239.756 0.00 0,1 495.1,214.5 Q 474.7,413.5 651.6,320.2 Z" style="stroke-width: 1.0;  stroke: rgb(180,180,180); fill: rgb(222,220,70);" opacity="0.5"/>
    <path d="M 489.572,213.532 A 239.756,239.756 0.00 0,1 495.1,214.5 Q 474.7,413.5 651.6,320.2 A 239.756,239.756 0.00 0,1 654.6,325.0 Q 474.4,413.8 489.6,213.5 Z" style="stroke-width: 1.0;  stroke: rgb(180,180,180); fill: rgb(222,220,70);" opacity="0.5"/>
    <path d="M 634.752,297.193 A 239.756,239.756 0.00 0,1 638.3,301.6 Q 480.8,414.4 569.7,242.3 A 239.756,239.756 0.00 0,1 574.5,245.1 Q 480.9,414.2 634.8,297.2 Z" style="stroke-width: 1.0;  stroke: rgb(180,180,180); fill: rgb(143,147,64);" opacity="0.8"/>
    <path d="M 489.572,213.532 A 239.756,239.756 0.00 0,1 495.1,214.5 Q 461.2,403.4 517.4,219.9 A 239.756,239.756 0.00 0,1 522.7,221.5 Q 461.2,403.5 489.6,213.5 Z" style="stroke-width: 1.0;  stroke: rgb(180,180,180); fill: rgb(143,147,64);" opacity="0.8"/>
    <path d="M 517.364,219.902 A 239.756,239.756 0.00 0,1 522.7,221.5 Q 461.2,403.5 489.6,213.5 A 239.756,239.756 0.00 0,1 495.1,214.5 Q 461.2,403.4 517.4,219.9 Z" style="stroke-width: 1.0;  stroke: rgb(180,180,180); fill: rgb(222,220,70);" opacity="0.5"/>
    <path d="M 489.572,213.532 A 239.756,239.756 0.00 0,1 495.1,214.5 Q 461.2,403.4 517.4,219.9 A 239.756,239.756 0.00 0,1 522.7,221.5 Q 461.2,403.5 489.6,213.5 Z" style="stroke-width: 1.0;  stroke: rgb(180,180,180); fill: rgb(222,220,70);" opacity="0.5"/>
    <path d="M 544.202,229.526 A 239.756,239.756 0.00 0,1 549.3,231.8 Q 476.5,410.8 615.3,276.3 A 239.756,239.756 0.00 0,1 619.3,280.3 Q 476.4,411.0 544.2,229.5 Z" style="stroke-width: 1.0;  stroke: rgb(180,180,180); fill: rgb(143,147,64);" opacity="0.8"/>
    <path d="M 615.306,276.342 A 239.756,239.756 0.00 0,1 619.3,280.3 Q 476.4,411.0 544.2,229.5 A 239.756,239.756 0.00 0,1 549.3,231.8 Q 476.5,410.8 615.3,276.3 Z" style="stroke-width: 1.0;  stroke: rgb(180,180,180); fill: rgb(222,220,70);" opacity="0.5"/>
    <path d="M 544.202,229.526 A 239.756,239.756 0.00 0,1 549.3,231.8 Q 476.5,410.8 615.3,276.3 A 239.756,239.756 0.00 0,1 619.3,280.3 Q 476.4,411.0 544.2,229.5 Z" style="stroke-width: 1.0;  stroke: rgb(180,180,180); fill: rgb(222,220,70);" opacity="0.5"/>
    <path d="M 634.752,297.193 A 239.756,239.756 0.00 0,1 638.3,301.6 Q 472.8,411.5 489.6,213.5 A 239.756,239.756 0.00 0,1 495.1,214.5 Q 473.0,411.2 634.8,297.2 Z" style="stroke-width: 1.0;  stroke: rgb(180,180,180); fill: rgb(143,147,64);" opacity="0.8"/>
    <path d="M 593.522,257.947 A 239.756,239.756 0.00 0,1 598.0,261.4 Q 471.5,408.1 517.4,219.9 A 239.756,239.756 0.00 0,1 522.7,221.5 Q 471.6,407.9 593.5,257.9 Z" style="stroke-width: 1.0;  stroke: rgb(180,180,180); fill: rgb(143,147,64);" opacity="0.8"/>
    <path d="M 593.522,257.947 A 239.756,239.756 0.00 0,1 598.0,261.4 Q 465.9,407.2 461.2,210.5 A 239.756,239.756 0.00 0,1 466.8,210.8 Q 466.0,406.9 593.5,257.9 Z" style="stroke-width: 1.0;  stroke: rgb(180,180,180); fill: rgb(143,147,64);" opacity="0.8"/>
    <path d="M 461.222,210.507 A 239.756,239.756 0.00 0,1 466.8,210.8 Q 461.1,404.0 544.2,229.5 A 239.756,239.756 0.00 0,1 549.3,231.8 Q 461.1,404.2 461.2,210.5 Z" style="stroke-width: 1.0;  stroke: rgb(180,180,180); fill: rgb(143,147,64);" opacity="0.8"/>
    <path d="M 544.202,229.526 A 239.756,239.756 0.00 0,1 549.3,231.8 Q 461.1,404.2 461.2,210.5 A 239.756,239.756 0.00 0,1 466.8,210.8 Q 461.1,404.0 544.2,229.5 Z" style="stroke-width: 1.0;  stroke: rgb(180,180,180); fill: rgb(222,220,70);" opacity="0.5"/>
    <path d="M 461.222,210.507 A 239.756,239.756 0.00 0,1 466.8,210.8 Q 461.1,404.0 544.2,229.5 A 239.756,239.756 0.00 0,1 549.3,231.8 Q 461.1,404.2 461.2,210.5 Z" style="stroke-width: 1.0;  stroke: rgb(180,180,180); fill: rgb(222,220,70);" opacity="0.5"/>
  </g>
  <g id="E39"/>
  <g id="plot0">
    <g id="plot0-axis"/>
    <text x="555.6" y="118.9" font-family="'CMUSansSerif-DemiCondensed'" style="fill: rgb(0,0,0); font-size: 13.0px; text-anchor: start" transform="rotate(287.0,555.6,118.9)">N17</text>
    <text x="515.5" y="108.7" font-family="'CMUSansSerif-DemiCondensed'" style="fill: rgb(0,0,0); font-size: 13.0px; text-anchor: start" transform="rotate(280.2,515.5,108.7)">N53</text>
    <text x="746.6" y="268.9" font-family="'CMUSansSerif-DemiCondensed'" style="fill: rgb(0,0,0); font-size: 13.0px; text-anchor: start" transform="rotate(327.9,746.6,268.9)">N52</text>
    <text x="474.2" y="103.3" font-family="'CMUSansSerif-DemiCondensed'" style="fill: rgb(0,0,0); font-size: 13.0px; text-anchor: start" transform="rotate(273.4,474.2,103.3)">N57</text>
    <text x="594.1" y="133.8" font-family="'CMUSansSerif-DemiCondensed'" style="fill: rgb(0,0,0); font-size: 13.0px; text-anchor: start" transform="rotate(293.8,594.1,133.8)">N56</text>
    <text x="695.5" y="204.1" font-family="'CMUSansSerif-DemiCondensed'" style="fill: rgb(0,0,0); font-size: 13.0px; text-anchor: start" transform="rotate(314.3,695.5,204.1)">N11</text>
    <text x="664.6" y="176.7" font-family="'CMUSansSerif-DemiCondensed'" style="fill: rgb(0,0,0); font-size: 13.0px; text-anchor: start" transform="rotate(307.4,664.6,176.7)">N58</text>
    <text x="722.8" y="234.7" font-family="'CMUSansSerif-DemiCondensed'" style="fill: rgb(0,0,0); font-size: 13.0px; text-anchor: start" transform="rotate(321.1,722.8,234.7)">N55</text>
    <text x="630.3" y="152.9" font-family="'CMUSansSerif-DemiCondensed'" style="fill: rgb(0,0,0); font-size: 13.0px; text-anchor: start" transform="rotate(300.6,630.3,152.9)">N54</text>
  </g>
  <script>function init(evt) {
    $(evt.target).bind('mouseover', doMouseOver);
    $(evt.target).bind('mouseup'  , doMouseUp);
    $(evt.target).bind('mousedown', doMouseDown);
}</script>
</svg>